<?xml version="1.0" standalone="no"?>
 <!DOCTYPE svg PUBLIC "-//W3C//DTD SVG 1.1//EN" 
 "http://www.w3.org/Graphics/SVG/1.1/DTD/svg11.dtd"> 
<svg xmlns="http://www.w3.org/2000/svg" version="1.1" 
    width="6.51256cm" height="5.6642cm" viewBox="0 0 25640 22300 ">
<title>SVG Picture created as ShittyAddonHat-Dwgs.User.svg date 2019/04/21 13:12:47 </title>
  <desc>Picture generated by PCBNEW </desc>
<g style="fill:#000000; fill-opacity:1;stroke:#000000; stroke-opacity:1;
stroke-linecap:round; stroke-linejoin:round; "
 transform="translate(0 0) scale(1 1)">
</g>
<g style="fill:#000000; fill-opacity:0.0; 
stroke:#000000; stroke-width:-0.000393701; stroke-opacity:1; 
stroke-linecap:round; stroke-linejoin:round;">
</g>
<g style="fill:#000000; fill-opacity:0.0; 
stroke:#000000; stroke-width:59.0551; stroke-opacity:1; 
stroke-linecap:round; stroke-linejoin:round;">
<path d="M1210 29
L24438 29
" />
<path d="M25620.1 1210.63 A1181.1 1181.1 0.0 0 0 24439 29.528 " />
<path d="M25620 1210
L25620 21092
" />
<path d="M24439 22273.6 A1181.1 1181.1 0.0 0 0 25620.1 21092.5 " />
<path d="M24438 22273
L1210 22273
" />
<path d="M29.528 21092.5 A1181.1 1181.1 0.0 0 0 1210.63 22273.6 " />
<path d="M1210.63 29.528 A1181.1 1181.1 0.0 0 0 29.528 1210.63 " />
<path d="M423.229 14596.5 A393.701 393.701 0.0 0 0 29.528 14990.2 " />
<path d="M423 14596
L1604 14596
" />
<path d="M1604.33 14596.5 A393.701 393.701 0.0 0 0 1998.03 14202.8 " />
<path d="M1998 14202
L1998 8297
" />
<path d="M1998.03 8297.24 A393.701 393.701 0.0 0 0 1604.33 7903.54 " />
<path d="M1604 7903
L127 7903
" />
<path d="M29.528 7805.12 A98.4252 98.4252 0.0 0 0 127.953 7903.54 " />
<path d="M29 7312
L29 7805
" />
<path d="M29 7805
L29 1210
" />
<path d="M29 21092
L29 14990
" />
</g> 
</svg>
