<?xml version="1.0" standalone="no"?>
 <!DOCTYPE svg PUBLIC "-//W3C//DTD SVG 1.1//EN" 
 "http://www.w3.org/Graphics/SVG/1.1/DTD/svg11.dtd"> 
<svg xmlns="http://www.w3.org/2000/svg" version="1.1" 
    width="6.51256cm" height="5.6642cm" viewBox="0 0 25640 22300 ">
<title>SVG Picture created as ShittyAddonHat-F.SilkS.svg date 2019/04/21 13:12:47 </title>
  <desc>Picture generated by PCBNEW </desc>
<g style="fill:#000000; fill-opacity:1;stroke:#000000; stroke-opacity:1;
stroke-linecap:round; stroke-linejoin:round; "
 transform="translate(0 0) scale(1 1)">
</g>
<g style="fill:#000000; fill-opacity:0.0; 
stroke:#000000; stroke-width:-0.000393701; stroke-opacity:1; 
stroke-linecap:round; stroke-linejoin:round;">
</g>
<g style="fill:#000000; fill-opacity:0.0; 
stroke:#000000; stroke-width:78.7402; stroke-opacity:1; 
stroke-linecap:round; stroke-linejoin:round;">
<path d="M17876 20978
L17820 20950
L17735 20950
L17651 20978
L17595 21034
L17567 21090
L17539 21203
L17539 21287
L17567 21400
L17595 21456
L17651 21512
L17735 21540
L17792 21540
L17876 21512
L17904 21484
L17904 21287
L17792 21287
" />
<path d="M18157 21540
L18157 20950
L18382 20950
L18438 20978
L18467 21006
L18495 21062
L18495 21147
L18467 21203
L18438 21231
L18382 21259
L18157 21259
" />
<path d="M18748 21540
L18748 20950
" />
<path d="M19142 20950
L19254 20950
L19310 20978
L19366 21034
L19395 21147
L19395 21343
L19366 21456
L19310 21512
L19254 21540
L19142 21540
L19085 21512
L19029 21456
L19001 21343
L19001 21147
L19029 21034
L19085 20978
L19142 20950
" />
<path d="M19957 21540
L19620 21540
" />
<path d="M19788 21540
L19788 20950
L19732 21034
L19676 21090
L19620 21118
" />
<path d="M20154 20950
L20548 20950
L20294 21540
" />
<path d="M17876 15478
L17820 15450
L17735 15450
L17651 15478
L17595 15534
L17567 15590
L17539 15703
L17539 15787
L17567 15900
L17595 15956
L17651 16012
L17735 16040
L17792 16040
L17876 16012
L17904 15984
L17904 15787
L17792 15787
" />
<path d="M18157 16040
L18157 15450
L18382 15450
L18438 15478
L18467 15506
L18495 15562
L18495 15647
L18467 15703
L18438 15731
L18382 15759
L18157 15759
" />
<path d="M18748 16040
L18748 15450
" />
<path d="M19142 15450
L19254 15450
L19310 15478
L19366 15534
L19395 15647
L19395 15843
L19366 15956
L19310 16012
L19254 16040
L19142 16040
L19085 16012
L19029 15956
L19001 15843
L19001 15647
L19029 15534
L19085 15478
L19142 15450
" />
<path d="M19620 15506
L19648 15478
L19704 15450
L19845 15450
L19901 15478
L19929 15506
L19957 15562
L19957 15618
L19929 15703
L19591 16040
L19957 16040
" />
<path d="M20154 15450
L20548 15450
L20294 16040
" />
<path d="M24734 18926
L24706 18982
L24706 19067
L24734 19151
L24790 19207
L24846 19235
L24959 19264
L25043 19264
L25156 19235
L25212 19207
L25268 19151
L25296 19067
L25296 19010
L25268 18926
L25240 18898
L25043 18898
L25043 19010
" />
<path d="M25296 18645
L24706 18645
L24706 18420
L24734 18364
L24762 18336
L24818 18307
L24902 18307
L24959 18336
L24987 18364
L25015 18420
L25015 18645
" />
<path d="M25296 18054
L24706 18054
" />
<path d="M24706 17661
L24706 17548
L24734 17492
L24790 17436
L24902 17408
L25099 17408
L25212 17436
L25268 17492
L25296 17548
L25296 17661
L25268 17717
L25212 17773
L25099 17801
L24902 17801
L24790 17773
L24734 17717
L24706 17661
" />
<path d="M24762 17183
L24734 17154
L24706 17098
L24706 16958
L24734 16901
L24762 16873
L24818 16845
L24874 16845
L24959 16873
L25296 17211
L25296 16845
" />
<path d="M24762 16620
L24734 16592
L24706 16536
L24706 16395
L24734 16339
L24762 16311
L24818 16283
L24874 16283
L24959 16311
L25296 16648
L25296 16283
" />
</g>
<g style="fill:#000000; fill-opacity:0.0; 
stroke:#000000; stroke-width:60; stroke-opacity:1; 
stroke-linecap:round; stroke-linejoin:round;">
<circle cx="5229.53" cy="15823.6" r="1000" /> 
<circle cx="8229.53" cy="15823.6" r="1000" /> 
<circle cx="11229.5" cy="15823.6" r="1000" /> 
</g>
<g style="fill:#000000; fill-opacity:0.0; 
stroke:#000000; stroke-width:98.4252; stroke-opacity:1; 
stroke-linecap:round; stroke-linejoin:round;">
<path d="M4442 15500
L4638 16090
L4835 15500
" />
<path d="M5370 16034
L5342 16062
L5257 16090
L5201 16090
L5117 16062
L5060 16006
L5032 15950
L5004 15837
L5004 15753
L5032 15640
L5060 15584
L5117 15528
L5201 15500
L5257 15500
L5342 15528
L5370 15556
" />
<path d="M5960 16034
L5932 16062
L5848 16090
L5791 16090
L5707 16062
L5651 16006
L5623 15950
L5595 15837
L5595 15753
L5623 15640
L5651 15584
L5707 15528
L5791 15500
L5848 15500
L5932 15528
L5960 15556
" />
<path d="M7512 16062
L7596 16090
L7737 16090
L7793 16062
L7821 16034
L7849 15978
L7849 15922
L7821 15865
L7793 15837
L7737 15809
L7624 15781
L7568 15753
L7540 15725
L7512 15668
L7512 15612
L7540 15556
L7568 15528
L7624 15500
L7765 15500
L7849 15528
" />
<path d="M8102 16090
L8102 15500
L8243 15500
L8327 15528
L8384 15584
L8412 15640
L8440 15753
L8440 15837
L8412 15950
L8384 16006
L8327 16062
L8243 16090
L8102 16090
" />
<path d="M8665 15922
L8946 15922
" />
<path d="M8609 16090
L8806 15500
L9002 16090
" />
</g>
<g style="fill:#000000; fill-opacity:0.0; 
stroke:#000000; stroke-width:75; stroke-opacity:1; 
stroke-linecap:round; stroke-linejoin:round;">
<path d="M10754 15192
L10709 15169
L10641 15169
L10573 15192
L10528 15237
L10505 15282
L10483 15373
L10483 15441
L10505 15531
L10528 15576
L10573 15622
L10641 15644
L10686 15644
L10754 15622
L10777 15599
L10777 15441
L10686 15441
" />
<path d="M10980 15644
L10980 15169
L11161 15169
L11206 15192
L11229 15214
L11252 15260
L11252 15328
L11229 15373
L11206 15395
L11161 15418
L10980 15418
" />
<path d="M11455 15644
L11455 15169
" />
<path d="M11772 15169
L11862 15169
L11908 15192
L11953 15237
L11975 15328
L11975 15486
L11953 15576
L11908 15622
L11862 15644
L11772 15644
L11727 15622
L11681 15576
L11659 15486
L11659 15328
L11681 15237
L11727 15192
L11772 15169
" />
<path d="M11365 16432
L11093 16432
" />
<path d="M11229 16432
L11229 15957
L11184 16025
L11139 16070
L11093 16092
" />
</g>
<g style="fill:#000000; fill-opacity:0.0; 
stroke:#000000; stroke-width:98.4252; stroke-opacity:1; 
stroke-linecap:round; stroke-linejoin:round;">
<path d="M11769 10905
L11769 10314
L11909 10314
L11994 10343
L12050 10399
L12078 10455
L12106 10568
L12106 10652
L12078 10764
L12050 10821
L11994 10877
L11909 10905
L11769 10905
" />
<path d="M12584 10877
L12528 10905
L12415 10905
L12359 10877
L12331 10821
L12331 10596
L12359 10539
L12415 10511
L12528 10511
L12584 10539
L12612 10596
L12612 10652
L12331 10708
" />
<path d="M12809 10511
L12950 10905
L13090 10511
" />
<path d="M13540 10877
L13484 10905
L13372 10905
L13315 10877
L13287 10821
L13287 10596
L13315 10539
L13372 10511
L13484 10511
L13540 10539
L13568 10596
L13568 10652
L13287 10708
" />
<path d="M13906 10905
L13850 10877
L13821 10821
L13821 10314
" />
<path d="M14215 10905
L14159 10877
L14131 10849
L14103 10793
L14103 10624
L14131 10568
L14159 10539
L14215 10511
L14300 10511
L14356 10539
L14384 10568
L14412 10624
L14412 10793
L14384 10849
L14356 10877
L14300 10905
L14215 10905
" />
<path d="M14665 10511
L14665 11102
" />
<path d="M14665 10539
L14721 10511
L14834 10511
L14890 10539
L14918 10568
L14946 10624
L14946 10793
L14918 10849
L14890 10877
L14834 10905
L14721 10905
L14665 10877
" />
<path d="M15424 10877
L15368 10905
L15256 10905
L15199 10877
L15171 10821
L15171 10596
L15199 10539
L15256 10511
L15368 10511
L15424 10539
L15453 10596
L15453 10652
L15171 10708
" />
<path d="M15706 10905
L15706 10511
" />
<path d="M15706 10624
L15734 10568
L15762 10539
L15818 10511
L15874 10511
" />
<path d="M16043 10877
L16099 10905
L16212 10905
L16268 10877
L16296 10821
L16296 10793
L16268 10736
L16212 10708
L16127 10708
L16071 10680
L16043 10624
L16043 10596
L16071 10539
L16127 10511
L16212 10511
L16268 10539
" />
<path d="M16999 10596
L17196 10596
" />
<path d="M17280 10905
L16999 10905
L16999 10314
L17280 10314
" />
<path d="M17787 10905
L17787 10314
" />
<path d="M17787 10877
L17730 10905
L17618 10905
L17562 10877
L17534 10849
L17505 10793
L17505 10624
L17534 10568
L17562 10539
L17618 10511
L17730 10511
L17787 10539
" />
<path d="M18068 10905
L18068 10511
" />
<path d="M18068 10314
L18040 10343
L18068 10371
L18096 10343
L18068 10314
L18068 10371
" />
<path d="M18265 10511
L18490 10511
" />
<path d="M18349 10314
L18349 10821
L18377 10877
L18433 10905
L18490 10905
" />
<path d="M18686 10905
L18686 10511
" />
<path d="M18686 10314
L18658 10343
L18686 10371
L18715 10343
L18686 10314
L18686 10371
" />
<path d="M19052 10905
L18996 10877
L18968 10849
L18940 10793
L18940 10624
L18968 10568
L18996 10539
L19052 10511
L19136 10511
L19193 10539
L19221 10568
L19249 10624
L19249 10793
L19221 10849
L19193 10877
L19136 10905
L19052 10905
" />
<path d="M19502 10511
L19502 10905
" />
<path d="M19502 10568
L19530 10539
L19586 10511
L19671 10511
L19727 10539
L19755 10596
L19755 10905
" />
<path d="M20683 10596
L20767 10624
L20796 10652
L20824 10708
L20824 10793
L20796 10849
L20767 10877
L20711 10905
L20486 10905
L20486 10314
L20683 10314
L20739 10343
L20767 10371
L20796 10427
L20796 10483
L20767 10539
L20739 10568
L20683 10596
L20486 10596
" />
<path d="M21161 10905
L21105 10877
L21077 10821
L21077 10314
" />
<path d="M21639 10905
L21639 10596
L21611 10539
L21555 10511
L21442 10511
L21386 10539
" />
<path d="M21639 10877
L21583 10905
L21442 10905
L21386 10877
L21358 10821
L21358 10764
L21386 10708
L21442 10680
L21583 10680
L21639 10652
" />
<path d="M22174 10877
L22117 10905
L22005 10905
L21949 10877
L21920 10849
L21892 10793
L21892 10624
L21920 10568
L21949 10539
L22005 10511
L22117 10511
L22174 10539
" />
<path d="M22427 10905
L22427 10314
" />
<path d="M22483 10680
L22652 10905
" />
<path d="M22652 10511
L22427 10736
" />
<path d="M3240 20893
L3325 20921
L3465 20921
L3522 20893
L3550 20865
L3578 20808
L3578 20752
L3550 20696
L3522 20668
L3465 20640
L3353 20611
L3297 20583
L3269 20555
L3240 20499
L3240 20443
L3269 20386
L3297 20358
L3353 20330
L3494 20330
L3578 20358
" />
<path d="M3831 20921
L3831 20330
" />
<path d="M4084 20921
L4084 20611
L4056 20555
L4000 20527
L3915 20527
L3859 20555
L3831 20583
" />
<path d="M4365 20921
L4365 20527
" />
<path d="M4365 20330
L4337 20358
L4365 20386
L4393 20358
L4365 20330
L4365 20386
" />
<path d="M4562 20527
L4787 20527
" />
<path d="M4647 20330
L4647 20836
L4675 20893
L4731 20921
L4787 20921
" />
<path d="M4900 20527
L5125 20527
" />
<path d="M4984 20330
L4984 20836
L5012 20893
L5068 20921
L5125 20921
" />
<path d="M5265 20527
L5406 20921
" />
<path d="M5546 20527
L5406 20921
L5350 21061
L5321 21089
L5265 21118
" />
<path d="M6193 20752
L6474 20752
" />
<path d="M6137 20921
L6334 20330
L6531 20921
" />
<path d="M6981 20921
L6981 20330
" />
<path d="M6981 20893
L6924 20921
L6812 20921
L6756 20893
L6728 20865
L6699 20808
L6699 20640
L6728 20583
L6756 20555
L6812 20527
L6924 20527
L6981 20555
" />
<path d="M7515 20921
L7515 20330
" />
<path d="M7515 20893
L7459 20921
L7346 20921
L7290 20893
L7262 20865
L7234 20808
L7234 20640
L7262 20583
L7290 20555
L7346 20527
L7459 20527
L7515 20555
" />
<path d="M7796 20696
L8246 20696
" />
<path d="M8640 20330
L8752 20330
L8809 20358
L8865 20415
L8893 20527
L8893 20724
L8865 20836
L8809 20893
L8752 20921
L8640 20921
L8584 20893
L8527 20836
L8499 20724
L8499 20527
L8527 20415
L8584 20358
L8640 20330
" />
<path d="M9146 20527
L9146 20921
" />
<path d="M9146 20583
L9174 20555
L9230 20527
L9315 20527
L9371 20555
L9399 20611
L9399 20921
" />
<path d="M10046 20330
L10243 20921
L10440 20330
" />
<path d="M10636 20865
L10665 20893
L10636 20921
L10608 20893
L10636 20865
L10636 20921
" />
<path d="M11677 20921
L11339 20921
" />
<path d="M11508 20921
L11508 20330
L11452 20415
L11396 20471
L11339 20499
" />
<path d="M11930 20865
L11958 20893
L11930 20921
L11902 20893
L11930 20865
L11930 20921
" />
<path d="M12464 20330
L12352 20330
L12296 20358
L12267 20386
L12211 20471
L12183 20583
L12183 20808
L12211 20865
L12239 20893
L12296 20921
L12408 20921
L12464 20893
L12492 20865
L12521 20808
L12521 20668
L12492 20611
L12464 20583
L12408 20555
L12296 20555
L12239 20583
L12211 20611
L12183 20668
" />
<path d="M12802 20921
L12914 20921
L12971 20893
L12999 20865
L13055 20780
L13083 20668
L13083 20443
L13055 20386
L13027 20358
L12971 20330
L12858 20330
L12802 20358
L12774 20386
L12746 20443
L12746 20583
L12774 20640
L12802 20668
L12858 20696
L12971 20696
L13027 20668
L13055 20640
L13083 20583
" />
<path d="M13336 20921
L13336 20330
" />
<path d="M13336 20555
L13392 20527
L13505 20527
L13561 20555
L13589 20583
L13617 20640
L13617 20808
L13589 20865
L13561 20893
L13505 20921
L13392 20921
L13336 20893
" />
<path d="M13870 20921
L13870 20527
" />
<path d="M13870 20330
L13842 20358
L13870 20386
L13899 20358
L13870 20330
L13870 20386
" />
<path d="M14124 20893
L14180 20921
L14292 20921
L14348 20893
L14377 20836
L14377 20808
L14348 20752
L14292 20724
L14208 20724
L14152 20696
L14124 20640
L14124 20611
L14152 20555
L14208 20527
L14292 20527
L14348 20555
" />
<path d="M3269 21905
L3269 21314
L3494 21314
L3550 21343
L3578 21371
L3606 21427
L3606 21511
L3578 21568
L3550 21596
L3494 21624
L3269 21624
" />
<path d="M3859 21905
L3859 21511
" />
<path d="M3859 21314
L3831 21343
L3859 21371
L3887 21343
L3859 21314
L3859 21371
" />
<path d="M4590 21905
L4590 21314
L4731 21314
L4815 21343
L4872 21399
L4900 21455
L4928 21568
L4928 21652
L4900 21764
L4872 21821
L4815 21877
L4731 21905
L4590 21905
" />
<path d="M5406 21877
L5350 21905
L5237 21905
L5181 21877
L5153 21821
L5153 21596
L5181 21539
L5237 21511
L5350 21511
L5406 21539
L5434 21596
L5434 21652
L5153 21708
" />
<path d="M5631 21511
L5771 21905
L5912 21511
" />
<path d="M6362 21877
L6306 21905
L6193 21905
L6137 21877
L6109 21821
L6109 21596
L6137 21539
L6193 21511
L6306 21511
L6362 21539
L6390 21596
L6390 21652
L6109 21708
" />
<path d="M6728 21905
L6671 21877
L6643 21821
L6643 21314
" />
<path d="M7037 21905
L6981 21877
L6953 21849
L6924 21793
L6924 21624
L6953 21568
L6981 21539
L7037 21511
L7121 21511
L7177 21539
L7206 21568
L7234 21624
L7234 21793
L7206 21849
L7177 21877
L7121 21905
L7037 21905
" />
<path d="M7487 21511
L7487 22102
" />
<path d="M7487 21539
L7543 21511
L7656 21511
L7712 21539
L7740 21568
L7768 21624
L7768 21793
L7740 21849
L7712 21877
L7656 21905
L7543 21905
L7487 21877
" />
<path d="M8021 21905
L8021 21511
" />
<path d="M8021 21568
L8049 21539
L8106 21511
L8190 21511
L8246 21539
L8274 21596
L8274 21905
" />
<path d="M8274 21596
L8302 21539
L8359 21511
L8443 21511
L8499 21539
L8527 21596
L8527 21905
" />
<path d="M9034 21877
L8977 21905
L8865 21905
L8809 21877
L8780 21821
L8780 21596
L8809 21539
L8865 21511
L8977 21511
L9034 21539
L9062 21596
L9062 21652
L8780 21708
" />
<path d="M9315 21511
L9315 21905
" />
<path d="M9315 21568
L9343 21539
L9399 21511
L9483 21511
L9540 21539
L9568 21596
L9568 21905
" />
<path d="M9765 21511
L9990 21511
" />
<path d="M9849 21314
L9849 21821
L9877 21877
L9933 21905
L9990 21905
" />
<path d="M10636 21905
L10636 21314
L10861 21314
L10918 21343
L10946 21371
L10974 21427
L10974 21511
L10946 21568
L10918 21596
L10861 21624
L10636 21624
" />
<path d="M11311 21905
L11255 21877
L11227 21821
L11227 21314
" />
<path d="M11789 21905
L11789 21596
L11761 21539
L11705 21511
L11593 21511
L11536 21539
" />
<path d="M11789 21877
L11733 21905
L11593 21905
L11536 21877
L11508 21821
L11508 21764
L11536 21708
L11593 21680
L11733 21680
L11789 21652
" />
<path d="M11986 21511
L12211 21511
" />
<path d="M12071 21314
L12071 21821
L12099 21877
L12155 21905
L12211 21905
" />
<path d="M12324 21511
L12549 21511
" />
<path d="M12408 21905
L12408 21399
L12436 21343
L12492 21314
L12549 21314
" />
<path d="M12830 21905
L12774 21877
L12746 21849
L12717 21793
L12717 21624
L12746 21568
L12774 21539
L12830 21511
L12914 21511
L12971 21539
L12999 21568
L13027 21624
L13027 21793
L12999 21849
L12971 21877
L12914 21905
L12830 21905
" />
<path d="M13280 21905
L13280 21511
" />
<path d="M13280 21624
L13308 21568
L13336 21539
L13392 21511
L13449 21511
" />
<path d="M13645 21905
L13645 21511
" />
<path d="M13645 21568
L13674 21539
L13730 21511
L13814 21511
L13870 21539
L13899 21596
L13899 21905
" />
<path d="M13899 21596
L13927 21539
L13983 21511
L14067 21511
L14124 21539
L14152 21596
L14152 21905
" />
</g>
<g style="fill:#000000; fill-opacity:0.0; 
stroke:#000000; stroke-width:60; stroke-opacity:1; 
stroke-linecap:round; stroke-linejoin:round;">
<circle cx="5229.53" cy="18823.6" r="1000" /> 
<circle cx="8229.53" cy="18823.6" r="1000" /> 
<circle cx="11229.5" cy="18823.6" r="1000" /> 
</g>
<g style="fill:#000000; fill-opacity:0.0; 
stroke:#000000; stroke-width:98.4252; stroke-opacity:1; 
stroke-linecap:round; stroke-linejoin:round;">
<path d="M4779 18528
L4723 18500
L4638 18500
L4554 18528
L4498 18584
L4470 18640
L4442 18753
L4442 18837
L4470 18950
L4498 19006
L4554 19062
L4638 19090
L4695 19090
L4779 19062
L4807 19034
L4807 18837
L4695 18837
" />
<path d="M5060 19090
L5060 18500
L5398 19090
L5398 18500
" />
<path d="M5679 19090
L5679 18500
L5820 18500
L5904 18528
L5960 18584
L5988 18640
L6016 18753
L6016 18837
L5988 18950
L5960 19006
L5904 19062
L5820 19090
L5679 19090
" />
<path d="M7526 19062
L7610 19090
L7751 19090
L7807 19062
L7835 19034
L7863 18978
L7863 18922
L7835 18865
L7807 18837
L7751 18809
L7638 18781
L7582 18753
L7554 18725
L7526 18668
L7526 18612
L7554 18556
L7582 18528
L7638 18500
L7779 18500
L7863 18528
" />
<path d="M8454 19034
L8426 19062
L8342 19090
L8285 19090
L8201 19062
L8145 19006
L8117 18950
L8088 18837
L8088 18753
L8117 18640
L8145 18584
L8201 18528
L8285 18500
L8342 18500
L8426 18528
L8454 18556
" />
<path d="M8988 19090
L8707 19090
L8707 18500
" />
</g>
<g style="fill:#000000; fill-opacity:0.0; 
stroke:#000000; stroke-width:75; stroke-opacity:1; 
stroke-linecap:round; stroke-linejoin:round;">
<path d="M10754 18192
L10709 18169
L10641 18169
L10573 18192
L10528 18237
L10505 18282
L10483 18373
L10483 18441
L10505 18531
L10528 18576
L10573 18622
L10641 18644
L10686 18644
L10754 18622
L10777 18599
L10777 18441
L10686 18441
" />
<path d="M10980 18644
L10980 18169
L11161 18169
L11206 18192
L11229 18214
L11252 18260
L11252 18328
L11229 18373
L11206 18395
L11161 18418
L10980 18418
" />
<path d="M11455 18644
L11455 18169
" />
<path d="M11772 18169
L11862 18169
L11908 18192
L11953 18237
L11975 18328
L11975 18486
L11953 18576
L11908 18622
L11862 18644
L11772 18644
L11727 18622
L11681 18576
L11659 18486
L11659 18328
L11681 18237
L11727 18192
L11772 18169
" />
<path d="M11093 19002
L11116 18979
L11161 18957
L11274 18957
L11320 18979
L11342 19002
L11365 19047
L11365 19092
L11342 19160
L11071 19432
L11365 19432
" />
</g>
<g style="fill:#000000; fill-opacity:0.0; 
stroke:#000000; stroke-width:78.7402; stroke-opacity:1; 
stroke-linecap:round; stroke-linejoin:round;">
<path d="M840 3732
L709 3732
" />
<path d="M709 3938
L709 3544
L896 3544
" />
<path d="M1215 3676
L1215 3938
" />
<path d="M1046 3676
L1046 3882
L1065 3919
L1103 3938
L1159 3938
L1196 3919
L1215 3901
" />
<path d="M1403 3676
L1403 3938
" />
<path d="M1403 3713
L1421 3694
L1459 3676
L1515 3676
L1553 3694
L1571 3732
L1571 3938
" />
<path d="M1928 3919
L1890 3938
L1815 3938
L1778 3919
L1759 3901
L1740 3863
L1740 3751
L1759 3713
L1778 3694
L1815 3676
L1890 3676
L1928 3694
" />
<path d="M690 5258
L746 5277
L840 5277
L878 5258
L896 5239
L915 5202
L915 5164
L896 5127
L878 5108
L840 5089
L765 5070
L728 5052
L709 5033
L690 4995
L690 4958
L709 4920
L728 4902
L765 4883
L859 4883
L915 4902
" />
<path d="M1084 5277
L1084 4883
L1178 4883
L1234 4902
L1271 4939
L1290 4977
L1309 5052
L1309 5108
L1290 5183
L1271 5220
L1234 5258
L1178 5277
L1084 5277
" />
<path d="M1459 5164
L1646 5164
" />
<path d="M1421 5277
L1553 4883
L1684 5277
" />
<path d="M690 5927
L746 5946
L840 5946
L878 5927
L896 5908
L915 5871
L915 5833
L896 5796
L878 5777
L840 5758
L765 5740
L728 5721
L709 5702
L690 5665
L690 5627
L709 5590
L728 5571
L765 5552
L859 5552
L915 5571
" />
<path d="M1309 5908
L1290 5927
L1234 5946
L1196 5946
L1140 5927
L1103 5890
L1084 5852
L1065 5777
L1065 5721
L1084 5646
L1103 5608
L1140 5571
L1196 5552
L1234 5552
L1290 5571
L1309 5590
" />
<path d="M1665 5946
L1478 5946
L1478 5552
" />
<path d="M915 6240
L878 6221
L821 6221
L765 6240
L728 6278
L709 6315
L690 6390
L690 6446
L709 6521
L728 6559
L765 6596
L821 6615
L859 6615
L915 6596
L934 6578
L934 6446
L859 6446
" />
<path d="M1103 6615
L1103 6221
L1253 6221
L1290 6240
L1309 6259
L1328 6296
L1328 6353
L1309 6390
L1290 6409
L1253 6428
L1103 6428
" />
<path d="M1496 6615
L1496 6221
" />
<path d="M1759 6221
L1834 6221
L1871 6240
L1909 6278
L1928 6353
L1928 6484
L1909 6559
L1871 6596
L1834 6615
L1759 6615
L1721 6596
L1684 6559
L1665 6484
L1665 6353
L1684 6278
L1721 6240
L1759 6221
" />
<path d="M2602 6615
L2377 6615
" />
<path d="M2490 6615
L2490 6221
L2452 6278
L2415 6315
L2377 6334
" />
<path d="M915 6910
L878 6891
L821 6891
L765 6910
L728 6947
L709 6984
L690 7059
L690 7116
L709 7191
L728 7228
L765 7266
L821 7284
L859 7284
L915 7266
L934 7247
L934 7116
L859 7116
" />
<path d="M1103 7284
L1103 6891
L1253 6891
L1290 6910
L1309 6928
L1328 6966
L1328 7022
L1309 7059
L1290 7078
L1253 7097
L1103 7097
" />
<path d="M1496 7284
L1496 6891
" />
<path d="M1759 6891
L1834 6891
L1871 6910
L1909 6947
L1928 7022
L1928 7153
L1909 7228
L1871 7266
L1834 7284
L1759 7284
L1721 7266
L1684 7228
L1665 7153
L1665 7022
L1684 6947
L1721 6910
L1759 6891
" />
<path d="M2377 6928
L2396 6910
L2434 6891
L2527 6891
L2565 6910
L2584 6928
L2602 6966
L2602 7003
L2584 7059
L2359 7284
L2602 7284
" />
<path d="M3669 3938
L3669 3544
L3819 3544
L3857 3563
L3875 3582
L3894 3619
L3894 3676
L3875 3713
L3857 3732
L3819 3751
L3669 3751
" />
<path d="M4063 3938
L4063 3676
" />
<path d="M4063 3544
L4044 3563
L4063 3582
L4082 3563
L4063 3544
L4063 3582
" />
<path d="M4250 3676
L4250 3938
" />
<path d="M4250 3713
L4269 3694
L4307 3676
L4363 3676
L4400 3694
L4419 3732
L4419 3938
" />
<path d="M4213 4920
L4232 4902
L4269 4883
L4363 4883
L4400 4902
L4419 4920
L4438 4958
L4438 4995
L4419 5052
L4194 5277
L4438 5277
" />
<path d="M4194 5552
L4438 5552
L4307 5702
L4363 5702
L4400 5721
L4419 5740
L4438 5777
L4438 5871
L4419 5908
L4400 5927
L4363 5946
L4250 5946
L4213 5927
L4194 5908
" />
<path d="M4400 6353
L4400 6615
" />
<path d="M4307 6203
L4213 6484
L4457 6484
" />
<path d="M4063 7284
L3838 7284
" />
<path d="M3950 7284
L3950 6891
L3913 6947
L3875 6984
L3838 7003
" />
<path d="M4288 7059
L4250 7041
L4232 7022
L4213 6984
L4213 6966
L4232 6928
L4250 6910
L4288 6891
L4363 6891
L4400 6910
L4419 6928
L4438 6966
L4438 6984
L4419 7022
L4400 7041
L4363 7059
L4288 7059
L4250 7078
L4232 7097
L4213 7134
L4213 7209
L4232 7247
L4250 7266
L4288 7284
L4363 7284
L4400 7266
L4419 7247
L4438 7209
L4438 7134
L4419 7097
L4400 7078
L4363 7059
" />
</g>
<g style="fill:#000000; fill-opacity:0.0; 
stroke:#000000; stroke-width:80; stroke-opacity:1; 
stroke-linecap:round; stroke-linejoin:round;">
<circle cx="19029.5" cy="19273.6" r="700" /> 
<path d="M17829 18868
L17829 19673
" />
<path d="M20229 18880
L20229 19673
" />
<path d="M18179 20473
L19879 20473
" />
<path d="M19879 18073
L18179 18073
" />
<circle cx="19029.5" cy="13773.6" r="700" /> 
<path d="M17829 13368
L17829 14173
" />
<path d="M20229 13380
L20229 14173
" />
<path d="M18179 14973
L19879 14973
" />
<path d="M19879 12573
L18179 12573
" />
</g>
<g style="fill:#000000; fill-opacity:0.0; 
stroke:#000000; stroke-width:100; stroke-opacity:1; 
stroke-linecap:round; stroke-linejoin:round;">
<path d="M16029 20273
L16029 20373
" />
<path d="M16029 18273
L16029 18173
" />
<path d="M16029 20273
L15529 20273
" />
<path d="M16529 20273
L16029 20273
" />
<path d="M16529 18273
L16529 20273
" />
<path d="M16029 18273
L16529 18273
" />
<path d="M15529 18273
L16029 18273
" />
<path d="M15529 20273
L15529 18273
" />
<path d="M16029 14773
L16029 14873
" />
<path d="M16029 12773
L16029 12673
" />
<path d="M16029 14773
L15529 14773
" />
<path d="M16529 14773
L16029 14773
" />
<path d="M16529 12773
L16529 14773
" />
<path d="M16029 12773
L16529 12773
" />
<path d="M15529 12773
L16029 12773
" />
<path d="M15529 14773
L15529 12773
" />
<path d="M23019 18393
L23199 18393
" />
<path d="M24039 18393
L23839 18393
" />
<path d="M23132.6 17079 A800 800 0.0 0 0 22729.5 17773.6 " />
<path d="M22729.5 17773.6 A800 800 0.0 0 0 23012.8 18384.3 " />
<path d="M24329.5 17773.6 A800 800 0.0 0 0 23906 17067.8 " />
<path d="M24041.7 18388.2 A800 800 0.0 0 0 24329.5 17773.6 " />
<path d="M23529 12773
L23529 12673
" />
<path d="M23529 14773
L23529 14873
" />
<path d="M23529 12773
L24029 12773
" />
<path d="M23029 12773
L23529 12773
" />
<path d="M23029 14773
L23029 12773
" />
<path d="M23529 14773
L23029 14773
" />
<path d="M24029 14773
L23529 14773
" />
<path d="M24029 12773
L24029 14773
" />
</g>
<g style="fill:#000000; fill-opacity:0.0; 
stroke:#000000; stroke-width:59.0551; stroke-opacity:1; 
stroke-linecap:round; stroke-linejoin:round;">
</g>
<g style="fill:#000000; fill-opacity:0.0; 
stroke:#000000; stroke-width:48; stroke-opacity:1; 
stroke-linecap:round; stroke-linejoin:round;">
<path d="M18470 17810
L18644 17875
L18470 17941
" />
<path d="M18752 17962
L18752 17734
L18882 17962
L18882 17734
" />
<path d="M19089 17962
L19089 17843
L19078 17821
L19056 17810
L19013 17810
L18991 17821
" />
<path d="M19089 17951
L19067 17962
L19013 17962
L18991 17951
L18980 17930
L18980 17908
L18991 17886
L19013 17875
L19067 17875
L19089 17865
" />
<path d="M19197 17962
L19197 17810
" />
<path d="M19197 17832
L19208 17821
L19230 17810
L19262 17810
L19284 17821
L19295 17843
L19295 17962
" />
<path d="M19295 17843
L19306 17821
L19328 17810
L19360 17810
L19382 17821
L19393 17843
L19393 17962
" />
<path d="M19588 17951
L19566 17962
L19523 17962
L19501 17951
L19490 17930
L19490 17843
L19501 17821
L19523 17810
L19566 17810
L19588 17821
L19599 17843
L19599 17865
L19490 17886
" />
<path d="M18470 12310
L18644 12375
L18470 12441
" />
<path d="M18752 12462
L18752 12234
L18882 12462
L18882 12234
" />
<path d="M19089 12462
L19089 12343
L19078 12321
L19056 12310
L19013 12310
L18991 12321
" />
<path d="M19089 12451
L19067 12462
L19013 12462
L18991 12451
L18980 12430
L18980 12408
L18991 12386
L19013 12375
L19067 12375
L19089 12365
" />
<path d="M19197 12462
L19197 12310
" />
<path d="M19197 12332
L19208 12321
L19230 12310
L19262 12310
L19284 12321
L19295 12343
L19295 12462
" />
<path d="M19295 12343
L19306 12321
L19328 12310
L19360 12310
L19382 12321
L19393 12343
L19393 12462
" />
<path d="M19588 12451
L19566 12462
L19523 12462
L19501 12451
L19490 12430
L19490 12343
L19501 12321
L19523 12310
L19566 12310
L19588 12321
L19599 12343
L19599 12365
L19490 12386
" />
</g> 
</svg>
