<?xml version="1.0" standalone="no"?>
 <!DOCTYPE svg PUBLIC "-//W3C//DTD SVG 1.1//EN" 
 "http://www.w3.org/Graphics/SVG/1.1/DTD/svg11.dtd"> 
<svg xmlns="http://www.w3.org/2000/svg" version="1.1" 
    width="6.51256cm" height="5.6642cm" viewBox="0 0 25640 22300 ">
<title>SVG Picture created as ShittyAddonHat-F.Fab.svg date 2019/04/21 13:12:47 </title>
  <desc>Picture generated by PCBNEW </desc>
<g style="fill:#000000; fill-opacity:1;stroke:#000000; stroke-opacity:1;
stroke-linecap:round; stroke-linejoin:round; "
 transform="translate(0 0) scale(1 1)">
</g>
<g style="fill:#000000; fill-opacity:0.0; 
stroke:#000000; stroke-width:-0.000393701; stroke-opacity:1; 
stroke-linecap:round; stroke-linejoin:round;">
</g>
<g style="fill:#000000; fill-opacity:0.0; 
stroke:#000000; stroke-width:80; stroke-opacity:1; 
stroke-linecap:round; stroke-linejoin:round;">
<path d="M3527 2596
L3027 2596
" />
</g>
<g style="fill:#000000; fill-opacity:1.0; 
stroke:#000000; stroke-width:0; stroke-opacity:1; 
stroke-linecap:round; stroke-linejoin:round;">
<polyline style="fill-rule:evenodd;"
points="22377,2196
22377,1996
22177,1996
22177,2196
22377,2196
" /> 
<polyline style="fill-rule:evenodd;"
points="21377,2196
21377,1996
21177,1996
21177,2196
21377,2196
" /> 
<polyline style="fill-rule:evenodd;"
points="20377,2196
20377,1996
20177,1996
20177,2196
20377,2196
" /> 
<polyline style="fill-rule:evenodd;"
points="19377,2196
19377,1996
19177,1996
19177,2196
19377,2196
" /> 
<polyline style="fill-rule:evenodd;"
points="18377,2196
18377,1996
18177,1996
18177,2196
18377,2196
" /> 
<polyline style="fill-rule:evenodd;"
points="17377,2196
17377,1996
17177,1996
17177,2196
17377,2196
" /> 
<polyline style="fill-rule:evenodd;"
points="16377,2196
16377,1996
16177,1996
16177,2196
16377,2196
" /> 
<polyline style="fill-rule:evenodd;"
points="22377,1196
22377,996
22177,996
22177,1196
22377,1196
" /> 
<polyline style="fill-rule:evenodd;"
points="21377,1196
21377,996
21177,996
21177,1196
21377,1196
" /> 
<polyline style="fill-rule:evenodd;"
points="20377,1196
20377,996
20177,996
20177,1196
20377,1196
" /> 
<polyline style="fill-rule:evenodd;"
points="19377,1196
19377,996
19177,996
19177,1196
19377,1196
" /> 
<polyline style="fill-rule:evenodd;"
points="18377,1196
18377,996
18177,996
18177,1196
18377,1196
" /> 
<polyline style="fill-rule:evenodd;"
points="17377,1196
17377,996
17177,996
17177,1196
17377,1196
" /> 
<polyline style="fill-rule:evenodd;"
points="16377,1196
16377,996
16177,996
16177,1196
16377,1196
" /> 
<polyline style="fill-rule:evenodd;"
points="14377,1196
14377,996
14177,996
14177,1196
14377,1196
" /> 
<polyline style="fill-rule:evenodd;"
points="14377,2196
14377,1996
14177,1996
14177,2196
14377,2196
" /> 
<polyline style="fill-rule:evenodd;"
points="15377,2196
15377,1996
15177,1996
15177,2196
15377,2196
" /> 
<polyline style="fill-rule:evenodd;"
points="15377,1196
15377,996
15177,996
15177,1196
15377,1196
" /> 
<polyline style="fill-rule:evenodd;"
points="14377,2196
14377,1996
14177,1996
14177,2196
14377,2196
" /> 
<polyline style="fill-rule:evenodd;"
points="14377,1196
14377,996
14177,996
14177,1196
14377,1196
" /> 
<polyline style="fill-rule:evenodd;"
points="13377,2196
13377,1996
13177,1996
13177,2196
13377,2196
" /> 
<polyline style="fill-rule:evenodd;"
points="13377,1196
13377,996
13177,996
13177,1196
13377,1196
" /> 
<polyline style="fill-rule:evenodd;"
points="11377,1196
11377,996
11177,996
11177,1196
11377,1196
" /> 
<polyline style="fill-rule:evenodd;"
points="11377,2196
11377,1996
11177,1996
11177,2196
11377,2196
" /> 
<polyline style="fill-rule:evenodd;"
points="12377,2196
12377,1996
12177,1996
12177,2196
12377,2196
" /> 
<polyline style="fill-rule:evenodd;"
points="12377,1196
12377,996
12177,996
12177,1196
12377,1196
" /> 
<polyline style="fill-rule:evenodd;"
points="11377,2196
11377,1996
11177,1996
11177,2196
11377,2196
" /> 
<polyline style="fill-rule:evenodd;"
points="11377,1196
11377,996
11177,996
11177,1196
11377,1196
" /> 
<polyline style="fill-rule:evenodd;"
points="10377,2196
10377,1996
10177,1996
10177,2196
10377,2196
" /> 
<polyline style="fill-rule:evenodd;"
points="10377,1196
10377,996
10177,996
10177,1196
10377,1196
" /> 
<polyline style="fill-rule:evenodd;"
points="9377,2196
9377,1996
9177,1996
9177,2196
9377,2196
" /> 
<polyline style="fill-rule:evenodd;"
points="9377,1196
9377,996
9177,996
9177,1196
9377,1196
" /> 
<polyline style="fill-rule:evenodd;"
points="8377,1196
8377,996
8177,996
8177,1196
8377,1196
" /> 
<polyline style="fill-rule:evenodd;"
points="8377,2196
8377,1996
8177,1996
8177,2196
8377,2196
" /> 
<polyline style="fill-rule:evenodd;"
points="6377,1196
6377,996
6177,996
6177,1196
6377,1196
" /> 
<polyline style="fill-rule:evenodd;"
points="6377,2196
6377,1996
6177,1996
6177,2196
6377,2196
" /> 
<polyline style="fill-rule:evenodd;"
points="7377,2196
7377,1996
7177,1996
7177,2196
7377,2196
" /> 
<polyline style="fill-rule:evenodd;"
points="7377,1196
7377,996
7177,996
7177,1196
7377,1196
" /> 
<polyline style="fill-rule:evenodd;"
points="6377,2196
6377,1996
6177,1996
6177,2196
6377,2196
" /> 
<polyline style="fill-rule:evenodd;"
points="6377,1196
6377,996
6177,996
6177,1196
6377,1196
" /> 
<polyline style="fill-rule:evenodd;"
points="5377,2196
5377,1996
5177,1996
5177,2196
5377,2196
" /> 
<polyline style="fill-rule:evenodd;"
points="5377,1196
5377,996
5177,996
5177,1196
5377,1196
" /> 
<polyline style="fill-rule:evenodd;"
points="4377,2196
4377,1996
4177,1996
4177,2196
4377,2196
" /> 
<polyline style="fill-rule:evenodd;"
points="4377,1196
4377,996
4177,996
4177,1196
4377,1196
" /> 
<polyline style="fill-rule:evenodd;"
points="3377,1196
3377,996
3177,996
3177,1196
3377,1196
" /> 
<polyline style="fill-rule:evenodd;"
points="3377,2196
3377,1996
3177,1996
3177,2196
3377,2196
" /> 
<polyline style="fill-rule:evenodd;"
points="9197,6731
9397,6731
9397,6531
9197,6531
9197,6731
" /> 
<polyline style="fill-rule:evenodd;"
points="9197,5731
9397,5731
9397,5531
9197,5531
9197,5731
" /> 
<polyline style="fill-rule:evenodd;"
points="8197,6731
8397,6731
8397,6531
8197,6531
8197,6731
" /> 
<polyline style="fill-rule:evenodd;"
points="8197,5731
8397,5731
8397,5531
8197,5531
8197,5731
" /> 
<polyline style="fill-rule:evenodd;"
points="7197,5731
7397,5731
7397,5531
7197,5531
7197,5731
" /> 
<polyline style="fill-rule:evenodd;"
points="7197,6731
7397,6731
7397,6531
7197,6531
7197,6731
" /> 
</g>
<g style="fill:#000000; fill-opacity:1.0; 
stroke:#000000; stroke-width:80; stroke-opacity:1; 
stroke-linecap:round; stroke-linejoin:round;">
</g>
<g style="fill:#000000; fill-opacity:0.0; 
stroke:#000000; stroke-width:80; stroke-opacity:1; 
stroke-linecap:round; stroke-linejoin:round;">
<path d="M7547 7263
L7047 7263
" />
<path d="M7047 7131
L7547 7131
" />
<path d="M8047 7131
L8547 7131
" />
<path d="M9047 7131
L9547 7131
" />
<path d="M9797 5381
L9797 6881
" />
<path d="M8797 5381
L8797 6881
" />
<path d="M7797 5381
L7797 6881
" />
<path d="M9547 5131
L9797 5381
" />
<path d="M9047 5131
L9547 5131
" />
<path d="M8797 5381
L9047 5131
" />
<path d="M8547 5131
L8797 5381
" />
<path d="M8047 5131
L8547 5131
" />
<path d="M7797 5381
L8047 5131
" />
<path d="M7547 5131
L7797 5381
" />
<path d="M7047 5131
L7547 5131
" />
<path d="M6797 5381
L7047 5131
" />
<path d="M6797 6881
L6797 5381
" />
<path d="M9547 7131
L9797 6881
" />
<path d="M8797 6881
L9047 7131
" />
<path d="M8547 7131
L8797 6881
" />
<path d="M7797 6881
L8047 7131
" />
<path d="M7547 7131
L7797 6881
" />
<path d="M6797 6881
L7047 7131
" />
</g>
<g style="fill:#000000; fill-opacity:1.0; 
stroke:#000000; stroke-width:0; stroke-opacity:1; 
stroke-linecap:round; stroke-linejoin:round;">
<polyline style="fill-rule:evenodd;"
points="9197,13818
9397,13818
9397,13618
9197,13618
9197,13818
" /> 
<polyline style="fill-rule:evenodd;"
points="9197,12818
9397,12818
9397,12618
9197,12618
9197,12818
" /> 
<polyline style="fill-rule:evenodd;"
points="8197,13818
8397,13818
8397,13618
8197,13618
8197,13818
" /> 
<polyline style="fill-rule:evenodd;"
points="8197,12818
8397,12818
8397,12618
8197,12618
8197,12818
" /> 
<polyline style="fill-rule:evenodd;"
points="7197,12818
7397,12818
7397,12618
7197,12618
7197,12818
" /> 
<polyline style="fill-rule:evenodd;"
points="7197,13818
7397,13818
7397,13618
7197,13618
7197,13818
" /> 
</g>
<g style="fill:#000000; fill-opacity:1.0; 
stroke:#000000; stroke-width:80; stroke-opacity:1; 
stroke-linecap:round; stroke-linejoin:round;">
</g>
<g style="fill:#000000; fill-opacity:0.0; 
stroke:#000000; stroke-width:80; stroke-opacity:1; 
stroke-linecap:round; stroke-linejoin:round;">
<path d="M7547 14350
L7047 14350
" />
<path d="M7047 14218
L7547 14218
" />
<path d="M8047 14218
L8547 14218
" />
<path d="M9047 14218
L9547 14218
" />
<path d="M9797 12468
L9797 13968
" />
<path d="M8797 12468
L8797 13968
" />
<path d="M7797 12468
L7797 13968
" />
<path d="M9547 12218
L9797 12468
" />
<path d="M9047 12218
L9547 12218
" />
<path d="M8797 12468
L9047 12218
" />
<path d="M8547 12218
L8797 12468
" />
<path d="M8047 12218
L8547 12218
" />
<path d="M7797 12468
L8047 12218
" />
<path d="M7547 12218
L7797 12468
" />
<path d="M7047 12218
L7547 12218
" />
<path d="M6797 12468
L7047 12218
" />
<path d="M6797 13968
L6797 12468
" />
<path d="M9547 14218
L9797 13968
" />
<path d="M8797 13968
L9047 14218
" />
<path d="M8547 14218
L8797 13968
" />
<path d="M7797 13968
L8047 14218
" />
<path d="M7547 14218
L7797 13968
" />
<path d="M6797 13968
L7047 14218
" />
<path d="M18029 19073
L18179 19423
" />
<path d="M18029 19473
L18029 19773
" />
<path d="M18029 18773
L18029 19073
" />
<path d="M20029 18073
L19879 18073
" />
<path d="M18029 18073
L18179 18073
" />
<path d="M18029 20473
L18179 20473
" />
<path d="M20029 20473
L19879 20473
" />
<path d="M17829 20273
L17829 19673
" />
<path d="M18029 20473
L17829 20273
" />
<path d="M17829 18273
L17829 18873
" />
<path d="M18029 18073
L17829 18273
" />
<path d="M20229 20273
L20229 19673
" />
<path d="M20029 20473
L20229 20273
" />
<path d="M20229 18273
L20029 18073
" />
<path d="M20229 18873
L20229 18273
" />
<path d="M18029 13573
L18179 13923
" />
<path d="M18029 13973
L18029 14273
" />
<path d="M18029 13273
L18029 13573
" />
<path d="M20029 12573
L19879 12573
" />
<path d="M18029 12573
L18179 12573
" />
<path d="M18029 14973
L18179 14973
" />
<path d="M20029 14973
L19879 14973
" />
<path d="M17829 14773
L17829 14173
" />
<path d="M18029 14973
L17829 14773
" />
<path d="M17829 12773
L17829 13373
" />
<path d="M18029 12573
L17829 12773
" />
<path d="M20229 14773
L20229 14173
" />
<path d="M20029 14973
L20229 14773
" />
<path d="M20229 12773
L20029 12573
" />
<path d="M20229 13373
L20229 12773
" />
</g>
<g style="fill:#000000; fill-opacity:0.0; 
stroke:#000000; stroke-width:100; stroke-opacity:1; 
stroke-linecap:round; stroke-linejoin:round;">
<path d="M23529.5 16973.6 A800 800 0.0 0 0 23110.2 17092.3 " />
<path d="M23908.8 17069.3 A800 800 0.0 0 0 23529.5 16973.6 " />
<path d="M23029 18393
L24029 18393
" />
</g>
<g style="fill:#000000; fill-opacity:0.0; 
stroke:#000000; stroke-width:45.6; stroke-opacity:1; 
stroke-linecap:round; stroke-linejoin:round;">
</g>
<g style="fill:#000000; fill-opacity:0.0; 
stroke:#000000; stroke-width:48; stroke-opacity:1; 
stroke-linecap:round; stroke-linejoin:round;">
<path d="M18481 20588
L18654 20653
L18481 20719
" />
<path d="M18730 20512
L18806 20740
L18882 20512
" />
<path d="M19056 20740
L19056 20621
L19045 20599
L19024 20588
L18980 20588
L18958 20599
" />
<path d="M19056 20729
L19034 20740
L18980 20740
L18958 20729
L18948 20708
L18948 20686
L18958 20664
L18980 20653
L19034 20653
L19056 20643
" />
<path d="M19197 20740
L19176 20729
L19165 20708
L19165 20512
" />
<path d="M19382 20588
L19382 20740
" />
<path d="M19284 20588
L19284 20708
L19295 20729
L19317 20740
L19349 20740
L19371 20729
L19382 20719
" />
<path d="M19577 20729
L19556 20740
L19512 20740
L19490 20729
L19480 20708
L19480 20621
L19490 20599
L19512 20588
L19556 20588
L19577 20599
L19588 20621
L19588 20643
L19480 20664
" />
<path d="M18481 15088
L18654 15153
L18481 15219
" />
<path d="M18730 15012
L18806 15240
L18882 15012
" />
<path d="M19056 15240
L19056 15121
L19045 15099
L19024 15088
L18980 15088
L18958 15099
" />
<path d="M19056 15229
L19034 15240
L18980 15240
L18958 15229
L18948 15208
L18948 15186
L18958 15164
L18980 15153
L19034 15153
L19056 15143
" />
<path d="M19197 15240
L19176 15229
L19165 15208
L19165 15012
" />
<path d="M19382 15088
L19382 15240
" />
<path d="M19284 15088
L19284 15208
L19295 15229
L19317 15240
L19349 15240
L19371 15229
L19382 15219
" />
<path d="M19577 15229
L19556 15240
L19512 15240
L19490 15229
L19480 15208
L19480 15121
L19490 15099
L19512 15088
L19556 15088
L19577 15099
L19588 15121
L19588 15143
L19480 15164
" />
</g>
<g style="fill:#000000; fill-opacity:0.0; 
stroke:#000000; stroke-width:45.6; stroke-opacity:1; 
stroke-linecap:round; stroke-linejoin:round;">
<path d="M15918 19070
L15918 19200
" />
<path d="M15918 19135
L15690 19135
L15723 19157
L15744 19178
L15755 19200
" />
<path d="M15690 18929
L15690 18907
L15701 18885
L15712 18874
L15734 18863
L15777 18853
L15831 18853
L15875 18863
L15896 18874
L15907 18885
L15918 18907
L15918 18929
L15907 18950
L15896 18961
L15875 18972
L15831 18983
L15777 18983
L15734 18972
L15712 18961
L15701 18950
L15690 18929
" />
<path d="M15918 18755
L15690 18755
" />
<path d="M15831 18733
L15918 18668
" />
<path d="M15766 18668
L15853 18755
" />
<path d="M15918 13570
L15918 13700
" />
<path d="M15918 13635
L15690 13635
L15723 13657
L15744 13678
L15755 13700
" />
<path d="M15690 13429
L15690 13407
L15701 13385
L15712 13374
L15734 13363
L15777 13353
L15831 13353
L15875 13363
L15896 13374
L15907 13385
L15918 13407
L15918 13429
L15907 13450
L15896 13461
L15875 13472
L15831 13483
L15777 13483
L15734 13472
L15712 13461
L15701 13450
L15690 13429
" />
<path d="M15918 13255
L15690 13255
" />
<path d="M15831 13233
L15918 13168
" />
<path d="M15766 13168
L15853 13255
" />
<path d="M23640 14194
L23629 14183
L23618 14161
L23618 14107
L23629 14085
L23640 14074
L23662 14063
L23683 14063
L23716 14074
L23846 14204
L23846 14063
" />
<path d="M23640 13976
L23629 13966
L23618 13944
L23618 13890
L23629 13868
L23640 13857
L23662 13846
L23683 13846
L23716 13857
L23846 13987
L23846 13846
" />
</g> 
</svg>
