<?xml version="1.0" standalone="no"?>
 <!DOCTYPE svg PUBLIC "-//W3C//DTD SVG 1.1//EN" 
 "http://www.w3.org/Graphics/SVG/1.1/DTD/svg11.dtd"> 
<svg xmlns="http://www.w3.org/2000/svg" version="1.1" 
    width="6.52272cm" height="5.67436cm" viewBox="0 0 25680 22340 ">
<title>SVG Picture created as mySAOhat-F.Mask.svg date 2019/04/21 23:04:57 </title>
  <desc>Picture generated by PCBNEW </desc>
<g style="fill:#000000; fill-opacity:1;stroke:#000000; stroke-opacity:1;
stroke-linecap:round; stroke-linejoin:round; "
 transform="translate(0 0) scale(1 1)">
</g>
<g style="fill:#000000; fill-opacity:0.0; 
stroke:#000000; stroke-width:-0.000393701; stroke-opacity:1; 
stroke-linecap:round; stroke-linejoin:round;">
</g>
<g style="fill:#000000; fill-opacity:1.0; 
stroke:#000000; stroke-width:3.93701; stroke-opacity:1; 
stroke-linecap:round; stroke-linejoin:round;">
<polyline style="fill-rule:evenodd;"
points="22275,4982
22494,5021
22693,5082
22870,5166
22966,5228
23097,5337
23201,5459
23282,5599
23331,5719
23345,5763
23355,5806
23362,5853
23366,5911
23368,5988
23369,6089
23369,6121
23368,6243
23365,6340
23358,6422
23346,6497
23328,6575
23302,6664
23275,6748
23188,6971
23077,7175
22939,7365
22795,7521
22600,7691
22389,7832
22161,7944
21915,8029
21735,8071
21611,8090
21467,8103
21316,8111
21169,8113
21037,8109
20979,8103
20754,8065
20551,8005
20373,7923
20219,7820
20090,7696
19987,7551
19910,7386
19883,7303
19868,7227
19859,7127
19854,7011
19854,6953
20366,6953
20385,7131
20432,7292
20506,7433
20547,7489
20636,7577
20752,7653
20887,7715
21037,7758
21103,7771
21196,7779
21310,7781
21433,7776
21554,7766
21662,7750
21714,7739
21923,7669
22117,7570
22294,7444
22451,7293
22587,7119
22700,6924
22753,6802
22800,6658
22834,6501
22855,6338
22862,6178
22855,6028
22833,5895
22818,5843
22756,5699
22672,5578
22565,5480
22434,5402
22276,5343
22249,5336
22126,5312
21984,5300
21833,5299
21685,5310
21552,5332
21539,5335
21325,5404
21130,5499
20954,5620
20798,5766
20664,5935
20553,6124
20466,6334
20404,6561
20374,6757
20366,6953
19854,6953
19854,6888
19859,6768
19869,6658
19884,6571
19956,6317
20055,6081
20180,5864
20329,5667
20502,5492
20696,5340
20910,5212
21143,5110
21393,5034
21658,4985
21785,4973
22038,4966
22275,4982
" /> 
<polyline style="fill-rule:evenodd;"
points="15101,4984
15358,5015
15492,5039
15588,5060
15686,5084
15781,5110
15868,5135
15940,5159
15992,5179
16019,5194
16021,5197
16020,5219
16012,5265
15999,5328
15982,5399
15965,5472
15948,5537
15933,5587
15923,5614
15921,5616
15904,5612
15863,5596
15804,5570
15733,5536
15724,5532
15492,5433
15256,5364
15010,5322
14750,5308
14627,5310
14483,5318
14363,5332
14259,5353
14162,5384
14064,5425
14049,5433
13933,5502
13841,5584
13775,5673
13733,5767
13717,5863
13726,5955
13761,6042
13822,6118
13909,6182
13994,6219
14041,6232
14114,6249
14208,6269
14317,6292
14436,6314
14527,6331
14696,6362
14838,6388
14954,6412
15050,6433
15130,6454
15198,6475
15259,6497
15316,6521
15352,6538
15468,6601
15557,6666
15624,6739
15676,6824
15705,6889
15721,6946
15727,7011
15727,7047
15711,7203
15664,7352
15586,7491
15481,7619
15348,7737
15189,7841
15007,7931
14801,8006
14602,8058
14516,8072
14404,8084
14273,8092
14131,8097
13986,8100
13844,8099
13713,8094
13601,8085
13552,8080
13463,8066
13368,8050
13285,8034
13260,8029
13196,8013
13118,7992
13034,7967
12948,7940
12867,7914
12799,7890
12748,7871
12722,7858
12720,7856
12721,7836
12729,7792
12743,7730
12760,7657
12778,7582
12797,7510
12814,7450
12827,7408
12834,7393
12851,7397
12887,7416
12936,7447
12943,7452
13112,7549
13303,7631
13521,7699
13663,7733
13755,7748
13870,7758
14000,7763
14137,7765
14273,7762
14402,7755
14514,7744
14603,7728
14619,7724
14784,7668
14923,7599
15035,7517
15118,7424
15171,7320
15193,7207
15194,7184
15186,7092
15160,7014
15115,6949
15047,6894
14954,6847
14834,6808
14684,6774
14627,6763
14441,6730
14285,6701
14155,6677
14048,6657
13961,6639
13890,6623
13832,6609
13784,6596
13742,6583
13708,6572
13551,6502
13420,6419
13317,6322
13244,6215
13241,6208
13223,6166
13211,6124
13205,6071
13202,6000
13202,5955
13203,5873
13207,5814
13215,5768
13230,5723
13254,5670
13256,5667
13334,5537
13442,5416
13575,5304
13730,5206
13904,5123
14091,5059
14128,5049
14348,5005
14589,4979
14842,4972
15101,4984
" /> 
<polyline style="fill-rule:evenodd;"
points="18684,5067
18689,5095
18699,5152
18713,5236
18731,5343
18752,5471
18775,5616
18801,5777
18829,5949
18859,6131
18889,6319
18920,6510
18951,6702
18981,6891
19011,7076
19039,7252
19065,7417
19090,7568
19111,7703
19129,7818
19143,7910
19154,7978
19159,8017
19160,8025
19158,8037
19148,8045
19125,8050
19085,8052
19022,8053
18931,8051
18915,8051
18670,8046
18615,7663
18600,7552
18585,7450
18572,7363
18561,7295
18554,7253
18552,7242
18543,7205
16952,7206
16653,7630
16353,8055
15841,8055
15871,8007
15885,7988
15917,7943
15966,7875
16031,7785
16110,7676
16202,7548
16306,7404
16420,7247
16543,7076
16675,6895
16692,6871
17191,6871
18496,6871
18487,6825
18483,6799
18474,6744
18461,6663
18445,6561
18427,6441
18406,6307
18384,6163
18377,6113
18354,5967
18333,5831
18314,5708
18297,5602
18282,5516
18272,5455
18265,5422
18264,5418
18256,5419
18237,5436
18206,5471
18163,5526
18106,5602
18033,5700
17944,5822
17838,5969
17774,6060
17678,6195
17586,6323
17500,6443
17423,6550
17357,6643
17304,6717
17265,6770
17244,6799
17243,6800
17191,6871
16692,6871
16812,6705
16955,6507
16967,6491
18033,5021
18674,5021
18684,5067
" /> 
</g>
<g style="fill:#000000; fill-opacity:1.0; 
stroke:#000000; stroke-width:39.3701; stroke-opacity:1; 
stroke-linecap:round; stroke-linejoin:round;">
</g>
<g style="fill:#000000; fill-opacity:0.0; 
stroke:#000000; stroke-width:39.3701; stroke-opacity:1; 
stroke-linecap:round; stroke-linejoin:round;">
<path d="M1227 19
L1220 21
" />
<path d="M1220 21
L1158 23
" />
<path d="M1158 23
L1097 28
" />
<path d="M1097 28
L1037 36
" />
<path d="M1037 36
L978 47
" />
<path d="M978 47
L920 61
" />
<path d="M920 61
L863 77
" />
<path d="M863 77
L807 96
" />
<path d="M807 96
L753 118
" />
<path d="M753 118
L700 143
" />
<path d="M700 143
L648 169
" />
<path d="M648 169
L598 199
" />
<path d="M598 199
L549 230
" />
<path d="M549 230
L502 264
" />
<path d="M502 264
L457 300
" />
<path d="M457 300
L414 337
" />
<path d="M414 337
L372 377
" />
<path d="M372 377
L332 419
" />
<path d="M332 419
L295 463
" />
<path d="M295 463
L259 508
" />
<path d="M259 508
L225 556
" />
<path d="M225 556
L194 604
" />
<path d="M194 604
L165 655
" />
<path d="M165 655
L139 707
" />
<path d="M139 707
L115 760
" />
<path d="M115 760
L93 814
" />
<path d="M93 814
L74 870
" />
<path d="M74 870
L58 927
" />
<path d="M58 927
L44 985
" />
<path d="M44 985
L34 1045
" />
<path d="M34 1045
L26 1105
" />
<path d="M26 1105
L21 1166
" />
<path d="M21 1166
L20 1227
" />
<path d="M20 1227
L19 1231
" />
<path d="M19 1231
L19 1240
" />
<path d="M19 1240
L19 7330
" />
<path d="M19 7330
L19 7333
" />
<path d="M19 7333
L19 7825
" />
<path d="M19 7825
L19 7826
" />
<path d="M19 7826
L19 7833
" />
<path d="M19 7833
L21 7839
" />
<path d="M21 7839
L25 7863
" />
<path d="M25 7863
L34 7884
" />
<path d="M34 7884
L46 7903
" />
<path d="M46 7903
L62 7920
" />
<path d="M62 7920
L80 7934
" />
<path d="M80 7934
L100 7945
" />
<path d="M100 7945
L123 7951
" />
<path d="M123 7951
L147 7953
" />
<path d="M147 7953
L153 7953
" />
<path d="M153 7953
L1615 7953
" />
<path d="M1615 7953
L1623 7953
" />
<path d="M1623 7953
L1660 7955
" />
<path d="M1660 7955
L1696 7961
" />
<path d="M1696 7961
L1731 7969
" />
<path d="M1731 7969
L1764 7981
" />
<path d="M1764 7981
L1795 7996
" />
<path d="M1795 7996
L1825 8014
" />
<path d="M1825 8014
L1853 8035
" />
<path d="M1853 8035
L1879 8058
" />
<path d="M1879 8058
L1902 8084
" />
<path d="M1902 8084
L1923 8111
" />
<path d="M1923 8111
L1942 8141
" />
<path d="M1942 8141
L1957 8172
" />
<path d="M1957 8172
L1970 8205
" />
<path d="M1970 8205
L1979 8239
" />
<path d="M1979 8239
L1985 8275
" />
<path d="M1985 8275
L1987 8312
" />
<path d="M1987 8312
L1987 8317
" />
<path d="M1987 8317
L1987 14222
" />
<path d="M1987 14222
L1987 14227
" />
<path d="M1987 14227
L1985 14264
" />
<path d="M1985 14264
L1979 14300
" />
<path d="M1979 14300
L1970 14334
" />
<path d="M1970 14334
L1958 14367
" />
<path d="M1958 14367
L1943 14398
" />
<path d="M1943 14398
L1925 14427
" />
<path d="M1925 14427
L1904 14455
" />
<path d="M1904 14455
L1881 14480
" />
<path d="M1881 14480
L1855 14504
" />
<path d="M1855 14504
L1828 14524
" />
<path d="M1828 14524
L1798 14542
" />
<path d="M1798 14542
L1767 14557
" />
<path d="M1767 14557
L1734 14570
" />
<path d="M1734 14570
L1700 14579
" />
<path d="M1700 14579
L1664 14584
" />
<path d="M1664 14584
L1628 14587
" />
<path d="M1628 14587
L1622 14586
" />
<path d="M1622 14586
L441 14586
" />
<path d="M441 14586
L438 14586
" />
<path d="M438 14586
L429 14588
" />
<path d="M429 14588
L387 14592
" />
<path d="M387 14592
L347 14599
" />
<path d="M347 14599
L308 14610
" />
<path d="M308 14610
L271 14625
" />
<path d="M271 14625
L235 14642
" />
<path d="M235 14642
L202 14663
" />
<path d="M202 14663
L171 14687
" />
<path d="M171 14687
L142 14714
" />
<path d="M142 14714
L116 14743
" />
<path d="M116 14743
L92 14775
" />
<path d="M92 14775
L72 14808
" />
<path d="M72 14808
L54 14844
" />
<path d="M54 14844
L40 14882
" />
<path d="M40 14882
L30 14921
" />
<path d="M30 14921
L23 14961
" />
<path d="M23 14961
L20 15003
" />
<path d="M20 15003
L19 15010
" />
<path d="M19 15010
L19 15011
" />
<path d="M19 15011
L19 15019
" />
<path d="M19 15019
L19 21112
" />
<path d="M19 21112
L19 21113
" />
<path d="M19 21113
L20 21123
" />
<path d="M20 21123
L22 21185
" />
<path d="M22 21185
L27 21246
" />
<path d="M27 21246
L35 21305
" />
<path d="M35 21305
L46 21364
" />
<path d="M46 21364
L60 21422
" />
<path d="M60 21422
L76 21479
" />
<path d="M76 21479
L95 21535
" />
<path d="M95 21535
L117 21589
" />
<path d="M117 21589
L141 21642
" />
<path d="M141 21642
L168 21694
" />
<path d="M168 21694
L197 21744
" />
<path d="M197 21744
L229 21792
" />
<path d="M229 21792
L262 21839
" />
<path d="M262 21839
L298 21885
" />
<path d="M298 21885
L336 21928
" />
<path d="M336 21928
L375 21970
" />
<path d="M375 21970
L417 22009
" />
<path d="M417 22009
L461 22047
" />
<path d="M461 22047
L506 22083
" />
<path d="M506 22083
L553 22116
" />
<path d="M553 22116
L602 22147
" />
<path d="M602 22147
L652 22176
" />
<path d="M652 22176
L704 22203
" />
<path d="M704 22203
L757 22227
" />
<path d="M757 22227
L811 22249
" />
<path d="M811 22249
L867 22268
" />
<path d="M867 22268
L924 22284
" />
<path d="M924 22284
L982 22297
" />
<path d="M982 22297
L1041 22308
" />
<path d="M1041 22308
L1101 22316
" />
<path d="M1101 22316
L1161 22321
" />
<path d="M1161 22321
L1223 22323
" />
<path d="M1223 22323
L1230 22323
" />
<path d="M1230 22323
L24457 22323
" />
<path d="M24457 22323
L24458 22323
" />
<path d="M24458 22323
L24461 22323
" />
<path d="M24461 22323
L24544 22320
" />
<path d="M24544 22320
L24625 22312
" />
<path d="M24625 22312
L24705 22298
" />
<path d="M24705 22298
L24783 22279
" />
<path d="M24783 22279
L24858 22255
" />
<path d="M24858 22255
L24932 22227
" />
<path d="M24932 22227
L25003 22193
" />
<path d="M25003 22193
L25071 22156
" />
<path d="M25071 22156
L25137 22114
" />
<path d="M25137 22114
L25200 22068
" />
<path d="M25200 22068
L25259 22019
" />
<path d="M25259 22019
L25316 21966
" />
<path d="M25316 21966
L25368 21909
" />
<path d="M25368 21909
L25418 21849
" />
<path d="M25418 21849
L25463 21786
" />
<path d="M25463 21786
L25504 21720
" />
<path d="M25504 21720
L25521 21698
" />
<path d="M25521 21698
L25536 21673
" />
<path d="M25536 21673
L25549 21643
" />
<path d="M25549 21643
L25562 21608
" />
<path d="M25562 21608
L25586 21550
" />
<path d="M25586 21550
L25607 21491
" />
<path d="M25607 21491
L25625 21431
" />
<path d="M25625 21431
L25640 21370
" />
<path d="M25640 21370
L25653 21307
" />
<path d="M25653 21307
L25661 21243
" />
<path d="M25661 21243
L25667 21179
" />
<path d="M25667 21179
L25668 21113
" />
<path d="M25668 21113
L25668 21113
" />
<path d="M25668 21113
L25668 21112
" />
<path d="M25668 21112
L25668 1239
" />
<path d="M25668 1239
L25668 1232
" />
<path d="M25668 1232
L25668 1231
" />
<path d="M25668 1231
L25668 1225
" />
<path d="M25668 1225
L25666 1163
" />
<path d="M25666 1163
L25661 1102
" />
<path d="M25661 1102
L25653 1042
" />
<path d="M25653 1042
L25642 983
" />
<path d="M25642 983
L25629 925
" />
<path d="M25629 925
L25613 868
" />
<path d="M25613 868
L25593 812
" />
<path d="M25593 812
L25572 758
" />
<path d="M25572 758
L25548 704
" />
<path d="M25548 704
L25521 653
" />
<path d="M25521 653
L25492 602
" />
<path d="M25492 602
L25461 553
" />
<path d="M25461 553
L25427 506
" />
<path d="M25427 506
L25391 461
" />
<path d="M25391 461
L25354 417
" />
<path d="M25354 417
L25314 375
" />
<path d="M25314 375
L25272 336
" />
<path d="M25272 336
L25228 298
" />
<path d="M25228 298
L25183 262
" />
<path d="M25183 262
L25136 228
" />
<path d="M25136 228
L25087 197
" />
<path d="M25087 197
L25037 168
" />
<path d="M25037 168
L24985 141
" />
<path d="M24985 141
L24932 117
" />
<path d="M24932 117
L24878 95
" />
<path d="M24878 95
L24822 76
" />
<path d="M24822 76
L24765 60
" />
<path d="M24765 60
L24707 46
" />
<path d="M24707 46
L24648 35
" />
<path d="M24648 35
L24587 27
" />
<path d="M24587 27
L24526 22
" />
<path d="M24526 22
L24465 20
" />
<path d="M24465 20
L24457 19
" />
<path d="M24457 19
L1230 19
" />
<path d="M1230 19
L1227 19
" />
<path d="M1227 19
L1227 19
" />
</g> 
</svg>
