<?xml version="1.0" encoding="UTF-8" standalone="no"?>
<svg
   xmlns:dc="http://purl.org/dc/elements/1.1/"
   xmlns:cc="http://creativecommons.org/ns#"
   xmlns:rdf="http://www.w3.org/1999/02/22-rdf-syntax-ns#"
   xmlns:svg="http://www.w3.org/2000/svg"
   xmlns="http://www.w3.org/2000/svg"
   xmlns:sodipodi="http://sodipodi.sourceforge.net/DTD/sodipodi-0.dtd"
   xmlns:inkscape="http://www.inkscape.org/namespaces/inkscape"
   version="1.1"
   width="6.52272cm"
   height="5.67436cm"
   viewBox="0 0 25680 22340 "
   id="svg450"
   sodipodi:docname="mySAOhat-Edge.Cuts.svg"
   inkscape:version="0.92.3 (2405546, 2018-03-11)">
  <metadata
     id="metadata456">
    <rdf:RDF>
      <cc:Work
         rdf:about="">
        <dc:format>image/svg+xml</dc:format>
        <dc:type
           rdf:resource="http://purl.org/dc/dcmitype/StillImage" />
      </cc:Work>
    </rdf:RDF>
  </metadata>
  <defs
     id="defs454" />
  <sodipodi:namedview
     pagecolor="#ffffff"
     bordercolor="#666666"
     borderopacity="1"
     objecttolerance="10"
     gridtolerance="10"
     guidetolerance="10"
     inkscape:pageopacity="0"
     inkscape:pageshadow="2"
     inkscape:window-width="1034"
     inkscape:window-height="820"
     id="namedview452"
     showgrid="false"
     inkscape:zoom="1.1004178"
     inkscape:cx="123.264"
     inkscape:cy="107.232"
     inkscape:window-x="1092"
     inkscape:window-y="148"
     inkscape:window-maximized="0"
     inkscape:current-layer="svg450" />
  <title
     id="title2">SVG Picture created as mySAOhat-Edge.Cuts.svg date 2019/04/21 23:04:57 </title>
  <desc
     id="desc4">Picture generated by PCBNEW </desc>
  <g
     style="fill:#000000; fill-opacity:1;stroke:#000000; stroke-opacity:1; stroke-linecap:round; stroke-linejoin:round; "
     transform="translate(0 0) scale(1 1)"
     id="g6" />
  <g
     style="fill:#000000; fill-opacity:0.0;  stroke:#000000; stroke-width:-0.000393701; stroke-opacity:1;  stroke-linecap:round; stroke-linejoin:round;"
     id="g8" />
  <path
     style="color:#000000;font-style:normal;font-variant:normal;font-weight:normal;font-stretch:normal;font-size:medium;line-height:normal;font-family:sans-serif;font-variant-ligatures:normal;font-variant-position:normal;font-variant-caps:normal;font-variant-numeric:normal;font-variant-alternates:normal;font-feature-settings:normal;text-indent:0;text-align:start;text-decoration:none;text-decoration-line:none;text-decoration-style:solid;text-decoration-color:#000000;letter-spacing:normal;word-spacing:normal;text-transform:none;writing-mode:lr-tb;direction:ltr;text-orientation:mixed;dominant-baseline:auto;baseline-shift:baseline;text-anchor:start;white-space:normal;shape-padding:0;clip-rule:nonzero;display:inline;overflow:visible;visibility:visible;opacity:1;isolation:auto;mix-blend-mode:normal;color-interpolation:sRGB;color-interpolation-filters:linearRGB;solid-color:#000000;solid-opacity:1;vector-effect:none;fill:#000000;fill-opacity:1;fill-rule:nonzero;stroke:none;stroke-width:0.37795293;stroke-linecap:round;stroke-linejoin:round;stroke-miterlimit:4;stroke-dasharray:none;stroke-dashoffset:0;stroke-opacity:1;color-rendering:auto;image-rendering:auto;shape-rendering:auto;text-rendering:auto;enable-background:accumulate"
     d="M 11.777344 -0.0078125 A 0.18899537 0.18899537 0 0 0 11.759766 -0.005859375 A 0.18899537 0.18899537 0 0 0 11.757812 -0.005859375 A 0.18899537 0.18899537 0 0 0 11.755859 -0.005859375 A 0.18899537 0.18899537 0 0 0 11.742188 -0.00390625 A 0.18899537 0.18899537 0 0 0 11.726562 0 A 0.18899537 0.18899537 0 0 0 11.722656 0.001953125 L 11.677734 0.013671875 L 11.111328 0.03125 A 0.18899537 0.18899537 0 0 0 11.085938 0.03515625 L 10.515625 0.080078125 A 0.18899537 0.18899537 0 0 0 10.478516 0.0859375 L 9.9296875 0.15820312 A 0.18899537 0.18899537 0 0 0 9.9199219 0.16015625 A 0.18899537 0.18899537 0 0 0 9.8925781 0.16601562 L 9.3535156 0.265625 A 0.18899537 0.18899537 0 0 0 9.34375 0.26757812 A 0.18899537 0.18899537 0 0 0 9.3359375 0.26953125 L 8.8066406 0.3984375 A 0.18899537 0.18899537 0 0 0 8.7929688 0.40039062 L 8.7871094 0.40234375 A 0.18899537 0.18899537 0 0 0 8.78125 0.40429688 A 0.18899537 0.18899537 0 0 0 8.7617188 0.41015625 L 8.234375 0.55664062 A 0.18899537 0.18899537 0 0 0 8.2246094 0.56054688 A 0.18899537 0.18899537 0 0 0 8.1992188 0.5703125 L 7.6855469 0.7421875 A 0.18899537 0.18899537 0 0 0 7.6757812 0.74609375 A 0.18899537 0.18899537 0 0 0 7.6679688 0.75 L 7.1582031 0.95703125 A 0.18899537 0.18899537 0 0 0 7.1484375 0.9609375 A 0.18899537 0.18899537 0 0 0 7.140625 0.96484375 L 6.6464844 1.1972656 L 6.6386719 1.2011719 A 0.18899537 0.18899537 0 0 0 6.6347656 1.203125 L 6.1523438 1.4453125 A 0.18899537 0.18899537 0 0 0 6.1347656 1.453125 A 0.18899537 0.18899537 0 0 0 6.1230469 1.4609375 A 0.18899537 0.18899537 0 0 0 6.1035156 1.4726562 L 5.6523438 1.7421875 A 0.18899537 0.18899537 0 0 0 5.6503906 1.7441406 L 5.6445312 1.7480469 A 0.18899537 0.18899537 0 0 0 5.640625 1.75 L 5.6386719 1.7519531 A 0.18899537 0.18899537 0 0 0 5.6230469 1.7617188 L 5.1914062 2.0351562 A 0.18899537 0.18899537 0 0 0 5.1601562 2.0546875 L 5.1582031 2.0566406 A 0.18899537 0.18899537 0 0 0 5.1386719 2.0703125 L 4.7148438 2.3769531 A 0.18899537 0.18899537 0 0 0 4.7109375 2.3789062 L 4.7089844 2.3808594 A 0.18899537 0.18899537 0 0 0 4.7011719 2.3867188 A 0.18899537 0.18899537 0 0 0 4.6914062 2.3945312 L 4.2890625 2.7167969 A 0.18899537 0.18899537 0 0 0 4.2734375 2.7285156 L 4.2695312 2.7324219 A 0.18899537 0.18899537 0 0 0 4.2636719 2.7363281 L 4.2597656 2.7402344 A 0.18899537 0.18899537 0 0 0 4.2519531 2.7460938 L 3.8691406 3.078125 A 0.18899537 0.18899537 0 0 0 3.8535156 3.0898438 L 3.8515625 3.0917969 A 0.18899537 0.18899537 0 0 0 3.84375 3.0976562 L 3.4433594 3.4804688 L 3.4414062 3.4824219 A 0.18899537 0.18899537 0 0 0 3.4335938 3.4882812 A 0.18899537 0.18899537 0 0 0 3.4277344 3.4960938 L 3.0683594 3.8730469 A 0.18899537 0.18899537 0 0 0 3.0507812 3.890625 L 3.0507812 3.8925781 A 0.18899537 0.18899537 0 0 0 3.0429688 3.9003906 A 0.18899537 0.18899537 0 0 0 3.0351562 3.9101562 L 2.6875 4.3222656 A 0.18899537 0.18899537 0 0 0 2.6835938 4.3261719 A 0.18899537 0.18899537 0 0 0 2.6757812 4.3378906 L 2.3378906 4.7578125 A 0.18899537 0.18899537 0 0 0 2.328125 4.7734375 L 2.0117188 5.2207031 A 0.18899537 0.18899537 0 0 0 2.0078125 5.2246094 L 2.0058594 5.2285156 A 0.18899537 0.18899537 0 0 0 2.0019531 5.234375 A 0.18899537 0.18899537 0 0 0 1.9960938 5.2441406 L 1.703125 5.6953125 A 0.18899537 0.18899537 0 0 0 1.6992188 5.7011719 A 0.18899537 0.18899537 0 0 0 1.6972656 5.7050781 A 0.18899537 0.18899537 0 0 0 1.6933594 5.7128906 L 1.4238281 6.1875 A 0.18899537 0.18899537 0 0 0 1.421875 6.1914062 L 1.4199219 6.1953125 A 0.18899537 0.18899537 0 0 0 1.4140625 6.203125 L 1.171875 6.6894531 A 0.18899537 0.18899537 0 0 0 1.1679688 6.6972656 L 1.1660156 6.703125 A 0.18899537 0.18899537 0 0 0 1.1621094 6.7089844 A 0.18899537 0.18899537 0 0 0 1.1582031 6.7207031 L 0.9375 7.2050781 A 0.18899537 0.18899537 0 0 0 0.93359375 7.2128906 L 0.93164062 7.21875 A 0.18899537 0.18899537 0 0 0 0.9296875 7.2246094 A 0.18899537 0.18899537 0 0 0 0.921875 7.2421875 L 0.71875 7.7421875 A 0.18899537 0.18899537 0 0 0 0.71289062 7.7539062 A 0.18899537 0.18899537 0 0 0 0.7109375 7.7617188 L 0.5390625 8.2714844 A 0.18899537 0.18899537 0 0 0 0.53320312 8.2890625 L 0.53125 8.2910156 A 0.18899537 0.18899537 0 0 0 0.52929688 8.3007812 A 0.18899537 0.18899537 0 0 0 0.52148438 8.328125 L 0.3828125 8.8242188 A 0.18899537 0.18899537 0 0 0 0.37695312 8.8417969 L 0.375 8.8476562 A 0.18899537 0.18899537 0 0 0 0.375 8.8515625 A 0.18899537 0.18899537 0 0 0 0.37304688 8.8554688 A 0.18899537 0.18899537 0 0 0 0.37109375 8.8671875 L 0.23828125 9.4121094 A 0.18899537 0.18899537 0 0 0 0.23632812 9.4257812 A 0.18899537 0.18899537 0 0 0 0.23242188 9.4492188 L 0.14257812 9.9882812 A 0.18899537 0.18899537 0 0 0 0.140625 9.9941406 L 0.140625 10 A 0.18899537 0.18899537 0 0 0 0.13867188 10.007812 L 0.13867188 10.013672 A 0.18899537 0.18899537 0 0 0 0.13671875 10.023438 L 0.064453125 10.572266 A 0.18899537 0.18899537 0 0 0 0.0625 10.580078 L 0.0625 10.583984 A 0.18899537 0.18899537 0 0 0 0.060546875 10.591797 A 0.18899537 0.18899537 0 0 0 0.060546875 10.601562 L 0.013671875 11.177734 A 0.18899537 0.18899537 0 0 0 0.01171875 11.191406 A 0.18899537 0.18899537 0 0 0 0.01171875 11.197266 L 0.00390625 11.75 L 0.001953125 11.763672 A 0.18899537 0.18899537 0 0 0 0 11.767578 L 0 11.771484 A 0.18899537 0.18899537 0 0 0 -0.00390625 11.785156 A 0.18899537 0.18899537 0 0 0 -0.00390625 11.791016 A 0.18899537 0.18899537 0 0 0 -0.005859375 11.804688 A 0.18899537 0.18899537 0 0 0 -0.005859375 11.847656 L -0.005859375 11.904297 A 0.18899537 0.18899537 0 0 0 -0.005859375 11.923828 L -0.005859375 70.367188 A 0.18899537 0.18899537 0 0 0 -0.005859375 70.386719 L -0.005859375 70.396484 A 0.18899537 0.18899537 0 0 0 -0.005859375 70.416016 L -0.005859375 75.107422 A 0.18899537 0.18899537 0 0 0 -0.005859375 75.117188 L -0.005859375 75.119141 L -0.005859375 75.128906 A 0.18899537 0.18899537 0 0 0 -0.005859375 75.138672 A 0.18899537 0.18899537 0 0 0 -0.005859375 75.148438 L -0.005859375 75.169922 A 0.18899537 0.18899537 0 0 0 -0.005859375 75.216797 A 0.18899537 0.18899537 0 0 0 -0.00390625 75.224609 A 0.18899537 0.18899537 0 0 0 0.001953125 75.251953 A 0.18899537 0.18899537 0 0 0 0.00390625 75.255859 A 0.18899537 0.18899537 0 0 0 0.009765625 75.275391 L 0.01953125 75.306641 L 0.052734375 75.515625 A 0.18899537 0.18899537 0 0 0 0.056640625 75.529297 A 0.18899537 0.18899537 0 0 0 0.0625 75.552734 A 0.18899537 0.18899537 0 0 0 0.06640625 75.558594 A 0.18899537 0.18899537 0 0 0 0.07421875 75.576172 L 0.14453125 75.742188 A 0.18899537 0.18899537 0 0 0 0.15234375 75.759766 L 0.15234375 75.761719 A 0.18899537 0.18899537 0 0 0 0.16015625 75.775391 A 0.18899537 0.18899537 0 0 0 0.16015625 75.777344 A 0.18899537 0.18899537 0 0 0 0.16601562 75.787109 A 0.18899537 0.18899537 0 0 0 0.17382812 75.798828 L 0.2734375 75.955078 A 0.18899537 0.18899537 0 0 0 0.2734375 75.957031 L 0.28125 75.96875 A 0.18899537 0.18899537 0 0 0 0.28320312 75.972656 A 0.18899537 0.18899537 0 0 0 0.29296875 75.984375 A 0.18899537 0.18899537 0 0 0 0.3046875 75.998047 A 0.18899537 0.18899537 0 0 0 0.3046875 76 A 0.18899537 0.18899537 0 0 0 0.32226562 76.017578 L 0.45703125 76.162109 A 0.18899537 0.18899537 0 0 0 0.46875 76.171875 A 0.18899537 0.18899537 0 0 0 0.47070312 76.173828 A 0.18899537 0.18899537 0 0 0 0.47851562 76.181641 A 0.18899537 0.18899537 0 0 0 0.48632812 76.1875 L 0.63476562 76.302734 A 0.18899537 0.18899537 0 0 0 0.65039062 76.314453 L 0.65234375 76.316406 A 0.18899537 0.18899537 0 0 0 0.65625 76.318359 A 0.18899537 0.18899537 0 0 0 0.66601562 76.326172 A 0.18899537 0.18899537 0 0 0 0.66796875 76.326172 A 0.18899537 0.18899537 0 0 0 0.67773438 76.332031 A 0.18899537 0.18899537 0 0 0 0.70117188 76.34375 L 0.86132812 76.433594 A 0.18899537 0.18899537 0 0 0 0.86523438 76.435547 L 0.86914062 76.4375 A 0.18899537 0.18899537 0 0 0 0.90039062 76.451172 A 0.18899537 0.18899537 0 0 0 0.91210938 76.455078 A 0.18899537 0.18899537 0 0 0 0.93945312 76.460938 L 1.1113281 76.505859 A 0.18899537 0.18899537 0 0 0 1.1425781 76.515625 A 0.18899537 0.18899537 0 0 0 1.1894531 76.519531 L 1.3945312 76.537109 A 0.18899537 0.18899537 0 0 0 1.3984375 76.537109 A 0.18899537 0.18899537 0 0 0 1.4140625 76.537109 L 1.46875 76.537109 A 0.18899537 0.18899537 0 0 0 1.4882812 76.537109 L 15.503906 76.537109 A 0.18899537 0.18899537 0 0 0 15.523438 76.537109 L 15.580078 76.537109 L 15.912109 76.556641 L 16.226562 76.607422 A 0.18899537 0.18899537 0 0 0 16.240234 76.609375 L 16.25 76.611328 A 0.18899537 0.18899537 0 0 0 16.269531 76.615234 L 16.576172 76.6875 L 16.869141 76.794922 L 17.136719 76.925781 L 17.150391 76.931641 L 17.408203 77.087891 L 17.654297 77.269531 A 0.18899537 0.18899537 0 0 0 17.664062 77.277344 L 17.675781 77.287109 L 17.896484 77.482422 L 18.117188 77.732422 L 18.302734 77.970703 L 18.470703 78.232422 A 0.18899537 0.18899537 0 0 0 18.472656 78.236328 L 18.617188 78.533203 L 18.730469 78.820312 L 18.816406 79.142578 L 18.869141 79.470703 L 18.886719 79.804688 L 18.886719 79.84375 A 0.18899537 0.18899537 0 0 0 18.886719 79.861328 L 18.886719 136.53125 A 0.18899537 0.18899537 0 0 0 18.886719 136.55078 A 0.18899537 0.18899537 0 0 0 18.886719 136.56836 L 18.886719 136.58008 L 18.867188 136.91211 L 18.8125 137.24805 L 18.728516 137.55859 L 18.619141 137.85938 L 18.482422 138.13867 L 18.330078 138.38281 A 0.18899537 0.18899537 0 0 0 18.328125 138.38672 L 18.126953 138.6543 L 17.917969 138.88086 L 17.691406 139.08789 L 17.451172 139.26758 L 17.164062 139.44141 L 16.880859 139.57617 A 0.18899537 0.18899537 0 0 0 16.873047 139.58008 L 16.576172 139.69531 L 16.271484 139.77539 L 15.949219 139.81836 A 0.18899537 0.18899537 0 0 0 15.941406 139.82031 L 15.636719 139.8457 A 0.18899537 0.18899537 0 0 0 15.583984 139.83594 A 0.18899537 0.18899537 0 0 0 15.582031 139.83594 A 0.18899537 0.18899537 0 0 0 15.570312 139.83594 L 4.234375 139.83594 L 4.2148438 139.83594 A 0.18899537 0.18899537 0 0 0 4.1640625 139.8418 A 0.18899537 0.18899537 0 0 0 4.1425781 139.8457 L 4.078125 139.85938 L 3.6972656 139.89453 A 0.18899537 0.18899537 0 0 0 3.6953125 139.89453 A 0.18899537 0.18899537 0 0 0 3.6835938 139.89648 A 0.18899537 0.18899537 0 0 0 3.6777344 139.89844 L 3.3085938 139.96289 A 0.18899537 0.18899537 0 0 0 3.2929688 139.96484 A 0.18899537 0.18899537 0 0 0 3.2617188 139.97461 L 2.90625 140.07422 A 0.18899537 0.18899537 0 0 0 2.8984375 140.07617 A 0.18899537 0.18899537 0 0 0 2.8867188 140.08008 L 2.53125 140.22461 A 0.18899537 0.18899537 0 0 0 2.5214844 140.22852 A 0.18899537 0.18899537 0 0 0 2.5136719 140.23242 L 2.1914062 140.38477 A 0.18899537 0.18899537 0 0 0 2.1835938 140.38867 L 2.1757812 140.39258 A 0.18899537 0.18899537 0 0 0 2.1640625 140.39844 A 0.18899537 0.18899537 0 0 0 2.1582031 140.40039 A 0.18899537 0.18899537 0 0 0 2.1542969 140.4043 A 0.18899537 0.18899537 0 0 0 2.1425781 140.41211 L 1.8496094 140.59766 L 1.8378906 140.60547 A 0.18899537 0.18899537 0 0 0 1.8320312 140.60938 A 0.18899537 0.18899537 0 0 0 1.8222656 140.61523 A 0.18899537 0.18899537 0 0 0 1.8085938 140.62891 L 1.5410156 140.83398 A 0.18899537 0.18899537 0 0 0 1.5292969 140.84375 L 1.5253906 140.8457 A 0.18899537 0.18899537 0 0 0 1.5234375 140.84766 A 0.18899537 0.18899537 0 0 0 1.5117188 140.85742 A 0.18899537 0.18899537 0 0 0 1.4960938 140.87305 L 1.234375 141.11523 A 0.18899537 0.18899537 0 0 0 1.2324219 141.11914 A 0.18899537 0.18899537 0 0 0 1.2207031 141.12891 A 0.18899537 0.18899537 0 0 0 1.2089844 141.14453 L 0.97265625 141.40625 A 0.18899537 0.18899537 0 0 0 0.97070312 141.4082 A 0.18899537 0.18899537 0 0 0 0.96289062 141.41992 A 0.18899537 0.18899537 0 0 0 0.9609375 141.42188 A 0.18899537 0.18899537 0 0 0 0.94921875 141.43945 L 0.73242188 141.72656 A 0.18899537 0.18899537 0 0 0 0.72851562 141.73047 A 0.18899537 0.18899537 0 0 0 0.72070312 141.74219 L 0.52929688 142.05859 A 0.18899537 0.18899537 0 0 0 0.52734375 142.06055 A 0.18899537 0.18899537 0 0 0 0.52148438 142.07227 L 0.35546875 142.4043 A 0.18899537 0.18899537 0 0 0 0.35351562 142.4082 L 0.34960938 142.41797 A 0.18899537 0.18899537 0 0 0 0.34375 142.43164 A 0.18899537 0.18899537 0 0 0 0.34179688 142.43555 A 0.18899537 0.18899537 0 0 0 0.34179688 142.4375 A 0.18899537 0.18899537 0 0 0 0.3359375 142.45312 L 0.21484375 142.78125 A 0.18899537 0.18899537 0 0 0 0.2109375 142.78906 L 0.20703125 142.80273 A 0.18899537 0.18899537 0 0 0 0.20507812 142.80664 A 0.18899537 0.18899537 0 0 0 0.19726562 142.83789 L 0.11132812 143.17383 A 0.18899537 0.18899537 0 0 0 0.1015625 143.20898 A 0.18899537 0.18899537 0 0 0 0.1015625 143.21289 L 0.037109375 143.57812 A 0.18899537 0.18899537 0 0 0 0.037109375 143.58008 L 0.03515625 143.59375 A 0.18899537 0.18899537 0 0 0 0.033203125 143.59961 A 0.18899537 0.18899537 0 0 0 0.033203125 143.60156 A 0.18899537 0.18899537 0 0 0 0.03125 143.63477 L 0.00390625 144.01562 A 0.18899537 0.18899537 0 0 0 0.001953125 144.03516 L 0 144.04297 A 0.18899537 0.18899537 0 0 0 0 144.04492 A 0.18899537 0.18899537 0 0 0 -0.00390625 144.06445 L -0.00390625 144.06836 A 0.18899537 0.18899537 0 0 0 -0.00390625 144.07422 A 0.18899537 0.18899537 0 0 0 -0.005859375 144.08203 A 0.18899537 0.18899537 0 0 0 -0.005859375 144.08789 A 0.18899537 0.18899537 0 0 0 -0.005859375 144.0918 A 0.18899537 0.18899537 0 0 0 -0.005859375 144.0957 A 0.18899537 0.18899537 0 0 0 -0.005859375 144.125 L -0.005859375 144.18164 A 0.18899537 0.18899537 0 0 0 -0.005859375 144.20117 L -0.005859375 202.66211 A 0.18899537 0.18899537 0 0 0 -0.005859375 202.67188 L -0.005859375 202.67578 L -0.005859375 202.68555 A 0.18899537 0.18899537 0 0 0 -0.005859375 202.69141 A 0.18899537 0.18899537 0 0 0 -0.005859375 202.69336 A 0.18899537 0.18899537 0 0 0 -0.005859375 202.70312 A 0.18899537 0.18899537 0 0 0 -0.00390625 202.71289 L 0.00390625 202.79883 A 0.18899537 0.18899537 0 0 0 0.00390625 202.80469 L 0.021484375 203.38281 A 0.18899537 0.18899537 0 0 0 0.0234375 203.39062 A 0.18899537 0.18899537 0 0 0 0.025390625 203.40625 L 0.0703125 203.97656 A 0.18899537 0.18899537 0 0 0 0.072265625 203.98633 A 0.18899537 0.18899537 0 0 0 0.076171875 204.01367 L 0.14648438 204.53125 A 0.18899537 0.18899537 0 0 0 0.1484375 204.54883 L 0.1484375 204.55273 A 0.18899537 0.18899537 0 0 0 0.15039062 204.5625 A 0.18899537 0.18899537 0 0 0 0.15625 204.58984 L 0.25195312 205.10742 A 0.18899537 0.18899537 0 0 0 0.25585938 205.125 L 0.25585938 205.12891 A 0.18899537 0.18899537 0 0 0 0.2578125 205.13672 A 0.18899537 0.18899537 0 0 0 0.2578125 205.13867 A 0.18899537 0.18899537 0 0 0 0.265625 205.16602 L 0.38867188 205.67578 A 0.18899537 0.18899537 0 0 0 0.390625 205.68945 L 0.39257812 205.69531 A 0.18899537 0.18899537 0 0 0 0.39453125 205.70312 A 0.18899537 0.18899537 0 0 0 0.3984375 205.7168 L 0.546875 206.25 A 0.18899537 0.18899537 0 0 0 0.55078125 206.25977 A 0.18899537 0.18899537 0 0 0 0.56054688 206.28516 L 0.7265625 206.77734 A 0.18899537 0.18899537 0 0 0 0.73242188 206.79492 L 0.73242188 206.79688 A 0.18899537 0.18899537 0 0 0 0.734375 206.80273 A 0.18899537 0.18899537 0 0 0 0.73632812 206.80664 A 0.18899537 0.18899537 0 0 0 0.74023438 206.81445 L 0.94726562 207.32617 A 0.18899537 0.18899537 0 0 0 0.95117188 207.33203 A 0.18899537 0.18899537 0 0 0 0.96484375 207.35938 L 1.1796875 207.83594 A 0.18899537 0.18899537 0 0 0 1.1796875 207.83789 L 1.1816406 207.8418 A 0.18899537 0.18899537 0 0 0 1.1855469 207.84961 A 0.18899537 0.18899537 0 0 0 1.1894531 207.85742 L 1.1914062 207.86133 A 0.18899537 0.18899537 0 0 0 1.1992188 207.875 L 1.4355469 208.32812 A 0.18899537 0.18899537 0 0 0 1.4433594 208.3457 L 1.4453125 208.34961 A 0.18899537 0.18899537 0 0 0 1.4492188 208.35742 A 0.18899537 0.18899537 0 0 0 1.4550781 208.36523 L 1.7207031 208.82617 A 0.18899537 0.18899537 0 0 0 1.7265625 208.83594 L 1.7285156 208.83789 A 0.18899537 0.18899537 0 0 0 1.734375 208.84766 A 0.18899537 0.18899537 0 0 0 1.7382812 208.85352 L 2.0410156 209.30859 A 0.18899537 0.18899537 0 0 0 2.0429688 209.3125 A 0.18899537 0.18899537 0 0 0 2.0527344 209.32422 L 2.3476562 209.74414 A 0.18899537 0.18899537 0 0 0 2.359375 209.75977 L 2.3613281 209.76367 A 0.18899537 0.18899537 0 0 0 2.3671875 209.77148 A 0.18899537 0.18899537 0 0 0 2.375 209.78125 L 2.7011719 210.19727 A 0.18899537 0.18899537 0 0 0 2.7109375 210.21094 L 2.7128906 210.21289 A 0.18899537 0.18899537 0 0 0 2.71875 210.2207 A 0.18899537 0.18899537 0 0 0 2.7246094 210.22656 L 3.0664062 210.61328 A 0.18899537 0.18899537 0 0 0 3.078125 210.62695 L 3.0839844 210.63477 A 0.18899537 0.18899537 0 0 0 3.0878906 210.63672 A 0.18899537 0.18899537 0 0 0 3.1113281 210.66016 L 3.4609375 211.04102 A 0.18899537 0.18899537 0 0 0 3.4707031 211.05078 A 0.18899537 0.18899537 0 0 0 3.4765625 211.05664 L 3.875 211.42578 A 0.18899537 0.18899537 0 0 0 3.8789062 211.42969 A 0.18899537 0.18899537 0 0 0 3.8886719 211.4375 L 4.2890625 211.7832 A 0.18899537 0.18899537 0 0 0 4.296875 211.79102 L 4.3027344 211.79492 A 0.18899537 0.18899537 0 0 0 4.3066406 211.79883 L 4.7304688 212.13672 A 0.18899537 0.18899537 0 0 0 4.7382812 212.14453 L 4.7402344 212.14453 A 0.18899537 0.18899537 0 0 0 4.7480469 212.15234 A 0.18899537 0.18899537 0 0 0 4.7539062 212.15625 L 5.1816406 212.45508 A 0.18899537 0.18899537 0 0 0 5.1972656 212.4668 L 5.2011719 212.46875 A 0.18899537 0.18899537 0 0 0 5.2070312 212.47266 A 0.18899537 0.18899537 0 0 0 5.2167969 212.47852 L 5.6777344 212.77148 A 0.18899537 0.18899537 0 0 0 5.6816406 212.77344 A 0.18899537 0.18899537 0 0 0 5.6835938 212.77539 A 0.18899537 0.18899537 0 0 0 5.6953125 212.78125 L 6.1542969 213.04688 A 0.18899537 0.18899537 0 0 0 6.1601562 213.05078 L 6.1640625 213.05273 A 0.18899537 0.18899537 0 0 0 6.171875 213.05664 A 0.18899537 0.18899537 0 0 0 6.1855469 213.06445 L 6.6503906 213.30469 A 0.18899537 0.18899537 0 0 0 6.6523438 213.30664 A 0.18899537 0.18899537 0 0 0 6.6679688 213.31445 L 6.671875 213.31641 A 0.18899537 0.18899537 0 0 0 6.6796875 213.32031 A 0.18899537 0.18899537 0 0 0 6.6875 213.32422 L 6.6894531 213.32422 L 7.1796875 213.54688 A 0.18899537 0.18899537 0 0 0 7.1835938 213.54883 L 7.1894531 213.55078 A 0.18899537 0.18899537 0 0 0 7.1953125 213.55469 A 0.18899537 0.18899537 0 0 0 7.2070312 213.55859 L 7.6953125 213.75781 A 0.18899537 0.18899537 0 0 0 7.7128906 213.76562 L 7.7148438 213.76562 A 0.18899537 0.18899537 0 0 0 7.7246094 213.76953 A 0.18899537 0.18899537 0 0 0 7.75 213.77734 L 8.2539062 213.94922 A 0.18899537 0.18899537 0 0 0 8.2597656 213.95117 L 8.2617188 213.95117 A 0.18899537 0.18899537 0 0 0 8.2714844 213.95508 A 0.18899537 0.18899537 0 0 0 8.28125 213.95703 L 8.8066406 214.10352 A 0.18899537 0.18899537 0 0 0 8.8164062 214.10742 L 8.8183594 214.10742 A 0.18899537 0.18899537 0 0 0 8.828125 214.11133 A 0.18899537 0.18899537 0 0 0 8.8378906 214.11328 L 9.3867188 214.23633 A 0.18899537 0.18899537 0 0 0 9.3925781 214.23633 A 0.18899537 0.18899537 0 0 0 9.4042969 214.23828 L 9.9375 214.33789 A 0.18899537 0.18899537 0 0 0 9.9550781 214.3418 L 9.9589844 214.3418 A 0.18899537 0.18899537 0 0 0 9.96875 214.34375 A 0.18899537 0.18899537 0 0 0 9.9785156 214.3457 L 10.544922 214.42188 A 0.18899537 0.18899537 0 0 0 10.5625 214.42188 L 11.128906 214.4707 L 11.130859 214.4707 A 0.18899537 0.18899537 0 0 0 11.138672 214.4707 A 0.18899537 0.18899537 0 0 0 11.148438 214.4707 L 11.728516 214.49023 L 11.734375 214.49023 A 0.18899537 0.18899537 0 0 0 11.740234 214.49023 A 0.18899537 0.18899537 0 0 0 11.753906 214.49023 L 11.808594 214.49023 L 234.77539 214.49023 A 0.18899537 0.18899537 0 0 0 234.78516 214.49023 L 234.78711 214.49023 A 0.18899537 0.18899537 0 0 0 234.79688 214.49023 L 234.82617 214.49023 A 0.18899537 0.18899537 0 0 0 234.83203 214.49023 L 235.60938 214.46094 A 0.18899537 0.18899537 0 0 0 235.64062 214.46094 L 236.41797 214.38281 A 0.18899537 0.18899537 0 0 0 236.41992 214.38281 A 0.18899537 0.18899537 0 0 0 236.42188 214.38281 A 0.18899537 0.18899537 0 0 0 236.43164 214.38086 L 236.45508 214.37695 A 0.18899537 0.18899537 0 0 0 236.45703 214.37695 L 237.17969 214.25 A 0.18899537 0.18899537 0 0 0 237.21289 214.24414 L 237.94336 214.06641 A 0.18899537 0.18899537 0 0 0 237.96094 214.0625 A 0.18899537 0.18899537 0 0 0 237.97461 214.05859 L 237.98047 214.05664 A 0.18899537 0.18899537 0 0 0 237.99805 214.05078 L 238.67383 213.83398 A 0.18899537 0.18899537 0 0 0 238.69531 213.82812 A 0.18899537 0.18899537 0 0 0 238.70312 213.82422 A 0.18899537 0.18899537 0 0 0 238.7207 213.81836 L 239.39844 213.5625 A 0.18899537 0.18899537 0 0 0 239.41406 213.55664 A 0.18899537 0.18899537 0 0 0 239.41602 213.55469 A 0.18899537 0.18899537 0 0 0 239.42969 213.54883 L 239.43164 213.54883 L 239.4375 213.54492 A 0.18899537 0.18899537 0 0 0 239.44727 213.53906 L 240.08984 213.23242 A 0.18899537 0.18899537 0 0 0 240.10547 213.22656 L 240.10742 213.22461 L 240.11133 213.22266 A 0.18899537 0.18899537 0 0 0 240.11914 213.21875 L 240.12891 213.21289 L 240.75391 212.87305 A 0.18899537 0.18899537 0 0 0 240.7832 212.85742 L 240.78906 212.85352 A 0.18899537 0.18899537 0 0 0 240.80273 212.84375 L 241.39844 212.46484 A 0.18899537 0.18899537 0 0 0 241.41602 212.45312 A 0.18899537 0.18899537 0 0 0 241.42578 212.44727 L 241.42773 212.44531 L 241.43164 212.44336 A 0.18899537 0.18899537 0 0 0 241.44727 212.43164 L 242.01367 212.01758 A 0.18899537 0.18899537 0 0 0 242.02344 212.01172 L 242.0293 212.00781 A 0.18899537 0.18899537 0 0 0 242.03125 212.00586 A 0.18899537 0.18899537 0 0 0 242.03516 212.00391 A 0.18899537 0.18899537 0 0 0 242.04102 211.99805 L 242.04688 211.99414 A 0.18899537 0.18899537 0 0 0 242.06055 211.98047 L 242.58984 211.54102 A 0.18899537 0.18899537 0 0 0 242.60156 211.5332 L 242.60547 211.5293 A 0.18899537 0.18899537 0 0 0 242.60742 211.52734 A 0.18899537 0.18899537 0 0 0 242.61523 211.52148 L 242.62109 211.51562 A 0.18899537 0.18899537 0 0 0 242.63477 211.50195 L 243.15039 211.02148 A 0.18899537 0.18899537 0 0 0 243.15625 211.01758 L 243.16211 211.01172 A 0.18899537 0.18899537 0 0 0 243.16602 211.00977 A 0.18899537 0.18899537 0 0 0 243.17383 211 L 243.17578 210.99805 A 0.18899537 0.18899537 0 0 0 243.1875 210.98438 L 243.65625 210.4707 A 0.18899537 0.18899537 0 0 0 243.67188 210.45312 A 0.18899537 0.18899537 0 0 0 243.67773 210.44727 L 243.68555 210.43945 A 0.18899537 0.18899537 0 0 0 243.68945 210.43359 L 244.14648 209.88477 A 0.18899537 0.18899537 0 0 0 244.1582 209.87109 A 0.18899537 0.18899537 0 0 0 244.16602 209.85938 L 244.16992 209.85547 A 0.18899537 0.18899537 0 0 0 244.17969 209.83984 L 244.58594 209.27148 A 0.18899537 0.18899537 0 0 0 244.58984 209.26758 L 244.59766 209.25781 A 0.18899537 0.18899537 0 0 0 244.59766 209.25586 A 0.18899537 0.18899537 0 0 0 244.60547 209.24609 L 244.60938 209.24023 A 0.18899537 0.18899537 0 0 0 244.60938 209.23828 L 244.98047 208.63867 A 0.18899537 0.18899537 0 0 0 244.98828 208.62695 L 245.13086 208.43945 A 0.18899537 0.18899537 0 0 0 245.13672 208.43359 L 245.14453 208.42578 A 0.18899537 0.18899537 0 0 0 245.15039 208.41602 A 0.18899537 0.18899537 0 0 0 245.15625 208.41016 A 0.18899537 0.18899537 0 0 0 245.16211 208.40039 A 0.18899537 0.18899537 0 0 0 245.16406 208.39844 L 245.30469 208.16406 A 0.18899537 0.18899537 0 0 0 245.30859 208.1582 A 0.18899537 0.18899537 0 0 0 245.3125 208.14844 A 0.18899537 0.18899537 0 0 0 245.31641 208.14062 A 0.18899537 0.18899537 0 0 0 245.31836 208.13672 L 245.32422 208.125 A 0.18899537 0.18899537 0 0 0 245.32617 208.11914 L 245.43359 207.86719 A 0.18899537 0.18899537 0 0 0 245.44336 207.84766 A 0.18899537 0.18899537 0 0 0 245.44727 207.83984 A 0.18899537 0.18899537 0 0 0 245.44727 207.83789 L 245.45117 207.83008 A 0.18899537 0.18899537 0 0 0 245.45312 207.82422 L 245.56445 207.52148 A 0.18899537 0.18899537 0 0 0 245.56641 207.51758 L 245.57031 207.50977 L 245.79883 206.95508 A 0.18899537 0.18899537 0 0 0 245.80078 206.95312 A 0.18899537 0.18899537 0 0 0 245.80273 206.94336 L 245.80664 206.93359 A 0.18899537 0.18899537 0 0 0 245.8125 206.91602 L 246.00391 206.38086 A 0.18899537 0.18899537 0 0 0 246.00586 206.37695 A 0.18899537 0.18899537 0 0 0 246.01562 206.33984 L 246.17383 205.81445 A 0.18899537 0.18899537 0 0 0 246.18164 205.79102 A 0.18899537 0.18899537 0 0 0 246.18359 205.7832 L 246.18555 205.77344 A 0.18899537 0.18899537 0 0 0 246.18945 205.75586 L 246.32617 205.20312 A 0.18899537 0.18899537 0 0 0 246.32812 205.19727 A 0.18899537 0.18899537 0 0 0 246.33398 205.16016 L 246.44922 204.60156 A 0.18899537 0.18899537 0 0 0 246.45117 204.5957 L 246.45312 204.58594 A 0.18899537 0.18899537 0 0 0 246.45508 204.58398 A 0.18899537 0.18899537 0 0 0 246.45703 204.57031 L 246.45703 204.56641 A 0.18899537 0.18899537 0 0 0 246.45898 204.54883 L 246.5293 203.98047 A 0.18899537 0.18899537 0 0 0 246.53125 203.9707 L 246.5332 203.96289 A 0.18899537 0.18899537 0 0 0 246.5332 203.95703 A 0.18899537 0.18899537 0 0 0 246.5332 203.95117 L 246.53516 203.9375 A 0.18899537 0.18899537 0 0 0 246.53516 203.92969 L 246.58984 203.35156 A 0.18899537 0.18899537 0 0 0 246.5918 203.33594 A 0.18899537 0.18899537 0 0 0 246.5918 203.33203 A 0.18899537 0.18899537 0 0 0 246.5918 203.32031 L 246.5918 203.31641 A 0.18899537 0.18899537 0 0 0 246.5918 203.29883 L 246.60156 202.71875 A 0.18899537 0.18899537 0 0 0 246.60156 202.67578 A 0.18899537 0.18899537 0 0 0 246.60156 202.66797 A 0.18899537 0.18899537 0 0 0 246.60156 202.66211 A 0.18899537 0.18899537 0 0 0 246.60156 202.65625 L 246.60156 11.90625 A 0.18899537 0.18899537 0 0 0 246.60156 11.894531 A 0.18899537 0.18899537 0 0 0 246.60156 11.875 L 246.60156 11.839844 A 0.18899537 0.18899537 0 0 0 246.60156 11.830078 A 0.18899537 0.18899537 0 0 0 246.60156 11.828125 A 0.18899537 0.18899537 0 0 0 246.60156 11.808594 A 0.18899537 0.18899537 0 0 0 246.60156 11.798828 L 246.60156 11.759766 A 0.18899537 0.18899537 0 0 0 246.60156 11.753906 L 246.60156 11.740234 A 0.18899537 0.18899537 0 0 0 246.60156 11.738281 L 246.58203 11.181641 A 0.18899537 0.18899537 0 0 0 246.58203 11.148438 L 246.58203 11.140625 A 0.18899537 0.18899537 0 0 0 246.58008 11.134766 L 246.53516 10.585938 A 0.18899537 0.18899537 0 0 0 246.5332 10.554688 L 246.45898 10 A 0.18899537 0.18899537 0 0 0 246.45703 9.9785156 A 0.18899537 0.18899537 0 0 0 246.45508 9.96875 L 246.34961 9.4082031 A 0.18899537 0.18899537 0 0 0 246.34766 9.3945312 L 246.22656 8.859375 A 0.18899537 0.18899537 0 0 0 246.22266 8.8378906 A 0.18899537 0.18899537 0 0 0 246.2207 8.828125 L 246.21875 8.8203125 A 0.18899537 0.18899537 0 0 0 246.21875 8.8183594 L 246.07031 8.2988281 A 0.18899537 0.18899537 0 0 0 246.06641 8.28125 A 0.18899537 0.18899537 0 0 0 246.0625 8.2695312 L 246.06055 8.2636719 A 0.18899537 0.18899537 0 0 0 246.06055 8.2617188 L 245.87891 7.7578125 A 0.18899537 0.18899537 0 0 0 245.87109 7.7324219 A 0.18899537 0.18899537 0 0 0 245.87109 7.7304688 A 0.18899537 0.18899537 0 0 0 245.86914 7.7265625 L 245.67578 7.2304688 A 0.18899537 0.18899537 0 0 0 245.67188 7.2207031 L 245.66992 7.2128906 A 0.18899537 0.18899537 0 0 0 245.66797 7.2089844 A 0.18899537 0.18899537 0 0 0 245.66406 7.1992188 L 245.44141 6.7011719 A 0.18899537 0.18899537 0 0 0 245.43359 6.6816406 A 0.18899537 0.18899537 0 0 0 245.42773 6.6699219 L 245.42578 6.6640625 A 0.18899537 0.18899537 0 0 0 245.41602 6.6484375 L 245.17188 6.1875 A 0.18899537 0.18899537 0 0 0 245.16797 6.1796875 A 0.18899537 0.18899537 0 0 0 245.16602 6.1757812 L 244.89844 5.7070312 A 0.18899537 0.18899537 0 0 0 244.88672 5.6855469 A 0.18899537 0.18899537 0 0 0 244.88281 5.6777344 L 244.58594 5.2089844 A 0.18899537 0.18899537 0 0 0 244.58594 5.2070312 A 0.18899537 0.18899537 0 0 0 244.57812 5.1972656 L 244.57422 5.1914062 A 0.18899537 0.18899537 0 0 0 244.57227 5.1894531 A 0.18899537 0.18899537 0 0 0 244.5625 5.1777344 L 244.26562 4.765625 A 0.18899537 0.18899537 0 0 0 244.26367 4.7617188 L 244.25586 4.75 A 0.18899537 0.18899537 0 0 0 244.25195 4.7460938 A 0.18899537 0.18899537 0 0 0 244.24609 4.7402344 L 244.24023 4.7324219 A 0.18899537 0.18899537 0 0 0 244.22852 4.71875 L 243.90625 4.3144531 A 0.18899537 0.18899537 0 0 0 243.90039 4.3066406 A 0.18899537 0.18899537 0 0 0 243.89844 4.3046875 L 243.55664 3.8984375 A 0.18899537 0.18899537 0 0 0 243.54688 3.8867188 L 243.54492 3.8828125 A 0.18899537 0.18899537 0 0 0 243.54297 3.8808594 A 0.18899537 0.18899537 0 0 0 243.53516 3.8730469 L 243.53125 3.8671875 A 0.18899537 0.18899537 0 0 0 243.52539 3.8632812 L 243.16406 3.484375 A 0.18899537 0.18899537 0 0 0 243.15234 3.4726562 L 243.15234 3.4707031 A 0.18899537 0.18899537 0 0 0 243.15039 3.46875 A 0.18899537 0.18899537 0 0 0 243.14258 3.4609375 L 243.13867 3.4570312 A 0.18899537 0.18899537 0 0 0 243.13672 3.4550781 L 242.75781 3.1054688 A 0.18899537 0.18899537 0 0 0 242.74023 3.0878906 A 0.18899537 0.18899537 0 0 0 242.73438 3.0820312 L 242.33008 2.734375 A 0.18899537 0.18899537 0 0 0 242.3125 2.71875 A 0.18899537 0.18899537 0 0 0 242.30664 2.7128906 L 241.89258 2.3828125 A 0.18899537 0.18899537 0 0 0 241.875 2.3671875 A 0.18899537 0.18899537 0 0 0 241.86719 2.3613281 L 241.85938 2.3554688 A 0.18899537 0.18899537 0 0 0 241.85742 2.3535156 A 0.18899537 0.18899537 0 0 0 241.84375 2.3457031 L 241.43359 2.0488281 A 0.18899537 0.18899537 0 0 0 241.41602 2.0351562 A 0.18899537 0.18899537 0 0 0 241.40625 2.0292969 L 241.40039 2.0253906 A 0.18899537 0.18899537 0 0 0 241.38477 2.015625 L 240.95508 1.7460938 A 0.18899537 0.18899537 0 0 0 240.93555 1.7324219 A 0.18899537 0.18899537 0 0 0 240.92969 1.7285156 L 240.91992 1.7226562 A 0.18899537 0.18899537 0 0 0 240.91797 1.7226562 L 240.4707 1.4628906 A 0.18899537 0.18899537 0 0 0 240.46484 1.4570312 L 240.44922 1.4492188 A 0.18899537 0.18899537 0 0 0 240.44141 1.4453125 L 239.94531 1.1875 A 0.18899537 0.18899537 0 0 0 239.94336 1.1855469 A 0.18899537 0.18899537 0 0 0 239.93359 1.1816406 L 239.92578 1.1777344 A 0.18899537 0.18899537 0 0 0 239.92188 1.1757812 L 239.42969 0.953125 A 0.18899537 0.18899537 0 0 0 239.42578 0.95117188 A 0.18899537 0.18899537 0 0 0 239.41797 0.94726562 L 238.90234 0.73828125 A 0.18899537 0.18899537 0 0 0 238.90039 0.73632812 A 0.18899537 0.18899537 0 0 0 238.88867 0.73242188 L 238.37109 0.55859375 A 0.18899537 0.18899537 0 0 0 238.35938 0.55273438 L 238.35352 0.55078125 A 0.18899537 0.18899537 0 0 0 238.35156 0.55078125 A 0.18899537 0.18899537 0 0 0 238.33398 0.54492188 L 237.82031 0.40234375 A 0.18899537 0.18899537 0 0 0 237.80664 0.3984375 L 237.80273 0.39648438 A 0.18899537 0.18899537 0 0 0 237.79492 0.39453125 A 0.18899537 0.18899537 0 0 0 237.78906 0.39257812 L 237.77734 0.38867188 A 0.18899537 0.18899537 0 0 0 237.76953 0.38867188 L 237.25391 0.26367188 A 0.18899537 0.18899537 0 0 0 237.24219 0.25976562 L 237.23438 0.2578125 A 0.18899537 0.18899537 0 0 0 237.23242 0.2578125 A 0.18899537 0.18899537 0 0 0 237.22266 0.25585938 L 237.21289 0.25390625 A 0.18899537 0.18899537 0 0 0 237.21094 0.25390625 L 236.6582 0.15039062 A 0.18899537 0.18899537 0 0 0 236.65625 0.15039062 A 0.18899537 0.18899537 0 0 0 236.64453 0.1484375 L 236.08203 0.076171875 A 0.18899537 0.18899537 0 0 0 236.07031 0.07421875 L 236.06445 0.072265625 A 0.18899537 0.18899537 0 0 0 236.06055 0.072265625 A 0.18899537 0.18899537 0 0 0 236.05078 0.0703125 L 235.48633 0.025390625 L 235.4707 0.0234375 A 0.18899537 0.18899537 0 0 0 235.46484 0.0234375 A 0.18899537 0.18899537 0 0 0 235.45508 0.021484375 L 234.88672 0.00390625 L 234.81055 -0.005859375 A 0.18899537 0.18899537 0 0 0 234.79883 -0.005859375 A 0.18899537 0.18899537 0 0 0 234.79102 -0.005859375 A 0.18899537 0.18899537 0 0 0 234.78711 -0.005859375 L 11.808594 -0.005859375 L 11.796875 -0.005859375 L 11.791016 -0.005859375 A 0.18899537 0.18899537 0 0 0 11.789062 -0.005859375 A 0.18899537 0.18899537 0 0 0 11.777344 -0.0078125 z M 11.804688 0.37109375 L 11.808594 0.37109375 L 234.7793 0.37109375 L 234.83984 0.37890625 A 0.18899537 0.18899537 0 0 0 234.85742 0.38085938 A 0.18899537 0.18899537 0 0 0 234.85938 0.38085938 L 235.43359 0.40039062 L 235.44336 0.40039062 L 236 0.4453125 A 0.18899537 0.18899537 0 0 0 236.00977 0.44726562 L 236.57227 0.51953125 A 0.18899537 0.18899537 0 0 0 236.58594 0.52148438 L 236.5957 0.5234375 L 236.59766 0.5234375 L 237.14453 0.625 L 237.15234 0.62695312 A 0.18899537 0.18899537 0 0 0 237.17188 0.63085938 L 237.67969 0.75390625 A 0.18899537 0.18899537 0 0 0 237.69336 0.7578125 L 237.69922 0.75976562 L 237.70312 0.75976562 A 0.18899537 0.18899537 0 0 0 237.71875 0.76367188 L 238.24023 0.91210938 A 0.18899537 0.18899537 0 0 0 238.24609 0.9140625 L 238.76758 1.0917969 L 239.27539 1.2988281 A 0.18899537 0.18899537 0 0 0 239.28516 1.3027344 L 239.75781 1.515625 A 0.18899537 0.18899537 0 0 0 239.76953 1.5214844 L 239.77539 1.5234375 L 239.77734 1.5253906 L 240.26758 1.78125 A 0.18899537 0.18899537 0 0 0 240.28516 1.7890625 L 240.72266 2.0429688 A 0.18899537 0.18899537 0 0 0 240.73438 2.0507812 L 240.74023 2.0546875 A 0.18899537 0.18899537 0 0 0 240.74219 2.0566406 A 0.18899537 0.18899537 0 0 0 240.75781 2.0644531 L 241.1875 2.3359375 A 0.18899537 0.18899537 0 0 0 241.19531 2.3417969 L 241.20508 2.3476562 L 241.62891 2.6542969 A 0.18899537 0.18899537 0 0 0 241.63867 2.6621094 L 241.64062 2.6640625 L 241.64648 2.6679688 A 0.18899537 0.18899537 0 0 0 241.66211 2.6796875 L 242.06055 3 A 0.18899537 0.18899537 0 0 0 242.06445 3.0039062 L 242.07031 3.0078125 L 242.47266 3.3554688 A 0.18899537 0.18899537 0 0 0 242.48242 3.3632812 L 242.48828 3.3691406 A 0.18899537 0.18899537 0 0 0 242.49414 3.375 L 242.87305 3.7265625 A 0.18899537 0.18899537 0 0 0 242.87695 3.7304688 L 243.25195 4.1230469 A 0.18899537 0.18899537 0 0 0 243.25391 4.125 L 243.26172 4.1328125 L 243.59766 4.5332031 A 0.18899537 0.18899537 0 0 0 243.60547 4.5429688 L 243.60938 4.546875 L 243.95117 4.9765625 L 244.26367 5.40625 A 0.18899537 0.18899537 0 0 0 244.26562 5.4101562 L 244.27344 5.4199219 L 244.55469 5.8671875 A 0.18899537 0.18899537 0 0 0 244.55859 5.8730469 L 244.56445 5.8808594 L 244.82617 6.3417969 A 0.18899537 0.18899537 0 0 0 244.83398 6.3574219 L 245.09375 6.8476562 L 245.31445 7.34375 A 0.18899537 0.18899537 0 0 0 245.31445 7.3457031 L 245.31836 7.3535156 L 245.50781 7.8398438 A 0.18899537 0.18899537 0 0 0 245.51562 7.859375 L 245.51758 7.8632812 A 0.18899537 0.18899537 0 0 0 245.52344 7.8808594 L 245.69922 8.3710938 A 0.18899537 0.18899537 0 0 0 245.70312 8.3847656 L 245.70703 8.3964844 L 245.85547 8.9316406 L 245.85547 8.9335938 L 245.97656 9.4667969 A 0.18899537 0.18899537 0 0 0 245.97656 9.4707031 L 245.97852 9.4785156 L 246.08203 10.023438 A 0.18899537 0.18899537 0 0 0 246.08203 10.027344 L 246.08398 10.037109 L 246.1582 10.603516 A 0.18899537 0.18899537 0 0 0 246.16016 10.609375 L 246.20508 11.179688 A 0.18899537 0.18899537 0 0 0 246.20703 11.199219 L 246.22461 11.746094 A 0.18899537 0.18899537 0 0 0 246.22461 11.759766 L 246.22461 11.765625 A 0.18899537 0.18899537 0 0 0 246.22461 11.785156 L 246.22461 11.814453 A 0.18899537 0.18899537 0 0 0 246.22461 11.818359 A 0.18899537 0.18899537 0 0 0 246.22461 11.828125 A 0.18899537 0.18899537 0 0 0 246.22461 11.835938 A 0.18899537 0.18899537 0 0 0 246.22461 11.845703 L 246.22461 11.880859 A 0.18899537 0.18899537 0 0 0 246.22461 11.894531 A 0.18899537 0.18899537 0 0 0 246.22461 11.914062 L 246.22461 202.65039 A 0.18899537 0.18899537 0 0 0 246.22461 202.71484 L 246.21484 203.29883 A 0.18899537 0.18899537 0 0 0 246.21484 203.30078 L 246.16016 203.90039 A 0.18899537 0.18899537 0 0 0 246.1582 203.91016 L 246.1582 203.91602 A 0.18899537 0.18899537 0 0 0 246.15625 203.93359 L 246.08594 204.49609 A 0.18899537 0.18899537 0 0 0 246.08398 204.50977 L 246.08203 204.52344 L 245.95898 205.11328 A 0.18899537 0.18899537 0 0 0 245.95508 205.13281 L 245.82227 205.67188 A 0.18899537 0.18899537 0 0 0 245.81836 205.68359 L 245.81641 205.69336 L 245.65039 206.24609 A 0.18899537 0.18899537 0 0 0 245.64844 206.25 L 245.44727 206.81641 A 0.18899537 0.18899537 0 0 0 245.44141 206.83398 L 245.23047 207.34375 A 0.18899537 0.18899537 0 0 0 245.22266 207.35938 L 245.2207 207.36523 A 0.18899537 0.18899537 0 0 0 245.21875 207.37109 A 0.18899537 0.18899537 0 0 0 245.20898 207.40039 L 245.10156 207.68555 A 0.18899537 0.18899537 0 0 0 245.09961 207.68945 L 245.09766 207.69727 L 245.0957 207.70117 L 245.09375 207.70703 L 244.97852 207.97266 L 244.83984 208.20312 L 244.70898 208.37305 A 0.18899537 0.18899537 0 0 0 244.69727 208.38672 L 244.68945 208.39648 A 0.18899537 0.18899537 0 0 0 244.67773 208.41211 A 0.18899537 0.18899537 0 0 0 244.66797 208.42773 L 244.29102 209.0332 A 0.18899537 0.18899537 0 0 0 244.29102 209.03516 L 244.28516 209.04492 L 243.86914 209.62695 A 0.18899537 0.18899537 0 0 0 243.86719 209.62891 L 243.38672 210.20508 A 0.18899537 0.18899537 0 0 0 243.38477 210.20703 L 242.9082 210.73242 A 0.18899537 0.18899537 0 0 0 242.9043 210.73438 L 242.36719 211.23438 A 0.18899537 0.18899537 0 0 0 242.36523 211.23633 L 242.35742 211.24414 L 241.79883 211.70703 L 241.21484 212.13281 A 0.18899537 0.18899537 0 0 0 241.21289 212.13477 L 241.20312 212.14258 L 240.59375 212.5293 A 0.18899537 0.18899537 0 0 0 240.5918 212.53125 L 240.58008 212.53906 L 239.95898 212.87695 A 0.18899537 0.18899537 0 0 0 239.94727 212.88281 L 239.93945 212.88672 L 239.26562 213.20898 A 0.18899537 0.18899537 0 0 0 239.24805 213.2168 L 238.57031 213.4707 A 0.18899537 0.18899537 0 0 0 238.55273 213.47852 L 237.88477 213.69141 A 0.18899537 0.18899537 0 0 0 237.87305 213.69531 L 237.85938 213.69922 L 237.12305 213.87695 L 236.39453 214.00586 A 0.18899537 0.18899537 0 0 0 236.38086 214.00781 L 236.36719 214.00977 L 235.60352 214.08398 A 0.18899537 0.18899537 0 0 0 235.58594 214.08594 L 234.81836 214.11133 L 234.79883 214.11133 A 0.18899537 0.18899537 0 0 0 234.79688 214.11133 A 0.18899537 0.18899537 0 0 0 234.78711 214.11133 L 11.820312 214.11133 A 0.18899537 0.18899537 0 0 0 11.808594 214.11133 L 11.746094 214.11133 L 11.152344 214.0918 A 0.18899537 0.18899537 0 0 0 11.146484 214.0918 L 10.585938 214.04492 L 10.041016 213.97266 A 0.18899537 0.18899537 0 0 0 10.027344 213.9707 L 10.019531 213.96875 A 0.18899537 0.18899537 0 0 0 10.013672 213.96875 L 9.4804688 213.86914 A 0.18899537 0.18899537 0 0 0 9.46875 213.86719 L 9.4609375 213.86523 A 0.18899537 0.18899537 0 0 0 9.4589844 213.86523 L 8.9335938 213.74805 A 0.18899537 0.18899537 0 0 0 8.9238281 213.74414 L 8.921875 213.74414 L 8.9121094 213.74219 L 8.3964844 213.59766 A 0.18899537 0.18899537 0 0 0 8.3847656 213.59375 L 7.8574219 213.41602 L 7.3457031 213.20703 L 6.8457031 212.98047 L 6.3535156 212.72656 L 6.3457031 212.72266 A 0.18899537 0.18899537 0 0 0 6.3320312 212.71484 L 6.3300781 212.71289 L 5.890625 212.45898 A 0.18899537 0.18899537 0 0 0 5.8828125 212.45312 L 5.8808594 212.45117 L 5.4277344 212.16602 A 0.18899537 0.18899537 0 0 0 5.4238281 212.16211 L 5.4101562 212.1543 L 4.9765625 211.84961 L 4.5585938 211.51758 A 0.18899537 0.18899537 0 0 0 4.5527344 211.51172 L 4.5488281 211.50781 L 4.5429688 211.50391 A 0.18899537 0.18899537 0 0 0 4.5292969 211.49219 L 4.1269531 211.14258 A 0.18899537 0.18899537 0 0 0 4.1113281 211.13086 L 3.7382812 210.7832 L 3.734375 210.77734 L 3.7285156 210.77344 L 3.3769531 210.39453 A 0.18899537 0.18899537 0 0 0 3.3671875 210.38281 L 3.0175781 209.99023 A 0.18899537 0.18899537 0 0 0 3.0097656 209.98047 L 3.0039062 209.97266 L 3.0019531 209.9707 A 0.18899537 0.18899537 0 0 0 2.9902344 209.95703 L 2.6699219 209.54492 L 2.6679688 209.54102 L 2.6640625 209.53711 L 2.3632812 209.10938 A 0.18899537 0.18899537 0 0 0 2.3554688 209.09766 L 2.3535156 209.09375 A 0.18899537 0.18899537 0 0 0 2.3515625 209.08984 L 2.0488281 208.63672 A 0.18899537 0.18899537 0 0 0 2.0449219 208.63281 L 1.7871094 208.1875 A 0.18899537 0.18899537 0 0 0 1.78125 208.17578 L 1.53125 207.69727 A 0.18899537 0.18899537 0 0 0 1.5253906 207.68555 L 1.5214844 207.67578 A 0.18899537 0.18899537 0 0 0 1.5195312 207.67188 L 1.3027344 207.19531 A 0.18899537 0.18899537 0 0 0 1.3007812 207.1875 L 1.2988281 207.18359 L 1.0917969 206.67578 L 1.0878906 206.66406 A 0.18899537 0.18899537 0 0 0 1.0878906 206.66211 L 0.91210938 206.14648 L 0.76367188 205.62109 A 0.18899537 0.18899537 0 0 0 0.75976562 205.60742 L 0.7578125 205.60156 L 0.7578125 205.59961 L 0.62695312 205.06055 L 0.625 205.05273 L 0.625 205.05078 A 0.18899537 0.18899537 0 0 0 0.62109375 205.03125 L 0.52539062 204.51562 A 0.18899537 0.18899537 0 0 0 0.52539062 204.51367 L 0.5234375 204.50195 L 0.44726562 203.93555 L 0.40039062 203.36914 L 0.40039062 203.36133 A 0.18899537 0.18899537 0 0 0 0.40039062 203.35938 L 0.38085938 202.79297 A 0.18899537 0.18899537 0 0 0 0.38085938 202.77539 A 0.18899537 0.18899537 0 0 0 0.38085938 202.77344 A 0.18899537 0.18899537 0 0 0 0.38085938 202.76172 L 0.37109375 202.66602 A 0.18899537 0.18899537 0 0 0 0.37109375 202.65625 L 0.37109375 144.19531 A 0.18899537 0.18899537 0 0 0 0.37109375 144.18164 A 0.18899537 0.18899537 0 0 0 0.37109375 144.16406 L 0.37109375 144.11719 A 0.18899537 0.18899537 0 0 0 0.37109375 144.10547 L 0.375 144.07422 A 0.18899537 0.18899537 0 0 0 0.37890625 144.06055 L 0.37890625 144.05664 A 0.18899537 0.18899537 0 0 0 0.37890625 144.05469 A 0.18899537 0.18899537 0 0 0 0.38085938 144.04297 L 0.41015625 143.63867 A 0.18899537 0.18899537 0 0 0 0.41015625 143.63672 L 0.47070312 143.28906 L 0.56640625 142.91406 L 0.6875 142.58594 L 0.69335938 142.57617 L 0.6953125 142.56836 L 0.85351562 142.25391 L 1.0351562 141.95312 L 1.0371094 141.95117 L 1.265625 141.64648 A 0.18899537 0.18899537 0 0 0 1.2675781 141.64258 L 1.4921875 141.39258 L 1.5 141.38477 L 1.5039062 141.38086 L 1.7480469 141.15234 A 0.18899537 0.18899537 0 0 0 1.7519531 141.14844 L 1.7578125 141.14453 L 2.0410156 140.92383 L 2.046875 140.91992 L 2.0546875 140.91406 L 2.3476562 140.72852 L 2.6601562 140.58008 A 0.18899537 0.18899537 0 0 0 2.671875 140.57422 L 2.6816406 140.57031 A 0.18899537 0.18899537 0 0 0 2.6992188 140.5625 L 3.0273438 140.43164 L 3.3828125 140.33203 L 3.7324219 140.27148 L 4.1171875 140.23438 A 0.18899537 0.18899537 0 0 0 4.1367188 140.23242 A 0.18899537 0.18899537 0 0 0 4.1523438 140.23047 A 0.18899537 0.18899537 0 0 0 4.1542969 140.23047 A 0.18899537 0.18899537 0 0 0 4.1601562 140.22852 L 4.1738281 140.22656 A 0.18899537 0.18899537 0 0 0 4.1914062 140.2207 L 4.2265625 140.21484 L 4.234375 140.21484 L 15.558594 140.21484 L 15.597656 140.2207 A 0.18899537 0.18899537 0 0 0 15.613281 140.22461 A 0.18899537 0.18899537 0 0 0 15.617188 140.22461 A 0.18899537 0.18899537 0 0 0 15.644531 140.22266 L 15.671875 140.2207 A 0.18899537 0.18899537 0 0 0 15.673828 140.2207 L 15.988281 140.19531 A 0.18899537 0.18899537 0 0 0 15.990234 140.19531 A 0.18899537 0.18899537 0 0 0 16 140.19336 A 0.18899537 0.18899537 0 0 0 16.015625 140.19141 L 16.345703 140.14648 A 0.18899537 0.18899537 0 0 0 16.365234 140.14258 A 0.18899537 0.18899537 0 0 0 16.369141 140.14062 L 16.378906 140.13867 A 0.18899537 0.18899537 0 0 0 16.382812 140.13672 L 16.695312 140.05469 A 0.18899537 0.18899537 0 0 0 16.714844 140.04688 L 16.732422 140.03906 L 17.015625 139.92969 A 0.18899537 0.18899537 0 0 0 17.044922 139.91797 L 17.048828 139.91602 A 0.18899537 0.18899537 0 0 0 17.066406 139.90625 L 17.328125 139.78125 A 0.18899537 0.18899537 0 0 0 17.34375 139.77344 A 0.18899537 0.18899537 0 0 0 17.345703 139.77344 A 0.18899537 0.18899537 0 0 0 17.357422 139.76562 L 17.359375 139.76367 A 0.18899537 0.18899537 0 0 0 17.375 139.75391 L 17.634766 139.59961 A 0.18899537 0.18899537 0 0 0 17.646484 139.5918 A 0.18899537 0.18899537 0 0 0 17.650391 139.58984 A 0.18899537 0.18899537 0 0 0 17.662109 139.58203 L 17.912109 139.39648 A 0.18899537 0.18899537 0 0 0 17.919922 139.39062 A 0.18899537 0.18899537 0 0 0 17.925781 139.38672 A 0.18899537 0.18899537 0 0 0 17.927734 139.38477 A 0.18899537 0.18899537 0 0 0 17.935547 139.37891 A 0.18899537 0.18899537 0 0 0 17.935547 139.37695 L 17.949219 139.36523 A 0.18899537 0.18899537 0 0 0 17.960938 139.35156 L 18.158203 139.16992 A 0.18899537 0.18899537 0 0 0 18.167969 139.16211 L 18.173828 139.1582 A 0.18899537 0.18899537 0 0 0 18.185547 139.14648 A 0.18899537 0.18899537 0 0 0 18.1875 139.14648 A 0.18899537 0.18899537 0 0 0 18.199219 139.13281 L 18.408203 138.90625 A 0.18899537 0.18899537 0 0 0 18.417969 138.89648 A 0.18899537 0.18899537 0 0 0 18.421875 138.89258 A 0.18899537 0.18899537 0 0 0 18.429688 138.88086 L 18.621094 138.625 A 0.18899537 0.18899537 0 0 0 18.628906 138.61523 L 18.630859 138.61328 A 0.18899537 0.18899537 0 0 0 18.632812 138.61133 A 0.18899537 0.18899537 0 0 0 18.640625 138.59961 L 18.642578 138.59766 L 18.794922 138.34766 A 0.18899537 0.18899537 0 0 0 18.798828 138.3418 L 18.806641 138.33203 A 0.18899537 0.18899537 0 0 0 18.8125 138.32031 A 0.18899537 0.18899537 0 0 0 18.816406 138.31641 A 0.18899537 0.18899537 0 0 0 18.822266 138.30469 A 0.18899537 0.18899537 0 0 0 18.822266 138.30273 L 18.830078 138.28711 A 0.18899537 0.18899537 0 0 0 18.830078 138.28516 L 18.960938 138.01758 A 0.18899537 0.18899537 0 0 0 18.974609 137.98828 A 0.18899537 0.18899537 0 0 0 18.980469 137.9707 L 19.083984 137.68555 A 0.18899537 0.18899537 0 0 0 19.087891 137.67383 L 19.089844 137.67188 A 0.18899537 0.18899537 0 0 0 19.091797 137.66797 A 0.18899537 0.18899537 0 0 0 19.091797 137.66211 A 0.18899537 0.18899537 0 0 0 19.099609 137.63086 L 19.177734 137.3418 A 0.18899537 0.18899537 0 0 0 19.181641 137.32812 A 0.18899537 0.18899537 0 0 0 19.185547 137.31055 L 19.236328 136.99414 A 0.18899537 0.18899537 0 0 0 19.240234 136.97656 L 19.242188 136.96484 A 0.18899537 0.18899537 0 0 0 19.244141 136.95703 A 0.18899537 0.18899537 0 0 0 19.244141 136.94727 A 0.18899537 0.18899537 0 0 0 19.244141 136.94531 L 19.246094 136.92773 A 0.18899537 0.18899537 0 0 0 19.246094 136.92188 L 19.261719 136.61133 A 0.18899537 0.18899537 0 0 0 19.263672 136.59375 L 19.263672 136.5918 A 0.18899537 0.18899537 0 0 0 19.263672 136.58984 A 0.18899537 0.18899537 0 0 0 19.263672 136.57031 L 19.263672 136.54297 A 0.18899537 0.18899537 0 0 0 19.263672 136.53125 A 0.18899537 0.18899537 0 0 0 19.263672 136.51172 L 19.263672 79.855469 A 0.18899537 0.18899537 0 0 0 19.263672 79.84375 A 0.18899537 0.18899537 0 0 0 19.263672 79.816406 A 0.18899537 0.18899537 0 0 0 19.263672 79.785156 L 19.263672 79.775391 A 0.18899537 0.18899537 0 0 0 19.261719 79.757812 L 19.246094 79.449219 A 0.18899537 0.18899537 0 0 0 19.244141 79.429688 A 0.18899537 0.18899537 0 0 0 19.244141 79.419922 A 0.18899537 0.18899537 0 0 0 19.242188 79.410156 A 0.18899537 0.18899537 0 0 0 19.242188 79.408203 L 19.240234 79.392578 A 0.18899537 0.18899537 0 0 0 19.238281 79.388672 L 19.1875 79.078125 A 0.18899537 0.18899537 0 0 0 19.185547 79.0625 A 0.18899537 0.18899537 0 0 0 19.183594 79.058594 A 0.18899537 0.18899537 0 0 0 19.181641 79.046875 L 19.181641 79.044922 A 0.18899537 0.18899537 0 0 0 19.175781 79.027344 L 19.097656 78.730469 A 0.18899537 0.18899537 0 0 0 19.09375 78.71875 A 0.18899537 0.18899537 0 0 0 19.087891 78.699219 L 19.082031 78.683594 A 0.18899537 0.18899537 0 0 0 19.080078 78.681641 L 18.96875 78.400391 A 0.18899537 0.18899537 0 0 0 18.964844 78.388672 L 18.962891 78.382812 A 0.18899537 0.18899537 0 0 0 18.962891 78.380859 A 0.18899537 0.18899537 0 0 0 18.957031 78.369141 L 18.955078 78.365234 A 0.18899537 0.18899537 0 0 0 18.945312 78.347656 L 18.818359 78.080078 A 0.18899537 0.18899537 0 0 0 18.8125 78.070312 A 0.18899537 0.18899537 0 0 0 18.808594 78.0625 A 0.18899537 0.18899537 0 0 0 18.804688 78.054688 A 0.18899537 0.18899537 0 0 0 18.802734 78.052734 L 18.794922 78.039062 A 0.18899537 0.18899537 0 0 0 18.791016 78.035156 L 18.626953 77.775391 A 0.18899537 0.18899537 0 0 0 18.621094 77.763672 A 0.18899537 0.18899537 0 0 0 18.617188 77.759766 A 0.18899537 0.18899537 0 0 0 18.609375 77.75 L 18.609375 77.748047 A 0.18899537 0.18899537 0 0 0 18.595703 77.732422 L 18.419922 77.505859 A 0.18899537 0.18899537 0 0 0 18.400391 77.480469 L 18.396484 77.476562 A 0.18899537 0.18899537 0 0 0 18.382812 77.462891 L 18.197266 77.253906 A 0.18899537 0.18899537 0 0 0 18.189453 77.242188 L 18.185547 77.238281 A 0.18899537 0.18899537 0 0 0 18.179688 77.232422 A 0.18899537 0.18899537 0 0 0 18.173828 77.224609 A 0.18899537 0.18899537 0 0 0 18.166016 77.21875 A 0.18899537 0.18899537 0 0 0 18.152344 77.205078 L 17.925781 77.005859 A 0.18899537 0.18899537 0 0 0 17.914062 76.994141 A 0.18899537 0.18899537 0 0 0 17.912109 76.994141 A 0.18899537 0.18899537 0 0 0 17.902344 76.984375 L 17.900391 76.982422 A 0.18899537 0.18899537 0 0 0 17.898438 76.980469 L 17.644531 76.791016 A 0.18899537 0.18899537 0 0 0 17.632812 76.783203 A 0.18899537 0.18899537 0 0 0 17.628906 76.779297 A 0.18899537 0.18899537 0 0 0 17.617188 76.771484 A 0.18899537 0.18899537 0 0 0 17.601562 76.763672 L 17.34375 76.607422 A 0.18899537 0.18899537 0 0 0 17.314453 76.591797 L 17.3125 76.589844 L 17.294922 76.582031 A 0.18899537 0.18899537 0 0 0 17.292969 76.582031 L 17.029297 76.453125 A 0.18899537 0.18899537 0 0 0 17.017578 76.447266 A 0.18899537 0.18899537 0 0 0 17.011719 76.445312 A 0.18899537 0.18899537 0 0 0 17 76.439453 A 0.18899537 0.18899537 0 0 0 16.998047 76.439453 L 16.982422 76.433594 A 0.18899537 0.18899537 0 0 0 16.980469 76.433594 L 16.691406 76.328125 A 0.18899537 0.18899537 0 0 0 16.681641 76.324219 A 0.18899537 0.18899537 0 0 0 16.673828 76.322266 A 0.18899537 0.18899537 0 0 0 16.664062 76.318359 A 0.18899537 0.18899537 0 0 0 16.660156 76.318359 L 16.646484 76.314453 A 0.18899537 0.18899537 0 0 0 16.640625 76.314453 L 16.341797 76.246094 A 0.18899537 0.18899537 0 0 0 16.3125 76.238281 L 15.996094 76.1875 A 0.18899537 0.18899537 0 0 0 15.978516 76.183594 L 15.966797 76.181641 A 0.18899537 0.18899537 0 0 0 15.958984 76.179688 A 0.18899537 0.18899537 0 0 0 15.949219 76.179688 A 0.18899537 0.18899537 0 0 0 15.929688 76.177734 A 0.18899537 0.18899537 0 0 0 15.921875 76.177734 L 15.611328 76.162109 A 0.18899537 0.18899537 0 0 0 15.595703 76.160156 L 15.59375 76.160156 A 0.18899537 0.18899537 0 0 0 15.591797 76.160156 A 0.18899537 0.18899537 0 0 0 15.580078 76.160156 L 15.515625 76.160156 A 0.18899537 0.18899537 0 0 0 15.503906 76.160156 L 1.4804688 76.160156 A 0.18899537 0.18899537 0 0 0 1.46875 76.160156 L 1.4277344 76.160156 L 1.2089844 76.142578 L 1.0351562 76.097656 L 0.86914062 76.005859 L 0.72265625 75.890625 L 0.59179688 75.753906 L 0.49414062 75.599609 L 0.421875 75.427734 L 0.38867188 75.224609 A 0.18899537 0.18899537 0 0 0 0.38867188 75.222656 A 0.18899537 0.18899537 0 0 0 0.38476562 75.207031 A 0.18899537 0.18899537 0 0 0 0.38476562 75.205078 A 0.18899537 0.18899537 0 0 0 0.38085938 75.195312 L 0.37890625 75.1875 A 0.18899537 0.18899537 0 0 0 0.37109375 75.169922 L 0.37109375 75.166016 L 0.37109375 75.142578 A 0.18899537 0.18899537 0 0 0 0.37109375 75.132812 A 0.18899537 0.18899537 0 0 0 0.37109375 75.128906 A 0.18899537 0.18899537 0 0 0 0.37109375 75.111328 A 0.18899537 0.18899537 0 0 0 0.37109375 75.101562 L 0.37109375 70.410156 A 0.18899537 0.18899537 0 0 0 0.37109375 70.396484 A 0.18899537 0.18899537 0 0 0 0.37109375 70.380859 A 0.18899537 0.18899537 0 0 0 0.37109375 70.367188 A 0.18899537 0.18899537 0 0 0 0.37109375 70.349609 L 0.37109375 11.916016 A 0.18899537 0.18899537 0 0 0 0.37109375 11.904297 A 0.18899537 0.18899537 0 0 0 0.37109375 11.884766 L 0.37109375 11.839844 L 0.37304688 11.833984 A 0.18899537 0.18899537 0 0 0 0.37890625 11.806641 A 0.18899537 0.18899537 0 0 0 0.38085938 11.796875 A 0.18899537 0.18899537 0 0 0 0.38085938 11.787109 A 0.18899537 0.18899537 0 0 0 0.38085938 11.783203 L 0.390625 11.208984 L 0.43554688 10.646484 A 0.18899537 0.18899537 0 0 0 0.43554688 10.644531 L 0.4375 10.632812 L 0.51367188 10.0625 L 0.609375 9.4863281 L 0.734375 8.9628906 A 0.18899537 0.18899537 0 0 0 0.73828125 8.9511719 L 0.73828125 8.9492188 L 0.74023438 8.9433594 A 0.18899537 0.18899537 0 0 0 0.74414062 8.9257812 L 0.88476562 8.4257812 A 0.18899537 0.18899537 0 0 0 0.88867188 8.4121094 L 1.0683594 7.8847656 L 1.0722656 7.8769531 L 1.0722656 7.875 L 1.2792969 7.3671875 A 0.18899537 0.18899537 0 0 0 1.2851562 7.3496094 L 1.4980469 6.8828125 A 0.18899537 0.18899537 0 0 0 1.5039062 6.8710938 L 1.7539062 6.3730469 A 0.18899537 0.18899537 0 0 0 1.7617188 6.3554688 L 2.0214844 5.9003906 L 2.3144531 5.4472656 L 2.6347656 4.9941406 L 2.6367188 4.9902344 L 2.640625 4.9863281 L 2.96875 4.5761719 A 0.18899537 0.18899537 0 0 0 2.9765625 4.5664062 L 2.9804688 4.5625 A 0.18899537 0.18899537 0 0 0 2.9824219 4.5605469 L 3.3242188 4.1523438 L 3.3320312 4.1445312 A 0.18899537 0.18899537 0 0 0 3.3339844 4.1425781 L 3.7089844 3.75 A 0.18899537 0.18899537 0 0 0 3.7207031 3.7363281 L 4.0878906 3.3867188 A 0.18899537 0.18899537 0 0 0 4.0957031 3.3808594 L 4.0976562 3.3789062 L 4.4941406 3.0351562 A 0.18899537 0.18899537 0 0 0 4.5039062 3.0292969 L 4.5058594 3.0273438 L 4.9296875 2.6875 L 4.9355469 2.6835938 L 4.9375 2.6816406 L 5.3710938 2.3671875 L 5.3808594 2.3613281 A 0.18899537 0.18899537 0 0 0 5.3828125 2.359375 A 0.18899537 0.18899537 0 0 0 5.3964844 2.3496094 L 5.8261719 2.0800781 A 0.18899537 0.18899537 0 0 0 5.8378906 2.0722656 L 5.8417969 2.0703125 A 0.18899537 0.18899537 0 0 0 5.84375 2.0683594 L 6.3183594 1.7851562 A 0.18899537 0.18899537 0 0 0 6.3222656 1.78125 L 6.7890625 1.5488281 A 0.18899537 0.18899537 0 0 0 6.8007812 1.5429688 L 6.8046875 1.5410156 A 0.18899537 0.18899537 0 0 0 6.8203125 1.5332031 L 7.2890625 1.3125 A 0.18899537 0.18899537 0 0 0 7.2988281 1.3085938 L 7.3007812 1.3085938 L 7.7949219 1.1054688 A 0.18899537 0.18899537 0 0 0 7.8085938 1.0996094 L 7.8105469 1.0996094 L 7.8183594 1.0957031 L 8.3457031 0.91796875 L 8.8769531 0.76953125 L 9.4238281 0.63671875 L 9.4335938 0.63476562 L 9.9667969 0.53515625 A 0.18899537 0.18899537 0 0 0 9.9765625 0.53320312 L 9.9902344 0.53125 L 10.556641 0.45703125 L 11.111328 0.41015625 A 0.18899537 0.18899537 0 0 0 11.123047 0.41015625 L 11.695312 0.390625 A 0.18899537 0.18899537 0 0 0 11.736328 0.38867188 A 0.18899537 0.18899537 0 0 0 11.748047 0.38671875 A 0.18899537 0.18899537 0 0 0 11.763672 0.3828125 L 11.773438 0.38085938 A 0.18899537 0.18899537 0 0 0 11.791016 0.375 L 11.804688 0.37109375 z "
     transform="scale(104.16667)"
     id="path10"
     inkscape:export-xdpi="96"
     inkscape:export-ydpi="96" />
</svg>
