<?xml version="1.0" standalone="no"?>
 <!DOCTYPE svg PUBLIC "-//W3C//DTD SVG 1.1//EN" 
 "http://www.w3.org/Graphics/SVG/1.1/DTD/svg11.dtd"> 
<svg xmlns="http://www.w3.org/2000/svg" version="1.1" 
    width="6.52272cm" height="5.67436cm" viewBox="0 0 25680 22340 ">
<title>SVG Picture created as mySAOhat-B.Fab.svg date 2019/04/21 23:04:57 </title>
  <desc>Picture generated by PCBNEW </desc>
<g style="fill:#000000; fill-opacity:1;stroke:#000000; stroke-opacity:1;
stroke-linecap:round; stroke-linejoin:round; "
 transform="translate(0 0) scale(1 1)">
</g>
<g style="fill:#000000; fill-opacity:0.0; 
stroke:#000000; stroke-width:-0.000393701; stroke-opacity:1; 
stroke-linecap:round; stroke-linejoin:round;">
</g>
<g style="fill:#000000; fill-opacity:0.0; 
stroke:#000000; stroke-width:39.3701; stroke-opacity:1; 
stroke-linecap:round; stroke-linejoin:round;">
<path d="M1227 19
L1220 21
" />
<path d="M1220 21
L1158 23
" />
<path d="M1158 23
L1097 28
" />
<path d="M1097 28
L1037 36
" />
<path d="M1037 36
L978 47
" />
<path d="M978 47
L920 61
" />
<path d="M920 61
L863 77
" />
<path d="M863 77
L807 96
" />
<path d="M807 96
L753 118
" />
<path d="M753 118
L700 143
" />
<path d="M700 143
L648 169
" />
<path d="M648 169
L598 199
" />
<path d="M598 199
L549 230
" />
<path d="M549 230
L502 264
" />
<path d="M502 264
L457 300
" />
<path d="M457 300
L414 337
" />
<path d="M414 337
L372 377
" />
<path d="M372 377
L332 419
" />
<path d="M332 419
L295 463
" />
<path d="M295 463
L259 508
" />
<path d="M259 508
L225 556
" />
<path d="M225 556
L194 604
" />
<path d="M194 604
L165 655
" />
<path d="M165 655
L139 707
" />
<path d="M139 707
L115 760
" />
<path d="M115 760
L93 814
" />
<path d="M93 814
L74 870
" />
<path d="M74 870
L58 927
" />
<path d="M58 927
L44 985
" />
<path d="M44 985
L34 1045
" />
<path d="M34 1045
L26 1105
" />
<path d="M26 1105
L21 1166
" />
<path d="M21 1166
L20 1227
" />
<path d="M20 1227
L19 1231
" />
<path d="M19 1231
L19 1240
" />
<path d="M19 1240
L19 7330
" />
<path d="M19 7330
L19 7333
" />
<path d="M19 7333
L19 7825
" />
<path d="M19 7825
L19 7826
" />
<path d="M19 7826
L19 7833
" />
<path d="M19 7833
L21 7839
" />
<path d="M21 7839
L25 7863
" />
<path d="M25 7863
L34 7884
" />
<path d="M34 7884
L46 7903
" />
<path d="M46 7903
L62 7920
" />
<path d="M62 7920
L80 7934
" />
<path d="M80 7934
L100 7945
" />
<path d="M100 7945
L123 7951
" />
<path d="M123 7951
L147 7953
" />
<path d="M147 7953
L153 7953
" />
<path d="M153 7953
L1615 7953
" />
<path d="M1615 7953
L1623 7953
" />
<path d="M1623 7953
L1660 7955
" />
<path d="M1660 7955
L1696 7961
" />
<path d="M1696 7961
L1731 7969
" />
<path d="M1731 7969
L1764 7981
" />
<path d="M1764 7981
L1795 7996
" />
<path d="M1795 7996
L1825 8014
" />
<path d="M1825 8014
L1853 8035
" />
<path d="M1853 8035
L1879 8058
" />
<path d="M1879 8058
L1902 8084
" />
<path d="M1902 8084
L1923 8111
" />
<path d="M1923 8111
L1942 8141
" />
<path d="M1942 8141
L1957 8172
" />
<path d="M1957 8172
L1970 8205
" />
<path d="M1970 8205
L1979 8239
" />
<path d="M1979 8239
L1985 8275
" />
<path d="M1985 8275
L1987 8312
" />
<path d="M1987 8312
L1987 8317
" />
<path d="M1987 8317
L1987 14222
" />
<path d="M1987 14222
L1987 14227
" />
<path d="M1987 14227
L1985 14264
" />
<path d="M1985 14264
L1979 14300
" />
<path d="M1979 14300
L1970 14334
" />
<path d="M1970 14334
L1958 14367
" />
<path d="M1958 14367
L1943 14398
" />
<path d="M1943 14398
L1925 14427
" />
<path d="M1925 14427
L1904 14455
" />
<path d="M1904 14455
L1881 14480
" />
<path d="M1881 14480
L1855 14504
" />
<path d="M1855 14504
L1828 14524
" />
<path d="M1828 14524
L1798 14542
" />
<path d="M1798 14542
L1767 14557
" />
<path d="M1767 14557
L1734 14570
" />
<path d="M1734 14570
L1700 14579
" />
<path d="M1700 14579
L1664 14584
" />
<path d="M1664 14584
L1628 14587
" />
<path d="M1628 14587
L1622 14586
" />
<path d="M1622 14586
L441 14586
" />
<path d="M441 14586
L438 14586
" />
<path d="M438 14586
L429 14588
" />
<path d="M429 14588
L387 14592
" />
<path d="M387 14592
L347 14599
" />
<path d="M347 14599
L308 14610
" />
<path d="M308 14610
L271 14625
" />
<path d="M271 14625
L235 14642
" />
<path d="M235 14642
L202 14663
" />
<path d="M202 14663
L171 14687
" />
<path d="M171 14687
L142 14714
" />
<path d="M142 14714
L116 14743
" />
<path d="M116 14743
L92 14775
" />
<path d="M92 14775
L72 14808
" />
<path d="M72 14808
L54 14844
" />
<path d="M54 14844
L40 14882
" />
<path d="M40 14882
L30 14921
" />
<path d="M30 14921
L23 14961
" />
<path d="M23 14961
L20 15003
" />
<path d="M20 15003
L19 15010
" />
<path d="M19 15010
L19 15011
" />
<path d="M19 15011
L19 15019
" />
<path d="M19 15019
L19 21112
" />
<path d="M19 21112
L19 21113
" />
<path d="M19 21113
L20 21123
" />
<path d="M20 21123
L22 21185
" />
<path d="M22 21185
L27 21246
" />
<path d="M27 21246
L35 21305
" />
<path d="M35 21305
L46 21364
" />
<path d="M46 21364
L60 21422
" />
<path d="M60 21422
L76 21479
" />
<path d="M76 21479
L95 21535
" />
<path d="M95 21535
L117 21589
" />
<path d="M117 21589
L141 21642
" />
<path d="M141 21642
L168 21694
" />
<path d="M168 21694
L197 21744
" />
<path d="M197 21744
L229 21792
" />
<path d="M229 21792
L262 21839
" />
<path d="M262 21839
L298 21885
" />
<path d="M298 21885
L336 21928
" />
<path d="M336 21928
L375 21970
" />
<path d="M375 21970
L417 22009
" />
<path d="M417 22009
L461 22047
" />
<path d="M461 22047
L506 22083
" />
<path d="M506 22083
L553 22116
" />
<path d="M553 22116
L602 22147
" />
<path d="M602 22147
L652 22176
" />
<path d="M652 22176
L704 22203
" />
<path d="M704 22203
L757 22227
" />
<path d="M757 22227
L811 22249
" />
<path d="M811 22249
L867 22268
" />
<path d="M867 22268
L924 22284
" />
<path d="M924 22284
L982 22297
" />
<path d="M982 22297
L1041 22308
" />
<path d="M1041 22308
L1101 22316
" />
<path d="M1101 22316
L1161 22321
" />
<path d="M1161 22321
L1223 22323
" />
<path d="M1223 22323
L1230 22323
" />
<path d="M1230 22323
L24457 22323
" />
<path d="M24457 22323
L24458 22323
" />
<path d="M24458 22323
L24461 22323
" />
<path d="M24461 22323
L24544 22320
" />
<path d="M24544 22320
L24625 22312
" />
<path d="M24625 22312
L24705 22298
" />
<path d="M24705 22298
L24783 22279
" />
<path d="M24783 22279
L24858 22255
" />
<path d="M24858 22255
L24932 22227
" />
<path d="M24932 22227
L25003 22193
" />
<path d="M25003 22193
L25071 22156
" />
<path d="M25071 22156
L25137 22114
" />
<path d="M25137 22114
L25200 22068
" />
<path d="M25200 22068
L25259 22019
" />
<path d="M25259 22019
L25316 21966
" />
<path d="M25316 21966
L25368 21909
" />
<path d="M25368 21909
L25418 21849
" />
<path d="M25418 21849
L25463 21786
" />
<path d="M25463 21786
L25504 21720
" />
<path d="M25504 21720
L25521 21698
" />
<path d="M25521 21698
L25536 21673
" />
<path d="M25536 21673
L25549 21643
" />
<path d="M25549 21643
L25562 21608
" />
<path d="M25562 21608
L25586 21550
" />
<path d="M25586 21550
L25607 21491
" />
<path d="M25607 21491
L25625 21431
" />
<path d="M25625 21431
L25640 21370
" />
<path d="M25640 21370
L25653 21307
" />
<path d="M25653 21307
L25661 21243
" />
<path d="M25661 21243
L25667 21179
" />
<path d="M25667 21179
L25668 21113
" />
<path d="M25668 21113
L25668 21113
" />
<path d="M25668 21113
L25668 21112
" />
<path d="M25668 21112
L25668 1239
" />
<path d="M25668 1239
L25668 1232
" />
<path d="M25668 1232
L25668 1231
" />
<path d="M25668 1231
L25668 1225
" />
<path d="M25668 1225
L25666 1163
" />
<path d="M25666 1163
L25661 1102
" />
<path d="M25661 1102
L25653 1042
" />
<path d="M25653 1042
L25642 983
" />
<path d="M25642 983
L25629 925
" />
<path d="M25629 925
L25613 868
" />
<path d="M25613 868
L25593 812
" />
<path d="M25593 812
L25572 758
" />
<path d="M25572 758
L25548 704
" />
<path d="M25548 704
L25521 653
" />
<path d="M25521 653
L25492 602
" />
<path d="M25492 602
L25461 553
" />
<path d="M25461 553
L25427 506
" />
<path d="M25427 506
L25391 461
" />
<path d="M25391 461
L25354 417
" />
<path d="M25354 417
L25314 375
" />
<path d="M25314 375
L25272 336
" />
<path d="M25272 336
L25228 298
" />
<path d="M25228 298
L25183 262
" />
<path d="M25183 262
L25136 228
" />
<path d="M25136 228
L25087 197
" />
<path d="M25087 197
L25037 168
" />
<path d="M25037 168
L24985 141
" />
<path d="M24985 141
L24932 117
" />
<path d="M24932 117
L24878 95
" />
<path d="M24878 95
L24822 76
" />
<path d="M24822 76
L24765 60
" />
<path d="M24765 60
L24707 46
" />
<path d="M24707 46
L24648 35
" />
<path d="M24648 35
L24587 27
" />
<path d="M24587 27
L24526 22
" />
<path d="M24526 22
L24465 20
" />
<path d="M24465 20
L24457 19
" />
<path d="M24457 19
L1230 19
" />
<path d="M1230 19
L1227 19
" />
<path d="M1227 19
L1227 19
" />
</g> 
</svg>
