<?xml version="1.0" standalone="no"?>
 <!DOCTYPE svg PUBLIC "-//W3C//DTD SVG 1.1//EN" 
 "http://www.w3.org/Graphics/SVG/1.1/DTD/svg11.dtd"> 
<svg xmlns="http://www.w3.org/2000/svg" version="1.1" 
    width="6.52272cm" height="5.67436cm" viewBox="0 0 25680 22340 ">
<title>SVG Picture created as mySAOhat-F.SilkS.svg date 2019/04/21 23:04:57 </title>
  <desc>Picture generated by PCBNEW </desc>
<g style="fill:#000000; fill-opacity:1;stroke:#000000; stroke-opacity:1;
stroke-linecap:round; stroke-linejoin:round; "
 transform="translate(0 0) scale(1 1)">
</g>
<g style="fill:#000000; fill-opacity:0.0; 
stroke:#000000; stroke-width:-0.000393701; stroke-opacity:1; 
stroke-linecap:round; stroke-linejoin:round;">
</g>
<g style="fill:#000000; fill-opacity:1.0; 
stroke:#000000; stroke-width:3.93701; stroke-opacity:1; 
stroke-linecap:round; stroke-linejoin:round;">
<polyline style="fill-rule:evenodd;"
points="10614,21152
10673,21155
10727,21157
10727,21354
10726,21434
10724,21504
10721,21555
10717,21579
10687,21614
10634,21639
10567,21651
10495,21648
10473,21643
10448,21626
10444,21613
10453,21599
10486,21593
10537,21593
10609,21588
10655,21565
10675,21524
10677,21501
10672,21480
10651,21484
10645,21487
10590,21503
10529,21502
10477,21484
10461,21472
10428,21418
10416,21349
10421,21299
10481,21299
10482,21365
10503,21418
10537,21448
10584,21452
10635,21438
10659,21427
10671,21410
10675,21379
10674,21324
10674,21317
10669,21213
10600,21208
10550,21208
10520,21222
10504,21241
10481,21299
10421,21299
10424,21276
10451,21211
10478,21179
10498,21164
10521,21156
10558,21152
10614,21152
" /> 
<polyline style="fill-rule:evenodd;"
points="3517,21150
3568,21166
3605,21192
3623,21226
3635,21280
3643,21343
3645,21408
3640,21464
3630,21503
3619,21515
3589,21515
3578,21505
3559,21493
3530,21503
3472,21520
3411,21515
3363,21490
3360,21488
3334,21442
3331,21403
3394,21403
3407,21445
3442,21467
3494,21466
3535,21452
3566,21429
3577,21392
3577,21377
3577,21321
3506,21332
3441,21347
3405,21369
3394,21402
3394,21403
3331,21403
3330,21388
3349,21341
3357,21332
3391,21314
3443,21296
3477,21288
3536,21276
3567,21265
3574,21253
3564,21235
3559,21228
3536,21212
3496,21206
3449,21208
3397,21211
3370,21207
3361,21194
3360,21187
3375,21163
3412,21148
3462,21144
3517,21150
" /> 
<polyline style="fill-rule:evenodd;"
points="4002,21163
4020,21179
4039,21201
4051,21227
4058,21263
4060,21318
4060,21371
4060,21442
4057,21487
4051,21510
4040,21520
4027,21521
4011,21519
4001,21506
3996,21477
3994,21425
3994,21383
3990,21296
3977,21238
3953,21209
3915,21203
3861,21221
3853,21224
3832,21235
3820,21251
3813,21280
3811,21328
3810,21382
3809,21452
3805,21495
3797,21516
3785,21521
3774,21516
3767,21497
3763,21458
3761,21395
3760,21338
3761,21256
3764,21202
3769,21171
3778,21157
3785,21155
3808,21163
3810,21170
3824,21175
3857,21167
3868,21162
3926,21142
3966,21142
4002,21163
" /> 
<polyline style="fill-rule:evenodd;"
points="4440,21008
4451,21013
4459,21028
4465,21056
4469,21103
4472,21174
4473,21259
4475,21356
4475,21424
4472,21470
4467,21497
4459,21511
4451,21516
4422,21516
4413,21508
4391,21499
4377,21505
4344,21516
4297,21521
4291,21521
4239,21513
4201,21484
4195,21477
4169,21432
4158,21377
4158,21363
4215,21363
4218,21379
4240,21436
4278,21465
4333,21464
4369,21452
4392,21439
4404,21421
4409,21390
4408,21335
4407,21322
4403,21263
4397,21230
4385,21214
4364,21208
4363,21207
4296,21211
4247,21241
4219,21293
4215,21363
4158,21363
4159,21301
4159,21298
4179,21230
4219,21178
4275,21149
4339,21146
4360,21152
4410,21170
4410,21086
4412,21036
4419,21012
4434,21007
4440,21008
" /> 
<polyline style="fill-rule:evenodd;"
points="5270,21159
5270,21177
5262,21221
5249,21283
5234,21344
5209,21436
5187,21495
5166,21522
5146,21519
5125,21485
5103,21425
5078,21345
5059,21295
5045,21273
5033,21280
5018,21313
4998,21371
4995,21380
4965,21457
4940,21504
4922,21518
4894,21512
4886,21502
4879,21476
4866,21427
4849,21365
4844,21346
4827,21280
4812,21225
4802,21189
4800,21184
4802,21160
4825,21155
4843,21160
4858,21180
4872,21221
4887,21280
4902,21339
4916,21383
4926,21404
4928,21405
4937,21390
4952,21351
4971,21295
4975,21280
4996,21213
5014,21174
5031,21157
5042,21155
5060,21162
5077,21186
5095,21234
5112,21288
5131,21348
5148,21388
5160,21403
5162,21402
5172,21376
5184,21328
5195,21275
5212,21209
5233,21167
5255,21152
5270,21159
" /> 
<polyline style="fill-rule:evenodd;"
points="5592,21156
5640,21197
5669,21262
5672,21278
5681,21338
5546,21338
5479,21339
5438,21342
5418,21350
5411,21362
5410,21368
5422,21400
5450,21436
5451,21437
5489,21464
5531,21469
5556,21467
5605,21458
5644,21448
5648,21446
5672,21445
5677,21462
5662,21488
5623,21507
5570,21518
5510,21520
5454,21510
5432,21501
5397,21470
5366,21420
5347,21365
5344,21339
5357,21273
5410,21273
5426,21281
5465,21286
5510,21288
5569,21286
5600,21279
5610,21266
5610,21263
5596,21234
5562,21208
5520,21194
5495,21196
5455,21217
5423,21246
5410,21273
5357,21273
5358,21267
5395,21205
5448,21164
5453,21161
5528,21144
5592,21156
" /> 
<polyline style="fill-rule:evenodd;"
points="6167,21150
6218,21166
6255,21192
6273,21226
6285,21280
6293,21343
6295,21408
6290,21464
6280,21503
6269,21515
6239,21515
6228,21505
6209,21493
6180,21503
6122,21520
6061,21515
6013,21490
6010,21488
5984,21442
5981,21403
6044,21403
6057,21445
6092,21467
6144,21466
6185,21452
6216,21429
6227,21392
6227,21377
6227,21321
6156,21332
6091,21347
6055,21369
6044,21402
6044,21403
5981,21403
5980,21388
5999,21341
6007,21332
6041,21314
6093,21296
6127,21288
6186,21276
6217,21265
6224,21253
6214,21235
6209,21228
6186,21212
6146,21206
6099,21208
6047,21211
6020,21207
6011,21194
6010,21187
6025,21163
6062,21148
6112,21144
6167,21150
" /> 
<polyline style="fill-rule:evenodd;"
points="6457,21168
6460,21180
6464,21196
6480,21194
6510,21180
6566,21158
6606,21157
6626,21178
6627,21188
6619,21212
6591,21221
6576,21221
6523,21225
6489,21240
6470,21271
6462,21325
6460,21389
6459,21457
6455,21498
6446,21517
6435,21521
6424,21516
6417,21497
6413,21458
6411,21395
6410,21338
6411,21256
6414,21202
6419,21171
6428,21157
6435,21155
6457,21168
" /> 
<polyline style="fill-rule:evenodd;"
points="6879,21147
6933,21174
6974,21223
6993,21281
6994,21290
6994,21338
6860,21338
6785,21341
6741,21349
6725,21367
6737,21395
6770,21432
6808,21462
6848,21469
6874,21467
6923,21458
6962,21447
6965,21446
6989,21445
6994,21462
6978,21489
6936,21509
6875,21520
6843,21521
6781,21511
6727,21475
6683,21418
6666,21353
6671,21287
6678,21270
6732,21270
6752,21283
6802,21288
6827,21288
6884,21287
6914,21282
6924,21271
6924,21259
6906,21231
6874,21206
6840,21190
6814,21194
6783,21214
6743,21248
6732,21270
6678,21270
6696,21227
6738,21179
6795,21149
6862,21144
6879,21147
" /> 
<polyline style="fill-rule:evenodd;"
points="7488,21147
7531,21163
7556,21194
7558,21203
7558,21229
7543,21229
7528,21222
7487,21210
7436,21207
7431,21208
7388,21215
7371,21231
7369,21246
7377,21269
7405,21288
7459,21309
7522,21332
7558,21356
7574,21386
7577,21416
7562,21465
7521,21500
7459,21519
7428,21521
7375,21517
7333,21508
7323,21503
7297,21479
7294,21456
7311,21445
7331,21449
7373,21458
7426,21462
7435,21463
7480,21460
7500,21448
7507,21425
7509,21404
7501,21389
7477,21377
7430,21363
7397,21355
7335,21328
7304,21288
7303,21236
7308,21218
7336,21181
7382,21157
7435,21145
7488,21147
" /> 
<polyline style="fill-rule:evenodd;"
points="7722,21070
7727,21105
7730,21137
7744,21151
7779,21155
7794,21155
7840,21159
7859,21172
7860,21180
7849,21197
7813,21204
7794,21205
7727,21205
7727,21310
7732,21391
7749,21442
7777,21467
7816,21468
7849,21466
7860,21483
7860,21490
7847,21512
7813,21522
7769,21521
7728,21508
7705,21491
7689,21463
7680,21418
7677,21348
7677,21332
7676,21266
7671,21226
7662,21208
7652,21205
7630,21191
7627,21180
7640,21158
7652,21155
7672,21140
7677,21105
7685,21065
7702,21055
7722,21070
" /> 
<polyline style="fill-rule:evenodd;"
points="7975,21157
7985,21167
7990,21191
7993,21234
7994,21303
7994,21338
7993,21422
7990,21478
7984,21509
7974,21521
7972,21521
7943,21514
7938,21510
7934,21490
7930,21444
7928,21379
7927,21327
7928,21250
7930,21200
7934,21171
7943,21158
7957,21155
7960,21155
7975,21157
" /> 
<polyline style="fill-rule:evenodd;"
points="8159,21008
8167,21017
8172,21039
8175,21080
8177,21143
8177,21234
8177,21262
8177,21361
8175,21432
8172,21479
8167,21507
8159,21519
8152,21521
8124,21509
8118,21500
8115,21476
8113,21425
8113,21355
8114,21272
8114,21246
8116,21153
8119,21088
8124,21046
8130,21022
8140,21011
8148,21008
8159,21008
" /> 
<polyline style="fill-rule:evenodd;"
points="8342,21008
8350,21017
8355,21039
8358,21080
8360,21143
8360,21234
8360,21262
8360,21361
8359,21432
8355,21479
8350,21507
8343,21519
8335,21521
8307,21509
8301,21500
8298,21476
8297,21425
8296,21355
8297,21272
8297,21246
8300,21153
8303,21088
8307,21046
8314,21022
8323,21011
8331,21008
8342,21008
" /> 
<polyline style="fill-rule:evenodd;"
points="8956,21165
8973,21176
8992,21201
8992,21224
8975,21232
8965,21229
8888,21207
8827,21212
8785,21243
8763,21299
8760,21332
8771,21403
8804,21448
8855,21467
8926,21459
8965,21446
8989,21445
8994,21461
8979,21492
8942,21512
8890,21521
8834,21518
8780,21502
8751,21483
8716,21434
8697,21367
8695,21297
8713,21237
8718,21229
8766,21182
8828,21154
8895,21148
8956,21165
" /> 
<polyline style="fill-rule:evenodd;"
points="9233,21147
9244,21149
9287,21164
9316,21185
9333,21221
9342,21277
9344,21360
9344,21366
9343,21441
9339,21489
9332,21514
9321,21521
9320,21521
9295,21510
9290,21502
9277,21492
9248,21502
9194,21519
9135,21519
9086,21503
9071,21491
9051,21452
9045,21414
9110,21414
9124,21450
9158,21469
9204,21468
9254,21447
9258,21445
9288,21409
9291,21374
9284,21346
9267,21334
9229,21335
9219,21335
9157,21347
9122,21370
9111,21408
9110,21414
9045,21414
9044,21409
9059,21357
9098,21314
9151,21290
9175,21288
9225,21284
9256,21278
9282,21265
9280,21243
9275,21234
9260,21215
9235,21206
9191,21207
9167,21208
9115,21211
9087,21207
9078,21195
9077,21187
9092,21166
9130,21151
9180,21144
9233,21147
" /> 
<polyline style="fill-rule:evenodd;"
points="9509,21008
9517,21017
9522,21039
9525,21080
9527,21143
9527,21234
9527,21262
9527,21361
9525,21432
9522,21479
9517,21507
9509,21519
9502,21521
9474,21509
9468,21500
9465,21476
9463,21425
9463,21355
9464,21272
9464,21246
9466,21153
9469,21088
9474,21046
9480,21022
9490,21011
9498,21008
9509,21008
" /> 
<polyline style="fill-rule:evenodd;"
points="9692,21008
9700,21017
9705,21039
9708,21080
9710,21143
9710,21234
9710,21262
9710,21361
9709,21432
9705,21479
9700,21507
9693,21519
9685,21521
9657,21509
9651,21500
9648,21476
9647,21425
9646,21355
9647,21272
9647,21246
9650,21153
9653,21088
9657,21046
9664,21022
9673,21011
9681,21008
9692,21008
" /> 
<polyline style="fill-rule:evenodd;"
points="9875,21157
9885,21167
9890,21191
9893,21234
9894,21303
9894,21338
9893,21422
9890,21478
9884,21509
9874,21521
9872,21521
9843,21514
9838,21510
9834,21490
9830,21444
9828,21379
9827,21327
9828,21250
9830,21200
9834,21171
9843,21158
9857,21155
9860,21155
9875,21157
" /> 
<polyline style="fill-rule:evenodd;"
points="10258,21157
10296,21199
10318,21269
10324,21369
10324,21393
10320,21457
10313,21495
10301,21513
10290,21518
10275,21517
10267,21504
10262,21473
10261,21417
10260,21384
10258,21303
10250,21250
10233,21220
10206,21207
10181,21205
10134,21209
10104,21224
10087,21257
10079,21312
10077,21380
10076,21453
10071,21498
10062,21518
10055,21521
10027,21514
10022,21510
10017,21490
10013,21444
10011,21379
10010,21327
10011,21250
10013,21200
10018,21171
10027,21158
10040,21155
10044,21155
10071,21161
10077,21170
10090,21175
10124,21166
10136,21162
10204,21145
10258,21157
" /> 
<polyline style="fill-rule:evenodd;"
points="11130,21160
11137,21179
11142,21218
11144,21281
11144,21338
11143,21420
11140,21474
11135,21505
11127,21519
11119,21521
11108,21516
11100,21497
11096,21458
11094,21395
11094,21338
11095,21256
11097,21202
11102,21171
11111,21157
11119,21155
11130,21160
" /> 
<polyline style="fill-rule:evenodd;"
points="11322,21070
11327,21105
11330,21137
11344,21151
11379,21155
11394,21155
11440,21159
11459,21172
11460,21180
11449,21197
11413,21204
11394,21205
11327,21205
11327,21295
11330,21356
11338,21410
11344,21430
11362,21462
11391,21470
11411,21468
11447,21467
11460,21481
11460,21491
11447,21512
11413,21522
11369,21521
11328,21508
11305,21491
11289,21463
11280,21418
11277,21348
11277,21332
11276,21266
11271,21226
11262,21208
11252,21205
11230,21191
11227,21180
11240,21158
11252,21155
11272,21140
11277,21105
11285,21065
11302,21055
11322,21070
" /> 
<polyline style="fill-rule:evenodd;"
points="11941,21148
11945,21149
11991,21165
12022,21193
12042,21241
12054,21312
12057,21363
12060,21433
12059,21477
12053,21501
12041,21513
12036,21515
12005,21515
11994,21505
11976,21493
11947,21503
11888,21520
11828,21515
11779,21490
11777,21488
11750,21440
11748,21414
11810,21414
11824,21451
11859,21469
11911,21466
11951,21452
11982,21429
11993,21392
11994,21377
11994,21321
11923,21332
11860,21346
11825,21367
11811,21400
11810,21414
11748,21414
11747,21386
11769,21338
11777,21330
11813,21310
11866,21292
11896,21286
11954,21276
11984,21265
11991,21251
11978,21231
11976,21228
11952,21212
11913,21206
11865,21208
11813,21211
11787,21207
11778,21194
11777,21187
11792,21166
11831,21151
11883,21144
11941,21148
" /> 
<polyline style="fill-rule:evenodd;"
points="12383,21145
12403,21152
12436,21176
12459,21215
12472,21274
12477,21360
12477,21389
12476,21455
12473,21495
12466,21514
12452,21521
12444,21521
12427,21519
12418,21506
12412,21477
12411,21425
12410,21383
12407,21296
12394,21238
12369,21209
12331,21203
12277,21221
12270,21224
12249,21235
12236,21251
12230,21280
12227,21328
12227,21382
12226,21452
12222,21495
12214,21516
12202,21521
12191,21516
12184,21497
12179,21458
12177,21395
12177,21338
12178,21256
12180,21202
12186,21171
12194,21157
12202,21155
12224,21163
12227,21170
12241,21174
12275,21166
12294,21159
12345,21143
12383,21145
" /> 
<polyline style="fill-rule:evenodd;"
points="13058,21031
13113,21042
13142,21054
13155,21073
13158,21086
13158,21114
13142,21117
13133,21113
13053,21089
12982,21084
12925,21098
12890,21129
12884,21143
12887,21181
12920,21213
12980,21236
13023,21244
13102,21265
13153,21304
13176,21360
13177,21379
13162,21440
13121,21485
13056,21513
12988,21520
12929,21516
12878,21510
12860,21506
12825,21484
12813,21449
12812,21417
12822,21413
12847,21427
12913,21456
12988,21466
13055,21457
13062,21454
13097,21434
13108,21407
13107,21381
13100,21347
13079,21328
13036,21316
13035,21315
12934,21288
12863,21254
12823,21214
12811,21165
12819,21127
12854,21075
12912,21041
12989,21027
13058,21031
" /> 
<polyline style="fill-rule:evenodd;"
points="13457,21038
13469,21042
13481,21051
13493,21070
13509,21102
13529,21150
13554,21217
13587,21308
13629,21425
13657,21500
13649,21517
13630,21521
13603,21512
13583,21478
13575,21455
13555,21388
13332,21388
13312,21455
13294,21500
13271,21520
13258,21521
13233,21513
13231,21500
13279,21368
13297,21317
13361,21317
13376,21320
13414,21321
13443,21321
13525,21321
13494,21229
13470,21164
13453,21129
13438,21124
13422,21149
13402,21201
13400,21206
13380,21260
13366,21300
13361,21317
13361,21317
13297,21317
13316,21264
13346,21184
13369,21126
13386,21085
13400,21060
13412,21046
13424,21039
13436,21038
13444,21038
13457,21038
" /> 
<polyline style="fill-rule:evenodd;"
points="14028,21042
14086,21079
14130,21145
14153,21227
14154,21314
14134,21396
14095,21459
14063,21489
14028,21506
13978,21515
13950,21518
13891,21520
13852,21515
13820,21498
13798,21481
13758,21436
13729,21384
13726,21377
13714,21307
13716,21246
13778,21246
13780,21320
13802,21388
13846,21444
13903,21469
13973,21464
14002,21455
14044,21422
14075,21366
14090,21296
14089,21242
14068,21166
14027,21112
13969,21084
13901,21084
13881,21089
13831,21122
13796,21177
13778,21246
13716,21246
13716,21229
13732,21156
13755,21108
13809,21060
13879,21033
13956,21026
14028,21042
" /> 
<polyline style="fill-rule:evenodd;"
points="7989,21036
7994,21053
7983,21082
7959,21088
7933,21079
7930,21059
7946,21032
7970,21024
7989,21036
" /> 
<polyline style="fill-rule:evenodd;"
points="9889,21036
9894,21053
9883,21082
9859,21088
9833,21079
9830,21059
9846,21032
9870,21024
9889,21036
" /> 
<polyline style="fill-rule:evenodd;"
points="11148,21042
11157,21059
11153,21081
11123,21088
11119,21088
11086,21082
11080,21062
11080,21059
11099,21035
11119,21030
11148,21042
" /> 
<polyline style="fill-rule:evenodd;"
points="5729,20341
5751,20345
5769,20355
5787,20377
5807,20415
5834,20475
5860,20538
5940,20729
5967,20663
6012,20555
6045,20474
6071,20416
6090,20378
6105,20355
6118,20343
6131,20339
6147,20338
6150,20338
6184,20344
6189,20359
6180,20380
6160,20426
6131,20494
6095,20579
6054,20675
6035,20717
5988,20827
5951,20910
5923,20970
5902,21011
5885,21036
5871,21049
5856,21054
5843,21055
5795,21055
5843,20947
5892,20840
5837,20710
5802,20628
5764,20538
5730,20458
5730,20458
5678,20336
5729,20341
" /> 
<polyline style="fill-rule:evenodd;"
points="7706,20124
7752,20130
7752,20863
7706,20868
7671,20866
7660,20847
7660,20847
7657,20830
7640,20832
7615,20844
7533,20873
7458,20875
7432,20869
7370,20836
7327,20777
7303,20690
7297,20630
7297,20601
7379,20601
7382,20641
7400,20716
7431,20762
7479,20785
7515,20788
7570,20782
7615,20767
7623,20762
7641,20747
7652,20726
7658,20693
7660,20639
7660,20581
7659,20503
7654,20452
7639,20423
7611,20409
7566,20405
7535,20405
7471,20419
7422,20460
7390,20523
7379,20601
7297,20601
7297,20552
7306,20495
7322,20455
7375,20386
7445,20341
7525,20323
7609,20334
7618,20338
7660,20354
7660,20119
7706,20124
" /> 
<polyline style="fill-rule:evenodd;"
points="8360,20871
8319,20871
8285,20863
8277,20846
8273,20825
8257,20825
8222,20844
8161,20869
8088,20878
8049,20876
8003,20853
7958,20807
7922,20746
7902,20681
7901,20679
7898,20596
7994,20596
8002,20685
8024,20747
8050,20775
8090,20786
8145,20785
8202,20773
8228,20763
8251,20749
8266,20734
8273,20709
8277,20667
8277,20600
8277,20588
8275,20508
8267,20455
8249,20424
8217,20409
8167,20405
8152,20405
8096,20414
8048,20448
8043,20453
8014,20487
7999,20522
7994,20571
7994,20596
7898,20596
7898,20575
7918,20484
7959,20410
8017,20357
8089,20327
8171,20324
8248,20346
8263,20349
8272,20338
8276,20308
8277,20251
8277,20240
8278,20178
8281,20143
8290,20126
8307,20122
8319,20121
8360,20121
8360,20871
" /> 
<polyline style="fill-rule:evenodd;"
points="9393,20161
9473,20206
9536,20272
9581,20358
9603,20459
9600,20572
9598,20585
9568,20695
9519,20778
9449,20836
9358,20870
9319,20877
9260,20879
9205,20874
9199,20872
9104,20834
9031,20772
8982,20686
8956,20579
8955,20546
9048,20546
9066,20637
9103,20712
9158,20765
9194,20783
9271,20796
9350,20786
9406,20762
9452,20714
9486,20643
9504,20558
9505,20468
9494,20406
9459,20325
9407,20268
9344,20235
9275,20225
9207,20238
9144,20274
9093,20331
9059,20409
9051,20446
9048,20546
8955,20546
8953,20514
8965,20394
8999,20298
9057,20224
9139,20173
9198,20154
9301,20143
9393,20161
" /> 
<polyline style="fill-rule:evenodd;"
points="12054,20148
12087,20169
12094,20196
12091,20218
12076,20229
12042,20232
12005,20232
11913,20244
11842,20281
11792,20345
11767,20412
11761,20444
11770,20452
11787,20446
11821,20437
11874,20429
11913,20425
12007,20429
12078,20457
12126,20508
12137,20530
12159,20619
12151,20702
12118,20773
12063,20830
11991,20866
11905,20878
11844,20870
11776,20839
11724,20785
11687,20712
11665,20626
11664,20598
11760,20598
11770,20675
11797,20741
11836,20785
11840,20788
11886,20800
11944,20796
11999,20778
12031,20754
12051,20710
12060,20650
12057,20589
12050,20564
12026,20535
11983,20508
11936,20491
11915,20488
11880,20492
11831,20503
11823,20506
11784,20518
11766,20536
11761,20569
11760,20598
11664,20598
11660,20533
11671,20439
11698,20350
11742,20270
11802,20207
11820,20194
11872,20170
11939,20153
12006,20145
12054,20148
" /> 
<polyline style="fill-rule:evenodd;"
points="12564,20150
12648,20181
12671,20195
12716,20246
12747,20319
12764,20408
12766,20505
12754,20603
12726,20693
12690,20759
12636,20811
12561,20851
12477,20874
12394,20877
12381,20875
12350,20858
12344,20831
12347,20809
12361,20797
12396,20793
12432,20793
12520,20783
12585,20750
12632,20692
12662,20617
12669,20584
12662,20576
12647,20580
12594,20594
12526,20601
12457,20600
12402,20591
12393,20588
12332,20550
12295,20496
12278,20421
12277,20386
12278,20367
12366,20367
12374,20431
12405,20486
12444,20517
12494,20530
12559,20528
12622,20514
12646,20504
12670,20473
12676,20421
12663,20357
12654,20331
12614,20269
12560,20232
12500,20223
12438,20244
12422,20255
12382,20306
12366,20367
12278,20367
12280,20326
12290,20285
12313,20248
12329,20230
12397,20176
12478,20149
12564,20150
" /> 
<polyline style="fill-rule:evenodd;"
points="12990,20123
13002,20132
13008,20155
13010,20199
13010,20253
13010,20384
13073,20352
13146,20328
13221,20327
13286,20349
13322,20378
13368,20456
13390,20547
13387,20644
13358,20735
13356,20738
13302,20815
13236,20863
13159,20880
13074,20865
13073,20864
13034,20854
13012,20854
13010,20857
12996,20868
12969,20871
12927,20871
12927,20461
13009,20461
13014,20620
13017,20693
13021,20740
13027,20768
13039,20782
13057,20790
13060,20791
13135,20799
13204,20782
13258,20744
13279,20716
13290,20686
13293,20643
13291,20583
13285,20518
13276,20476
13260,20449
13245,20436
13193,20409
13132,20410
13069,20433
13009,20461
12927,20461
12927,20121
12969,20121
12990,20123
" /> 
<polyline style="fill-rule:evenodd;"
points="3757,20155
3829,20168
3874,20180
3898,20194
3908,20216
3910,20248
3909,20285
3900,20296
3878,20284
3873,20281
3816,20255
3744,20237
3670,20229
3611,20233
3609,20234
3553,20260
3516,20301
3503,20349
3508,20374
3536,20411
3588,20439
3668,20459
3694,20463
3775,20482
3846,20512
3900,20549
3925,20581
3942,20656
3930,20729
3890,20793
3827,20841
3822,20843
3766,20860
3689,20869
3604,20869
3523,20862
3460,20848
3420,20829
3402,20801
3397,20766
3392,20705
3477,20749
3560,20782
3645,20795
3723,20791
3785,20768
3802,20755
3833,20709
3843,20660
3830,20617
3819,20605
3793,20593
3742,20577
3678,20560
3650,20553
3552,20528
3484,20498
3440,20461
3417,20412
3410,20350
3414,20295
3428,20257
3460,20222
3461,20221
3531,20177
3621,20153
3724,20151
3757,20155
" /> 
<polyline style="fill-rule:evenodd;"
points="4156,20123
4169,20132
4175,20155
4177,20199
4177,20254
4177,20387
4245,20352
4318,20328
4393,20328
4458,20350
4484,20370
4498,20387
4508,20409
4515,20442
4519,20492
4522,20564
4524,20638
4530,20871
4447,20871
4441,20662
4438,20573
4434,20512
4429,20472
4420,20447
4408,20432
4403,20428
4347,20407
4281,20415
4231,20438
4177,20471
4177,20871
4094,20871
4094,20121
4135,20121
4156,20123
" /> 
<polyline style="fill-rule:evenodd;"
points="4794,20871
4710,20871
4710,20338
4794,20338
4794,20871
" /> 
<polyline style="fill-rule:evenodd;"
points="5045,20191
5057,20206
5060,20243
5060,20263
5060,20338
5152,20338
5205,20339
5233,20346
5243,20360
5244,20371
5240,20391
5223,20401
5184,20404
5152,20405
5060,20405
5060,20571
5061,20650
5064,20702
5071,20736
5083,20759
5095,20773
5130,20797
5172,20799
5187,20797
5225,20792
5241,20801
5244,20829
5241,20854
5229,20866
5198,20870
5156,20870
5102,20868
5061,20863
5048,20860
5017,20834
4995,20784
4982,20706
4977,20599
4977,20580
4977,20502
4975,20451
4970,20422
4962,20409
4948,20405
4944,20405
4916,20393
4910,20371
4922,20343
4944,20338
4965,20333
4974,20313
4977,20268
4977,20263
4979,20217
4987,20195
5008,20188
5019,20188
5045,20191
" /> 
<polyline style="fill-rule:evenodd;"
points="5428,20191
5440,20206
5444,20243
5444,20263
5444,20338
5535,20338
5589,20339
5616,20346
5626,20360
5627,20370
5622,20390
5602,20401
5558,20407
5540,20408
5452,20413
5452,20585
5453,20664
5456,20717
5462,20750
5472,20770
5485,20782
5536,20799
5573,20796
5610,20792
5625,20803
5627,20829
5625,20854
5612,20866
5581,20870
5540,20870
5486,20868
5444,20863
5431,20860
5400,20834
5378,20784
5365,20706
5361,20599
5360,20580
5360,20502
5358,20451
5353,20422
5345,20409
5332,20405
5327,20405
5299,20393
5294,20371
5306,20343
5327,20338
5348,20333
5358,20313
5360,20268
5360,20263
5362,20217
5371,20195
5391,20188
5402,20188
5428,20191
" /> 
<polyline style="fill-rule:evenodd;"
points="7088,20495
7124,20595
7157,20685
7183,20760
7201,20815
7210,20846
7210,20850
7196,20867
7166,20868
7139,20861
7119,20840
7101,20799
7090,20767
7058,20671
6748,20671
6712,20771
6690,20827
6671,20857
6651,20870
6635,20871
6604,20864
6594,20850
6600,20829
6615,20782
6639,20713
6669,20627
6688,20574
6783,20574
6793,20582
6823,20587
6878,20588
6900,20588
7026,20588
6968,20429
6944,20361
6925,20305
6913,20268
6910,20258
6904,20256
6890,20281
6870,20327
6846,20389
6836,20418
6815,20478
6797,20529
6785,20559
6785,20559
6783,20574
6688,20574
6704,20530
6716,20496
6838,20163
6966,20163
7088,20495
" /> 
<polyline style="fill-rule:evenodd;"
points="10118,20350
10163,20397
10175,20423
10183,20461
10189,20523
10193,20600
10194,20674
10194,20871
10152,20871
10133,20870
10120,20862
10114,20842
10111,20802
10110,20737
10110,20717
10106,20597
10095,20507
10074,20447
10043,20412
10000,20403
9943,20416
9903,20432
9845,20460
9840,20662
9835,20863
9744,20874
9744,20338
9794,20338
9832,20345
9844,20361
9850,20373
9873,20368
9906,20353
9983,20327
10056,20327
10118,20350
" /> 
<polyline style="fill-rule:evenodd;"
points="10994,20786
11065,20791
11110,20797
11131,20810
11135,20830
11133,20844
11123,20854
11098,20860
11054,20864
10985,20867
10948,20868
10863,20869
10807,20868
10773,20863
10755,20855
10750,20848
10748,20814
10775,20794
10828,20788
10894,20788
10894,20323
10823,20318
10769,20308
10746,20290
10754,20270
10794,20251
10814,20245
10872,20224
10902,20192
10931,20161
10956,20155
10994,20155
10994,20786
" /> 
<polyline style="fill-rule:evenodd;"
points="11456,20740
11473,20752
11477,20785
11477,20805
11475,20847
11464,20866
11436,20871
11419,20871
11381,20869
11365,20857
11361,20824
11360,20805
11362,20762
11373,20743
11402,20738
11419,20738
11456,20740
" /> 
<polyline style="fill-rule:evenodd;"
points="13623,20600
13619,20863
13573,20868
13527,20874
13527,20338
13628,20338
13623,20600
" /> 
<polyline style="fill-rule:evenodd;"
points="14051,20333
14071,20337
14122,20350
14149,20363
14159,20383
14160,20406
14160,20440
14152,20452
14128,20444
14097,20429
14039,20409
13980,20405
13927,20413
13886,20432
13864,20460
13867,20494
13871,20500
13886,20519
13912,20534
13954,20549
14020,20567
14041,20572
14115,20602
14161,20646
14177,20704
14177,20706
14165,20775
14128,20824
14094,20846
14043,20861
13973,20869
13898,20868
13830,20859
13806,20852
13771,20831
13761,20794
13760,20787
13765,20749
13780,20741
13813,20760
13817,20763
13860,20783
13921,20797
13982,20802
14025,20797
14064,20771
14085,20732
14084,20698
14062,20678
14021,20659
14005,20654
13910,20628
13844,20602
13802,20574
13779,20542
13778,20540
13765,20474
13781,20417
13822,20372
13883,20341
13961,20327
14051,20333
" /> 
<polyline style="fill-rule:evenodd;"
points="8750,20522
8794,20524
8817,20529
8825,20540
8824,20557
8824,20559
8819,20577
8807,20588
8779,20595
8731,20599
8673,20601
8527,20606
8527,20564
8528,20544
8536,20531
8556,20525
8596,20522
8661,20521
8678,20521
8750,20522
" /> 
<polyline style="fill-rule:evenodd;"
points="4780,20159
4793,20178
4794,20196
4788,20226
4766,20237
4744,20238
4708,20233
4695,20214
4694,20196
4699,20167
4722,20156
4744,20155
4780,20159
" /> 
<polyline style="fill-rule:evenodd;"
points="13613,20159
13626,20178
13627,20196
13622,20226
13599,20237
13577,20238
13541,20233
13528,20214
13527,20196
13533,20167
13555,20156
13577,20155
13613,20159
" /> 
<polyline style="fill-rule:evenodd;"
points="5561,17647
5621,17649
5667,17656
5708,17668
5755,17689
5796,17708
5928,17790
6038,17894
6125,18015
6186,18150
6218,18295
6221,18444
6214,18497
6173,18648
6105,18783
6014,18899
5902,18994
5773,19065
5631,19110
5479,19126
5377,19120
5229,19085
5094,19022
4975,18933
4876,18822
4800,18693
4751,18548
4740,18491
4732,18339
4775,18339
4780,18476
4811,18609
4867,18734
4947,18847
5050,18944
5141,19002
5225,19042
5300,19068
5380,19080
5475,19082
5516,19081
5594,19076
5654,19067
5709,19050
5773,19021
5785,19015
5915,18933
6020,18832
6101,18713
6154,18582
6179,18443
6175,18298
6141,18152
6103,18061
6024,17937
5925,17835
5809,17758
5682,17706
5547,17679
5409,17679
5271,17706
5139,17761
5016,17846
5014,17847
4914,17953
4841,18074
4795,18204
4775,18339
4732,18339
4732,18338
4756,18191
4809,18052
4889,17926
4994,17817
5123,17727
5160,17708
5216,17681
5260,17664
5301,17653
5350,17648
5417,17646
5477,17646
5561,17647
" /> 
<polyline style="fill-rule:evenodd;"
points="7512,17647
7662,17687
7765,17734
7877,17813
7973,17916
8050,18038
8104,18173
8133,18314
8134,18455
8128,18494
8088,18645
8020,18780
7928,18897
7816,18992
7687,19063
7544,19109
7390,19125
7282,19119
7157,19090
7031,19034
6917,18957
6871,18915
6771,18797
6701,18668
6659,18531
6648,18422
6685,18422
6708,18563
6761,18698
6841,18821
6872,18856
6982,18957
7096,19027
7221,19069
7362,19083
7421,19083
7505,19077
7569,19067
7627,19049
7683,19025
7815,18946
7924,18844
8010,18717
8023,18690
8051,18634
8068,18589
8079,18547
8084,18496
8085,18428
8085,18381
8085,18297
8082,18237
8074,18191
8061,18148
8039,18099
8032,18083
7954,17954
7857,17849
7745,17769
7622,17713
7491,17682
7357,17677
7224,17696
7095,17742
6975,17814
6867,17911
6792,18010
6726,18140
6691,18280
6685,18422
6648,18422
6645,18390
6657,18250
6696,18115
6760,17987
6850,17873
6963,17774
7071,17710
7212,17659
7360,17638
7512,17647
" /> 
<polyline style="fill-rule:evenodd;"
points="9450,17652
9582,17690
9705,17752
9816,17838
9912,17948
9979,18063
10029,18206
10048,18354
10038,18504
9998,18648
9931,18783
9844,18894
9726,18996
9592,19070
9445,19113
9286,19125
9195,19119
9075,19091
8952,19038
8840,18966
8812,18944
8710,18835
8634,18710
8584,18571
8564,18440
8601,18440
8607,18490
8648,18637
8715,18768
8804,18879
8912,18969
9035,19035
9169,19075
9312,19088
9459,19070
9514,19055
9655,18995
9776,18910
9874,18803
9947,18677
9992,18534
10006,18427
10001,18278
9968,18141
9911,18019
9833,17912
9737,17824
9628,17755
9508,17706
9381,17680
9250,17677
9120,17699
8993,17748
8873,17826
8793,17899
8701,18019
8637,18152
8603,18294
8601,18440
8564,18440
8562,18425
8569,18277
8605,18131
8633,18062
8712,17931
8810,17825
8923,17742
9047,17683
9179,17649
9315,17638
9450,17652
" /> 
<polyline style="fill-rule:evenodd;"
points="5574,15845
5706,15876
5832,15930
5946,16006
6046,16104
6127,16222
6186,16359
6214,16472
6223,16620
6202,16764
6153,16900
6078,17024
5981,17133
5864,17221
5731,17286
5643,17312
5543,17331
5459,17335
5373,17326
5292,17307
5144,17252
5014,17171
4905,17064
4820,16936
4807,16909
4753,16760
4732,16608
4737,16524
4774,16524
4778,16673
4779,16687
4816,16832
4882,16963
4974,17078
5088,17174
5223,17246
5251,17256
5338,17277
5444,17285
5557,17280
5665,17264
5749,17240
5843,17189
5938,17115
6024,17027
6092,16933
6110,16899
6161,16760
6181,16617
6172,16475
6136,16338
6073,16211
5987,16098
5878,16004
5798,15957
5658,15903
5518,15880
5381,15886
5250,15917
5128,15973
5019,16050
4926,16146
4852,16258
4800,16385
4774,16524
4737,16524
4741,16458
4782,16314
4852,16179
4927,16084
5042,15980
5168,15906
5301,15859
5437,15840
5574,15845
" /> 
<polyline style="fill-rule:evenodd;"
points="7531,15851
7671,15893
7803,15964
7915,16057
8014,16177
8084,16310
8125,16451
8138,16596
8121,16741
8076,16881
8002,17012
7921,17108
7801,17207
7665,17279
7519,17322
7367,17333
7246,17320
7103,17276
6973,17203
6861,17108
6768,16992
6699,16861
6657,16718
6646,16603
6682,16603
6691,16686
6733,16840
6803,16975
6898,17091
7015,17184
7154,17252
7160,17254
7259,17278
7373,17287
7490,17282
7595,17261
7595,17261
7728,17206
7848,17122
7951,17014
7992,16958
8052,16833
8086,16695
8094,16551
8074,16409
8029,16284
7949,16154
7845,16047
7720,15963
7578,15905
7493,15885
7354,15877
7219,15898
7093,15946
6977,16017
6875,16108
6792,16215
6729,16336
6692,16466
6682,16603
6646,16603
6644,16587
6659,16432
6706,16287
6785,16154
6854,16071
6972,15969
7103,15897
7243,15853
7387,15838
7531,15851
" /> 
<polyline style="fill-rule:evenodd;"
points="9484,15861
9620,15909
9749,15986
9836,16061
9930,16178
9997,16309
10037,16451
10049,16598
10033,16744
9988,16885
9926,16996
9827,17116
9708,17211
9574,17281
9430,17322
9280,17333
9162,17320
9069,17292
8968,17247
8873,17193
8810,17144
8708,17031
8632,16902
8582,16762
8561,16617
8564,16561
8603,16561
8608,16685
8631,16800
8640,16827
8706,16959
8798,17075
8913,17172
9046,17244
9082,17258
9139,17274
9203,17283
9283,17285
9327,17284
9409,17280
9471,17272
9524,17257
9582,17233
9598,17226
9731,17146
9840,17045
9924,16925
9980,16789
10006,16639
10006,16635
10000,16480
9964,16336
9901,16206
9813,16094
9702,16001
9572,15932
9423,15888
9399,15884
9259,15879
9120,15904
8988,15956
8868,16033
8764,16132
8681,16250
8643,16332
8614,16439
8603,16561
8564,16561
8569,16469
8606,16326
8633,16265
8715,16133
8817,16024
8935,15939
9065,15880
9202,15847
9343,15840
9484,15861
" /> 
<polyline style="fill-rule:evenodd;"
points="15388,9942
15390,9957
15382,9987
15364,10037
15333,10110
15312,10159
15268,10258
15233,10327
15207,10369
15187,10385
15186,10385
15165,10384
15168,10362
15168,10361
15191,10304
15203,10264
15203,10229
15191,10187
15168,10128
15162,10114
15136,10052
15115,10000
15101,9967
15099,9962
15103,9941
15118,9938
15141,9954
15171,10000
15206,10074
15234,10146
15243,10158
15254,10149
15273,10115
15297,10059
15329,9991
15355,9951
15377,9938
15378,9938
15388,9942
" /> 
<polyline style="fill-rule:evenodd;"
points="15932,9954
15967,10007
15975,10029
15984,10108
15968,10176
15931,10229
15878,10260
15811,10266
15795,10263
15762,10258
15748,10266
15744,10297
15744,10320
15740,10367
15727,10387
15719,10388
15709,10383
15702,10366
15697,10331
15695,10274
15694,10189
15694,10161
15694,10114
15744,10114
15748,10172
15759,10205
15765,10210
15824,10219
15879,10200
15894,10188
15921,10144
15929,10093
15920,10043
15897,10002
15862,9979
15824,9980
15779,9999
15755,10028
15745,10075
15744,10114
15694,10114
15694,10070
15695,10008
15698,9969
15703,9948
15712,9941
15725,9942
15727,9943
15766,9944
15814,9935
15818,9934
15881,9929
15932,9954
" /> 
<polyline style="fill-rule:evenodd;"
points="18071,9940
18072,9950
18067,9970
18053,10007
18029,10063
17995,10144
17975,10189
17939,10270
17907,10333
17882,10374
17867,10388
17846,10378
17844,10370
17851,10345
17868,10306
17870,10302
17886,10263
17889,10234
17888,10232
17878,10209
17859,10163
17833,10103
17821,10075
17794,10010
17779,9969
17775,9948
17783,9939
17793,9938
17814,9948
17837,9980
17866,10039
17874,10059
17900,10118
17918,10150
17930,10157
17937,10146
17973,10056
18006,9989
18034,9949
18053,9938
18064,9938
18071,9940
" /> 
<polyline style="fill-rule:evenodd;"
points="12988,9945
12994,9955
13004,9964
13026,9955
13069,9941
13110,9939
13138,9950
13144,9963
13129,9983
13097,9988
13049,9994
13018,10015
13000,10058
12991,10126
12990,10145
12983,10218
12970,10260
12952,10269
12939,10261
12934,10240
12930,10194
12927,10131
12927,10094
12928,10021
12930,9975
12936,9950
12946,9940
12960,9938
12988,9945
" /> 
<polyline style="fill-rule:evenodd;"
points="13344,9930
13391,9948
13421,9984
13438,10040
13444,10123
13444,10132
13440,10208
13430,10253
13412,10268
13388,10257
13357,10250
13343,10255
13293,10270
13235,10263
13197,10245
13169,10208
13163,10174
13212,10174
13230,10201
13271,10220
13323,10214
13345,10204
13372,10172
13377,10136
13375,10103
13363,10090
13331,10093
13315,10096
13251,10115
13217,10142
13212,10174
13163,10174
13160,10158
13173,10112
13173,10111
13210,10080
13266,10060
13310,10055
13354,10046
13372,10028
13370,9998
13341,9980
13286,9977
13265,9979
13218,9982
13197,9974
13194,9964
13209,9944
13246,9930
13296,9925
13344,9930
" /> 
<polyline style="fill-rule:evenodd;"
points="13707,9929
13751,9947
13775,9972
13777,9981
13769,10000
13748,9996
13689,9978
13635,9976
13599,9991
13596,9994
13582,10023
13597,10045
13641,10065
13665,10072
13726,10093
13761,10116
13775,10148
13777,10172
13763,10220
13723,10253
13663,10269
13589,10267
13556,10260
13532,10239
13527,10221
13531,10201
13550,10199
13576,10207
13635,10220
13683,10216
13713,10198
13719,10180
13709,10154
13675,10133
13644,10121
13583,10099
13547,10080
13531,10059
13527,10030
13527,10030
13542,9989
13578,9952
13624,9926
13653,9921
13707,9929
" /> 
<polyline style="fill-rule:evenodd;"
points="13915,9810
13925,9830
13927,9875
13927,9878
13927,9952
13986,9933
14031,9924
14064,9932
14089,9949
14130,9997
14150,10061
14152,10129
14133,10193
14096,10241
14088,10246
14056,10257
14006,10264
13951,10267
13901,10265
13870,10258
13867,10256
13865,10238
13863,10192
13862,10142
13929,10142
13931,10184
13934,10198
13956,10217
13996,10220
14038,10210
14063,10194
14087,10153
14095,10097
14087,10041
14063,9999
14061,9997
14028,9977
13987,9982
13982,9983
13955,9996
13940,10016
13933,10054
13930,10087
13929,10142
13862,10142
13861,10127
13860,10046
13860,10027
13861,9937
13862,9875
13865,9837
13871,9815
13880,9806
13894,9805
13894,9805
13915,9810
" /> 
<polyline style="fill-rule:evenodd;"
points="14433,9936
14481,9975
14510,10028
14514,10046
14519,10096
14398,10101
14327,10107
14287,10119
14276,10138
14292,10168
14310,10188
14362,10217
14428,10217
14468,10205
14499,10197
14510,10207
14510,10220
14496,10246
14458,10263
14406,10271
14349,10267
14300,10252
14255,10213
14230,10150
14225,10061
14225,10058
14236,10027
14283,10027
14284,10044
14314,10052
14369,10055
14427,10052
14456,10042
14460,10033
14447,9998
14412,9977
14367,9973
14322,9988
14308,9999
14283,10027
14236,10027
14242,10011
14280,9966
14329,9933
14375,9921
14433,9936
" /> 
<polyline style="fill-rule:evenodd;"
points="14658,9947
14660,9955
14671,9964
14693,9955
14736,9941
14777,9939
14805,9950
14810,9963
14796,9983
14764,9988
14715,9994
14684,10015
14666,10058
14658,10126
14657,10145
14651,10215
14641,10256
14631,10267
14621,10262
14615,10236
14611,10184
14610,10106
14611,10028
14614,9978
14620,9950
14630,9939
14635,9938
14658,9947
" /> 
<polyline style="fill-rule:evenodd;"
points="14909,9949
14914,9957
14927,9968
14956,9957
15001,9941
15042,9939
15071,9949
15077,9963
15062,9983
15031,9988
14981,9998
14947,10014
14928,10032
14916,10058
14911,10100
14910,10156
14908,10224
14901,10261
14887,10271
14872,10260
14867,10240
14863,10194
14861,10131
14860,10094
14861,10018
14865,9970
14872,9945
14883,9938
14884,9938
14909,9949
" /> 
<polyline style="fill-rule:evenodd;"
points="16114,9943
16121,9964
16125,10004
16127,10070
16127,10105
16126,10182
16123,10232
16117,10260
16107,10271
16102,10271
16090,10266
16083,10246
16079,10205
16077,10139
16077,10105
16078,10027
16081,9977
16087,9949
16097,9939
16102,9938
16114,9943
" /> 
<polyline style="fill-rule:evenodd;"
points="16614,9930
16658,9943
16676,9963
16677,9972
16673,9992
16655,9994
16627,9985
16572,9975
16526,9982
16498,10004
16494,10021
16508,10051
16540,10064
16616,10085
16663,10112
16686,10145
16688,10151
16684,10194
16655,10231
16608,10258
16552,10272
16495,10268
16456,10253
16432,10228
16427,10210
16435,10193
16456,10198
16492,10207
16542,10212
16552,10212
16596,10210
16617,10198
16624,10178
16621,10154
16600,10137
16557,10124
16499,10106
16464,10088
16445,10064
16438,10049
16436,10004
16461,9965
16507,9938
16568,9927
16614,9930
" /> 
<polyline style="fill-rule:evenodd;"
points="16818,9814
16826,9847
16827,9881
16829,9928
16836,9948
16851,9948
16856,9946
16927,9926
16981,9934
17009,9953
17026,9975
17037,10004
17042,10048
17044,10115
17044,10130
17043,10200
17039,10244
17031,10265
17019,10271
17006,10265
16998,10241
16994,10194
16994,10148
16991,10073
16983,10025
16968,9998
16968,9998
16941,9976
16913,9974
16871,9990
16870,9990
16849,10003
16836,10022
16829,10055
16825,10110
16824,10135
16818,10210
16808,10255
16798,10267
16789,10262
16783,10238
16779,10192
16778,10119
16777,10039
16778,9945
16779,9879
16783,9837
16789,9814
16798,9805
16802,9805
16818,9814
" /> 
<polyline style="fill-rule:evenodd;"
points="17197,9943
17205,9964
17209,10004
17210,10070
17210,10105
17210,10182
17207,10232
17201,10260
17191,10271
17185,10271
17174,10266
17166,10246
17162,10205
17161,10139
17160,10105
17161,10027
17164,9977
17170,9949
17180,9939
17185,9938
17197,9943
" /> 
<polyline style="fill-rule:evenodd;"
points="17372,9853
17377,9888
17380,9922
17397,9935
17435,9938
17479,9943
17492,9955
17475,9968
17440,9974
17407,9980
17391,9993
17383,10024
17380,10062
17379,10119
17382,10169
17385,10184
17398,10213
17424,10220
17445,10218
17480,10216
17491,10229
17490,10237
17471,10259
17435,10268
17392,10263
17358,10244
17355,10242
17338,10210
17329,10158
17327,10100
17325,10036
17318,9998
17304,9976
17298,9972
17278,9957
17287,9944
17298,9937
17321,9908
17327,9879
17336,9846
17352,9838
17372,9853
" /> 
<polyline style="fill-rule:evenodd;"
points="17606,9855
17614,9884
17623,9917
17649,9931
17673,9935
17710,9942
17727,9954
17727,9955
17713,9966
17677,9974
17673,9974
17640,9980
17623,9995
17616,10028
17614,10056
17616,10137
17634,10192
17667,10219
17685,10221
17719,10230
17727,10246
17714,10266
17681,10271
17641,10265
17603,10246
17594,10238
17575,10212
17565,10176
17561,10120
17560,10089
17557,10016
17548,9974
17540,9964
17527,9953
17540,9945
17555,9923
17560,9887
17569,9849
17587,9838
17606,9855
" /> 
<polyline style="fill-rule:evenodd;"
points="18527,9926
18534,9928
18576,9943
18604,9969
18619,10010
18626,10074
18627,10131
18626,10202
18622,10246
18613,10267
18604,10271
18578,10260
18574,10252
18561,10242
18532,10252
18470,10270
18411,10261
18377,10238
18350,10192
18350,10161
18410,10161
18421,10204
18453,10222
18505,10214
18535,10202
18568,10176
18577,10133
18575,10102
18564,10090
18533,10091
18508,10095
18453,10105
18424,10118
18412,10137
18410,10161
18350,10161
18351,10144
18376,10101
18421,10069
18482,10055
18492,10055
18546,10049
18569,10034
18559,10007
18550,9996
18521,9979
18480,9976
18449,9979
18403,9984
18382,9979
18377,9965
18392,9945
18429,9930
18478,9923
18527,9926
" /> 
<polyline style="fill-rule:evenodd;"
points="18991,9806
19000,9815
19006,9836
19009,9875
19010,9936
19010,10026
19010,10029
19009,10130
19005,10201
18998,10246
18986,10266
18969,10267
18955,10257
18923,10250
18910,10255
18859,10270
18803,10263
18761,10239
18729,10186
18716,10120
18719,10096
18777,10096
18787,10163
18814,10206
18856,10220
18910,10205
18912,10204
18930,10188
18940,10158
18944,10107
18944,10088
18943,10032
18937,10001
18923,9986
18902,9978
18849,9981
18819,9995
18791,10020
18779,10055
18777,10096
18719,10096
18722,10051
18746,9990
18786,9947
18794,9942
18841,9929
18890,9928
18924,9931
18940,9921
18944,9890
18944,9870
18947,9827
18958,9808
18977,9805
18991,9806
" /> 
<polyline style="fill-rule:evenodd;"
points="19362,9809
19369,9827
19374,9861
19376,9918
19377,10001
19377,10038
19377,10132
19375,10198
19371,10239
19365,10262
19356,10271
19352,10271
19330,10262
19327,10254
19317,10245
19295,10254
19232,10270
19170,10257
19143,10241
19118,10211
19104,10166
19098,10119
19150,10119
19170,10182
19205,10216
19253,10220
19295,10204
19314,10187
19324,10158
19327,10106
19327,10089
19324,10027
19311,9991
19285,9975
19244,9971
19205,9986
19172,10024
19152,10074
19150,10119
19098,10119
19098,10116
19095,10061
19100,10025
19118,9996
19143,9970
19180,9937
19212,9924
19254,9927
19261,9928
19327,9938
19327,9872
19331,9825
19345,9806
19352,9805
19362,9809
" /> 
<polyline style="fill-rule:evenodd;"
points="19958,9937
19993,9968
20025,10006
20040,10046
20044,10101
20039,10161
20021,10204
20003,10227
19949,10264
19886,10271
19823,10249
19799,10231
19771,10203
19757,10171
19752,10124
19752,10098
19753,10088
19811,10088
19814,10145
19828,10189
19858,10216
19902,10221
19945,10206
19968,10184
19990,10132
19992,10075
19976,10024
19945,9986
19903,9971
19902,9971
19860,9982
19837,9998
19819,10034
19811,10088
19753,10088
19761,10021
19788,9969
19838,9938
19882,9927
19925,9924
19958,9937
" /> 
<polyline style="fill-rule:evenodd;"
points="20370,9948
20375,9953
20393,9975
20404,10004
20409,10048
20410,10115
20410,10130
20409,10200
20406,10244
20398,10265
20385,10271
20372,10265
20364,10241
20361,10194
20360,10148
20358,10073
20350,10025
20334,9998
20334,9998
20307,9976
20280,9974
20238,9990
20237,9990
20215,10003
20202,10022
20195,10055
20191,10110
20190,10135
20185,10210
20175,10255
20165,10267
20155,10262
20148,10236
20145,10184
20144,10107
20144,9939
20190,9940
20241,9936
20288,9929
20334,9927
20370,9948
" /> 
<polyline style="fill-rule:evenodd;"
points="20991,9806
21000,9815
21006,9836
21009,9875
21010,9936
21010,10026
21010,10029
21009,10130
21005,10201
20998,10246
20986,10266
20969,10267
20955,10257
20923,10250
20910,10255
20870,10267
20818,10268
20781,10260
20753,10235
20729,10188
20713,10133
20711,10102
20777,10102
20786,10170
20812,10211
20853,10223
20909,10205
20912,10204
20930,10188
20940,10158
20944,10107
20944,10088
20943,10032
20937,10001
20923,9986
20902,9978
20849,9981
20819,9995
20792,10018
20780,10050
20777,10102
20711,10102
20711,10101
20724,10031
20759,9974
20810,9936
20871,9923
20910,9930
20932,9933
20941,9918
20944,9880
20944,9872
20946,9828
20957,9809
20977,9805
20991,9806
" /> 
<polyline style="fill-rule:evenodd;"
points="21334,9953
21372,9999
21376,10009
21391,10055
21391,10084
21372,10098
21330,10104
21269,10105
21203,10106
21164,10111
21147,10120
21144,10130
21159,10170
21197,10201
21249,10218
21305,10218
21345,10204
21370,10196
21377,10212
21377,10219
21363,10248
21319,10265
21247,10271
21191,10259
21143,10223
21105,10165
21092,10100
21101,10038
21152,10038
21154,10050
21177,10054
21227,10055
21233,10055
21291,10052
21320,10044
21327,10032
21314,9997
21280,9978
21237,9975
21194,9989
21164,10017
21152,10038
21101,10038
21101,10035
21132,9979
21181,9940
21212,9929
21278,9928
21334,9953
" /> 
<polyline style="fill-rule:evenodd;"
points="21740,9941
21743,9954
21737,9982
21720,10029
21691,10102
21691,10105
21655,10188
21626,10242
21602,10266
21581,10264
21561,10236
21553,10217
21523,10144
21494,10073
21470,10012
21452,9967
21444,9945
21444,9943
21458,9939
21474,9938
21496,9948
21517,9983
21541,10042
21567,10114
21586,10155
21602,10166
21618,10147
21638,10100
21651,10064
21678,9996
21700,9956
21720,9939
21728,9938
21740,9941
" /> 
<polyline style="fill-rule:evenodd;"
points="22098,9809
22108,9829
22110,9873
22110,9881
22112,9928
22119,9948
22134,9948
22140,9946
22203,9926
22251,9931
22289,9961
22292,9965
22311,9994
22321,10026
22325,10073
22324,10137
22320,10204
22313,10243
22302,10261
22294,10263
22280,10256
22272,10230
22266,10181
22264,10135
22258,10056
22245,10005
22224,9980
22191,9977
22165,9984
22142,9993
22127,10008
22119,10036
22114,10085
22110,10130
22102,10209
22090,10255
22072,10270
22055,10261
22051,10240
22047,10194
22045,10127
22044,10046
22044,10027
22044,9937
22045,9875
22049,9837
22054,9815
22064,9806
22077,9805
22077,9805
22098,9809
" /> 
<polyline style="fill-rule:evenodd;"
points="22594,9930
22641,9948
22671,9984
22688,10040
22694,10123
22694,10132
22690,10208
22680,10253
22662,10268
22638,10257
22607,10250
22593,10255
22547,10270
22493,10267
22447,10249
22438,10241
22416,10198
22414,10174
22462,10174
22480,10201
22521,10220
22573,10214
22595,10204
22622,10172
22627,10136
22625,10103
22613,10090
22581,10093
22565,10096
22501,10115
22467,10142
22462,10174
22414,10174
22412,10147
22423,10111
22460,10080
22516,10060
22560,10055
22604,10046
22622,10028
22620,9998
22591,9980
22536,9977
22515,9979
22468,9982
22447,9974
22444,9964
22459,9944
22496,9930
22546,9925
22594,9930
" /> 
<polyline style="fill-rule:evenodd;"
points="22852,9846
22860,9875
22860,9888
22865,9923
22884,9936
22910,9938
22946,9943
22960,9954
22960,9955
22946,9966
22911,9971
22910,9971
22859,9971
22864,10092
22867,10155
22872,10191
22882,10209
22900,10216
22915,10218
22949,10230
22960,10247
22947,10266
22915,10271
22874,10264
22837,10246
22827,10238
22808,10212
22798,10176
22794,10120
22794,10089
22791,10016
22781,9974
22773,9964
22761,9953
22773,9945
22788,9923
22794,9887
22799,9851
22820,9838
22827,9838
22852,9846
" /> 
<polyline style="fill-rule:evenodd;"
points="23460,9939
23466,9943
23500,9961
23529,9958
23555,9946
23613,9924
23659,9929
23694,9955
23711,9977
23721,10007
23726,10053
23727,10123
23727,10130
23726,10200
23722,10244
23714,10265
23702,10271
23689,10265
23682,10242
23678,10197
23677,10139
23676,10071
23672,10028
23663,10004
23647,9990
23643,9988
23605,9979
23564,9992
23541,10005
23527,10022
23520,10052
23516,10103
23514,10143
23509,10214
23502,10254
23492,10267
23489,10267
23477,10246
23468,10196
23464,10134
23458,10055
23445,10005
23423,9980
23390,9977
23365,9984
23342,9993
23327,10008
23319,10036
23314,10085
23310,10130
23302,10209
23290,10255
23272,10270
23255,10261
23250,10240
23246,10194
23244,10130
23244,10092
23244,9934
23287,9942
23335,9943
23377,9933
23421,9924
23460,9939
" /> 
<polyline style="fill-rule:evenodd;"
points="23881,9811
23889,9832
23893,9876
23894,9946
23894,9950
23894,10095
23974,10017
24019,9976
24060,9948
24085,9938
24099,9943
24092,9959
24065,9991
24044,10013
23970,10088
24049,10168
24088,10210
24117,10243
24127,10259
24117,10273
24090,10266
24051,10239
24007,10197
24007,10196
23959,10151
23925,10137
23903,10153
23894,10199
23894,10215
23888,10257
23870,10271
23869,10271
23859,10267
23852,10249
23847,10215
23845,10158
23844,10075
23844,10038
23844,9944
23846,9878
23850,9837
23856,9814
23865,9805
23869,9805
23881,9811
" /> 
<polyline style="fill-rule:evenodd;"
points="24363,9826
24370,9845
24375,9882
24377,9942
24377,10021
24377,10221
24419,10221
24452,10230
24460,10246
24454,10260
24429,10268
24380,10271
24344,10271
24280,10270
24244,10265
24229,10254
24227,10246
24242,10226
24269,10221
24289,10220
24301,10212
24307,10191
24310,10151
24310,10085
24310,10071
24310,10000
24308,9956
24302,9933
24291,9923
24272,9921
24269,9921
24235,9916
24231,9901
24255,9883
24277,9874
24312,9857
24327,9840
24327,9839
24341,9823
24352,9821
24363,9826
" /> 
<polyline style="fill-rule:evenodd;"
points="19628,10040
19652,10047
19660,10064
19660,10071
19656,10091
19637,10101
19596,10105
19578,10105
19528,10102
19494,10094
19485,10088
19482,10061
19510,10045
19568,10038
19578,10038
19628,10040
" /> 
<polyline style="fill-rule:evenodd;"
points="16124,9835
16127,9846
16114,9868
16102,9871
16080,9858
16077,9846
16090,9824
16102,9821
16124,9835
" /> 
<polyline style="fill-rule:evenodd;"
points="17204,9832
17210,9846
17197,9867
17177,9871
17150,9861
17144,9846
17158,9826
17177,9821
17204,9832
" /> 
<polyline style="fill-rule:evenodd;"
points="14227,9105
14228,9234
14232,9334
14240,9407
14254,9459
14275,9492
14304,9511
14345,9519
14391,9521
14443,9512
14506,9490
14535,9475
14619,9430
14623,9117
14628,8805
14761,8805
14752,9630
14690,9635
14649,9636
14631,9626
14627,9600
14627,9597
14624,9565
14619,9555
14601,9562
14563,9582
14521,9605
14422,9645
14326,9653
14235,9629
14227,9625
14168,9578
14131,9522
14118,9494
14109,9466
14102,9432
14098,9387
14095,9325
14094,9241
14094,9129
14094,8805
14227,8805
14227,9105
" /> 
<polyline style="fill-rule:evenodd;"
points="17302,8795
17391,8833
17458,8896
17503,8983
17525,9094
17527,9150
17527,9238
16940,9238
16952,9300
16982,9390
17035,9462
17077,9494
17149,9519
17238,9525
17333,9511
17418,9482
17510,9440
17510,9512
17508,9558
17496,9583
17466,9602
17440,9612
17375,9631
17293,9643
17208,9649
17134,9646
17102,9640
16999,9599
16917,9534
16852,9442
16850,9438
16834,9399
16824,9349
16820,9280
16819,9221
16820,9145
16821,9121
16942,9121
17394,9121
17394,9075
17379,9006
17337,8949
17277,8910
17203,8892
17149,8896
17069,8922
17010,8970
16967,9044
16953,9084
16942,9121
16821,9121
16824,9091
16833,9049
16850,9009
16871,8971
16936,8881
17015,8820
17109,8788
17191,8781
17302,8795
" /> 
<polyline style="fill-rule:evenodd;"
points="18169,8795
18259,8834
18327,8897
18371,8984
18392,9094
18394,9137
18394,9238
17807,9238
17818,9300
17849,9390
17902,9462
17944,9494
18016,9519
18104,9525
18200,9511
18284,9482
18377,9440
18377,9512
18375,9558
18363,9583
18332,9602
18307,9612
18202,9641
18087,9649
17976,9637
17927,9623
17831,9572
17757,9498
17708,9403
17683,9288
17682,9167
17691,9121
17808,9121
18260,9121
18260,9079
18246,9010
18206,8951
18152,8912
18087,8892
18027,8893
17959,8916
17949,8920
17889,8960
17846,9018
17820,9084
17808,9121
17691,9121
17706,9043
17755,8940
17828,8859
17868,8830
17919,8802
17966,8787
18024,8782
18058,8781
18169,8795
" /> 
<polyline style="fill-rule:evenodd;"
points="18674,8558
18735,8563
18740,8684
18745,8805
19010,8805
19010,8921
18744,8921
18744,9188
18744,9289
18745,9361
18748,9412
18753,9445
18761,9467
18773,9483
18779,9490
18804,9510
18835,9519
18881,9519
18913,9517
19010,9508
19010,9564
19008,9600
18998,9623
18971,9635
18921,9643
18892,9647
18820,9649
18761,9635
18734,9624
18693,9602
18662,9575
18640,9539
18625,9488
18616,9420
18612,9327
18610,9207
18610,9198
18610,8921
18560,8921
18527,8918
18513,8901
18510,8864
18514,8825
18530,8807
18556,8802
18580,8797
18594,8786
18601,8761
18605,8714
18607,8675
18612,8553
18674,8558
" /> 
<polyline style="fill-rule:evenodd;"
points="21257,9050
21252,9630
21190,9635
21149,9636
21131,9626
21127,9600
21127,9597
21120,9563
21103,9556
21084,9573
21048,9605
20989,9630
20918,9646
20844,9650
20778,9642
20760,9636
20689,9591
20627,9517
20605,9480
20588,9444
20578,9406
20572,9356
20569,9286
20569,9230
20570,9188
20698,9188
20700,9303
20721,9395
20762,9463
20819,9506
20890,9521
20975,9507
21006,9496
21052,9476
21084,9456
21106,9430
21119,9393
21125,9339
21127,9261
21127,9186
21127,9087
21124,9017
21114,8969
21097,8940
21067,8924
21022,8915
20962,8910
20871,8915
20799,8945
20747,9003
20713,9087
20698,9188
20570,9188
20572,9121
20584,9037
20607,8971
20644,8915
20698,8860
20701,8858
20763,8812
20828,8786
20901,8779
20990,8790
21090,8815
21106,8818
21117,8814
21123,8796
21126,8760
21127,8699
21127,8648
21127,8471
21261,8471
21257,9050
" /> 
<polyline style="fill-rule:evenodd;"
points="21990,8558
22052,8563
22057,8684
22062,8805
22327,8805
22327,8921
22060,8921
22060,9188
22061,9289
22062,9361
22065,9412
22070,9445
22078,9467
22089,9483
22096,9490
22121,9510
22151,9519
22198,9519
22229,9517
22327,9508
22327,9564
22323,9604
22315,9627
22314,9628
22282,9637
22230,9644
22171,9646
22119,9644
22093,9640
22039,9620
21999,9596
21969,9563
21949,9518
21936,9455
21930,9369
21927,9257
21927,9198
21927,8921
21877,8921
21843,8918
21830,8901
21827,8864
21831,8825
21847,8807
21873,8802
21897,8797
21911,8786
21918,8761
21922,8714
21924,8675
21929,8553
21990,8558
" /> 
<polyline style="fill-rule:evenodd;"
points="23264,8783
23359,8812
23376,8822
23452,8882
23510,8965
23550,9063
23569,9171
23568,9282
23546,9390
23502,9488
23467,9537
23395,9598
23305,9638
23207,9654
23109,9644
23061,9628
22977,9578
22915,9510
22874,9420
22851,9305
22847,9252
22847,9213
22986,9213
22990,9315
23005,9391
23033,9447
23076,9491
23099,9506
23167,9531
23241,9531
23311,9506
23339,9486
23388,9423
23417,9344
23427,9242
23427,9232
23424,9140
23414,9072
23395,9020
23364,8975
23352,8962
23312,8925
23274,8908
23220,8905
23134,8914
23070,8942
23025,8992
22998,9068
22986,9170
22986,9213
22847,9213
22847,9144
22858,9057
22885,8982
22921,8920
22986,8851
23070,8804
23165,8781
23264,8783
" /> 
<polyline style="fill-rule:evenodd;"
points="13666,8524
13676,8539
13672,8575
13671,8584
13660,8636
13646,8703
13637,8742
13613,8838
13827,8838
13827,8937
13707,8941
13588,8946
13568,9024
13553,9086
13540,9146
13537,9161
13526,9221
13744,9221
13744,9321
13497,9321
13460,9480
13443,9553
13430,9599
13417,9625
13403,9636
13384,9638
13362,9635
13349,9624
13346,9599
13352,9554
13367,9484
13375,9450
13406,9321
13213,9321
13176,9480
13159,9553
13145,9599
13132,9625
13118,9636
13100,9638
13068,9628
13061,9609
13064,9579
13074,9528
13088,9464
13092,9450
13123,9321
12910,9321
12910,9223
13030,9218
13149,9213
13150,9210
13244,9210
13259,9216
13298,9219
13339,9218
13433,9213
13453,9136
13468,9074
13481,9013
13484,8998
13495,8938
13302,8938
13273,9067
13259,9130
13249,9179
13244,9207
13244,9210
13150,9210
13179,9088
13193,9027
13204,8979
13210,8952
13210,8950
13195,8944
13155,8940
13102,8938
12994,8938
12994,8838
13237,8838
13275,8680
13294,8607
13308,8560
13321,8535
13335,8524
13354,8521
13377,8524
13389,8536
13392,8563
13384,8610
13366,8682
13360,8705
13345,8764
13333,8810
13328,8833
13327,8834
13342,8836
13381,8838
13424,8838
13521,8838
13559,8680
13577,8607
13591,8561
13604,8535
13618,8524
13638,8521
13639,8521
13666,8524
" /> 
<polyline style="fill-rule:evenodd;"
points="15514,8794
15585,8835
15638,8902
15644,8914
15656,8941
15664,8970
15670,9008
15674,9060
15676,9130
15677,9225
15677,9310
15677,9638
15546,9638
15541,9315
15538,9201
15536,9116
15532,9055
15528,9013
15521,8985
15512,8966
15505,8958
15452,8923
15384,8912
15306,8926
15226,8964
15198,8983
15144,9023
15144,9638
15088,9638
15047,9635
15022,9628
15022,9627
15018,9608
15016,9560
15013,9488
15012,9397
15011,9292
15010,9210
15010,8805
15077,8805
15120,8807
15139,8818
15144,8843
15144,8846
15144,8888
15239,8835
15337,8793
15430,8780
15514,8794
" /> 
<polyline style="fill-rule:evenodd;"
points="16360,9521
16577,9521
16577,9638
16010,9638
16010,9521
16227,9521
16227,8771
16119,8771
16061,8771
16028,8767
16014,8756
16011,8736
16010,8724
16013,8694
16028,8678
16063,8669
16089,8665
16155,8647
16208,8615
16239,8576
16244,8552
16252,8530
16281,8522
16302,8521
16360,8521
16360,9521
" /> 
<polyline style="fill-rule:evenodd;"
points="20394,8655
19844,8655
19844,8955
20394,8955
20394,9088
19844,9088
19844,9505
20394,9505
20394,9638
19694,9638
19694,8521
20394,8521
20394,8655
" /> 
<polyline style="fill-rule:evenodd;"
points="21652,9630
21593,9635
21551,9635
21524,9629
21522,9628
21519,9608
21516,9560
21514,9489
21512,9397
21511,9292
21510,9210
21510,8805
21661,8805
21652,9630
" /> 
<polyline style="fill-rule:evenodd;"
points="22627,9638
22494,9638
22494,8805
22627,8805
22627,9638
" /> 
<polyline style="fill-rule:evenodd;"
points="24249,8787
24324,8820
24384,8878
24424,8960
24426,8968
24432,9004
24437,9068
24441,9151
24443,9247
24444,9334
24444,9638
24310,9638
24310,9359
24309,9232
24306,9134
24299,9060
24288,9007
24272,8971
24249,8946
24219,8929
24216,8927
24150,8912
24081,8921
24000,8955
23981,8965
23910,9006
23910,9638
23777,9638
23777,8805
23844,8805
23887,8807
23906,8818
23910,8843
23910,8847
23910,8888
23973,8848
24069,8799
24163,8779
24249,8787
" /> 
<polyline style="fill-rule:evenodd;"
points="21660,8655
21510,8655
21510,8521
21660,8521
21660,8655
" /> 
<polyline style="fill-rule:evenodd;"
points="22644,8655
22494,8655
22494,8521
22644,8521
22644,8655
" /> 
<polyline style="fill-rule:evenodd;"
points="24225,7104
24322,7144
24406,7209
24412,7216
24459,7274
24496,7335
24523,7405
24543,7489
24557,7593
24567,7722
24570,7779
24582,8038
23660,8038
23661,7888
23757,7888
24460,7888
24460,7733
24452,7585
24426,7465
24381,7373
24319,7307
24236,7266
24135,7251
24118,7250
24019,7261
23938,7293
23874,7350
23826,7431
23792,7541
23772,7679
23769,7717
23757,7888
23661,7888
23661,7850
23665,7688
23678,7553
23700,7442
23733,7350
23779,7271
23831,7209
23917,7143
24016,7104
24121,7091
24225,7104
" /> 
<polyline style="fill-rule:evenodd;"
points="1259,6423
1315,6434
1357,6452
1377,6476
1377,6481
1369,6500
1348,6496
1274,6471
1216,6463
1165,6474
1155,6477
1103,6514
1074,6566
1066,6625
1076,6685
1105,6737
1150,6774
1210,6788
1211,6788
1269,6782
1300,6763
1310,6726
1310,6720
1306,6685
1286,6673
1260,6671
1221,6664
1210,6645
1218,6630
1244,6623
1290,6625
1369,6630
1374,6708
1374,6759
1365,6787
1345,6804
1277,6826
1200,6831
1129,6818
1112,6810
1058,6766
1024,6703
1012,6631
1021,6558
1053,6492
1097,6447
1141,6429
1198,6421
1259,6423
" /> 
<polyline style="fill-rule:evenodd;"
points="2255,6425
2294,6441
2328,6470
2356,6502
2371,6534
2376,6580
2377,6620
2375,6681
2365,6722
2345,6756
2331,6772
2273,6815
2203,6833
2132,6824
2106,6813
2053,6765
2021,6700
2015,6660
2068,6660
2088,6719
2124,6762
2172,6785
2225,6784
2277,6755
2286,6747
2318,6695
2329,6631
2320,6567
2293,6511
2249,6474
2245,6472
2183,6461
2130,6481
2090,6527
2069,6588
2068,6660
2015,6660
2010,6625
2022,6550
2056,6482
2079,6456
2119,6432
2176,6422
2198,6421
2255,6425
" /> 
<polyline style="fill-rule:evenodd;"
points="3964,6428
4001,6443
4025,6480
4029,6528
4013,6575
4005,6585
3988,6609
3995,6628
4011,6643
4040,6687
4041,6738
4017,6787
4000,6803
3939,6833
3874,6835
3815,6809
3801,6797
3767,6745
3766,6702
3815,6702
3821,6738
3825,6748
3844,6776
3872,6786
3905,6785
3953,6773
3983,6751
3984,6750
3992,6712
3968,6675
3916,6644
3914,6643
3876,6631
3854,6637
3833,6664
3815,6702
3766,6702
3766,6693
3794,6646
3816,6618
3815,6601
3803,6588
3781,6552
3780,6507
3832,6507
3842,6543
3877,6576
3902,6588
3942,6590
3969,6565
3977,6520
3970,6482
3942,6463
3935,6461
3881,6459
3846,6477
3832,6507
3780,6507
3780,6504
3798,6460
3808,6449
3849,6429
3906,6422
3964,6428
" /> 
<polyline style="fill-rule:evenodd;"
points="24127,6688
24460,6688
24469,6096
24569,6096
24573,6467
24578,6838
23660,6838
23669,6096
23769,6096
23778,6688
24027,6688
24027,6088
24127,6088
24127,6688
" /> 
<polyline style="fill-rule:evenodd;"
points="1563,6425
1626,6432
1667,6445
1694,6467
1696,6470
1724,6526
1722,6579
1693,6625
1639,6658
1592,6670
1547,6678
1525,6691
1516,6720
1514,6750
1505,6801
1488,6821
1484,6821
1474,6816
1467,6795
1463,6756
1461,6691
1460,6619
1460,6544
1510,6544
1513,6590
1519,6622
1522,6627
1548,6634
1589,6627
1630,6611
1656,6592
1674,6549
1663,6510
1628,6483
1571,6471
1568,6471
1532,6473
1515,6485
1511,6515
1510,6544
1460,6544
1460,6417
1563,6425
" /> 
<polyline style="fill-rule:evenodd;"
points="1912,6426
1940,6436
1942,6451
1919,6465
1907,6477
1899,6505
1895,6554
1894,6631
1894,6631
1895,6706
1898,6754
1905,6779
1916,6788
1919,6788
1941,6797
1944,6805
1929,6814
1890,6820
1860,6821
1813,6818
1783,6811
1777,6805
1791,6790
1802,6788
1814,6782
1822,6761
1826,6720
1827,6652
1827,6631
1826,6554
1822,6505
1814,6477
1802,6465
1802,6465
1777,6449
1782,6435
1813,6425
1860,6421
1912,6426
" /> 
<polyline style="fill-rule:evenodd;"
points="2813,6425
2859,6441
2877,6455
2905,6503
2903,6561
2873,6624
2817,6689
2787,6715
2751,6746
2730,6770
2727,6775
2742,6782
2782,6787
2827,6788
2880,6791
2917,6797
2927,6805
2912,6813
2869,6819
2806,6821
2794,6821
2727,6820
2687,6817
2667,6809
2661,6796
2660,6792
2673,6765
2704,6728
2737,6698
2784,6652
2824,6603
2840,6576
2857,6537
2857,6515
2839,6494
2829,6486
2790,6465
2758,6463
2715,6475
2694,6481
2666,6480
2660,6466
2675,6441
2712,6425
2761,6420
2813,6425
" /> 
<polyline style="fill-rule:evenodd;"
points="3576,6433
3587,6470
3592,6538
3594,6614
3594,6692
3596,6742
3601,6771
3610,6784
3623,6788
3627,6788
3654,6795
3660,6805
3645,6813
3605,6819
3552,6821
3496,6819
3457,6813
3444,6805
3458,6792
3485,6788
3506,6787
3519,6778
3525,6755
3527,6710
3527,6656
3526,6590
3523,6550
3516,6529
3501,6521
3490,6518
3459,6506
3457,6488
3485,6474
3487,6474
3524,6457
3539,6443
3560,6424
3576,6433
" /> 
<polyline style="fill-rule:evenodd;"
points="1302,5844
1354,5862
1376,5891
1377,5899
1368,5916
1348,5912
1257,5882
1184,5879
1129,5902
1090,5953
1079,5981
1065,6028
1066,6064
1083,6107
1087,6114
1131,6171
1192,6200
1263,6199
1268,6198
1299,6182
1310,6150
1310,6138
1306,6102
1287,6089
1260,6088
1221,6081
1210,6063
1219,6047
1250,6040
1294,6038
1377,6038
1377,6121
1374,6177
1361,6208
1348,6219
1275,6242
1194,6244
1138,6231
1074,6197
1035,6148
1017,6092
1014,6005
1038,5931
1079,5881
1119,5854
1164,5841
1221,5838
1302,5844
" /> 
<polyline style="fill-rule:evenodd;"
points="2276,5848
2318,5876
2328,5887
2356,5919
2371,5951
2376,5997
2377,6036
2375,6097
2366,6138
2345,6171
2331,6187
2269,6232
2195,6248
2119,6232
2114,6230
2061,6189
2026,6128
2012,6052
2016,6014
2067,6014
2069,6081
2094,6141
2122,6171
2180,6200
2238,6197
2277,6175
2307,6132
2323,6070
2322,6003
2304,5942
2304,5942
2264,5896
2212,5876
2155,5885
2130,5900
2088,5950
2067,6014
2016,6014
2021,5971
2034,5930
2070,5874
2122,5845
2160,5838
2228,5836
2276,5848
" /> 
<polyline style="fill-rule:evenodd;"
points="1619,5844
1669,5862
1683,5873
1719,5917
1727,5968
1711,6017
1674,6057
1620,6083
1578,6088
1510,6088
1510,6163
1507,6212
1496,6235
1485,6238
1475,6233
1467,6215
1463,6178
1461,6117
1460,6038
1460,5888
1510,5888
1510,5963
1512,6009
1520,6031
1543,6038
1568,6038
1615,6031
1650,6013
1651,6012
1674,5980
1672,5946
1660,5920
1635,5897
1590,5888
1577,5888
1510,5888
1460,5888
1460,5838
1550,5838
1619,5844
" /> 
<polyline style="fill-rule:evenodd;"
points="1908,5841
1938,5849
1944,5855
1930,5869
1919,5871
1907,5877
1900,5897
1896,5937
1894,6003
1894,6038
1895,6116
1898,6166
1904,6193
1914,6204
1919,6205
1941,6214
1944,6221
1929,6231
1890,6237
1860,6238
1813,6235
1783,6227
1777,6221
1791,6207
1802,6205
1814,6199
1821,6179
1825,6139
1827,6073
1827,6038
1826,5960
1823,5910
1817,5883
1807,5872
1802,5871
1780,5862
1777,5855
1792,5845
1830,5839
1860,5838
1908,5841
" /> 
<polyline style="fill-rule:evenodd;"
points="2814,5845
2821,5868
2825,5913
2827,5984
2827,6021
2827,6205
2869,6205
2900,6210
2910,6221
2895,6230
2855,6236
2802,6238
2747,6236
2708,6230
2694,6222
2708,6208
2731,6202
2750,6197
2761,6184
2767,6156
2769,6106
2769,6063
2768,5997
2765,5956
2757,5935
2743,5927
2731,5924
2701,5913
2696,5898
2719,5888
2728,5888
2760,5877
2771,5863
2792,5841
2804,5838
2814,5845
" /> 
<polyline style="fill-rule:evenodd;"
points="3684,5831
3691,5861
3694,5919
3694,5944
3695,6008
3699,6047
3708,6067
3725,6075
3727,6076
3754,6091
3760,6103
3747,6118
3727,6121
3704,6128
3695,6153
3694,6180
3688,6223
3671,6238
3669,6238
3650,6225
3644,6185
3644,6180
3644,6121
3544,6121
3487,6120
3457,6114
3445,6102
3444,6092
3453,6071
3491,6071
3644,6071
3644,5988
3643,5940
3639,5910
3637,5905
3624,5916
3596,5947
3560,5988
3491,6071
3453,6071
3455,6067
3482,6025
3521,5974
3564,5922
3608,5874
3644,5839
3669,5822
3671,5821
3684,5831
" /> 
<polyline style="fill-rule:evenodd;"
points="23693,4978
23737,4997
23802,5025
23883,5061
23976,5103
24075,5148
24176,5194
24274,5240
24365,5282
24443,5319
24505,5348
24544,5368
24557,5375
24571,5407
24574,5468
24574,5485
24569,5577
24142,5771
24031,5822
23928,5869
23838,5910
23766,5942
23715,5965
23689,5976
23688,5976
23671,5978
23663,5961
23661,5920
23660,5908
23660,5828
24052,5654
24158,5607
24253,5563
24333,5526
24394,5498
24432,5478
24444,5471
24429,5463
24388,5442
24325,5412
24243,5375
24146,5331
24052,5289
23660,5114
23660,5043
23663,4999
23670,4974
23674,4971
23693,4978
" /> 
<polyline style="fill-rule:evenodd;"
points="3620,5248
3621,5249
3676,5279
3705,5319
3704,5363
3678,5401
3655,5424
3657,5440
3678,5459
3704,5502
3709,5558
3694,5604
3669,5628
3628,5651
3586,5667
3562,5669
3540,5665
3502,5657
3462,5638
3446,5615
3448,5592
3469,5594
3533,5614
3581,5614
3620,5597
3654,5560
3659,5519
3636,5483
3598,5464
3556,5448
3547,5432
3572,5416
3594,5407
3631,5386
3644,5354
3644,5347
3630,5311
3595,5292
3546,5293
3515,5303
3476,5315
3461,5305
3465,5282
3488,5263
3530,5249
3579,5243
3620,5248
" /> 
<polyline style="fill-rule:evenodd;"
points="1240,5253
1289,5273
1310,5295
1310,5299
1302,5317
1273,5315
1205,5297
1159,5292
1126,5299
1104,5310
1074,5344
1075,5379
1102,5407
1125,5415
1202,5433
1253,5448
1284,5462
1302,5479
1311,5497
1317,5552
1297,5604
1262,5637
1225,5647
1169,5652
1106,5652
1052,5646
1040,5643
1016,5622
1010,5602
1018,5578
1031,5577
1117,5606
1185,5613
1233,5601
1258,5569
1260,5547
1255,5519
1233,5502
1190,5487
1102,5459
1045,5428
1017,5390
1014,5345
1020,5326
1052,5282
1106,5254
1175,5244
1240,5253
" /> 
<polyline style="fill-rule:evenodd;"
points="1658,5256
1703,5275
1722,5298
1726,5325
1707,5330
1667,5313
1596,5291
1533,5297
1483,5329
1452,5383
1444,5436
1454,5519
1486,5577
1529,5605
1560,5615
1592,5615
1634,5604
1696,5580
1698,5580
1722,5578
1727,5594
1712,5624
1674,5644
1621,5655
1561,5655
1503,5644
1457,5621
1452,5617
1412,5563
1392,5492
1391,5415
1410,5345
1436,5304
1480,5273
1537,5255
1600,5249
1658,5256
" /> 
<polyline style="fill-rule:evenodd;"
points="1830,5260
1838,5280
1842,5319
1844,5384
1844,5430
1844,5605
1944,5605
2002,5607
2033,5613
2044,5627
2044,5630
2037,5643
2014,5651
1967,5654
1919,5655
1794,5655
1794,5455
1794,5368
1797,5310
1801,5276
1809,5259
1819,5255
1830,5260
" /> 
<polyline style="fill-rule:evenodd;"
points="1227,4664
1275,4680
1304,4702
1308,4711
1307,4733
1287,4734
1275,4730
1188,4710
1125,4713
1088,4735
1068,4761
1071,4780
1092,4803
1128,4829
1158,4838
1217,4848
1270,4872
1306,4906
1312,4916
1315,4963
1298,5013
1267,5052
1251,5061
1217,5067
1163,5069
1104,5068
1054,5063
1040,5060
1016,5039
1010,5018
1017,4994
1040,4997
1120,5020
1192,5022
1216,5016
1249,4999
1258,4970
1257,4957
1250,4931
1230,4914
1190,4900
1163,4894
1081,4867
1030,4830
1011,4784
1010,4777
1025,4730
1064,4688
1118,4662
1120,4661
1172,4656
1227,4664
" /> 
<polyline style="fill-rule:evenodd;"
points="1582,4673
1621,4679
1652,4696
1684,4725
1687,4728
1724,4772
1741,4813
1744,4854
1731,4940
1693,5005
1630,5048
1542,5069
1494,5071
1410,5071
1410,5021
1460,5021
1528,5021
1585,5014
1630,4986
1645,4973
1684,4917
1692,4855
1678,4798
1653,4758
1609,4731
1540,4713
1529,4711
1460,4700
1460,5021
1410,5021
1410,4671
1520,4671
1582,4673
" /> 
<polyline style="fill-rule:evenodd;"
points="2004,4683
2018,4700
2039,4753
2062,4817
2087,4887
2110,4953
2129,5008
2141,5045
2144,5057
2136,5074
2117,5069
2094,5047
2077,5013
2064,4979
2047,4962
2017,4956
1969,4955
1917,4956
1888,4963
1872,4982
1860,5013
1841,5052
1819,5071
1816,5071
1797,5061
1798,5050
1806,5027
1823,4980
1846,4915
1855,4889
1913,4889
1924,4901
1957,4905
1973,4905
2040,4905
2005,4810
1970,4715
1950,4766
1931,4817
1918,4861
1913,4889
1855,4889
1868,4850
1897,4772
1918,4720
1935,4690
1951,4675
1969,4671
1969,4671
2004,4683
" /> 
<polyline style="fill-rule:evenodd;"
points="3614,4665
3632,4670
3683,4702
3705,4748
3697,4804
3661,4870
3597,4941
3593,4946
3512,5021
3620,5021
3680,5023
3714,5029
3726,5041
3727,5046
3721,5059
3699,5066
3655,5070
3585,5071
3507,5069
3460,5063
3444,5053
3444,5052
3455,5032
3484,4995
3526,4948
3544,4928
3596,4871
3628,4828
3642,4793
3644,4773
3638,4734
3614,4715
3602,4712
3556,4710
3511,4719
3476,4728
3462,4722
3460,4705
3475,4682
3513,4666
3562,4659
3614,4665
" /> 
<polyline style="fill-rule:evenodd;"
points="1221,4072
1263,4074
1284,4081
1293,4093
1294,4113
1291,4137
1279,4149
1248,4154
1202,4155
1150,4156
1122,4161
1112,4176
1110,4196
1113,4221
1127,4233
1160,4238
1194,4238
1244,4240
1269,4247
1277,4264
1277,4271
1273,4291
1254,4301
1213,4305
1194,4305
1110,4305
1110,4396
1110,4449
1104,4476
1089,4486
1061,4488
1060,4488
1010,4488
1010,4071
1152,4071
1221,4072
" /> 
<polyline style="fill-rule:evenodd;"
points="1673,4074
1719,4080
1724,4234
1725,4307
1724,4355
1718,4387
1705,4410
1684,4434
1679,4439
1619,4477
1547,4491
1474,4480
1416,4448
1394,4428
1380,4407
1373,4378
1370,4334
1369,4265
1369,4244
1369,4080
1469,4080
1473,4230
1477,4307
1484,4357
1494,4387
1506,4400
1538,4419
1564,4414
1594,4388
1611,4366
1621,4336
1626,4291
1627,4220
1627,4212
1627,4069
1673,4074
" /> 
<polyline style="fill-rule:evenodd;"
points="2140,4074
2185,4080
2190,4284
2195,4488
2144,4488
2115,4484
2090,4470
2064,4438
2028,4384
1981,4308
1949,4260
1928,4238
1917,4242
1913,4271
1911,4324
1911,4350
1910,4418
1908,4459
1901,4479
1888,4487
1869,4488
1827,4488
1827,4071
1884,4071
1913,4074
1937,4084
1961,4109
1993,4154
2017,4191
2094,4311
2094,4069
2140,4074
" /> 
<polyline style="fill-rule:evenodd;"
points="2568,4088
2600,4109
2610,4146
2610,4155
2609,4190
2599,4196
2573,4181
2516,4156
2459,4160
2413,4188
2383,4236
2377,4276
2389,4343
2423,4386
2479,4404
2494,4405
2538,4401
2566,4391
2569,4388
2589,4371
2604,4384
2610,4419
2604,4453
2582,4474
2538,4484
2467,4488
2463,4488
2411,4483
2371,4465
2334,4431
2300,4393
2283,4358
2277,4310
2277,4285
2283,4217
2298,4167
2303,4158
2358,4107
2430,4078
2510,4074
2568,4088
" /> 
<polyline style="fill-rule:evenodd;"
points="3575,4090
3663,4099
3723,4115
3758,4144
3775,4188
3777,4223
3763,4285
3722,4329
3659,4352
3625,4355
3584,4356
3565,4368
3561,4399
3560,4421
3559,4464
3548,4483
3519,4488
3502,4488
3444,4488
3444,4231
3560,4231
3563,4270
3575,4285
3604,4285
3605,4285
3644,4271
3666,4253
3676,4213
3658,4184
3616,4171
3611,4171
3577,4174
3563,4190
3560,4229
3560,4231
3444,4231
3444,4084
3575,4090
" /> 
<polyline style="fill-rule:evenodd;"
points="3944,4488
3844,4488
3844,4188
3944,4188
3944,4488
" /> 
<polyline style="fill-rule:evenodd;"
points="4247,4193
4297,4203
4327,4228
4340,4274
4344,4345
4344,4364
4344,4488
4244,4488
4244,4381
4241,4313
4231,4274
4212,4258
4180,4262
4177,4263
4159,4273
4149,4295
4144,4336
4144,4381
4144,4488
4044,4488
4044,4191
4169,4191
4247,4193
" /> 
<polyline style="fill-rule:evenodd;"
points="3930,4077
3943,4096
3944,4105
3936,4129
3907,4138
3894,4138
3857,4133
3844,4113
3844,4105
3852,4080
3881,4072
3894,4071
3930,4077
" /> 
<polyline style="fill-rule:evenodd;"
points="5164,18182
5206,18203
5224,18234
5225,18258
5214,18261
5182,18246
5121,18226
5052,18222
5003,18232
4972,18258
4945,18304
4929,18357
4927,18380
4938,18437
4964,18489
5001,18524
5017,18531
5061,18536
5112,18535
5151,18527
5169,18507
5174,18475
5175,18438
5161,18424
5128,18421
5093,18417
5077,18405
5077,18405
5092,18395
5130,18389
5152,18388
5227,18388
5227,18472
5225,18523
5216,18551
5196,18567
5184,18572
5124,18584
5054,18585
4992,18575
4984,18572
4949,18549
4913,18513
4911,18510
4890,18477
4880,18440
4879,18387
4881,18365
4888,18304
4901,18264
4926,18234
4933,18228
4984,18197
5045,18179
5108,18175
5164,18182
" /> 
<polyline style="fill-rule:evenodd;"
points="5387,18176
5407,18193
5432,18229
5465,18286
5487,18329
5569,18486
5577,18334
5584,18249
5594,18196
5606,18175
5615,18180
5622,18205
5625,18253
5627,18329
5627,18378
5627,18466
5625,18525
5621,18561
5615,18580
5604,18587
5598,18588
5576,18574
5545,18533
5503,18462
5473,18409
5378,18230
5378,18409
5377,18490
5374,18543
5368,18573
5359,18586
5352,18588
5342,18583
5334,18565
5330,18529
5328,18469
5327,18381
5327,18380
5327,18293
5329,18235
5332,18199
5338,18180
5349,18173
5364,18171
5366,18171
5387,18176
" /> 
<polyline style="fill-rule:evenodd;"
points="5840,18179
5938,18196
6007,18225
6051,18267
6073,18327
6077,18378
6066,18458
6032,18518
5973,18558
5886,18580
5849,18584
5744,18593
5744,18538
5794,18538
5862,18538
5918,18531
5964,18503
5978,18489
6019,18430
6029,18369
6012,18312
5970,18265
5906,18234
5873,18227
5794,18217
5794,18538
5744,18538
5744,18167
5840,18179
" /> 
<polyline style="fill-rule:evenodd;"
points="7088,18177
7139,18193
7160,18219
7160,18225
7154,18249
7131,18245
7079,18230
7022,18225
6973,18230
6946,18244
6929,18282
6944,18315
6989,18342
7036,18355
7109,18375
7153,18403
7174,18442
7177,18471
7162,18521
7121,18559
7061,18582
6986,18588
6906,18576
6882,18556
6877,18535
6883,18511
6906,18514
6906,18514
6956,18529
7014,18535
7067,18532
7103,18520
7109,18515
7125,18477
7110,18444
7065,18417
7023,18405
6946,18382
6899,18349
6879,18305
6877,18287
6892,18239
6931,18199
6983,18175
7011,18171
7088,18177
" /> 
<polyline style="fill-rule:evenodd;"
points="7492,18177
7540,18192
7570,18220
7574,18236
7576,18262
7566,18264
7541,18248
7479,18222
7415,18225
7358,18253
7317,18304
7305,18339
7302,18393
7315,18451
7339,18500
7363,18523
7407,18533
7466,18533
7525,18522
7548,18514
7572,18511
7577,18528
7562,18556
7524,18576
7472,18586
7414,18586
7359,18574
7323,18555
7276,18498
7251,18425
7249,18345
7271,18269
7284,18246
7322,18211
7375,18187
7434,18176
7492,18177
" /> 
<polyline style="fill-rule:evenodd;"
points="7697,18193
7704,18213
7709,18252
7710,18317
7710,18363
7710,18538
7810,18538
7869,18540
7900,18547
7910,18560
7910,18563
7904,18576
7880,18584
7833,18587
7785,18588
7660,18588
7660,18388
7661,18302
7663,18244
7668,18209
7676,18192
7685,18188
7697,18193
" /> 
<polyline style="fill-rule:evenodd;"
points="9339,18511
9377,18529
9383,18535
9408,18582
9403,18634
9368,18693
9305,18758
9235,18820
9331,18821
9383,18824
9418,18831
9427,18838
9412,18847
9370,18852
9311,18855
9310,18855
9240,18852
9202,18844
9194,18835
9205,18815
9233,18778
9273,18733
9277,18728
9318,18680
9348,18636
9360,18606
9360,18605
9346,18570
9312,18548
9268,18545
9247,18553
9212,18569
9197,18566
9194,18548
9208,18523
9244,18509
9291,18504
9339,18511
" /> 
<polyline style="fill-rule:evenodd;"
points="8957,17919
9001,17936
9025,17958
9027,17966
9018,17983
8998,17979
8923,17958
8856,17959
8805,17981
8780,18013
8762,18084
8775,18146
8795,18177
8825,18207
8864,18219
8903,18221
8949,18220
8970,18211
8977,18189
8977,18171
8973,18136
8954,18123
8927,18121
8892,18116
8877,18105
8877,18105
8892,18095
8930,18089
8952,18088
9027,18088
9027,18161
9025,18208
9013,18233
8986,18249
8975,18253
8894,18269
8824,18258
8819,18256
8760,18216
8727,18154
8719,18088
8732,18010
8770,17952
8831,17917
8854,17912
8905,17909
8957,17919
" /> 
<polyline style="fill-rule:evenodd;"
points="9805,17926
9857,17964
9887,18024
9892,18105
9886,18147
9860,18206
9812,18247
9749,18267
9681,18260
9666,18255
9619,18219
9588,18163
9575,18097
9577,18085
9627,18085
9637,18156
9667,18201
9717,18220
9737,18221
9790,18210
9818,18184
9836,18142
9844,18090
9844,18088
9833,18020
9801,17975
9751,17955
9740,17955
9681,17966
9644,18002
9628,18063
9627,18085
9577,18085
9582,18028
9611,17968
9617,17960
9651,17929
9691,17915
9732,17913
9805,17926
" /> 
<polyline style="fill-rule:evenodd;"
points="9263,17931
9308,17961
9326,18010
9327,18024
9312,18074
9269,18112
9204,18133
9164,18142
9147,18160
9144,18197
9144,18198
9139,18236
9129,18254
9127,18255
9119,18239
9114,18194
9111,18126
9110,18088
9110,18021
9144,18021
9146,18064
9157,18083
9182,18088
9184,18088
9227,18084
9251,18078
9271,18054
9277,18021
9268,17981
9236,17960
9184,17955
9158,17959
9147,17976
9144,18017
9144,18021
9110,18021
9110,17921
9191,17921
9263,17931
" /> 
<polyline style="fill-rule:evenodd;"
points="9486,17925
9509,17934
9510,17938
9498,17954
9494,17955
9486,17970
9480,18013
9477,18076
9477,18088
9479,18154
9484,18200
9492,18221
9494,18221
9510,18234
9510,18238
9496,18248
9459,18254
9444,18255
9402,18251
9379,18242
9377,18238
9391,18223
9402,18221
9415,18215
9423,18192
9426,18147
9427,18088
9426,18020
9422,17979
9413,17959
9402,17955
9380,17946
9377,17938
9392,17928
9429,17922
9444,17921
9486,17925
" /> 
<polyline style="fill-rule:evenodd;"
points="5268,16390
5265,16407
5252,16449
5232,16510
5206,16584
5204,16588
5174,16671
5150,16727
5131,16761
5114,16779
5098,16785
5065,16781
5053,16768
5044,16744
5027,16697
5003,16632
4980,16567
4952,16490
4935,16438
4929,16407
4931,16392
4942,16388
4943,16388
4961,16397
4981,16427
5005,16482
5027,16542
5051,16609
5073,16665
5088,16700
5093,16709
5103,16700
5120,16665
5142,16611
5160,16562
5194,16472
5224,16413
5249,16386
5268,16390
" /> 
<polyline style="fill-rule:evenodd;"
points="5585,16389
5630,16409
5657,16434
5660,16445
5659,16465
5648,16469
5619,16457
5600,16446
5528,16424
5465,16430
5415,16463
5385,16519
5377,16575
5383,16630
5399,16677
5404,16685
5445,16727
5498,16743
5565,16735
5631,16713
5655,16711
5660,16728
5646,16757
5607,16776
5554,16787
5494,16787
5437,16777
5391,16755
5386,16750
5345,16695
5324,16624
5325,16548
5346,16478
5385,16426
5433,16396
5483,16379
5533,16378
5585,16389
" /> 
<polyline style="fill-rule:evenodd;"
points="5974,16387
6021,16404
6041,16425
6044,16439
6041,16460
6028,16462
5995,16447
5995,16447
5922,16424
5857,16430
5806,16462
5773,16515
5763,16587
5767,16627
5794,16692
5846,16735
5864,16743
5908,16745
5974,16728
6015,16713
6038,16712
6044,16729
6033,16753
6012,16771
5963,16785
5901,16788
5838,16780
5791,16764
5783,16758
5737,16705
5714,16637
5711,16585
5724,16500
5763,16435
5822,16393
5897,16377
5974,16387
" /> 
<polyline style="fill-rule:evenodd;"
points="7022,16379
7029,16380
7073,16393
7102,16410
7105,16415
7110,16438
7098,16446
7063,16441
7032,16434
6968,16425
6916,16435
6884,16461
6877,16487
6887,16518
6921,16541
6981,16558
7002,16562
7073,16585
7115,16623
7127,16673
7112,16725
7070,16763
7004,16784
6954,16787
6899,16784
6854,16776
6840,16770
6815,16744
6810,16727
6820,16709
6840,16713
6923,16739
6992,16744
7043,16729
7071,16696
7070,16661
7036,16631
6969,16608
6956,16605
6890,16588
6850,16567
6832,16537
6827,16497
6841,16439
6881,16398
6943,16378
7022,16379
" /> 
<polyline style="fill-rule:evenodd;"
points="7315,16388
7410,16397
7480,16426
7527,16475
7544,16513
7556,16596
7537,16672
7493,16730
7461,16757
7427,16773
7379,16781
7327,16785
7210,16792
7210,16738
7277,16738
7342,16738
7410,16725
7450,16703
7478,16675
7491,16639
7494,16590
7483,16519
7450,16470
7390,16441
7348,16432
7277,16421
7277,16738
7210,16738
7210,16388
7315,16388
" /> 
<polyline style="fill-rule:evenodd;"
points="7797,16392
7812,16401
7828,16425
7847,16468
7872,16535
7883,16567
7910,16640
7933,16703
7949,16748
7956,16767
7950,16785
7937,16788
7914,16774
7891,16739
7886,16729
7870,16694
7852,16677
7821,16673
7774,16675
7722,16679
7694,16689
7679,16709
7671,16734
7650,16776
7626,16788
7613,16785
7608,16773
7614,16745
7630,16695
7647,16650
7657,16621
7714,16621
7779,16621
7820,16620
7842,16617
7844,16616
7838,16591
7824,16551
7807,16508
7790,16472
7779,16455
7779,16455
7767,16469
7751,16506
7740,16538
7714,16621
7657,16621
7673,16580
7697,16514
7715,16464
7718,16455
7742,16410
7775,16392
7779,16392
7797,16392
" /> 
<polyline style="fill-rule:evenodd;"
points="9320,16718
9325,16739
9327,16782
9327,16853
9327,16860
9327,16934
9329,16981
9334,17007
9344,17019
9361,17021
9369,17021
9400,17027
9410,17038
9395,17047
9355,17053
9309,17055
9252,17052
9222,17045
9219,17038
9242,17024
9261,17021
9279,17018
9288,17003
9293,16969
9294,16909
9294,16906
9293,16845
9289,16810
9280,16793
9261,16786
9248,16784
9218,16778
9218,16772
9235,16764
9276,16741
9298,16725
9311,16715
9320,16718
" /> 
<polyline style="fill-rule:evenodd;"
points="8940,16116
8988,16129
9020,16149
9027,16165
9019,16183
8998,16179
8963,16169
8913,16160
8900,16159
8852,16157
8821,16170
8796,16197
8766,16258
8764,16318
8786,16371
8828,16410
8887,16428
8933,16426
8968,16408
8980,16379
8969,16351
8934,16335
8933,16335
8891,16324
8879,16310
8896,16296
8938,16288
8951,16288
9027,16288
9027,16360
9024,16408
9011,16435
8985,16452
8913,16469
8839,16462
8819,16456
8762,16417
8728,16362
8716,16298
8725,16233
8756,16175
8808,16133
8833,16122
8885,16113
8940,16116
" /> 
<polyline style="fill-rule:evenodd;"
points="9263,16131
9307,16160
9326,16210
9327,16226
9312,16271
9274,16310
9222,16334
9192,16338
9161,16341
9147,16356
9144,16392
9144,16405
9140,16446
9131,16470
9127,16471
9119,16455
9114,16411
9111,16342
9110,16296
9110,16222
9144,16222
9144,16290
9206,16285
9249,16277
9269,16260
9274,16241
9268,16193
9235,16163
9192,16155
9161,16157
9147,16172
9144,16208
9144,16222
9110,16222
9110,16121
9191,16121
9263,16131
" /> 
<polyline style="fill-rule:evenodd;"
points="9486,16125
9509,16134
9510,16138
9498,16154
9494,16155
9486,16170
9480,16213
9477,16276
9477,16288
9479,16354
9484,16400
9492,16421
9494,16421
9509,16435
9510,16446
9499,16464
9463,16471
9444,16471
9397,16467
9378,16453
9377,16446
9390,16424
9402,16421
9415,16415
9423,16392
9426,16347
9427,16288
9426,16220
9422,16179
9413,16159
9402,16155
9380,16146
9377,16138
9392,16128
9429,16122
9444,16121
9486,16125
" /> 
<polyline style="fill-rule:evenodd;"
points="9747,16112
9780,16120
9842,16154
9879,16209
9891,16286
9889,16319
9868,16391
9827,16441
9773,16469
9712,16470
9651,16444
9626,16423
9588,16364
9575,16299
9627,16299
9639,16363
9670,16407
9713,16428
9763,16423
9811,16389
9815,16385
9837,16337
9843,16276
9831,16217
9818,16192
9781,16162
9735,16155
9680,16168
9644,16208
9628,16275
9627,16299
9575,16299
9574,16296
9584,16227
9615,16168
9662,16129
9706,16111
9747,16112
" /> 
</g>
<g style="fill:#000000; fill-opacity:0.0; 
stroke:#000000; stroke-width:3.93701; stroke-opacity:1; 
stroke-linecap:round; stroke-linejoin:round;">
</g>
<g style="fill:#000000; fill-opacity:0.0; 
stroke:#000000; stroke-width:59.0551; stroke-opacity:1; 
stroke-linecap:round; stroke-linejoin:round;">
</g>
<g style="fill:#000000; fill-opacity:0.0; 
stroke:#000000; stroke-width:39.3701; stroke-opacity:1; 
stroke-linecap:round; stroke-linejoin:round;">
<path d="M1227 19
L1220 21
" />
<path d="M1220 21
L1158 23
" />
<path d="M1158 23
L1097 28
" />
<path d="M1097 28
L1037 36
" />
<path d="M1037 36
L978 47
" />
<path d="M978 47
L920 61
" />
<path d="M920 61
L863 77
" />
<path d="M863 77
L807 96
" />
<path d="M807 96
L753 118
" />
<path d="M753 118
L700 143
" />
<path d="M700 143
L648 169
" />
<path d="M648 169
L598 199
" />
<path d="M598 199
L549 230
" />
<path d="M549 230
L502 264
" />
<path d="M502 264
L457 300
" />
<path d="M457 300
L414 337
" />
<path d="M414 337
L372 377
" />
<path d="M372 377
L332 419
" />
<path d="M332 419
L295 463
" />
<path d="M295 463
L259 508
" />
<path d="M259 508
L225 556
" />
<path d="M225 556
L194 604
" />
<path d="M194 604
L165 655
" />
<path d="M165 655
L139 707
" />
<path d="M139 707
L115 760
" />
<path d="M115 760
L93 814
" />
<path d="M93 814
L74 870
" />
<path d="M74 870
L58 927
" />
<path d="M58 927
L44 985
" />
<path d="M44 985
L34 1045
" />
<path d="M34 1045
L26 1105
" />
<path d="M26 1105
L21 1166
" />
<path d="M21 1166
L20 1227
" />
<path d="M20 1227
L19 1231
" />
<path d="M19 1231
L19 1240
" />
<path d="M19 1240
L19 7330
" />
<path d="M19 7330
L19 7333
" />
<path d="M19 7333
L19 7825
" />
<path d="M19 7825
L19 7826
" />
<path d="M19 7826
L19 7833
" />
<path d="M19 7833
L21 7839
" />
<path d="M21 7839
L25 7863
" />
<path d="M25 7863
L34 7884
" />
<path d="M34 7884
L46 7903
" />
<path d="M46 7903
L62 7920
" />
<path d="M62 7920
L80 7934
" />
<path d="M80 7934
L100 7945
" />
<path d="M100 7945
L123 7951
" />
<path d="M123 7951
L147 7953
" />
<path d="M147 7953
L153 7953
" />
<path d="M153 7953
L1615 7953
" />
<path d="M1615 7953
L1623 7953
" />
<path d="M1623 7953
L1660 7955
" />
<path d="M1660 7955
L1696 7961
" />
<path d="M1696 7961
L1731 7969
" />
<path d="M1731 7969
L1764 7981
" />
<path d="M1764 7981
L1795 7996
" />
<path d="M1795 7996
L1825 8014
" />
<path d="M1825 8014
L1853 8035
" />
<path d="M1853 8035
L1879 8058
" />
<path d="M1879 8058
L1902 8084
" />
<path d="M1902 8084
L1923 8111
" />
<path d="M1923 8111
L1942 8141
" />
<path d="M1942 8141
L1957 8172
" />
<path d="M1957 8172
L1970 8205
" />
<path d="M1970 8205
L1979 8239
" />
<path d="M1979 8239
L1985 8275
" />
<path d="M1985 8275
L1987 8312
" />
<path d="M1987 8312
L1987 8317
" />
<path d="M1987 8317
L1987 14222
" />
<path d="M1987 14222
L1987 14227
" />
<path d="M1987 14227
L1985 14264
" />
<path d="M1985 14264
L1979 14300
" />
<path d="M1979 14300
L1970 14334
" />
<path d="M1970 14334
L1958 14367
" />
<path d="M1958 14367
L1943 14398
" />
<path d="M1943 14398
L1925 14427
" />
<path d="M1925 14427
L1904 14455
" />
<path d="M1904 14455
L1881 14480
" />
<path d="M1881 14480
L1855 14504
" />
<path d="M1855 14504
L1828 14524
" />
<path d="M1828 14524
L1798 14542
" />
<path d="M1798 14542
L1767 14557
" />
<path d="M1767 14557
L1734 14570
" />
<path d="M1734 14570
L1700 14579
" />
<path d="M1700 14579
L1664 14584
" />
<path d="M1664 14584
L1628 14587
" />
<path d="M1628 14587
L1622 14586
" />
<path d="M1622 14586
L441 14586
" />
<path d="M441 14586
L438 14586
" />
<path d="M438 14586
L429 14588
" />
<path d="M429 14588
L387 14592
" />
<path d="M387 14592
L347 14599
" />
<path d="M347 14599
L308 14610
" />
<path d="M308 14610
L271 14625
" />
<path d="M271 14625
L235 14642
" />
<path d="M235 14642
L202 14663
" />
<path d="M202 14663
L171 14687
" />
<path d="M171 14687
L142 14714
" />
<path d="M142 14714
L116 14743
" />
<path d="M116 14743
L92 14775
" />
<path d="M92 14775
L72 14808
" />
<path d="M72 14808
L54 14844
" />
<path d="M54 14844
L40 14882
" />
<path d="M40 14882
L30 14921
" />
<path d="M30 14921
L23 14961
" />
<path d="M23 14961
L20 15003
" />
<path d="M20 15003
L19 15010
" />
<path d="M19 15010
L19 15011
" />
<path d="M19 15011
L19 15019
" />
<path d="M19 15019
L19 21112
" />
<path d="M19 21112
L19 21113
" />
<path d="M19 21113
L20 21123
" />
<path d="M20 21123
L22 21185
" />
<path d="M22 21185
L27 21246
" />
<path d="M27 21246
L35 21305
" />
<path d="M35 21305
L46 21364
" />
<path d="M46 21364
L60 21422
" />
<path d="M60 21422
L76 21479
" />
<path d="M76 21479
L95 21535
" />
<path d="M95 21535
L117 21589
" />
<path d="M117 21589
L141 21642
" />
<path d="M141 21642
L168 21694
" />
<path d="M168 21694
L197 21744
" />
<path d="M197 21744
L229 21792
" />
<path d="M229 21792
L262 21839
" />
<path d="M262 21839
L298 21885
" />
<path d="M298 21885
L336 21928
" />
<path d="M336 21928
L375 21970
" />
<path d="M375 21970
L417 22009
" />
<path d="M417 22009
L461 22047
" />
<path d="M461 22047
L506 22083
" />
<path d="M506 22083
L553 22116
" />
<path d="M553 22116
L602 22147
" />
<path d="M602 22147
L652 22176
" />
<path d="M652 22176
L704 22203
" />
<path d="M704 22203
L757 22227
" />
<path d="M757 22227
L811 22249
" />
<path d="M811 22249
L867 22268
" />
<path d="M867 22268
L924 22284
" />
<path d="M924 22284
L982 22297
" />
<path d="M982 22297
L1041 22308
" />
<path d="M1041 22308
L1101 22316
" />
<path d="M1101 22316
L1161 22321
" />
<path d="M1161 22321
L1223 22323
" />
<path d="M1223 22323
L1230 22323
" />
<path d="M1230 22323
L24457 22323
" />
<path d="M24457 22323
L24458 22323
" />
<path d="M24458 22323
L24461 22323
" />
<path d="M24461 22323
L24544 22320
" />
<path d="M24544 22320
L24625 22312
" />
<path d="M24625 22312
L24705 22298
" />
<path d="M24705 22298
L24783 22279
" />
<path d="M24783 22279
L24858 22255
" />
<path d="M24858 22255
L24932 22227
" />
<path d="M24932 22227
L25003 22193
" />
<path d="M25003 22193
L25071 22156
" />
<path d="M25071 22156
L25137 22114
" />
<path d="M25137 22114
L25200 22068
" />
<path d="M25200 22068
L25259 22019
" />
<path d="M25259 22019
L25316 21966
" />
<path d="M25316 21966
L25368 21909
" />
<path d="M25368 21909
L25418 21849
" />
<path d="M25418 21849
L25463 21786
" />
<path d="M25463 21786
L25504 21720
" />
<path d="M25504 21720
L25521 21698
" />
<path d="M25521 21698
L25536 21673
" />
<path d="M25536 21673
L25549 21643
" />
<path d="M25549 21643
L25562 21608
" />
<path d="M25562 21608
L25586 21550
" />
<path d="M25586 21550
L25607 21491
" />
<path d="M25607 21491
L25625 21431
" />
<path d="M25625 21431
L25640 21370
" />
<path d="M25640 21370
L25653 21307
" />
<path d="M25653 21307
L25661 21243
" />
<path d="M25661 21243
L25667 21179
" />
<path d="M25667 21179
L25668 21113
" />
<path d="M25668 21113
L25668 21113
" />
<path d="M25668 21113
L25668 21112
" />
<path d="M25668 21112
L25668 1239
" />
<path d="M25668 1239
L25668 1232
" />
<path d="M25668 1232
L25668 1231
" />
<path d="M25668 1231
L25668 1225
" />
<path d="M25668 1225
L25666 1163
" />
<path d="M25666 1163
L25661 1102
" />
<path d="M25661 1102
L25653 1042
" />
<path d="M25653 1042
L25642 983
" />
<path d="M25642 983
L25629 925
" />
<path d="M25629 925
L25613 868
" />
<path d="M25613 868
L25593 812
" />
<path d="M25593 812
L25572 758
" />
<path d="M25572 758
L25548 704
" />
<path d="M25548 704
L25521 653
" />
<path d="M25521 653
L25492 602
" />
<path d="M25492 602
L25461 553
" />
<path d="M25461 553
L25427 506
" />
<path d="M25427 506
L25391 461
" />
<path d="M25391 461
L25354 417
" />
<path d="M25354 417
L25314 375
" />
<path d="M25314 375
L25272 336
" />
<path d="M25272 336
L25228 298
" />
<path d="M25228 298
L25183 262
" />
<path d="M25183 262
L25136 228
" />
<path d="M25136 228
L25087 197
" />
<path d="M25087 197
L25037 168
" />
<path d="M25037 168
L24985 141
" />
<path d="M24985 141
L24932 117
" />
<path d="M24932 117
L24878 95
" />
<path d="M24878 95
L24822 76
" />
<path d="M24822 76
L24765 60
" />
<path d="M24765 60
L24707 46
" />
<path d="M24707 46
L24648 35
" />
<path d="M24648 35
L24587 27
" />
<path d="M24587 27
L24526 22
" />
<path d="M24526 22
L24465 20
" />
<path d="M24465 20
L24457 19
" />
<path d="M24457 19
L1230 19
" />
<path d="M1230 19
L1227 19
" />
<path d="M1227 19
L1227 19
" />
</g> 
</svg>
