<?xml version="1.0" standalone="no"?>
 <!DOCTYPE svg PUBLIC "-//W3C//DTD SVG 1.1//EN" 
 "http://www.w3.org/Graphics/SVG/1.1/DTD/svg11.dtd"> 
<svg xmlns="http://www.w3.org/2000/svg" version="1.1" 
    width="6.51256cm" height="6.2611cm" viewBox="0 0 25640 24650 ">
<title>SVG Picture created as ShittyAddonHat-F.Fab.svg date 2019/04/21 22:00:56 </title>
  <desc>Picture generated by PCBNEW </desc>
<g style="fill:#000000; fill-opacity:1;stroke:#000000; stroke-opacity:1;
stroke-linecap:round; stroke-linejoin:round; "
 transform="translate(0 0) scale(1 1)">
</g>
<g style="fill:#000000; fill-opacity:0.0; 
stroke:#000000; stroke-width:-0.000393701; stroke-opacity:1; 
stroke-linecap:round; stroke-linejoin:round;">
</g>
<g style="fill:#000000; fill-opacity:0.0; 
stroke:#000000; stroke-width:80; stroke-opacity:1; 
stroke-linecap:round; stroke-linejoin:round;">
<path d="M3527 4944
L3027 4944
" />
</g>
<g style="fill:#000000; fill-opacity:1.0; 
stroke:#000000; stroke-width:0; stroke-opacity:1; 
stroke-linecap:round; stroke-linejoin:round;">
<polyline style="fill-rule:evenodd;"
points="22377,4544
22377,4344
22177,4344
22177,4544
22377,4544
" /> 
<polyline style="fill-rule:evenodd;"
points="21377,4544
21377,4344
21177,4344
21177,4544
21377,4544
" /> 
<polyline style="fill-rule:evenodd;"
points="20377,4544
20377,4344
20177,4344
20177,4544
20377,4544
" /> 
<polyline style="fill-rule:evenodd;"
points="19377,4544
19377,4344
19177,4344
19177,4544
19377,4544
" /> 
<polyline style="fill-rule:evenodd;"
points="18377,4544
18377,4344
18177,4344
18177,4544
18377,4544
" /> 
<polyline style="fill-rule:evenodd;"
points="17377,4544
17377,4344
17177,4344
17177,4544
17377,4544
" /> 
<polyline style="fill-rule:evenodd;"
points="16377,4544
16377,4344
16177,4344
16177,4544
16377,4544
" /> 
<polyline style="fill-rule:evenodd;"
points="22377,3544
22377,3344
22177,3344
22177,3544
22377,3544
" /> 
<polyline style="fill-rule:evenodd;"
points="21377,3544
21377,3344
21177,3344
21177,3544
21377,3544
" /> 
<polyline style="fill-rule:evenodd;"
points="20377,3544
20377,3344
20177,3344
20177,3544
20377,3544
" /> 
<polyline style="fill-rule:evenodd;"
points="19377,3544
19377,3344
19177,3344
19177,3544
19377,3544
" /> 
<polyline style="fill-rule:evenodd;"
points="18377,3544
18377,3344
18177,3344
18177,3544
18377,3544
" /> 
<polyline style="fill-rule:evenodd;"
points="17377,3544
17377,3344
17177,3344
17177,3544
17377,3544
" /> 
<polyline style="fill-rule:evenodd;"
points="16377,3544
16377,3344
16177,3344
16177,3544
16377,3544
" /> 
<polyline style="fill-rule:evenodd;"
points="14377,3544
14377,3344
14177,3344
14177,3544
14377,3544
" /> 
<polyline style="fill-rule:evenodd;"
points="14377,4544
14377,4344
14177,4344
14177,4544
14377,4544
" /> 
<polyline style="fill-rule:evenodd;"
points="15377,4544
15377,4344
15177,4344
15177,4544
15377,4544
" /> 
<polyline style="fill-rule:evenodd;"
points="15377,3544
15377,3344
15177,3344
15177,3544
15377,3544
" /> 
<polyline style="fill-rule:evenodd;"
points="14377,4544
14377,4344
14177,4344
14177,4544
14377,4544
" /> 
<polyline style="fill-rule:evenodd;"
points="14377,3544
14377,3344
14177,3344
14177,3544
14377,3544
" /> 
<polyline style="fill-rule:evenodd;"
points="13377,4544
13377,4344
13177,4344
13177,4544
13377,4544
" /> 
<polyline style="fill-rule:evenodd;"
points="13377,3544
13377,3344
13177,3344
13177,3544
13377,3544
" /> 
<polyline style="fill-rule:evenodd;"
points="11377,3544
11377,3344
11177,3344
11177,3544
11377,3544
" /> 
<polyline style="fill-rule:evenodd;"
points="11377,4544
11377,4344
11177,4344
11177,4544
11377,4544
" /> 
<polyline style="fill-rule:evenodd;"
points="12377,4544
12377,4344
12177,4344
12177,4544
12377,4544
" /> 
<polyline style="fill-rule:evenodd;"
points="12377,3544
12377,3344
12177,3344
12177,3544
12377,3544
" /> 
<polyline style="fill-rule:evenodd;"
points="11377,4544
11377,4344
11177,4344
11177,4544
11377,4544
" /> 
<polyline style="fill-rule:evenodd;"
points="11377,3544
11377,3344
11177,3344
11177,3544
11377,3544
" /> 
<polyline style="fill-rule:evenodd;"
points="10377,4544
10377,4344
10177,4344
10177,4544
10377,4544
" /> 
<polyline style="fill-rule:evenodd;"
points="10377,3544
10377,3344
10177,3344
10177,3544
10377,3544
" /> 
<polyline style="fill-rule:evenodd;"
points="9377,4544
9377,4344
9177,4344
9177,4544
9377,4544
" /> 
<polyline style="fill-rule:evenodd;"
points="9377,3544
9377,3344
9177,3344
9177,3544
9377,3544
" /> 
<polyline style="fill-rule:evenodd;"
points="8377,3544
8377,3344
8177,3344
8177,3544
8377,3544
" /> 
<polyline style="fill-rule:evenodd;"
points="8377,4544
8377,4344
8177,4344
8177,4544
8377,4544
" /> 
<polyline style="fill-rule:evenodd;"
points="6377,3544
6377,3344
6177,3344
6177,3544
6377,3544
" /> 
<polyline style="fill-rule:evenodd;"
points="6377,4544
6377,4344
6177,4344
6177,4544
6377,4544
" /> 
<polyline style="fill-rule:evenodd;"
points="7377,4544
7377,4344
7177,4344
7177,4544
7377,4544
" /> 
<polyline style="fill-rule:evenodd;"
points="7377,3544
7377,3344
7177,3344
7177,3544
7377,3544
" /> 
<polyline style="fill-rule:evenodd;"
points="6377,4544
6377,4344
6177,4344
6177,4544
6377,4544
" /> 
<polyline style="fill-rule:evenodd;"
points="6377,3544
6377,3344
6177,3344
6177,3544
6377,3544
" /> 
<polyline style="fill-rule:evenodd;"
points="5377,4544
5377,4344
5177,4344
5177,4544
5377,4544
" /> 
<polyline style="fill-rule:evenodd;"
points="5377,3544
5377,3344
5177,3344
5177,3544
5377,3544
" /> 
<polyline style="fill-rule:evenodd;"
points="4377,4544
4377,4344
4177,4344
4177,4544
4377,4544
" /> 
<polyline style="fill-rule:evenodd;"
points="4377,3544
4377,3344
4177,3344
4177,3544
4377,3544
" /> 
<polyline style="fill-rule:evenodd;"
points="3377,3544
3377,3344
3177,3344
3177,3544
3377,3544
" /> 
<polyline style="fill-rule:evenodd;"
points="3377,4544
3377,4344
3177,4344
3177,4544
3377,4544
" /> 
<polyline style="fill-rule:evenodd;"
points="9197,9079
9397,9079
9397,8879
9197,8879
9197,9079
" /> 
<polyline style="fill-rule:evenodd;"
points="9197,8079
9397,8079
9397,7879
9197,7879
9197,8079
" /> 
<polyline style="fill-rule:evenodd;"
points="8197,9079
8397,9079
8397,8879
8197,8879
8197,9079
" /> 
<polyline style="fill-rule:evenodd;"
points="8197,8079
8397,8079
8397,7879
8197,7879
8197,8079
" /> 
<polyline style="fill-rule:evenodd;"
points="7197,8079
7397,8079
7397,7879
7197,7879
7197,8079
" /> 
<polyline style="fill-rule:evenodd;"
points="7197,9079
7397,9079
7397,8879
7197,8879
7197,9079
" /> 
</g>
<g style="fill:#000000; fill-opacity:1.0; 
stroke:#000000; stroke-width:80; stroke-opacity:1; 
stroke-linecap:round; stroke-linejoin:round;">
</g>
<g style="fill:#000000; fill-opacity:0.0; 
stroke:#000000; stroke-width:80; stroke-opacity:1; 
stroke-linecap:round; stroke-linejoin:round;">
<path d="M7547 9611
L7047 9611
" />
<path d="M7047 9479
L7547 9479
" />
<path d="M8047 9479
L8547 9479
" />
<path d="M9047 9479
L9547 9479
" />
<path d="M9797 7729
L9797 9229
" />
<path d="M8797 7729
L8797 9229
" />
<path d="M7797 7729
L7797 9229
" />
<path d="M9547 7479
L9797 7729
" />
<path d="M9047 7479
L9547 7479
" />
<path d="M8797 7729
L9047 7479
" />
<path d="M8547 7479
L8797 7729
" />
<path d="M8047 7479
L8547 7479
" />
<path d="M7797 7729
L8047 7479
" />
<path d="M7547 7479
L7797 7729
" />
<path d="M7047 7479
L7547 7479
" />
<path d="M6797 7729
L7047 7479
" />
<path d="M6797 9229
L6797 7729
" />
<path d="M9547 9479
L9797 9229
" />
<path d="M8797 9229
L9047 9479
" />
<path d="M8547 9479
L8797 9229
" />
<path d="M7797 9229
L8047 9479
" />
<path d="M7547 9479
L7797 9229
" />
<path d="M6797 9229
L7047 9479
" />
</g>
<g style="fill:#000000; fill-opacity:1.0; 
stroke:#000000; stroke-width:0; stroke-opacity:1; 
stroke-linecap:round; stroke-linejoin:round;">
<polyline style="fill-rule:evenodd;"
points="9197,16166
9397,16166
9397,15966
9197,15966
9197,16166
" /> 
<polyline style="fill-rule:evenodd;"
points="9197,15166
9397,15166
9397,14966
9197,14966
9197,15166
" /> 
<polyline style="fill-rule:evenodd;"
points="8197,16166
8397,16166
8397,15966
8197,15966
8197,16166
" /> 
<polyline style="fill-rule:evenodd;"
points="8197,15166
8397,15166
8397,14966
8197,14966
8197,15166
" /> 
<polyline style="fill-rule:evenodd;"
points="7197,15166
7397,15166
7397,14966
7197,14966
7197,15166
" /> 
<polyline style="fill-rule:evenodd;"
points="7197,16166
7397,16166
7397,15966
7197,15966
7197,16166
" /> 
</g>
<g style="fill:#000000; fill-opacity:1.0; 
stroke:#000000; stroke-width:80; stroke-opacity:1; 
stroke-linecap:round; stroke-linejoin:round;">
</g>
<g style="fill:#000000; fill-opacity:0.0; 
stroke:#000000; stroke-width:80; stroke-opacity:1; 
stroke-linecap:round; stroke-linejoin:round;">
<path d="M7547 16698
L7047 16698
" />
<path d="M7047 16566
L7547 16566
" />
<path d="M8047 16566
L8547 16566
" />
<path d="M9047 16566
L9547 16566
" />
<path d="M9797 14816
L9797 16316
" />
<path d="M8797 14816
L8797 16316
" />
<path d="M7797 14816
L7797 16316
" />
<path d="M9547 14566
L9797 14816
" />
<path d="M9047 14566
L9547 14566
" />
<path d="M8797 14816
L9047 14566
" />
<path d="M8547 14566
L8797 14816
" />
<path d="M8047 14566
L8547 14566
" />
<path d="M7797 14816
L8047 14566
" />
<path d="M7547 14566
L7797 14816
" />
<path d="M7047 14566
L7547 14566
" />
<path d="M6797 14816
L7047 14566
" />
<path d="M6797 16316
L6797 14816
" />
<path d="M9547 16566
L9797 16316
" />
<path d="M8797 16316
L9047 16566
" />
<path d="M8547 16566
L8797 16316
" />
<path d="M7797 16316
L8047 16566
" />
<path d="M7547 16566
L7797 16316
" />
<path d="M6797 16316
L7047 16566
" />
<path d="M18029 21421
L18179 21771
" />
<path d="M18029 21821
L18029 22121
" />
<path d="M18029 21121
L18029 21421
" />
<path d="M20029 20421
L19879 20421
" />
<path d="M18029 20421
L18179 20421
" />
<path d="M18029 22821
L18179 22821
" />
<path d="M20029 22821
L19879 22821
" />
<path d="M17829 22621
L17829 22021
" />
<path d="M18029 22821
L17829 22621
" />
<path d="M17829 20621
L17829 21221
" />
<path d="M18029 20421
L17829 20621
" />
<path d="M20229 22621
L20229 22021
" />
<path d="M20029 22821
L20229 22621
" />
<path d="M20229 20621
L20029 20421
" />
<path d="M20229 21221
L20229 20621
" />
<path d="M18029 15921
L18179 16271
" />
<path d="M18029 16321
L18029 16621
" />
<path d="M18029 15621
L18029 15921
" />
<path d="M20029 14921
L19879 14921
" />
<path d="M18029 14921
L18179 14921
" />
<path d="M18029 17321
L18179 17321
" />
<path d="M20029 17321
L19879 17321
" />
<path d="M17829 17121
L17829 16521
" />
<path d="M18029 17321
L17829 17121
" />
<path d="M17829 15121
L17829 15721
" />
<path d="M18029 14921
L17829 15121
" />
<path d="M20229 17121
L20229 16521
" />
<path d="M20029 17321
L20229 17121
" />
<path d="M20229 15121
L20029 14921
" />
<path d="M20229 15721
L20229 15121
" />
</g>
<g style="fill:#000000; fill-opacity:0.0; 
stroke:#000000; stroke-width:59.0551; stroke-opacity:1; 
stroke-linecap:round; stroke-linejoin:round;">
<circle cx="24241.7" cy="3950.79" r="541.339" /> 
<circle cx="24241.7" cy="3950.79" r="1220.47" /> 
<circle cx="24241.7" cy="23242.1" r="541.339" /> 
<circle cx="24241.7" cy="23242.1" r="1220.47" /> 
<circle cx="1407.05" cy="23242.1" r="541.339" /> 
<circle cx="1407.05" cy="23242.1" r="1220.47" /> 
<circle cx="1407.05" cy="3950.79" r="1220.47" /> 
<circle cx="1407.05" cy="3950.79" r="541.339" /> 
</g>
<g style="fill:#000000; fill-opacity:0.0; 
stroke:#000000; stroke-width:100; stroke-opacity:1; 
stroke-linecap:round; stroke-linejoin:round;">
<path d="M23529.5 19321.5 A800 800 0.0 0 0 23110.2 19440.2 " />
<path d="M23908.8 19417.1 A800 800 0.0 0 0 23529.5 19321.5 " />
<path d="M23029 20741
L24029 20741
" />
</g>
<g style="fill:#000000; fill-opacity:0.0; 
stroke:#000000; stroke-width:45.6; stroke-opacity:1; 
stroke-linecap:round; stroke-linejoin:round;">
</g>
<g style="fill:#000000; fill-opacity:0.0; 
stroke:#000000; stroke-width:48; stroke-opacity:1; 
stroke-linecap:round; stroke-linejoin:round;">
<path d="M18481 22936
L18654 23001
L18481 23066
" />
<path d="M18730 22860
L18806 23088
L18882 22860
" />
<path d="M19056 23088
L19056 22969
L19045 22947
L19024 22936
L18980 22936
L18958 22947
" />
<path d="M19056 23077
L19034 23088
L18980 23088
L18958 23077
L18948 23056
L18948 23034
L18958 23012
L18980 23001
L19034 23001
L19056 22990
" />
<path d="M19197 23088
L19176 23077
L19165 23056
L19165 22860
" />
<path d="M19382 22936
L19382 23088
" />
<path d="M19284 22936
L19284 23056
L19295 23077
L19317 23088
L19349 23088
L19371 23077
L19382 23066
" />
<path d="M19577 23077
L19556 23088
L19512 23088
L19490 23077
L19480 23056
L19480 22969
L19490 22947
L19512 22936
L19556 22936
L19577 22947
L19588 22969
L19588 22990
L19480 23012
" />
<path d="M18481 17436
L18654 17501
L18481 17566
" />
<path d="M18730 17360
L18806 17588
L18882 17360
" />
<path d="M19056 17588
L19056 17469
L19045 17447
L19024 17436
L18980 17436
L18958 17447
" />
<path d="M19056 17577
L19034 17588
L18980 17588
L18958 17577
L18948 17556
L18948 17534
L18958 17512
L18980 17501
L19034 17501
L19056 17490
" />
<path d="M19197 17588
L19176 17577
L19165 17556
L19165 17360
" />
<path d="M19382 17436
L19382 17588
" />
<path d="M19284 17436
L19284 17556
L19295 17577
L19317 17588
L19349 17588
L19371 17577
L19382 17566
" />
<path d="M19577 17577
L19556 17588
L19512 17588
L19490 17577
L19480 17556
L19480 17469
L19490 17447
L19512 17436
L19556 17436
L19577 17447
L19588 17469
L19588 17490
L19480 17512
" />
</g>
<g style="fill:#000000; fill-opacity:0.0; 
stroke:#000000; stroke-width:45.6; stroke-opacity:1; 
stroke-linecap:round; stroke-linejoin:round;">
<path d="M16618 21418
L16618 21548
" />
<path d="M16618 21483
L16390 21483
L16423 21504
L16444 21526
L16455 21548
" />
<path d="M16390 21276
L16390 21255
L16401 21233
L16412 21222
L16434 21211
L16477 21200
L16531 21200
L16575 21211
L16596 21222
L16607 21233
L16618 21255
L16618 21276
L16607 21298
L16596 21309
L16575 21320
L16531 21331
L16477 21331
L16434 21320
L16412 21309
L16401 21298
L16390 21276
" />
<path d="M16618 21103
L16390 21103
" />
<path d="M16531 21081
L16618 21016
" />
<path d="M16466 21016
L16553 21103
" />
<path d="M16618 15918
L16618 16048
" />
<path d="M16618 15983
L16390 15983
L16423 16004
L16444 16026
L16455 16048
" />
<path d="M16390 15776
L16390 15755
L16401 15733
L16412 15722
L16434 15711
L16477 15700
L16531 15700
L16575 15711
L16596 15722
L16607 15733
L16618 15755
L16618 15776
L16607 15798
L16596 15809
L16575 15820
L16531 15831
L16477 15831
L16434 15820
L16412 15809
L16401 15798
L16390 15776
" />
<path d="M16618 15603
L16390 15603
" />
<path d="M16531 15581
L16618 15516
" />
<path d="M16466 15516
L16553 15603
" />
<path d="M22940 16541
L22929 16531
L22918 16509
L22918 16455
L22929 16433
L22940 16422
L22962 16411
L22983 16411
L23016 16422
L23146 16552
L23146 16411
" />
<path d="M22940 16324
L22929 16313
L22918 16292
L22918 16237
L22929 16216
L22940 16205
L22962 16194
L22983 16194
L23016 16205
L23146 16335
L23146 16194
" />
</g> 
</svg>
