<?xml version="1.0" standalone="no"?>
 <!DOCTYPE svg PUBLIC "-//W3C//DTD SVG 1.1//EN" 
 "http://www.w3.org/Graphics/SVG/1.1/DTD/svg11.dtd"> 
<svg xmlns="http://www.w3.org/2000/svg" version="1.1" 
    width="6.51256cm" height="6.2611cm" viewBox="0 0 25640 24650 ">
<title>SVG Picture created as ShittyAddonHat-B.Cu.svg date 2019/04/21 22:00:56 </title>
  <desc>Picture generated by PCBNEW </desc>
<g style="fill:#000000; fill-opacity:1;stroke:#000000; stroke-opacity:1;
stroke-linecap:round; stroke-linejoin:round; "
 transform="translate(0 0) scale(1 1)">
</g>
<g style="fill:#000000; fill-opacity:0.0; 
stroke:#000000; stroke-width:-0.000393701; stroke-opacity:1; 
stroke-linecap:round; stroke-linejoin:round;">
</g>
<g style="fill:#000000; fill-opacity:1.0; 
stroke:#000000; stroke-width:0; stroke-opacity:1; 
stroke-linecap:round; stroke-linejoin:round;">
<circle cx="22277.6" cy="3444.33" r="370" /> 
</g>
<g style="fill:#000000; fill-opacity:1.0; 
stroke:#000000; stroke-width:39.3701; stroke-opacity:1; 
stroke-linecap:round; stroke-linejoin:round;">
</g>
<g style="fill:#000000; fill-opacity:1.0; 
stroke:#000000; stroke-width:0; stroke-opacity:1; 
stroke-linecap:round; stroke-linejoin:round;">
<circle cx="22277.6" cy="4444.33" r="370" /> 
</g>
<g style="fill:#000000; fill-opacity:1.0; 
stroke:#000000; stroke-width:39.3701; stroke-opacity:1; 
stroke-linecap:round; stroke-linejoin:round;">
</g>
<g style="fill:#000000; fill-opacity:1.0; 
stroke:#000000; stroke-width:0; stroke-opacity:1; 
stroke-linecap:round; stroke-linejoin:round;">
<circle cx="21277.6" cy="3444.33" r="370" /> 
</g>
<g style="fill:#000000; fill-opacity:1.0; 
stroke:#000000; stroke-width:39.3701; stroke-opacity:1; 
stroke-linecap:round; stroke-linejoin:round;">
</g>
<g style="fill:#000000; fill-opacity:1.0; 
stroke:#000000; stroke-width:0; stroke-opacity:1; 
stroke-linecap:round; stroke-linejoin:round;">
<circle cx="21277.6" cy="4444.33" r="370" /> 
</g>
<g style="fill:#000000; fill-opacity:1.0; 
stroke:#000000; stroke-width:39.3701; stroke-opacity:1; 
stroke-linecap:round; stroke-linejoin:round;">
</g>
<g style="fill:#000000; fill-opacity:1.0; 
stroke:#000000; stroke-width:0; stroke-opacity:1; 
stroke-linecap:round; stroke-linejoin:round;">
<circle cx="20277.6" cy="3444.33" r="370" /> 
</g>
<g style="fill:#000000; fill-opacity:1.0; 
stroke:#000000; stroke-width:39.3701; stroke-opacity:1; 
stroke-linecap:round; stroke-linejoin:round;">
</g>
<g style="fill:#000000; fill-opacity:1.0; 
stroke:#000000; stroke-width:0; stroke-opacity:1; 
stroke-linecap:round; stroke-linejoin:round;">
<circle cx="20277.6" cy="4444.33" r="370" /> 
</g>
<g style="fill:#000000; fill-opacity:1.0; 
stroke:#000000; stroke-width:39.3701; stroke-opacity:1; 
stroke-linecap:round; stroke-linejoin:round;">
</g>
<g style="fill:#000000; fill-opacity:1.0; 
stroke:#000000; stroke-width:0; stroke-opacity:1; 
stroke-linecap:round; stroke-linejoin:round;">
<circle cx="19277.6" cy="3444.33" r="370" /> 
</g>
<g style="fill:#000000; fill-opacity:1.0; 
stroke:#000000; stroke-width:39.3701; stroke-opacity:1; 
stroke-linecap:round; stroke-linejoin:round;">
</g>
<g style="fill:#000000; fill-opacity:1.0; 
stroke:#000000; stroke-width:0; stroke-opacity:1; 
stroke-linecap:round; stroke-linejoin:round;">
<circle cx="19277.6" cy="4444.33" r="370" /> 
</g>
<g style="fill:#000000; fill-opacity:1.0; 
stroke:#000000; stroke-width:39.3701; stroke-opacity:1; 
stroke-linecap:round; stroke-linejoin:round;">
</g>
<g style="fill:#000000; fill-opacity:1.0; 
stroke:#000000; stroke-width:0; stroke-opacity:1; 
stroke-linecap:round; stroke-linejoin:round;">
<circle cx="18277.6" cy="3444.33" r="370" /> 
</g>
<g style="fill:#000000; fill-opacity:1.0; 
stroke:#000000; stroke-width:39.3701; stroke-opacity:1; 
stroke-linecap:round; stroke-linejoin:round;">
</g>
<g style="fill:#000000; fill-opacity:1.0; 
stroke:#000000; stroke-width:0; stroke-opacity:1; 
stroke-linecap:round; stroke-linejoin:round;">
<circle cx="18277.6" cy="4444.33" r="370" /> 
</g>
<g style="fill:#000000; fill-opacity:1.0; 
stroke:#000000; stroke-width:39.3701; stroke-opacity:1; 
stroke-linecap:round; stroke-linejoin:round;">
</g>
<g style="fill:#000000; fill-opacity:1.0; 
stroke:#000000; stroke-width:0; stroke-opacity:1; 
stroke-linecap:round; stroke-linejoin:round;">
<circle cx="17277.6" cy="3444.33" r="370" /> 
</g>
<g style="fill:#000000; fill-opacity:1.0; 
stroke:#000000; stroke-width:39.3701; stroke-opacity:1; 
stroke-linecap:round; stroke-linejoin:round;">
</g>
<g style="fill:#000000; fill-opacity:1.0; 
stroke:#000000; stroke-width:0; stroke-opacity:1; 
stroke-linecap:round; stroke-linejoin:round;">
<circle cx="17277.6" cy="4444.33" r="370" /> 
</g>
<g style="fill:#000000; fill-opacity:1.0; 
stroke:#000000; stroke-width:39.3701; stroke-opacity:1; 
stroke-linecap:round; stroke-linejoin:round;">
</g>
<g style="fill:#000000; fill-opacity:1.0; 
stroke:#000000; stroke-width:0; stroke-opacity:1; 
stroke-linecap:round; stroke-linejoin:round;">
<circle cx="16277.6" cy="3444.33" r="370" /> 
</g>
<g style="fill:#000000; fill-opacity:1.0; 
stroke:#000000; stroke-width:39.3701; stroke-opacity:1; 
stroke-linecap:round; stroke-linejoin:round;">
</g>
<g style="fill:#000000; fill-opacity:1.0; 
stroke:#000000; stroke-width:0; stroke-opacity:1; 
stroke-linecap:round; stroke-linejoin:round;">
<circle cx="16277.6" cy="4444.33" r="370" /> 
</g>
<g style="fill:#000000; fill-opacity:1.0; 
stroke:#000000; stroke-width:39.3701; stroke-opacity:1; 
stroke-linecap:round; stroke-linejoin:round;">
</g>
<g style="fill:#000000; fill-opacity:1.0; 
stroke:#000000; stroke-width:0; stroke-opacity:1; 
stroke-linecap:round; stroke-linejoin:round;">
<circle cx="15277.6" cy="3444.33" r="370" /> 
</g>
<g style="fill:#000000; fill-opacity:1.0; 
stroke:#000000; stroke-width:39.3701; stroke-opacity:1; 
stroke-linecap:round; stroke-linejoin:round;">
</g>
<g style="fill:#000000; fill-opacity:1.0; 
stroke:#000000; stroke-width:0; stroke-opacity:1; 
stroke-linecap:round; stroke-linejoin:round;">
<circle cx="15277.6" cy="4444.33" r="370" /> 
</g>
<g style="fill:#000000; fill-opacity:1.0; 
stroke:#000000; stroke-width:39.3701; stroke-opacity:1; 
stroke-linecap:round; stroke-linejoin:round;">
</g>
<g style="fill:#000000; fill-opacity:1.0; 
stroke:#000000; stroke-width:0; stroke-opacity:1; 
stroke-linecap:round; stroke-linejoin:round;">
<circle cx="14277.6" cy="3444.33" r="370" /> 
</g>
<g style="fill:#000000; fill-opacity:1.0; 
stroke:#000000; stroke-width:39.3701; stroke-opacity:1; 
stroke-linecap:round; stroke-linejoin:round;">
</g>
<g style="fill:#000000; fill-opacity:1.0; 
stroke:#000000; stroke-width:0; stroke-opacity:1; 
stroke-linecap:round; stroke-linejoin:round;">
<circle cx="14277.6" cy="4444.33" r="370" /> 
</g>
<g style="fill:#000000; fill-opacity:1.0; 
stroke:#000000; stroke-width:39.3701; stroke-opacity:1; 
stroke-linecap:round; stroke-linejoin:round;">
</g>
<g style="fill:#000000; fill-opacity:1.0; 
stroke:#000000; stroke-width:0; stroke-opacity:1; 
stroke-linecap:round; stroke-linejoin:round;">
<circle cx="13277.6" cy="3444.33" r="370" /> 
</g>
<g style="fill:#000000; fill-opacity:1.0; 
stroke:#000000; stroke-width:39.3701; stroke-opacity:1; 
stroke-linecap:round; stroke-linejoin:round;">
</g>
<g style="fill:#000000; fill-opacity:1.0; 
stroke:#000000; stroke-width:0; stroke-opacity:1; 
stroke-linecap:round; stroke-linejoin:round;">
<circle cx="13277.6" cy="4444.33" r="370" /> 
</g>
<g style="fill:#000000; fill-opacity:1.0; 
stroke:#000000; stroke-width:39.3701; stroke-opacity:1; 
stroke-linecap:round; stroke-linejoin:round;">
</g>
<g style="fill:#000000; fill-opacity:1.0; 
stroke:#000000; stroke-width:0; stroke-opacity:1; 
stroke-linecap:round; stroke-linejoin:round;">
<circle cx="12277.6" cy="3444.33" r="370" /> 
</g>
<g style="fill:#000000; fill-opacity:1.0; 
stroke:#000000; stroke-width:39.3701; stroke-opacity:1; 
stroke-linecap:round; stroke-linejoin:round;">
</g>
<g style="fill:#000000; fill-opacity:1.0; 
stroke:#000000; stroke-width:0; stroke-opacity:1; 
stroke-linecap:round; stroke-linejoin:round;">
<circle cx="12277.6" cy="4444.33" r="370" /> 
</g>
<g style="fill:#000000; fill-opacity:1.0; 
stroke:#000000; stroke-width:39.3701; stroke-opacity:1; 
stroke-linecap:round; stroke-linejoin:round;">
</g>
<g style="fill:#000000; fill-opacity:1.0; 
stroke:#000000; stroke-width:0; stroke-opacity:1; 
stroke-linecap:round; stroke-linejoin:round;">
<circle cx="11277.6" cy="3444.33" r="370" /> 
</g>
<g style="fill:#000000; fill-opacity:1.0; 
stroke:#000000; stroke-width:39.3701; stroke-opacity:1; 
stroke-linecap:round; stroke-linejoin:round;">
</g>
<g style="fill:#000000; fill-opacity:1.0; 
stroke:#000000; stroke-width:0; stroke-opacity:1; 
stroke-linecap:round; stroke-linejoin:round;">
<circle cx="11277.6" cy="4444.33" r="370" /> 
</g>
<g style="fill:#000000; fill-opacity:1.0; 
stroke:#000000; stroke-width:39.3701; stroke-opacity:1; 
stroke-linecap:round; stroke-linejoin:round;">
</g>
<g style="fill:#000000; fill-opacity:1.0; 
stroke:#000000; stroke-width:0; stroke-opacity:1; 
stroke-linecap:round; stroke-linejoin:round;">
<circle cx="10277.6" cy="3444.33" r="370" /> 
</g>
<g style="fill:#000000; fill-opacity:1.0; 
stroke:#000000; stroke-width:39.3701; stroke-opacity:1; 
stroke-linecap:round; stroke-linejoin:round;">
</g>
<g style="fill:#000000; fill-opacity:1.0; 
stroke:#000000; stroke-width:0; stroke-opacity:1; 
stroke-linecap:round; stroke-linejoin:round;">
<circle cx="10277.6" cy="4444.33" r="370" /> 
</g>
<g style="fill:#000000; fill-opacity:1.0; 
stroke:#000000; stroke-width:39.3701; stroke-opacity:1; 
stroke-linecap:round; stroke-linejoin:round;">
</g>
<g style="fill:#000000; fill-opacity:1.0; 
stroke:#000000; stroke-width:0; stroke-opacity:1; 
stroke-linecap:round; stroke-linejoin:round;">
<circle cx="9277.56" cy="3444.33" r="370" /> 
</g>
<g style="fill:#000000; fill-opacity:1.0; 
stroke:#000000; stroke-width:39.3701; stroke-opacity:1; 
stroke-linecap:round; stroke-linejoin:round;">
</g>
<g style="fill:#000000; fill-opacity:1.0; 
stroke:#000000; stroke-width:0; stroke-opacity:1; 
stroke-linecap:round; stroke-linejoin:round;">
<circle cx="9277.56" cy="4444.33" r="370" /> 
</g>
<g style="fill:#000000; fill-opacity:1.0; 
stroke:#000000; stroke-width:39.3701; stroke-opacity:1; 
stroke-linecap:round; stroke-linejoin:round;">
</g>
<g style="fill:#000000; fill-opacity:1.0; 
stroke:#000000; stroke-width:0; stroke-opacity:1; 
stroke-linecap:round; stroke-linejoin:round;">
<circle cx="8277.56" cy="3444.33" r="370" /> 
</g>
<g style="fill:#000000; fill-opacity:1.0; 
stroke:#000000; stroke-width:39.3701; stroke-opacity:1; 
stroke-linecap:round; stroke-linejoin:round;">
</g>
<g style="fill:#000000; fill-opacity:1.0; 
stroke:#000000; stroke-width:0; stroke-opacity:1; 
stroke-linecap:round; stroke-linejoin:round;">
<circle cx="8277.56" cy="4444.33" r="370" /> 
</g>
<g style="fill:#000000; fill-opacity:1.0; 
stroke:#000000; stroke-width:39.3701; stroke-opacity:1; 
stroke-linecap:round; stroke-linejoin:round;">
</g>
<g style="fill:#000000; fill-opacity:1.0; 
stroke:#000000; stroke-width:0; stroke-opacity:1; 
stroke-linecap:round; stroke-linejoin:round;">
<circle cx="7277.56" cy="3444.33" r="370" /> 
</g>
<g style="fill:#000000; fill-opacity:1.0; 
stroke:#000000; stroke-width:39.3701; stroke-opacity:1; 
stroke-linecap:round; stroke-linejoin:round;">
</g>
<g style="fill:#000000; fill-opacity:1.0; 
stroke:#000000; stroke-width:0; stroke-opacity:1; 
stroke-linecap:round; stroke-linejoin:round;">
<circle cx="7277.56" cy="4444.33" r="370" /> 
</g>
<g style="fill:#000000; fill-opacity:1.0; 
stroke:#000000; stroke-width:39.3701; stroke-opacity:1; 
stroke-linecap:round; stroke-linejoin:round;">
</g>
<g style="fill:#000000; fill-opacity:1.0; 
stroke:#000000; stroke-width:0; stroke-opacity:1; 
stroke-linecap:round; stroke-linejoin:round;">
<circle cx="6277.56" cy="3444.33" r="370" /> 
</g>
<g style="fill:#000000; fill-opacity:1.0; 
stroke:#000000; stroke-width:39.3701; stroke-opacity:1; 
stroke-linecap:round; stroke-linejoin:round;">
</g>
<g style="fill:#000000; fill-opacity:1.0; 
stroke:#000000; stroke-width:0; stroke-opacity:1; 
stroke-linecap:round; stroke-linejoin:round;">
<circle cx="6277.56" cy="4444.33" r="370" /> 
</g>
<g style="fill:#000000; fill-opacity:1.0; 
stroke:#000000; stroke-width:39.3701; stroke-opacity:1; 
stroke-linecap:round; stroke-linejoin:round;">
</g>
<g style="fill:#000000; fill-opacity:1.0; 
stroke:#000000; stroke-width:0; stroke-opacity:1; 
stroke-linecap:round; stroke-linejoin:round;">
<circle cx="5277.56" cy="3444.33" r="370" /> 
</g>
<g style="fill:#000000; fill-opacity:1.0; 
stroke:#000000; stroke-width:39.3701; stroke-opacity:1; 
stroke-linecap:round; stroke-linejoin:round;">
</g>
<g style="fill:#000000; fill-opacity:1.0; 
stroke:#000000; stroke-width:0; stroke-opacity:1; 
stroke-linecap:round; stroke-linejoin:round;">
<circle cx="5277.56" cy="4444.33" r="370" /> 
</g>
<g style="fill:#000000; fill-opacity:1.0; 
stroke:#000000; stroke-width:39.3701; stroke-opacity:1; 
stroke-linecap:round; stroke-linejoin:round;">
</g>
<g style="fill:#000000; fill-opacity:1.0; 
stroke:#000000; stroke-width:0; stroke-opacity:1; 
stroke-linecap:round; stroke-linejoin:round;">
<circle cx="4277.56" cy="3444.33" r="370" /> 
</g>
<g style="fill:#000000; fill-opacity:1.0; 
stroke:#000000; stroke-width:39.3701; stroke-opacity:1; 
stroke-linecap:round; stroke-linejoin:round;">
</g>
<g style="fill:#000000; fill-opacity:1.0; 
stroke:#000000; stroke-width:0; stroke-opacity:1; 
stroke-linecap:round; stroke-linejoin:round;">
<circle cx="4277.56" cy="4444.33" r="370" /> 
</g>
<g style="fill:#000000; fill-opacity:1.0; 
stroke:#000000; stroke-width:39.3701; stroke-opacity:1; 
stroke-linecap:round; stroke-linejoin:round;">
</g>
<g style="fill:#000000; fill-opacity:1.0; 
stroke:#000000; stroke-width:0; stroke-opacity:1; 
stroke-linecap:round; stroke-linejoin:round;">
<circle cx="3277.56" cy="3444.33" r="370" /> 
</g>
<g style="fill:#000000; fill-opacity:1.0; 
stroke:#000000; stroke-width:39.3701; stroke-opacity:1; 
stroke-linecap:round; stroke-linejoin:round;">
</g>
<g style="fill:#000000; fill-opacity:1.0; 
stroke:#000000; stroke-width:0; stroke-opacity:1; 
stroke-linecap:round; stroke-linejoin:round;">
<circle cx="3277.56" cy="4444.33" r="370" /> 
</g>
<g style="fill:#000000; fill-opacity:1.0; 
stroke:#000000; stroke-width:39.3701; stroke-opacity:1; 
stroke-linecap:round; stroke-linejoin:round;">
</g>
<g style="fill:#000000; fill-opacity:1.0; 
stroke:#000000; stroke-width:0; stroke-opacity:1; 
stroke-linecap:round; stroke-linejoin:round;">
<circle cx="9297.24" cy="7979.76" r="370" /> 
</g>
<g style="fill:#000000; fill-opacity:1.0; 
stroke:#000000; stroke-width:39.3701; stroke-opacity:1; 
stroke-linecap:round; stroke-linejoin:round;">
</g>
<g style="fill:#000000; fill-opacity:1.0; 
stroke:#000000; stroke-width:0; stroke-opacity:1; 
stroke-linecap:round; stroke-linejoin:round;">
<circle cx="9297.24" cy="8979.76" r="370" /> 
</g>
<g style="fill:#000000; fill-opacity:1.0; 
stroke:#000000; stroke-width:39.3701; stroke-opacity:1; 
stroke-linecap:round; stroke-linejoin:round;">
</g>
<g style="fill:#000000; fill-opacity:1.0; 
stroke:#000000; stroke-width:0; stroke-opacity:1; 
stroke-linecap:round; stroke-linejoin:round;">
<circle cx="8297.24" cy="7979.76" r="370" /> 
</g>
<g style="fill:#000000; fill-opacity:1.0; 
stroke:#000000; stroke-width:39.3701; stroke-opacity:1; 
stroke-linecap:round; stroke-linejoin:round;">
</g>
<g style="fill:#000000; fill-opacity:1.0; 
stroke:#000000; stroke-width:0; stroke-opacity:1; 
stroke-linecap:round; stroke-linejoin:round;">
<circle cx="8297.24" cy="8979.76" r="370" /> 
</g>
<g style="fill:#000000; fill-opacity:1.0; 
stroke:#000000; stroke-width:39.3701; stroke-opacity:1; 
stroke-linecap:round; stroke-linejoin:round;">
</g>
<g style="fill:#000000; fill-opacity:1.0; 
stroke:#000000; stroke-width:0; stroke-opacity:1; 
stroke-linecap:round; stroke-linejoin:round;">
<circle cx="7297.24" cy="7979.76" r="370" /> 
</g>
<g style="fill:#000000; fill-opacity:1.0; 
stroke:#000000; stroke-width:39.3701; stroke-opacity:1; 
stroke-linecap:round; stroke-linejoin:round;">
</g>
<g style="fill:#000000; fill-opacity:1.0; 
stroke:#000000; stroke-width:0; stroke-opacity:1; 
stroke-linecap:round; stroke-linejoin:round;">
<circle cx="7297.24" cy="8979.76" r="370" /> 
</g>
<g style="fill:#000000; fill-opacity:1.0; 
stroke:#000000; stroke-width:39.3701; stroke-opacity:1; 
stroke-linecap:round; stroke-linejoin:round;">
</g>
<g style="fill:#000000; fill-opacity:1.0; 
stroke:#000000; stroke-width:0; stroke-opacity:1; 
stroke-linecap:round; stroke-linejoin:round;">
<circle cx="9297.24" cy="15066.4" r="370" /> 
</g>
<g style="fill:#000000; fill-opacity:1.0; 
stroke:#000000; stroke-width:39.3701; stroke-opacity:1; 
stroke-linecap:round; stroke-linejoin:round;">
</g>
<g style="fill:#000000; fill-opacity:1.0; 
stroke:#000000; stroke-width:0; stroke-opacity:1; 
stroke-linecap:round; stroke-linejoin:round;">
<circle cx="9297.24" cy="16066.4" r="370" /> 
</g>
<g style="fill:#000000; fill-opacity:1.0; 
stroke:#000000; stroke-width:39.3701; stroke-opacity:1; 
stroke-linecap:round; stroke-linejoin:round;">
</g>
<g style="fill:#000000; fill-opacity:1.0; 
stroke:#000000; stroke-width:0; stroke-opacity:1; 
stroke-linecap:round; stroke-linejoin:round;">
<circle cx="8297.24" cy="15066.4" r="370" /> 
</g>
<g style="fill:#000000; fill-opacity:1.0; 
stroke:#000000; stroke-width:39.3701; stroke-opacity:1; 
stroke-linecap:round; stroke-linejoin:round;">
</g>
<g style="fill:#000000; fill-opacity:1.0; 
stroke:#000000; stroke-width:0; stroke-opacity:1; 
stroke-linecap:round; stroke-linejoin:round;">
<circle cx="8297.24" cy="16066.4" r="370" /> 
</g>
<g style="fill:#000000; fill-opacity:1.0; 
stroke:#000000; stroke-width:39.3701; stroke-opacity:1; 
stroke-linecap:round; stroke-linejoin:round;">
</g>
<g style="fill:#000000; fill-opacity:1.0; 
stroke:#000000; stroke-width:0; stroke-opacity:1; 
stroke-linecap:round; stroke-linejoin:round;">
<circle cx="7297.24" cy="15066.4" r="370" /> 
</g>
<g style="fill:#000000; fill-opacity:1.0; 
stroke:#000000; stroke-width:39.3701; stroke-opacity:1; 
stroke-linecap:round; stroke-linejoin:round;">
</g>
<g style="fill:#000000; fill-opacity:1.0; 
stroke:#000000; stroke-width:0; stroke-opacity:1; 
stroke-linecap:round; stroke-linejoin:round;">
<circle cx="7297.24" cy="16066.4" r="370" /> 
</g>
<g style="fill:#000000; fill-opacity:1.0; 
stroke:#000000; stroke-width:39.3701; stroke-opacity:1; 
stroke-linecap:round; stroke-linejoin:round;">
</g>
<g style="fill:#000000; fill-opacity:1.0; 
stroke:#000000; stroke-width:0; stroke-opacity:1; 
stroke-linecap:round; stroke-linejoin:round;">
<circle cx="20309.5" cy="22511.5" r="370" /> 
</g>
<g style="fill:#000000; fill-opacity:1.0; 
stroke:#000000; stroke-width:39.3701; stroke-opacity:1; 
stroke-linecap:round; stroke-linejoin:round;">
</g>
<g style="fill:#000000; fill-opacity:1.0; 
stroke:#000000; stroke-width:0; stroke-opacity:1; 
stroke-linecap:round; stroke-linejoin:round;">
<circle cx="17749.5" cy="22511.5" r="370" /> 
</g>
<g style="fill:#000000; fill-opacity:1.0; 
stroke:#000000; stroke-width:39.3701; stroke-opacity:1; 
stroke-linecap:round; stroke-linejoin:round;">
</g>
<g style="fill:#000000; fill-opacity:1.0; 
stroke:#000000; stroke-width:0; stroke-opacity:1; 
stroke-linecap:round; stroke-linejoin:round;">
<circle cx="20309.5" cy="20731.5" r="370" /> 
</g>
<g style="fill:#000000; fill-opacity:1.0; 
stroke:#000000; stroke-width:39.3701; stroke-opacity:1; 
stroke-linecap:round; stroke-linejoin:round;">
</g>
<g style="fill:#000000; fill-opacity:1.0; 
stroke:#000000; stroke-width:0; stroke-opacity:1; 
stroke-linecap:round; stroke-linejoin:round;">
<circle cx="17749.5" cy="20731.5" r="370" /> 
</g>
<g style="fill:#000000; fill-opacity:1.0; 
stroke:#000000; stroke-width:39.3701; stroke-opacity:1; 
stroke-linecap:round; stroke-linejoin:round;">
</g>
<g style="fill:#000000; fill-opacity:1.0; 
stroke:#000000; stroke-width:0; stroke-opacity:1; 
stroke-linecap:round; stroke-linejoin:round;">
<circle cx="20309.5" cy="17011.5" r="370" /> 
</g>
<g style="fill:#000000; fill-opacity:1.0; 
stroke:#000000; stroke-width:39.3701; stroke-opacity:1; 
stroke-linecap:round; stroke-linejoin:round;">
</g>
<g style="fill:#000000; fill-opacity:1.0; 
stroke:#000000; stroke-width:0; stroke-opacity:1; 
stroke-linecap:round; stroke-linejoin:round;">
<circle cx="17749.5" cy="17011.5" r="370" /> 
</g>
<g style="fill:#000000; fill-opacity:1.0; 
stroke:#000000; stroke-width:39.3701; stroke-opacity:1; 
stroke-linecap:round; stroke-linejoin:round;">
</g>
<g style="fill:#000000; fill-opacity:1.0; 
stroke:#000000; stroke-width:0; stroke-opacity:1; 
stroke-linecap:round; stroke-linejoin:round;">
<circle cx="20309.5" cy="15231.5" r="370" /> 
</g>
<g style="fill:#000000; fill-opacity:1.0; 
stroke:#000000; stroke-width:39.3701; stroke-opacity:1; 
stroke-linecap:round; stroke-linejoin:round;">
</g>
<g style="fill:#000000; fill-opacity:1.0; 
stroke:#000000; stroke-width:0; stroke-opacity:1; 
stroke-linecap:round; stroke-linejoin:round;">
<circle cx="17749.5" cy="15231.5" r="370" /> 
</g>
<g style="fill:#000000; fill-opacity:1.0; 
stroke:#000000; stroke-width:39.3701; stroke-opacity:1; 
stroke-linecap:round; stroke-linejoin:round;">
</g>
<g style="fill:#000000; fill-opacity:1.0; 
stroke:#000000; stroke-width:0; stroke-opacity:1; 
stroke-linecap:round; stroke-linejoin:round;">
<circle cx="16029.5" cy="20121.5" r="400" /> 
</g>
<g style="fill:#000000; fill-opacity:1.0; 
stroke:#000000; stroke-width:39.3701; stroke-opacity:1; 
stroke-linecap:round; stroke-linejoin:round;">
</g>
<g style="fill:#000000; fill-opacity:1.0; 
stroke:#000000; stroke-width:0; stroke-opacity:1; 
stroke-linecap:round; stroke-linejoin:round;">
<circle cx="16029.5" cy="23121.5" r="400" /> 
</g>
<g style="fill:#000000; fill-opacity:1.0; 
stroke:#000000; stroke-width:39.3701; stroke-opacity:1; 
stroke-linecap:round; stroke-linejoin:round;">
</g>
<g style="fill:#000000; fill-opacity:1.0; 
stroke:#000000; stroke-width:0; stroke-opacity:1; 
stroke-linecap:round; stroke-linejoin:round;">
<circle cx="16029.5" cy="14621.5" r="400" /> 
</g>
<g style="fill:#000000; fill-opacity:1.0; 
stroke:#000000; stroke-width:39.3701; stroke-opacity:1; 
stroke-linecap:round; stroke-linejoin:round;">
</g>
<g style="fill:#000000; fill-opacity:1.0; 
stroke:#000000; stroke-width:0; stroke-opacity:1; 
stroke-linecap:round; stroke-linejoin:round;">
<circle cx="16029.5" cy="17621.5" r="400" /> 
</g>
<g style="fill:#000000; fill-opacity:1.0; 
stroke:#000000; stroke-width:39.3701; stroke-opacity:1; 
stroke-linecap:round; stroke-linejoin:round;">
</g>
<g style="fill:#000000; fill-opacity:1.0; 
stroke:#000000; stroke-width:0; stroke-opacity:1; 
stroke-linecap:round; stroke-linejoin:round;">
<circle cx="23529.5" cy="20621.5" r="370" /> 
</g>
<g style="fill:#000000; fill-opacity:1.0; 
stroke:#000000; stroke-width:39.3701; stroke-opacity:1; 
stroke-linecap:round; stroke-linejoin:round;">
</g>
<g style="fill:#000000; fill-opacity:1.0; 
stroke:#000000; stroke-width:0; stroke-opacity:1; 
stroke-linecap:round; stroke-linejoin:round;">
<circle cx="23529.5" cy="19621.5" r="370" /> 
</g>
<g style="fill:#000000; fill-opacity:1.0; 
stroke:#000000; stroke-width:39.3701; stroke-opacity:1; 
stroke-linecap:round; stroke-linejoin:round;">
</g>
<g style="fill:#000000; fill-opacity:1.0; 
stroke:#000000; stroke-width:0; stroke-opacity:1; 
stroke-linecap:round; stroke-linejoin:round;">
<circle cx="23529.5" cy="17621.5" r="400" /> 
</g>
<g style="fill:#000000; fill-opacity:1.0; 
stroke:#000000; stroke-width:39.3701; stroke-opacity:1; 
stroke-linecap:round; stroke-linejoin:round;">
</g>
<g style="fill:#000000; fill-opacity:1.0; 
stroke:#000000; stroke-width:0; stroke-opacity:1; 
stroke-linecap:round; stroke-linejoin:round;">
<circle cx="23529.5" cy="14621.5" r="400" /> 
</g>
<g style="fill:#000000; fill-opacity:1.0; 
stroke:#000000; stroke-width:39.3701; stroke-opacity:1; 
stroke-linecap:round; stroke-linejoin:round;">
</g>
<g style="fill:#000000; fill-opacity:1.0; 
stroke:#000000; stroke-width:60; stroke-opacity:1; 
stroke-linecap:round; stroke-linejoin:round;">
<polyline style="fill-rule:evenodd;"
points="24577,2415
24714,2440
24847,2482
24973,2539
25092,2611
25202,2696
25300,2795
25386,2904
25458,3023
25515,3150
25556,3283
25581,3419
25590,3559
25590,23439
25581,23579
25556,23715
25515,23848
25458,23975
25386,24094
25300,24203
25202,24301
25092,24387
24973,24459
24847,24516
24714,24557
24577,24583
24438,24591
1211,24591
1071,24583
935,24557
802,24516
675,24459
556,24387
447,24301
349,24203
263,24094
191,23975
134,23848
93,23715
67,23579
59,23439
59,23241
196,23241
196,23245
205,23387
205,23391
231,23531
232,23535
274,23671
275,23674
334,23804
335,23807
409,23930
411,23932
499,24045
502,24047
603,24148
605,24151
718,24239
721,24241
843,24315
846,24316
976,24375
979,24376
1115,24418
1119,24419
1259,24445
1263,24445
1405,24454
1409,24454
1551,24445
1555,24445
1695,24419
1699,24418
1835,24376
1838,24375
1968,24316
1971,24315
2093,24241
2096,24239
2209,24151
2211,24148
2312,24047
2315,24045
2403,23932
2405,23930
2478,23807
2480,23804
2539,23674
2540,23671
2582,23535
2583,23531
2609,23391
2609,23387
2618,23245
2618,23241
2609,23099
2609,23095
2605,23073
15539,23073
15539,23169
15558,23264
15595,23353
15648,23433
15717,23502
15797,23555
15886,23592
15981,23611
16077,23611
16172,23592
16261,23555
16341,23502
16410,23433
16463,23353
16500,23264
16505,23241
23031,23241
23031,23245
23039,23387
23040,23391
23065,23531
23066,23535
23109,23671
23110,23674
23168,23804
23170,23807
23244,23930
23246,23932
23334,24045
23336,24047
23437,24148
23440,24151
23552,24239
23555,24241
23677,24315
23680,24316
23810,24375
23814,24376
23950,24418
23954,24419
24094,24445
24097,24445
24240,24454
24243,24454
24386,24445
24389,24445
24530,24419
24533,24418
24669,24376
24673,24375
24803,24316
24806,24315
24928,24241
24931,24239
25043,24151
25046,24148
25147,24047
25149,24045
25237,23932
25239,23930
25313,23807
25315,23804
25373,23674
25375,23671
25417,23535
25418,23531
25444,23391
25444,23387
25453,23245
25453,23241
25444,23099
25444,23095
25418,22955
25417,22951
25375,22815
25373,22812
25315,22682
25313,22679
25239,22557
25237,22554
25149,22441
25147,22439
25046,22338
25043,22335
24931,22247
24928,22245
24806,22172
24803,22170
24673,22111
24669,22110
24533,22068
24530,22067
24389,22041
24386,22041
24243,22032
24240,22032
24097,22041
24094,22041
23954,22067
23950,22068
23814,22110
23810,22111
23680,22170
23677,22172
23555,22245
23552,22247
23440,22335
23437,22338
23336,22439
23334,22441
23246,22554
23244,22557
23170,22679
23168,22682
23110,22812
23109,22815
23066,22951
23065,22955
23040,23095
23039,23099
23031,23241
16505,23241
16519,23169
16519,23073
16500,22978
16463,22889
16430,22839
17435,22839
17474,22907
17556,22953
17646,22982
17740,22993
17834,22985
17925,22960
18009,22917
18024,22907
18063,22839
17749,22525
17435,22839
16430,22839
16410,22809
16341,22740
16261,22687
16172,22650
16077,22631
15981,22631
15886,22650
15797,22687
15717,22740
15648,22809
15595,22889
15558,22978
15539,23073
2605,23073
2583,22955
2582,22951
2540,22815
2539,22812
2480,22682
2478,22679
2405,22557
2403,22554
2362,22502
17267,22502
17275,22596
17300,22687
17343,22771
17353,22786
17421,22825
17735,22511
17763,22511
18077,22825
18145,22786
18191,22704
18220,22614
18231,22520
18227,22466
19849,22466
19849,22556
19867,22645
19901,22729
19952,22804
20016,22868
20091,22919
20175,22953
20264,22971
20354,22971
20443,22953
20527,22919
20602,22868
20666,22804
20717,22729
20751,22645
20769,22556
20769,22466
20751,22377
20717,22293
20666,22218
20602,22154
20527,22103
20443,22069
20354,22051
20264,22051
20175,22069
20091,22103
20016,22154
19952,22218
19901,22293
19867,22377
19849,22466
18227,22466
18223,22426
18198,22335
18155,22251
18145,22236
18077,22197
17763,22511
17735,22511
17421,22197
17353,22236
17307,22318
17278,22408
17267,22502
2362,22502
2315,22441
2312,22439
2211,22338
2209,22335
2096,22247
2093,22245
1990,22183
17435,22183
17749,22497
18063,22183
18024,22115
17942,22069
17852,22040
17758,22029
17664,22037
17573,22062
17489,22105
17474,22115
17435,22183
1990,22183
1971,22172
1968,22170
1838,22111
1835,22110
1699,22068
1695,22067
1555,22041
1551,22041
1409,22032
1405,22032
1263,22041
1259,22041
1119,22067
1115,22068
979,22110
976,22111
846,22170
843,22172
721,22245
718,22247
605,22335
603,22338
502,22439
499,22441
411,22554
409,22557
335,22679
334,22682
275,22812
274,22815
232,22951
231,22955
205,23095
205,23099
196,23241
59,23241
59,20686
17289,20686
17289,20776
17307,20865
17341,20949
17392,21024
17456,21088
17531,21139
17615,21173
17704,21191
17794,21191
17883,21173
17967,21139
18042,21088
18106,21024
18157,20949
18191,20865
18209,20776
18209,20686
19849,20686
19849,20776
19867,20865
19901,20949
19952,21024
20016,21088
20091,21139
20175,21173
20264,21191
20354,21191
20443,21173
20527,21139
20602,21088
20666,21024
20716,20949
23215,20949
23254,21017
23336,21063
23426,21092
23520,21103
23614,21095
23705,21070
23789,21027
23804,21017
23843,20949
23529,20635
23215,20949
20716,20949
20717,20949
20751,20865
20769,20776
20769,20686
20754,20612
23047,20612
23055,20706
23080,20797
23123,20881
23133,20896
23201,20935
23515,20621
23543,20621
23857,20935
23925,20896
23971,20814
24000,20724
24011,20630
24003,20536
23978,20445
23935,20361
23925,20346
23857,20307
23543,20621
23515,20621
23201,20307
23133,20346
23087,20428
23058,20518
23047,20612
20754,20612
20751,20597
20717,20513
20666,20438
20602,20374
20527,20323
20453,20293
23215,20293
23529,20607
23843,20293
23804,20225
23722,20179
23632,20150
23538,20139
23444,20147
23353,20172
23269,20215
23254,20225
23215,20293
20453,20293
20443,20289
20354,20271
20264,20271
20175,20289
20091,20323
20016,20374
19952,20438
19901,20513
19867,20597
19849,20686
18209,20686
18191,20597
18157,20513
18106,20438
18042,20374
17967,20323
17883,20289
17794,20271
17704,20271
17615,20289
17531,20323
17456,20374
17392,20438
17341,20513
17307,20597
17289,20686
59,20686
59,20073
15539,20073
15539,20169
15558,20264
15595,20353
15648,20433
15717,20502
15797,20555
15886,20592
15981,20611
16077,20611
16172,20592
16261,20555
16341,20502
16410,20433
16463,20353
16500,20264
16519,20169
16519,20073
16500,19978
16463,19889
16410,19809
16341,19740
16261,19687
16172,19650
16077,19631
15981,19631
15886,19650
15797,19687
15717,19740
15648,19809
15595,19889
15558,19978
15539,20073
59,20073
59,19576
23069,19576
23069,19666
23087,19755
23121,19839
23172,19914
23236,19978
23311,20029
23395,20063
23484,20081
23574,20081
23663,20063
23747,20029
23822,19978
23886,19914
23937,19839
23971,19755
23989,19666
23989,19576
23971,19487
23937,19403
23886,19328
23822,19264
23747,19213
23663,19179
23574,19161
23484,19161
23395,19179
23311,19213
23236,19264
23172,19328
23121,19403
23087,19487
23069,19576
59,19576
59,17573
15539,17573
15539,17669
15558,17764
15595,17853
15648,17933
15717,18002
15797,18055
15886,18092
15981,18111
16077,18111
16172,18092
16261,18055
16341,18002
16410,17933
16463,17853
16500,17764
16519,17669
16519,17573
23039,17573
23039,17669
23058,17764
23095,17853
23148,17933
23217,18002
23297,18055
23386,18092
23481,18111
23577,18111
23672,18092
23761,18055
23841,18002
23910,17933
23963,17853
24000,17764
24019,17669
24019,17573
24000,17478
23963,17389
23910,17309
23841,17240
23761,17187
23672,17150
23577,17131
23481,17131
23386,17150
23297,17187
23217,17240
23148,17309
23095,17389
23058,17478
23039,17573
16519,17573
16500,17478
16463,17389
16430,17339
17435,17339
17474,17407
17556,17453
17646,17482
17740,17493
17834,17485
17925,17460
18009,17417
18024,17407
18063,17339
17749,17025
17435,17339
16430,17339
16410,17309
16341,17240
16261,17187
16172,17150
16077,17131
15981,17131
15886,17150
15797,17187
15717,17240
15648,17309
15595,17389
15558,17478
15539,17573
59,17573
59,17339
68,17257
95,17180
139,17111
196,17053
264,17011
303,17002
17267,17002
17275,17096
17300,17187
17343,17271
17353,17286
17421,17325
17735,17011
17763,17011
18077,17325
18145,17286
18191,17204
18220,17114
18231,17020
18227,16966
19849,16966
19849,17056
19867,17145
19901,17229
19952,17304
20016,17368
20091,17419
20175,17453
20264,17471
20354,17471
20443,17453
20527,17419
20602,17368
20666,17304
20717,17229
20751,17145
20769,17056
20769,16966
20751,16877
20717,16793
20666,16718
20602,16654
20527,16603
20443,16569
20354,16551
20264,16551
20175,16569
20091,16603
20016,16654
19952,16718
19901,16793
19867,16877
19849,16966
18227,16966
18223,16926
18198,16835
18155,16751
18145,16736
18077,16697
17763,17011
17735,17011
17421,16697
17353,16736
17307,16818
17278,16908
17267,17002
303,17002
426,16974
1604,16974
1607,16974
1695,16964
1701,16962
1785,16933
1791,16930
1865,16883
1871,16879
1933,16817
1937,16812
1984,16737
1987,16732
1988,16728
1998,16683
17435,16683
17749,16997
18063,16683
18024,16615
17942,16569
17852,16540
17758,16529
17664,16537
17573,16562
17489,16605
17474,16615
17435,16683
1998,16683
2027,16557
2028,16550
2028,16394
6982,16394
7021,16462
7104,16508
7194,16537
7288,16548
7382,16540
7473,16515
7557,16472
7572,16462
7611,16394
7297,16080
6982,16394
2028,16394
2028,16057
6815,16057
6822,16151
6848,16242
6891,16326
6901,16341
6968,16380
7283,16066
7311,16066
7625,16380
7692,16341
7739,16259
7768,16169
7779,16075
7774,16021
7837,16021
7837,16111
7854,16200
7889,16284
7939,16359
8004,16423
8079,16474
8163,16508
8251,16526
8342,16526
8431,16508
8515,16474
8590,16423
8654,16359
8704,16284
8739,16200
8757,16111
8757,16021
8837,16021
8837,16111
8854,16200
8889,16284
8939,16359
9004,16423
9079,16474
9163,16508
9251,16526
9342,16526
9431,16508
9515,16474
9590,16423
9654,16359
9704,16284
9739,16200
9757,16111
9757,16021
9739,15932
9704,15848
9654,15773
9590,15709
9515,15658
9431,15624
9342,15606
9251,15606
9163,15624
9079,15658
9004,15709
8939,15773
8889,15848
8854,15932
8837,16021
8757,16021
8739,15932
8704,15848
8654,15773
8590,15709
8515,15658
8431,15624
8342,15606
8251,15606
8163,15624
8079,15658
8004,15709
7939,15773
7889,15848
7854,15932
7837,16021
7774,16021
7771,15981
7745,15890
7702,15806
7692,15791
7625,15751
7311,16066
7283,16066
6968,15751
6901,15791
6855,15873
6826,15963
6815,16057
2028,16057
2028,15738
6982,15738
7297,16052
7611,15738
7572,15670
7490,15624
7400,15595
7306,15584
7212,15591
7121,15617
7037,15660
7021,15670
6982,15738
2028,15738
2028,15021
6837,15021
6837,15111
6854,15200
6889,15284
6939,15359
7004,15423
7079,15474
7163,15508
7251,15526
7342,15526
7431,15508
7515,15474
7590,15423
7654,15359
7704,15284
7739,15200
7757,15111
7757,15021
7837,15021
7837,15111
7854,15200
7889,15284
7939,15359
8004,15423
8079,15474
8163,15508
8251,15526
8342,15526
8431,15508
8515,15474
8590,15423
8654,15359
8704,15284
8739,15200
8757,15111
8757,15021
8837,15021
8837,15111
8854,15200
8889,15284
8939,15359
9004,15423
9079,15474
9163,15508
9251,15526
9342,15526
9431,15508
9515,15474
9590,15423
9654,15359
9704,15284
9739,15200
9742,15186
17289,15186
17289,15276
17307,15365
17341,15449
17392,15524
17456,15588
17531,15639
17615,15673
17704,15691
17794,15691
17883,15673
17967,15639
18042,15588
18106,15524
18157,15449
18191,15365
18209,15276
18209,15186
19849,15186
19849,15276
19867,15365
19901,15449
19952,15524
20016,15588
20091,15639
20175,15673
20264,15691
20354,15691
20443,15673
20527,15639
20602,15588
20666,15524
20717,15449
20751,15365
20769,15276
20769,15186
20751,15097
20717,15013
20666,14938
20602,14874
20527,14823
20443,14789
20354,14771
20264,14771
20175,14789
20091,14823
20016,14874
19952,14938
19901,15013
19867,15097
19849,15186
18209,15186
18191,15097
18157,15013
18106,14938
18042,14874
17967,14823
17883,14789
17794,14771
17704,14771
17615,14789
17531,14823
17456,14874
17392,14938
17341,15013
17307,15097
17289,15186
9742,15186
9757,15111
9757,15021
9739,14932
9704,14848
9654,14773
9590,14709
9515,14658
9431,14624
9342,14606
9251,14606
9163,14624
9079,14658
9004,14709
8939,14773
8889,14848
8854,14932
8837,15021
8757,15021
8739,14932
8704,14848
8654,14773
8590,14709
8515,14658
8431,14624
8342,14606
8251,14606
8163,14624
8079,14658
8004,14709
7939,14773
7889,14848
7854,14932
7837,15021
7757,15021
7739,14932
7704,14848
7654,14773
7590,14709
7515,14658
7431,14624
7342,14606
7251,14606
7163,14624
7079,14658
7004,14709
6939,14773
6889,14848
6854,14932
6837,15021
2028,15021
2028,14573
15539,14573
15539,14669
15558,14764
15595,14853
15648,14933
15717,15002
15797,15055
15886,15092
15981,15111
16077,15111
16172,15092
16261,15055
16341,15002
16410,14933
16463,14853
16500,14764
16519,14669
16519,14573
23039,14573
23039,14669
23058,14764
23095,14853
23148,14933
23217,15002
23297,15055
23386,15092
23481,15111
23577,15111
23672,15092
23761,15055
23841,15002
23910,14933
23963,14853
24000,14764
24019,14669
24019,14573
24000,14478
23963,14389
23910,14309
23841,14240
23761,14187
23672,14150
23577,14131
23481,14131
23386,14150
23297,14187
23217,14240
23148,14309
23095,14389
23058,14478
23039,14573
16519,14573
16500,14478
16463,14389
16410,14309
16341,14240
16261,14187
16172,14150
16077,14131
15981,14131
15886,14150
15797,14187
15717,14240
15648,14309
15595,14389
15558,14478
15539,14573
2028,14573
2028,10645
2027,10641
2017,10554
2016,10547
1987,10464
1984,10458
1937,10383
1933,10378
1871,10316
1865,10311
1791,10265
1785,10262
1781,10261
1611,10222
1604,10221
131,10221
94,10211
69,10186
59,10149
59,9308
6982,9308
7021,9375
7104,9421
7194,9450
7288,9461
7382,9454
7473,9428
7557,9385
7572,9375
7611,9308
7297,8993
6982,9308
59,9308
59,8970
6815,8970
6822,9064
6848,9155
6891,9239
6901,9255
6968,9294
7283,8979
7311,8979
7625,9294
7692,9255
7739,9172
7768,9082
7779,8988
7774,8934
7837,8934
7837,9025
7854,9113
7889,9197
7939,9272
8004,9337
8079,9387
8163,9422
8251,9439
8342,9439
8431,9422
8515,9387
8590,9337
8654,9272
8704,9197
8739,9113
8757,9025
8757,8934
8837,8934
8837,9025
8854,9113
8889,9197
8939,9272
9004,9337
9079,9387
9163,9422
9251,9439
9342,9439
9431,9422
9515,9387
9590,9337
9654,9272
9704,9197
9739,9113
9757,9025
9757,8934
9739,8845
9704,8761
9654,8686
9590,8622
9515,8572
9431,8537
9342,8519
9251,8519
9163,8537
9079,8572
9004,8622
8939,8686
8889,8761
8854,8845
8837,8934
8757,8934
8739,8845
8704,8761
8654,8686
8590,8622
8515,8572
8431,8537
8342,8519
8251,8519
8163,8537
8079,8572
8004,8622
7939,8686
7889,8761
7854,8845
7837,8934
7774,8934
7771,8894
7745,8803
7702,8719
7692,8704
7625,8665
7311,8979
7283,8979
6968,8665
6901,8704
6855,8786
6826,8876
6815,8970
59,8970
59,8651
6982,8651
7297,8965
7611,8651
7572,8584
7490,8538
7400,8508
7306,8497
7212,8505
7121,8531
7037,8574
7021,8584
6982,8651
59,8651
59,7934
6837,7934
6837,8025
6854,8113
6889,8197
6939,8272
7004,8337
7079,8387
7163,8422
7251,8439
7342,8439
7431,8422
7515,8387
7590,8337
7654,8272
7704,8197
7739,8113
7757,8025
7757,7934
7837,7934
7837,8025
7854,8113
7889,8197
7939,8272
8004,8337
8079,8387
8163,8422
8251,8439
8342,8439
8431,8422
8515,8387
8590,8337
8654,8272
8704,8197
8739,8113
8757,8025
8757,7934
8837,7934
8837,8025
8854,8113
8889,8197
8939,8272
9004,8337
9079,8387
9163,8422
9251,8439
9342,8439
9431,8422
9515,8387
9590,8337
9654,8272
9704,8197
9739,8113
9757,8025
9757,7934
9739,7845
9704,7761
9654,7686
9590,7622
9515,7572
9431,7537
9342,7519
9251,7519
9163,7537
9079,7572
9004,7622
8939,7686
8889,7761
8854,7845
8837,7934
8757,7934
8739,7845
8704,7761
8654,7686
8590,7622
8515,7572
8431,7537
8342,7519
8251,7519
8163,7537
8079,7572
8004,7622
7939,7686
7889,7761
7854,7845
7837,7934
7757,7934
7739,7845
7704,7761
7654,7686
7590,7622
7515,7572
7431,7537
7342,7519
7251,7519
7163,7537
7079,7572
7004,7622
6939,7686
6889,7761
6854,7845
6837,7934
59,7934
59,3950
196,3950
196,3954
205,4096
205,4099
231,4240
232,4243
274,4379
275,4383
334,4513
335,4516
409,4638
411,4641
499,4753
502,4756
603,4857
605,4859
718,4947
721,4949
843,5023
846,5025
976,5083
979,5085
1115,5127
1119,5128
1259,5154
1263,5154
1405,5163
1409,5163
1551,5154
1555,5154
1695,5128
1699,5127
1835,5085
1838,5083
1968,5025
1971,5023
2093,4949
2096,4947
2209,4859
2211,4857
2312,4756
2315,4753
2403,4641
2405,4638
2478,4516
2480,4513
2532,4399
2817,4399
2817,4489
2835,4578
2869,4662
2920,4737
2984,4801
3059,4851
3143,4886
3232,4904
3322,4904
3411,4886
3495,4851
3570,4801
3634,4737
3685,4662
3719,4578
3737,4489
3737,4399
3817,4399
3817,4489
3835,4578
3869,4662
3920,4737
3984,4801
4059,4851
4143,4886
4232,4904
4322,4904
4411,4886
4495,4851
4570,4801
4634,4737
4685,4662
4719,4578
4737,4489
4737,4399
4817,4399
4817,4489
4835,4578
4869,4662
4920,4737
4984,4801
5059,4851
5143,4886
5232,4904
5322,4904
5411,4886
5495,4851
5570,4801
5634,4737
5685,4662
5719,4578
5737,4489
5737,4399
5817,4399
5817,4489
5835,4578
5869,4662
5920,4737
5984,4801
6059,4851
6143,4886
6232,4904
6322,4904
6411,4886
6495,4851
6570,4801
6599,4772
6963,4772
7002,4839
7084,4886
7174,4915
7268,4926
7362,4918
7453,4893
7537,4850
7552,4839
7591,4772
7277,4458
6963,4772
6599,4772
6634,4737
6685,4662
6719,4578
6737,4489
6737,4435
6795,4435
6803,4529
6828,4620
6871,4704
6881,4719
6949,4758
7263,4444
7291,4444
7605,4758
7673,4719
7719,4637
7748,4547
7759,4453
7755,4399
7817,4399
7817,4489
7835,4578
7869,4662
7920,4737
7984,4801
8059,4851
8143,4886
8232,4904
8322,4904
8411,4886
8495,4851
8570,4801
8634,4737
8685,4662
8719,4578
8737,4489
8737,4399
8817,4399
8817,4489
8835,4578
8869,4662
8920,4737
8984,4801
9059,4851
9143,4886
9232,4904
9322,4904
9411,4886
9495,4851
9570,4801
9634,4737
9685,4662
9719,4578
9737,4489
9737,4399
9817,4399
9817,4489
9835,4578
9869,4662
9920,4737
9984,4801
10059,4851
10143,4886
10232,4904
10322,4904
10411,4886
10495,4851
10570,4801
10634,4737
10685,4662
10719,4578
10737,4489
10737,4399
10817,4399
10817,4489
10835,4578
10869,4662
10920,4737
10984,4801
11059,4851
11143,4886
11232,4904
11322,4904
11411,4886
11495,4851
11570,4801
11634,4737
11685,4662
11719,4578
11737,4489
11737,4399
11817,4399
11817,4489
11835,4578
11869,4662
11920,4737
11984,4801
12059,4851
12143,4886
12232,4904
12322,4904
12411,4886
12495,4851
12570,4801
12634,4737
12685,4662
12719,4578
12737,4489
12737,4399
12817,4399
12817,4489
12835,4578
12869,4662
12920,4737
12984,4801
13059,4851
13143,4886
13232,4904
13322,4904
13411,4886
13495,4851
13570,4801
13634,4737
13685,4662
13719,4578
13737,4489
13737,4399
13817,4399
13817,4489
13835,4578
13869,4662
13920,4737
13984,4801
14059,4851
14143,4886
14232,4904
14322,4904
14411,4886
14495,4851
14570,4801
14599,4772
14963,4772
15002,4839
15084,4886
15174,4915
15268,4926
15362,4918
15453,4893
15537,4850
15552,4839
15591,4772
15277,4458
14963,4772
14599,4772
14634,4737
14685,4662
14719,4578
14737,4489
14737,4435
14795,4435
14803,4529
14828,4620
14871,4704
14881,4719
14949,4758
15263,4444
15291,4444
15605,4758
15673,4719
15719,4637
15748,4547
15759,4453
15755,4399
15817,4399
15817,4489
15835,4578
15869,4662
15920,4737
15984,4801
16059,4851
16143,4886
16232,4904
16322,4904
16411,4886
16495,4851
16570,4801
16634,4737
16685,4662
16719,4578
16737,4489
16737,4399
16817,4399
16817,4489
16835,4578
16869,4662
16920,4737
16984,4801
17059,4851
17143,4886
17232,4904
17322,4904
17411,4886
17495,4851
17570,4801
17634,4737
17685,4662
17719,4578
17737,4489
17737,4399
17817,4399
17817,4489
17835,4578
17869,4662
17920,4737
17984,4801
18059,4851
18143,4886
18232,4904
18322,4904
18411,4886
18495,4851
18570,4801
18634,4737
18685,4662
18719,4578
18737,4489
18737,4399
18817,4399
18817,4489
18835,4578
18869,4662
18920,4737
18984,4801
19059,4851
19143,4886
19232,4904
19322,4904
19411,4886
19495,4851
19570,4801
19634,4737
19685,4662
19719,4578
19737,4489
19737,4399
19817,4399
19817,4489
19835,4578
19869,4662
19920,4737
19984,4801
20059,4851
20143,4886
20232,4904
20322,4904
20411,4886
20495,4851
20570,4801
20634,4737
20685,4662
20719,4578
20737,4489
20737,4399
20817,4399
20817,4489
20835,4578
20869,4662
20920,4737
20984,4801
21059,4851
21143,4886
21232,4904
21322,4904
21411,4886
21495,4851
21570,4801
21599,4772
21963,4772
22002,4839
22084,4886
22174,4915
22268,4926
22362,4918
22453,4893
22537,4850
22552,4839
22591,4772
22277,4458
21963,4772
21599,4772
21634,4737
21685,4662
21719,4578
21737,4489
21737,4435
21795,4435
21803,4529
21828,4620
21871,4704
21881,4719
21949,4758
22263,4444
22291,4444
22605,4758
22673,4719
22719,4637
22748,4547
22759,4453
22751,4359
22726,4268
22683,4184
22673,4169
22605,4129
22291,4444
22263,4444
21949,4129
21881,4169
21835,4251
21806,4341
21795,4435
21737,4435
21737,4399
21719,4310
21685,4226
21634,4151
21599,4116
21963,4116
22277,4430
22591,4116
22552,4048
22470,4002
22380,3973
22286,3962
22192,3969
22101,3995
22017,4038
22002,4048
21963,4116
21599,4116
21570,4087
21495,4036
21411,4002
21322,3984
21232,3984
21143,4002
21059,4036
20984,4087
20920,4151
20869,4226
20835,4310
20817,4399
20737,4399
20719,4310
20685,4226
20634,4151
20570,4087
20495,4036
20411,4002
20322,3984
20232,3984
20143,4002
20059,4036
19984,4087
19920,4151
19869,4226
19835,4310
19817,4399
19737,4399
19719,4310
19685,4226
19634,4151
19570,4087
19495,4036
19411,4002
19322,3984
19232,3984
19143,4002
19059,4036
18984,4087
18920,4151
18869,4226
18835,4310
18817,4399
18737,4399
18719,4310
18685,4226
18634,4151
18570,4087
18495,4036
18411,4002
18322,3984
18232,3984
18143,4002
18059,4036
17984,4087
17920,4151
17869,4226
17835,4310
17817,4399
17737,4399
17719,4310
17685,4226
17634,4151
17570,4087
17495,4036
17411,4002
17322,3984
17232,3984
17143,4002
17059,4036
16984,4087
16920,4151
16869,4226
16835,4310
16817,4399
16737,4399
16719,4310
16685,4226
16634,4151
16570,4087
16495,4036
16411,4002
16322,3984
16232,3984
16143,4002
16059,4036
15984,4087
15920,4151
15869,4226
15835,4310
15817,4399
15755,4399
15751,4359
15726,4268
15683,4184
15673,4169
15605,4129
15291,4444
15263,4444
14949,4129
14881,4169
14835,4251
14806,4341
14795,4435
14737,4435
14737,4399
14719,4310
14685,4226
14634,4151
14599,4116
14963,4116
15277,4430
15591,4116
15552,4048
15470,4002
15380,3973
15286,3962
15192,3969
15101,3995
15017,4038
15002,4048
14963,4116
14599,4116
14570,4087
14495,4036
14411,4002
14322,3984
14232,3984
14143,4002
14059,4036
13984,4087
13920,4151
13869,4226
13835,4310
13817,4399
13737,4399
13719,4310
13685,4226
13634,4151
13570,4087
13495,4036
13411,4002
13322,3984
13232,3984
13143,4002
13059,4036
12984,4087
12920,4151
12869,4226
12835,4310
12817,4399
12737,4399
12719,4310
12685,4226
12634,4151
12570,4087
12495,4036
12411,4002
12322,3984
12232,3984
12143,4002
12059,4036
11984,4087
11920,4151
11869,4226
11835,4310
11817,4399
11737,4399
11719,4310
11685,4226
11634,4151
11570,4087
11495,4036
11411,4002
11322,3984
11232,3984
11143,4002
11059,4036
10984,4087
10920,4151
10869,4226
10835,4310
10817,4399
10737,4399
10719,4310
10685,4226
10634,4151
10570,4087
10495,4036
10411,4002
10322,3984
10232,3984
10143,4002
10059,4036
9984,4087
9920,4151
9869,4226
9835,4310
9817,4399
9737,4399
9719,4310
9685,4226
9634,4151
9570,4087
9495,4036
9411,4002
9322,3984
9232,3984
9143,4002
9059,4036
8984,4087
8920,4151
8869,4226
8835,4310
8817,4399
8737,4399
8719,4310
8685,4226
8634,4151
8570,4087
8495,4036
8411,4002
8322,3984
8232,3984
8143,4002
8059,4036
7984,4087
7920,4151
7869,4226
7835,4310
7817,4399
7755,4399
7751,4359
7726,4268
7683,4184
7673,4169
7605,4129
7291,4444
7263,4444
6949,4129
6881,4169
6835,4251
6806,4341
6795,4435
6737,4435
6737,4399
6719,4310
6685,4226
6634,4151
6599,4116
6963,4116
7277,4430
7591,4116
7552,4048
7470,4002
7380,3973
7286,3962
7192,3969
7101,3995
7017,4038
7002,4048
6963,4116
6599,4116
6570,4087
6495,4036
6411,4002
6322,3984
6232,3984
6143,4002
6059,4036
5984,4087
5920,4151
5869,4226
5835,4310
5817,4399
5737,4399
5719,4310
5685,4226
5634,4151
5570,4087
5495,4036
5411,4002
5322,3984
5232,3984
5143,4002
5059,4036
4984,4087
4920,4151
4869,4226
4835,4310
4817,4399
4737,4399
4719,4310
4685,4226
4634,4151
4570,4087
4495,4036
4411,4002
4322,3984
4232,3984
4143,4002
4059,4036
3984,4087
3920,4151
3869,4226
3835,4310
3817,4399
3737,4399
3719,4310
3685,4226
3634,4151
3570,4087
3495,4036
3411,4002
3322,3984
3232,3984
3143,4002
3059,4036
2984,4087
2920,4151
2869,4226
2835,4310
2817,4399
2532,4399
2539,4383
2540,4379
2582,4243
2583,4240
2609,4099
2609,4096
2618,3954
2618,3950
23031,3950
23031,3954
23039,4096
23040,4099
23065,4240
23066,4243
23109,4379
23110,4383
23168,4513
23170,4516
23244,4638
23246,4641
23334,4753
23336,4756
23437,4857
23440,4859
23552,4947
23555,4949
23677,5023
23680,5025
23810,5083
23814,5085
23950,5127
23954,5128
24094,5154
24097,5154
24240,5163
24243,5163
24386,5154
24389,5154
24530,5128
24533,5127
24669,5085
24673,5083
24803,5025
24806,5023
24928,4949
24931,4947
25043,4859
25046,4857
25147,4756
25149,4753
25237,4641
25239,4638
25313,4516
25315,4513
25373,4383
25375,4379
25417,4243
25418,4240
25444,4099
25444,4096
25453,3954
25453,3950
25444,3808
25444,3804
25418,3664
25417,3660
25375,3524
25373,3521
25315,3391
25313,3387
25239,3265
25237,3262
25149,3150
25147,3147
25046,3046
25043,3044
24931,2956
24928,2954
24806,2880
24803,2879
24673,2820
24669,2819
24533,2776
24530,2775
24389,2750
24386,2749
24243,2741
24240,2741
24097,2749
24094,2750
23954,2775
23950,2776
23814,2819
23810,2820
23680,2879
23677,2880
23555,2954
23552,2956
23440,3044
23437,3046
23336,3147
23334,3150
23246,3262
23244,3265
23170,3387
23168,3391
23110,3521
23109,3524
23066,3660
23065,3664
23040,3804
23039,3808
23031,3950
2618,3950
2609,3808
2609,3804
2583,3664
2582,3660
2540,3524
2539,3521
2484,3399
2817,3399
2817,3489
2835,3578
2869,3662
2920,3737
2984,3801
3059,3851
3143,3886
3232,3904
3322,3904
3411,3886
3495,3851
3570,3801
3634,3737
3685,3662
3719,3578
3737,3489
3737,3399
3817,3399
3817,3489
3835,3578
3869,3662
3920,3737
3984,3801
4059,3851
4143,3886
4232,3904
4322,3904
4411,3886
4495,3851
4570,3801
4599,3772
4963,3772
5002,3839
5084,3886
5174,3915
5268,3926
5362,3918
5453,3893
5537,3850
5552,3839
5591,3772
5277,3458
4963,3772
4599,3772
4634,3737
4685,3662
4719,3578
4737,3489
4737,3435
4795,3435
4803,3529
4828,3620
4871,3704
4881,3719
4949,3758
5263,3444
5291,3444
5605,3758
5673,3719
5719,3637
5748,3547
5759,3453
5755,3399
5817,3399
5817,3489
5835,3578
5869,3662
5920,3737
5984,3801
6059,3851
6143,3886
6232,3904
6322,3904
6411,3886
6495,3851
6570,3801
6634,3737
6685,3662
6719,3578
6737,3489
6737,3399
6817,3399
6817,3489
6835,3578
6869,3662
6920,3737
6984,3801
7059,3851
7143,3886
7232,3904
7322,3904
7411,3886
7495,3851
7570,3801
7634,3737
7685,3662
7719,3578
7737,3489
7737,3399
7817,3399
7817,3489
7835,3578
7869,3662
7920,3737
7984,3801
8059,3851
8143,3886
8232,3904
8322,3904
8411,3886
8495,3851
8570,3801
8599,3772
8963,3772
9002,3839
9084,3886
9174,3915
9268,3926
9362,3918
9453,3893
9537,3850
9552,3839
9591,3772
9277,3458
8963,3772
8599,3772
8634,3737
8685,3662
8719,3578
8737,3489
8737,3435
8795,3435
8803,3529
8828,3620
8871,3704
8881,3719
8949,3758
9263,3444
9291,3444
9605,3758
9673,3719
9719,3637
9748,3547
9759,3453
9755,3399
9817,3399
9817,3489
9835,3578
9869,3662
9920,3737
9984,3801
10059,3851
10143,3886
10232,3904
10322,3904
10411,3886
10495,3851
10570,3801
10634,3737
10685,3662
10719,3578
10737,3489
10737,3399
10817,3399
10817,3489
10835,3578
10869,3662
10920,3737
10984,3801
11059,3851
11143,3886
11232,3904
11322,3904
11411,3886
11495,3851
11570,3801
11599,3772
11963,3772
12002,3839
12084,3886
12174,3915
12268,3926
12362,3918
12453,3893
12537,3850
12552,3839
12591,3772
12277,3458
11963,3772
11599,3772
11634,3737
11685,3662
11719,3578
11737,3489
11737,3435
11795,3435
11803,3529
11828,3620
11871,3704
11881,3719
11949,3758
12263,3444
12291,3444
12605,3758
12673,3719
12719,3637
12748,3547
12759,3453
12755,3399
12817,3399
12817,3489
12835,3578
12869,3662
12920,3737
12984,3801
13059,3851
13143,3886
13232,3904
13322,3904
13411,3886
13495,3851
13570,3801
13634,3737
13685,3662
13719,3578
13737,3489
13737,3399
13817,3399
13817,3489
13835,3578
13869,3662
13920,3737
13984,3801
14059,3851
14143,3886
14232,3904
14322,3904
14411,3886
14495,3851
14570,3801
14634,3737
14685,3662
14719,3578
14737,3489
14737,3399
14817,3399
14817,3489
14835,3578
14869,3662
14920,3737
14984,3801
15059,3851
15143,3886
15232,3904
15322,3904
15411,3886
15495,3851
15570,3801
15634,3737
15685,3662
15719,3578
15737,3489
15737,3399
15817,3399
15817,3489
15835,3578
15869,3662
15920,3737
15984,3801
16059,3851
16143,3886
16232,3904
16322,3904
16411,3886
16495,3851
16570,3801
16599,3772
16963,3772
17002,3839
17084,3886
17174,3915
17268,3926
17362,3918
17453,3893
17537,3850
17552,3839
17591,3772
17277,3458
16963,3772
16599,3772
16634,3737
16685,3662
16719,3578
16737,3489
16737,3435
16795,3435
16803,3529
16828,3620
16871,3704
16881,3719
16949,3758
17263,3444
17291,3444
17605,3758
17673,3719
17719,3637
17748,3547
17759,3453
17755,3399
17817,3399
17817,3489
17835,3578
17869,3662
17920,3737
17984,3801
18059,3851
18143,3886
18232,3904
18322,3904
18411,3886
18495,3851
18570,3801
18599,3772
18963,3772
19002,3839
19084,3886
19174,3915
19268,3926
19362,3918
19453,3893
19537,3850
19552,3839
19591,3772
19277,3458
18963,3772
18599,3772
18634,3737
18685,3662
18719,3578
18737,3489
18737,3435
18795,3435
18803,3529
18828,3620
18871,3704
18881,3719
18949,3758
19263,3444
19291,3444
19605,3758
19673,3719
19719,3637
19748,3547
19759,3453
19755,3399
19817,3399
19817,3489
19835,3578
19869,3662
19920,3737
19984,3801
20059,3851
20143,3886
20232,3904
20322,3904
20411,3886
20495,3851
20570,3801
20634,3737
20685,3662
20719,3578
20737,3489
20737,3399
20817,3399
20817,3489
20835,3578
20869,3662
20920,3737
20984,3801
21059,3851
21143,3886
21232,3904
21322,3904
21411,3886
21495,3851
21570,3801
21634,3737
21685,3662
21719,3578
21737,3489
21737,3399
21817,3399
21817,3489
21835,3578
21869,3662
21920,3737
21984,3801
22059,3851
22143,3886
22232,3904
22322,3904
22411,3886
22495,3851
22570,3801
22634,3737
22685,3662
22719,3578
22737,3489
22737,3399
22719,3310
22685,3226
22634,3151
22570,3087
22495,3036
22411,3002
22322,2984
22232,2984
22143,3002
22059,3036
21984,3087
21920,3151
21869,3226
21835,3310
21817,3399
21737,3399
21719,3310
21685,3226
21634,3151
21570,3087
21495,3036
21411,3002
21322,2984
21232,2984
21143,3002
21059,3036
20984,3087
20920,3151
20869,3226
20835,3310
20817,3399
20737,3399
20719,3310
20685,3226
20634,3151
20570,3087
20495,3036
20411,3002
20322,2984
20232,2984
20143,3002
20059,3036
19984,3087
19920,3151
19869,3226
19835,3310
19817,3399
19755,3399
19751,3359
19726,3268
19683,3184
19673,3169
19605,3129
19291,3444
19263,3444
18949,3129
18881,3169
18835,3251
18806,3341
18795,3435
18737,3435
18737,3399
18719,3310
18685,3226
18634,3151
18599,3116
18963,3116
19277,3430
19591,3116
19552,3048
19470,3002
19380,2973
19286,2962
19192,2969
19101,2995
19017,3038
19002,3048
18963,3116
18599,3116
18570,3087
18495,3036
18411,3002
18322,2984
18232,2984
18143,3002
18059,3036
17984,3087
17920,3151
17869,3226
17835,3310
17817,3399
17755,3399
17751,3359
17726,3268
17683,3184
17673,3169
17605,3129
17291,3444
17263,3444
16949,3129
16881,3169
16835,3251
16806,3341
16795,3435
16737,3435
16737,3399
16719,3310
16685,3226
16634,3151
16599,3116
16963,3116
17277,3430
17591,3116
17552,3048
17470,3002
17380,2973
17286,2962
17192,2969
17101,2995
17017,3038
17002,3048
16963,3116
16599,3116
16570,3087
16495,3036
16411,3002
16322,2984
16232,2984
16143,3002
16059,3036
15984,3087
15920,3151
15869,3226
15835,3310
15817,3399
15737,3399
15719,3310
15685,3226
15634,3151
15570,3087
15495,3036
15411,3002
15322,2984
15232,2984
15143,3002
15059,3036
14984,3087
14920,3151
14869,3226
14835,3310
14817,3399
14737,3399
14719,3310
14685,3226
14634,3151
14570,3087
14495,3036
14411,3002
14322,2984
14232,2984
14143,3002
14059,3036
13984,3087
13920,3151
13869,3226
13835,3310
13817,3399
13737,3399
13719,3310
13685,3226
13634,3151
13570,3087
13495,3036
13411,3002
13322,2984
13232,2984
13143,3002
13059,3036
12984,3087
12920,3151
12869,3226
12835,3310
12817,3399
12755,3399
12751,3359
12726,3268
12683,3184
12673,3169
12605,3129
12291,3444
12263,3444
11949,3129
11881,3169
11835,3251
11806,3341
11795,3435
11737,3435
11737,3399
11719,3310
11685,3226
11634,3151
11599,3116
11963,3116
12277,3430
12591,3116
12552,3048
12470,3002
12380,2973
12286,2962
12192,2969
12101,2995
12017,3038
12002,3048
11963,3116
11599,3116
11570,3087
11495,3036
11411,3002
11322,2984
11232,2984
11143,3002
11059,3036
10984,3087
10920,3151
10869,3226
10835,3310
10817,3399
10737,3399
10719,3310
10685,3226
10634,3151
10570,3087
10495,3036
10411,3002
10322,2984
10232,2984
10143,3002
10059,3036
9984,3087
9920,3151
9869,3226
9835,3310
9817,3399
9755,3399
9751,3359
9726,3268
9683,3184
9673,3169
9605,3129
9291,3444
9263,3444
8949,3129
8881,3169
8835,3251
8806,3341
8795,3435
8737,3435
8737,3399
8719,3310
8685,3226
8634,3151
8599,3116
8963,3116
9277,3430
9591,3116
9552,3048
9470,3002
9380,2973
9286,2962
9192,2969
9101,2995
9017,3038
9002,3048
8963,3116
8599,3116
8570,3087
8495,3036
8411,3002
8322,2984
8232,2984
8143,3002
8059,3036
7984,3087
7920,3151
7869,3226
7835,3310
7817,3399
7737,3399
7719,3310
7685,3226
7634,3151
7570,3087
7495,3036
7411,3002
7322,2984
7232,2984
7143,3002
7059,3036
6984,3087
6920,3151
6869,3226
6835,3310
6817,3399
6737,3399
6719,3310
6685,3226
6634,3151
6570,3087
6495,3036
6411,3002
6322,2984
6232,2984
6143,3002
6059,3036
5984,3087
5920,3151
5869,3226
5835,3310
5817,3399
5755,3399
5751,3359
5726,3268
5683,3184
5673,3169
5605,3129
5291,3444
5263,3444
4949,3129
4881,3169
4835,3251
4806,3341
4795,3435
4737,3435
4737,3399
4719,3310
4685,3226
4634,3151
4599,3116
4963,3116
5277,3430
5591,3116
5552,3048
5470,3002
5380,2973
5286,2962
5192,2969
5101,2995
5017,3038
5002,3048
4963,3116
4599,3116
4570,3087
4495,3036
4411,3002
4322,2984
4232,2984
4143,3002
4059,3036
3984,3087
3920,3151
3869,3226
3835,3310
3817,3399
3737,3399
3719,3310
3685,3226
3634,3151
3570,3087
3495,3036
3411,3002
3322,2984
3232,2984
3143,3002
3059,3036
2984,3087
2920,3151
2869,3226
2835,3310
2817,3399
2484,3399
2480,3391
2478,3387
2405,3265
2403,3262
2315,3150
2312,3147
2211,3046
2209,3044
2096,2956
2093,2954
1971,2880
1968,2879
1838,2820
1835,2819
1699,2776
1695,2775
1555,2750
1551,2749
1409,2741
1405,2741
1263,2749
1259,2750
1119,2775
1115,2776
979,2819
976,2820
846,2879
843,2880
721,2954
718,2956
605,3044
603,3046
502,3147
499,3150
411,3262
409,3265
335,3387
334,3391
275,3521
274,3524
232,3660
231,3664
205,3804
205,3808
196,3950
59,3950
59,3559
67,3419
93,3283
134,3150
191,3023
263,2904
349,2795
447,2696
556,2611
675,2539
802,2482
935,2440
1071,2415
1211,2407
24438,2407
24577,2415
" /> 
</g>
<g style="fill:#FFFFFF; fill-opacity:1.0; 
stroke:#FFFFFF; stroke-width:60; stroke-opacity:1; 
stroke-linecap:round; stroke-linejoin:round;">
</g>
<g style="fill:#FFFFFF; fill-opacity:1.0; 
stroke:#FFFFFF; stroke-width:0; stroke-opacity:1; 
stroke-linecap:round; stroke-linejoin:round;">
<circle cx="22277.6" cy="3444.33" r="200" /> 
</g>
<g style="fill:#FFFFFF; fill-opacity:1.0; 
stroke:#FFFFFF; stroke-width:39.3701; stroke-opacity:1; 
stroke-linecap:round; stroke-linejoin:round;">
</g>
<g style="fill:#FFFFFF; fill-opacity:1.0; 
stroke:#FFFFFF; stroke-width:0; stroke-opacity:1; 
stroke-linecap:round; stroke-linejoin:round;">
<circle cx="22277.6" cy="4444.33" r="200" /> 
</g>
<g style="fill:#FFFFFF; fill-opacity:1.0; 
stroke:#FFFFFF; stroke-width:39.3701; stroke-opacity:1; 
stroke-linecap:round; stroke-linejoin:round;">
</g>
<g style="fill:#FFFFFF; fill-opacity:1.0; 
stroke:#FFFFFF; stroke-width:0; stroke-opacity:1; 
stroke-linecap:round; stroke-linejoin:round;">
<circle cx="21277.6" cy="3444.33" r="200" /> 
</g>
<g style="fill:#FFFFFF; fill-opacity:1.0; 
stroke:#FFFFFF; stroke-width:39.3701; stroke-opacity:1; 
stroke-linecap:round; stroke-linejoin:round;">
</g>
<g style="fill:#FFFFFF; fill-opacity:1.0; 
stroke:#FFFFFF; stroke-width:0; stroke-opacity:1; 
stroke-linecap:round; stroke-linejoin:round;">
<circle cx="21277.6" cy="4444.33" r="200" /> 
</g>
<g style="fill:#FFFFFF; fill-opacity:1.0; 
stroke:#FFFFFF; stroke-width:39.3701; stroke-opacity:1; 
stroke-linecap:round; stroke-linejoin:round;">
</g>
<g style="fill:#FFFFFF; fill-opacity:1.0; 
stroke:#FFFFFF; stroke-width:0; stroke-opacity:1; 
stroke-linecap:round; stroke-linejoin:round;">
<circle cx="20277.6" cy="3444.33" r="200" /> 
</g>
<g style="fill:#FFFFFF; fill-opacity:1.0; 
stroke:#FFFFFF; stroke-width:39.3701; stroke-opacity:1; 
stroke-linecap:round; stroke-linejoin:round;">
</g>
<g style="fill:#FFFFFF; fill-opacity:1.0; 
stroke:#FFFFFF; stroke-width:0; stroke-opacity:1; 
stroke-linecap:round; stroke-linejoin:round;">
<circle cx="20277.6" cy="4444.33" r="200" /> 
</g>
<g style="fill:#FFFFFF; fill-opacity:1.0; 
stroke:#FFFFFF; stroke-width:39.3701; stroke-opacity:1; 
stroke-linecap:round; stroke-linejoin:round;">
</g>
<g style="fill:#FFFFFF; fill-opacity:1.0; 
stroke:#FFFFFF; stroke-width:0; stroke-opacity:1; 
stroke-linecap:round; stroke-linejoin:round;">
<circle cx="19277.6" cy="3444.33" r="200" /> 
</g>
<g style="fill:#FFFFFF; fill-opacity:1.0; 
stroke:#FFFFFF; stroke-width:39.3701; stroke-opacity:1; 
stroke-linecap:round; stroke-linejoin:round;">
</g>
<g style="fill:#FFFFFF; fill-opacity:1.0; 
stroke:#FFFFFF; stroke-width:0; stroke-opacity:1; 
stroke-linecap:round; stroke-linejoin:round;">
<circle cx="19277.6" cy="4444.33" r="200" /> 
</g>
<g style="fill:#FFFFFF; fill-opacity:1.0; 
stroke:#FFFFFF; stroke-width:39.3701; stroke-opacity:1; 
stroke-linecap:round; stroke-linejoin:round;">
</g>
<g style="fill:#FFFFFF; fill-opacity:1.0; 
stroke:#FFFFFF; stroke-width:0; stroke-opacity:1; 
stroke-linecap:round; stroke-linejoin:round;">
<circle cx="18277.6" cy="3444.33" r="200" /> 
</g>
<g style="fill:#FFFFFF; fill-opacity:1.0; 
stroke:#FFFFFF; stroke-width:39.3701; stroke-opacity:1; 
stroke-linecap:round; stroke-linejoin:round;">
</g>
<g style="fill:#FFFFFF; fill-opacity:1.0; 
stroke:#FFFFFF; stroke-width:0; stroke-opacity:1; 
stroke-linecap:round; stroke-linejoin:round;">
<circle cx="18277.6" cy="4444.33" r="200" /> 
</g>
<g style="fill:#FFFFFF; fill-opacity:1.0; 
stroke:#FFFFFF; stroke-width:39.3701; stroke-opacity:1; 
stroke-linecap:round; stroke-linejoin:round;">
</g>
<g style="fill:#FFFFFF; fill-opacity:1.0; 
stroke:#FFFFFF; stroke-width:0; stroke-opacity:1; 
stroke-linecap:round; stroke-linejoin:round;">
<circle cx="17277.6" cy="3444.33" r="200" /> 
</g>
<g style="fill:#FFFFFF; fill-opacity:1.0; 
stroke:#FFFFFF; stroke-width:39.3701; stroke-opacity:1; 
stroke-linecap:round; stroke-linejoin:round;">
</g>
<g style="fill:#FFFFFF; fill-opacity:1.0; 
stroke:#FFFFFF; stroke-width:0; stroke-opacity:1; 
stroke-linecap:round; stroke-linejoin:round;">
<circle cx="17277.6" cy="4444.33" r="200" /> 
</g>
<g style="fill:#FFFFFF; fill-opacity:1.0; 
stroke:#FFFFFF; stroke-width:39.3701; stroke-opacity:1; 
stroke-linecap:round; stroke-linejoin:round;">
</g>
<g style="fill:#FFFFFF; fill-opacity:1.0; 
stroke:#FFFFFF; stroke-width:0; stroke-opacity:1; 
stroke-linecap:round; stroke-linejoin:round;">
<circle cx="16277.6" cy="3444.33" r="200" /> 
</g>
<g style="fill:#FFFFFF; fill-opacity:1.0; 
stroke:#FFFFFF; stroke-width:39.3701; stroke-opacity:1; 
stroke-linecap:round; stroke-linejoin:round;">
</g>
<g style="fill:#FFFFFF; fill-opacity:1.0; 
stroke:#FFFFFF; stroke-width:0; stroke-opacity:1; 
stroke-linecap:round; stroke-linejoin:round;">
<circle cx="16277.6" cy="4444.33" r="200" /> 
</g>
<g style="fill:#FFFFFF; fill-opacity:1.0; 
stroke:#FFFFFF; stroke-width:39.3701; stroke-opacity:1; 
stroke-linecap:round; stroke-linejoin:round;">
</g>
<g style="fill:#FFFFFF; fill-opacity:1.0; 
stroke:#FFFFFF; stroke-width:0; stroke-opacity:1; 
stroke-linecap:round; stroke-linejoin:round;">
<circle cx="15277.6" cy="3444.33" r="200" /> 
</g>
<g style="fill:#FFFFFF; fill-opacity:1.0; 
stroke:#FFFFFF; stroke-width:39.3701; stroke-opacity:1; 
stroke-linecap:round; stroke-linejoin:round;">
</g>
<g style="fill:#FFFFFF; fill-opacity:1.0; 
stroke:#FFFFFF; stroke-width:0; stroke-opacity:1; 
stroke-linecap:round; stroke-linejoin:round;">
<circle cx="15277.6" cy="4444.33" r="200" /> 
</g>
<g style="fill:#FFFFFF; fill-opacity:1.0; 
stroke:#FFFFFF; stroke-width:39.3701; stroke-opacity:1; 
stroke-linecap:round; stroke-linejoin:round;">
</g>
<g style="fill:#FFFFFF; fill-opacity:1.0; 
stroke:#FFFFFF; stroke-width:0; stroke-opacity:1; 
stroke-linecap:round; stroke-linejoin:round;">
<circle cx="14277.6" cy="3444.33" r="200" /> 
</g>
<g style="fill:#FFFFFF; fill-opacity:1.0; 
stroke:#FFFFFF; stroke-width:39.3701; stroke-opacity:1; 
stroke-linecap:round; stroke-linejoin:round;">
</g>
<g style="fill:#FFFFFF; fill-opacity:1.0; 
stroke:#FFFFFF; stroke-width:0; stroke-opacity:1; 
stroke-linecap:round; stroke-linejoin:round;">
<circle cx="14277.6" cy="4444.33" r="200" /> 
</g>
<g style="fill:#FFFFFF; fill-opacity:1.0; 
stroke:#FFFFFF; stroke-width:39.3701; stroke-opacity:1; 
stroke-linecap:round; stroke-linejoin:round;">
</g>
<g style="fill:#FFFFFF; fill-opacity:1.0; 
stroke:#FFFFFF; stroke-width:0; stroke-opacity:1; 
stroke-linecap:round; stroke-linejoin:round;">
<circle cx="13277.6" cy="3444.33" r="200" /> 
</g>
<g style="fill:#FFFFFF; fill-opacity:1.0; 
stroke:#FFFFFF; stroke-width:39.3701; stroke-opacity:1; 
stroke-linecap:round; stroke-linejoin:round;">
</g>
<g style="fill:#FFFFFF; fill-opacity:1.0; 
stroke:#FFFFFF; stroke-width:0; stroke-opacity:1; 
stroke-linecap:round; stroke-linejoin:round;">
<circle cx="13277.6" cy="4444.33" r="200" /> 
</g>
<g style="fill:#FFFFFF; fill-opacity:1.0; 
stroke:#FFFFFF; stroke-width:39.3701; stroke-opacity:1; 
stroke-linecap:round; stroke-linejoin:round;">
</g>
<g style="fill:#FFFFFF; fill-opacity:1.0; 
stroke:#FFFFFF; stroke-width:0; stroke-opacity:1; 
stroke-linecap:round; stroke-linejoin:round;">
<circle cx="12277.6" cy="3444.33" r="200" /> 
</g>
<g style="fill:#FFFFFF; fill-opacity:1.0; 
stroke:#FFFFFF; stroke-width:39.3701; stroke-opacity:1; 
stroke-linecap:round; stroke-linejoin:round;">
</g>
<g style="fill:#FFFFFF; fill-opacity:1.0; 
stroke:#FFFFFF; stroke-width:0; stroke-opacity:1; 
stroke-linecap:round; stroke-linejoin:round;">
<circle cx="12277.6" cy="4444.33" r="200" /> 
</g>
<g style="fill:#FFFFFF; fill-opacity:1.0; 
stroke:#FFFFFF; stroke-width:39.3701; stroke-opacity:1; 
stroke-linecap:round; stroke-linejoin:round;">
</g>
<g style="fill:#FFFFFF; fill-opacity:1.0; 
stroke:#FFFFFF; stroke-width:0; stroke-opacity:1; 
stroke-linecap:round; stroke-linejoin:round;">
<circle cx="11277.6" cy="3444.33" r="200" /> 
</g>
<g style="fill:#FFFFFF; fill-opacity:1.0; 
stroke:#FFFFFF; stroke-width:39.3701; stroke-opacity:1; 
stroke-linecap:round; stroke-linejoin:round;">
</g>
<g style="fill:#FFFFFF; fill-opacity:1.0; 
stroke:#FFFFFF; stroke-width:0; stroke-opacity:1; 
stroke-linecap:round; stroke-linejoin:round;">
<circle cx="11277.6" cy="4444.33" r="200" /> 
</g>
<g style="fill:#FFFFFF; fill-opacity:1.0; 
stroke:#FFFFFF; stroke-width:39.3701; stroke-opacity:1; 
stroke-linecap:round; stroke-linejoin:round;">
</g>
<g style="fill:#FFFFFF; fill-opacity:1.0; 
stroke:#FFFFFF; stroke-width:0; stroke-opacity:1; 
stroke-linecap:round; stroke-linejoin:round;">
<circle cx="10277.6" cy="3444.33" r="200" /> 
</g>
<g style="fill:#FFFFFF; fill-opacity:1.0; 
stroke:#FFFFFF; stroke-width:39.3701; stroke-opacity:1; 
stroke-linecap:round; stroke-linejoin:round;">
</g>
<g style="fill:#FFFFFF; fill-opacity:1.0; 
stroke:#FFFFFF; stroke-width:0; stroke-opacity:1; 
stroke-linecap:round; stroke-linejoin:round;">
<circle cx="10277.6" cy="4444.33" r="200" /> 
</g>
<g style="fill:#FFFFFF; fill-opacity:1.0; 
stroke:#FFFFFF; stroke-width:39.3701; stroke-opacity:1; 
stroke-linecap:round; stroke-linejoin:round;">
</g>
<g style="fill:#FFFFFF; fill-opacity:1.0; 
stroke:#FFFFFF; stroke-width:0; stroke-opacity:1; 
stroke-linecap:round; stroke-linejoin:round;">
<circle cx="9277.56" cy="3444.33" r="200" /> 
</g>
<g style="fill:#FFFFFF; fill-opacity:1.0; 
stroke:#FFFFFF; stroke-width:39.3701; stroke-opacity:1; 
stroke-linecap:round; stroke-linejoin:round;">
</g>
<g style="fill:#FFFFFF; fill-opacity:1.0; 
stroke:#FFFFFF; stroke-width:0; stroke-opacity:1; 
stroke-linecap:round; stroke-linejoin:round;">
<circle cx="9277.56" cy="4444.33" r="200" /> 
</g>
<g style="fill:#FFFFFF; fill-opacity:1.0; 
stroke:#FFFFFF; stroke-width:39.3701; stroke-opacity:1; 
stroke-linecap:round; stroke-linejoin:round;">
</g>
<g style="fill:#FFFFFF; fill-opacity:1.0; 
stroke:#FFFFFF; stroke-width:0; stroke-opacity:1; 
stroke-linecap:round; stroke-linejoin:round;">
<circle cx="8277.56" cy="3444.33" r="200" /> 
</g>
<g style="fill:#FFFFFF; fill-opacity:1.0; 
stroke:#FFFFFF; stroke-width:39.3701; stroke-opacity:1; 
stroke-linecap:round; stroke-linejoin:round;">
</g>
<g style="fill:#FFFFFF; fill-opacity:1.0; 
stroke:#FFFFFF; stroke-width:0; stroke-opacity:1; 
stroke-linecap:round; stroke-linejoin:round;">
<circle cx="8277.56" cy="4444.33" r="200" /> 
</g>
<g style="fill:#FFFFFF; fill-opacity:1.0; 
stroke:#FFFFFF; stroke-width:39.3701; stroke-opacity:1; 
stroke-linecap:round; stroke-linejoin:round;">
</g>
<g style="fill:#FFFFFF; fill-opacity:1.0; 
stroke:#FFFFFF; stroke-width:0; stroke-opacity:1; 
stroke-linecap:round; stroke-linejoin:round;">
<circle cx="7277.56" cy="3444.33" r="200" /> 
</g>
<g style="fill:#FFFFFF; fill-opacity:1.0; 
stroke:#FFFFFF; stroke-width:39.3701; stroke-opacity:1; 
stroke-linecap:round; stroke-linejoin:round;">
</g>
<g style="fill:#FFFFFF; fill-opacity:1.0; 
stroke:#FFFFFF; stroke-width:0; stroke-opacity:1; 
stroke-linecap:round; stroke-linejoin:round;">
<circle cx="7277.56" cy="4444.33" r="200" /> 
</g>
<g style="fill:#FFFFFF; fill-opacity:1.0; 
stroke:#FFFFFF; stroke-width:39.3701; stroke-opacity:1; 
stroke-linecap:round; stroke-linejoin:round;">
</g>
<g style="fill:#FFFFFF; fill-opacity:1.0; 
stroke:#FFFFFF; stroke-width:0; stroke-opacity:1; 
stroke-linecap:round; stroke-linejoin:round;">
<circle cx="6277.56" cy="3444.33" r="200" /> 
</g>
<g style="fill:#FFFFFF; fill-opacity:1.0; 
stroke:#FFFFFF; stroke-width:39.3701; stroke-opacity:1; 
stroke-linecap:round; stroke-linejoin:round;">
</g>
<g style="fill:#FFFFFF; fill-opacity:1.0; 
stroke:#FFFFFF; stroke-width:0; stroke-opacity:1; 
stroke-linecap:round; stroke-linejoin:round;">
<circle cx="6277.56" cy="4444.33" r="200" /> 
</g>
<g style="fill:#FFFFFF; fill-opacity:1.0; 
stroke:#FFFFFF; stroke-width:39.3701; stroke-opacity:1; 
stroke-linecap:round; stroke-linejoin:round;">
</g>
<g style="fill:#FFFFFF; fill-opacity:1.0; 
stroke:#FFFFFF; stroke-width:0; stroke-opacity:1; 
stroke-linecap:round; stroke-linejoin:round;">
<circle cx="5277.56" cy="3444.33" r="200" /> 
</g>
<g style="fill:#FFFFFF; fill-opacity:1.0; 
stroke:#FFFFFF; stroke-width:39.3701; stroke-opacity:1; 
stroke-linecap:round; stroke-linejoin:round;">
</g>
<g style="fill:#FFFFFF; fill-opacity:1.0; 
stroke:#FFFFFF; stroke-width:0; stroke-opacity:1; 
stroke-linecap:round; stroke-linejoin:round;">
<circle cx="5277.56" cy="4444.33" r="200" /> 
</g>
<g style="fill:#FFFFFF; fill-opacity:1.0; 
stroke:#FFFFFF; stroke-width:39.3701; stroke-opacity:1; 
stroke-linecap:round; stroke-linejoin:round;">
</g>
<g style="fill:#FFFFFF; fill-opacity:1.0; 
stroke:#FFFFFF; stroke-width:0; stroke-opacity:1; 
stroke-linecap:round; stroke-linejoin:round;">
<circle cx="4277.56" cy="3444.33" r="200" /> 
</g>
<g style="fill:#FFFFFF; fill-opacity:1.0; 
stroke:#FFFFFF; stroke-width:39.3701; stroke-opacity:1; 
stroke-linecap:round; stroke-linejoin:round;">
</g>
<g style="fill:#FFFFFF; fill-opacity:1.0; 
stroke:#FFFFFF; stroke-width:0; stroke-opacity:1; 
stroke-linecap:round; stroke-linejoin:round;">
<circle cx="4277.56" cy="4444.33" r="200" /> 
</g>
<g style="fill:#FFFFFF; fill-opacity:1.0; 
stroke:#FFFFFF; stroke-width:39.3701; stroke-opacity:1; 
stroke-linecap:round; stroke-linejoin:round;">
</g>
<g style="fill:#FFFFFF; fill-opacity:1.0; 
stroke:#FFFFFF; stroke-width:0; stroke-opacity:1; 
stroke-linecap:round; stroke-linejoin:round;">
<circle cx="3277.56" cy="3444.33" r="200" /> 
</g>
<g style="fill:#FFFFFF; fill-opacity:1.0; 
stroke:#FFFFFF; stroke-width:39.3701; stroke-opacity:1; 
stroke-linecap:round; stroke-linejoin:round;">
</g>
<g style="fill:#FFFFFF; fill-opacity:1.0; 
stroke:#FFFFFF; stroke-width:0; stroke-opacity:1; 
stroke-linecap:round; stroke-linejoin:round;">
<circle cx="3277.56" cy="4444.33" r="200" /> 
</g>
<g style="fill:#FFFFFF; fill-opacity:1.0; 
stroke:#FFFFFF; stroke-width:39.3701; stroke-opacity:1; 
stroke-linecap:round; stroke-linejoin:round;">
</g>
<g style="fill:#FFFFFF; fill-opacity:1.0; 
stroke:#FFFFFF; stroke-width:0; stroke-opacity:1; 
stroke-linecap:round; stroke-linejoin:round;">
<circle cx="9297.24" cy="7979.76" r="200" /> 
</g>
<g style="fill:#FFFFFF; fill-opacity:1.0; 
stroke:#FFFFFF; stroke-width:39.3701; stroke-opacity:1; 
stroke-linecap:round; stroke-linejoin:round;">
</g>
<g style="fill:#FFFFFF; fill-opacity:1.0; 
stroke:#FFFFFF; stroke-width:0; stroke-opacity:1; 
stroke-linecap:round; stroke-linejoin:round;">
<circle cx="9297.24" cy="8979.76" r="200" /> 
</g>
<g style="fill:#FFFFFF; fill-opacity:1.0; 
stroke:#FFFFFF; stroke-width:39.3701; stroke-opacity:1; 
stroke-linecap:round; stroke-linejoin:round;">
</g>
<g style="fill:#FFFFFF; fill-opacity:1.0; 
stroke:#FFFFFF; stroke-width:0; stroke-opacity:1; 
stroke-linecap:round; stroke-linejoin:round;">
<circle cx="8297.24" cy="7979.76" r="200" /> 
</g>
<g style="fill:#FFFFFF; fill-opacity:1.0; 
stroke:#FFFFFF; stroke-width:39.3701; stroke-opacity:1; 
stroke-linecap:round; stroke-linejoin:round;">
</g>
<g style="fill:#FFFFFF; fill-opacity:1.0; 
stroke:#FFFFFF; stroke-width:0; stroke-opacity:1; 
stroke-linecap:round; stroke-linejoin:round;">
<circle cx="8297.24" cy="8979.76" r="200" /> 
</g>
<g style="fill:#FFFFFF; fill-opacity:1.0; 
stroke:#FFFFFF; stroke-width:39.3701; stroke-opacity:1; 
stroke-linecap:round; stroke-linejoin:round;">
</g>
<g style="fill:#FFFFFF; fill-opacity:1.0; 
stroke:#FFFFFF; stroke-width:0; stroke-opacity:1; 
stroke-linecap:round; stroke-linejoin:round;">
<circle cx="7297.24" cy="7979.76" r="200" /> 
</g>
<g style="fill:#FFFFFF; fill-opacity:1.0; 
stroke:#FFFFFF; stroke-width:39.3701; stroke-opacity:1; 
stroke-linecap:round; stroke-linejoin:round;">
</g>
<g style="fill:#FFFFFF; fill-opacity:1.0; 
stroke:#FFFFFF; stroke-width:0; stroke-opacity:1; 
stroke-linecap:round; stroke-linejoin:round;">
<circle cx="7297.24" cy="8979.76" r="200" /> 
</g>
<g style="fill:#FFFFFF; fill-opacity:1.0; 
stroke:#FFFFFF; stroke-width:39.3701; stroke-opacity:1; 
stroke-linecap:round; stroke-linejoin:round;">
</g>
<g style="fill:#FFFFFF; fill-opacity:1.0; 
stroke:#FFFFFF; stroke-width:0; stroke-opacity:1; 
stroke-linecap:round; stroke-linejoin:round;">
<circle cx="9297.24" cy="15066.4" r="200" /> 
</g>
<g style="fill:#FFFFFF; fill-opacity:1.0; 
stroke:#FFFFFF; stroke-width:39.3701; stroke-opacity:1; 
stroke-linecap:round; stroke-linejoin:round;">
</g>
<g style="fill:#FFFFFF; fill-opacity:1.0; 
stroke:#FFFFFF; stroke-width:0; stroke-opacity:1; 
stroke-linecap:round; stroke-linejoin:round;">
<circle cx="9297.24" cy="16066.4" r="200" /> 
</g>
<g style="fill:#FFFFFF; fill-opacity:1.0; 
stroke:#FFFFFF; stroke-width:39.3701; stroke-opacity:1; 
stroke-linecap:round; stroke-linejoin:round;">
</g>
<g style="fill:#FFFFFF; fill-opacity:1.0; 
stroke:#FFFFFF; stroke-width:0; stroke-opacity:1; 
stroke-linecap:round; stroke-linejoin:round;">
<circle cx="8297.24" cy="15066.4" r="200" /> 
</g>
<g style="fill:#FFFFFF; fill-opacity:1.0; 
stroke:#FFFFFF; stroke-width:39.3701; stroke-opacity:1; 
stroke-linecap:round; stroke-linejoin:round;">
</g>
<g style="fill:#FFFFFF; fill-opacity:1.0; 
stroke:#FFFFFF; stroke-width:0; stroke-opacity:1; 
stroke-linecap:round; stroke-linejoin:round;">
<circle cx="8297.24" cy="16066.4" r="200" /> 
</g>
<g style="fill:#FFFFFF; fill-opacity:1.0; 
stroke:#FFFFFF; stroke-width:39.3701; stroke-opacity:1; 
stroke-linecap:round; stroke-linejoin:round;">
</g>
<g style="fill:#FFFFFF; fill-opacity:1.0; 
stroke:#FFFFFF; stroke-width:0; stroke-opacity:1; 
stroke-linecap:round; stroke-linejoin:round;">
<circle cx="7297.24" cy="15066.4" r="200" /> 
</g>
<g style="fill:#FFFFFF; fill-opacity:1.0; 
stroke:#FFFFFF; stroke-width:39.3701; stroke-opacity:1; 
stroke-linecap:round; stroke-linejoin:round;">
</g>
<g style="fill:#FFFFFF; fill-opacity:1.0; 
stroke:#FFFFFF; stroke-width:0; stroke-opacity:1; 
stroke-linecap:round; stroke-linejoin:round;">
<circle cx="7297.24" cy="16066.4" r="200" /> 
</g>
<g style="fill:#FFFFFF; fill-opacity:1.0; 
stroke:#FFFFFF; stroke-width:39.3701; stroke-opacity:1; 
stroke-linecap:round; stroke-linejoin:round;">
</g>
<g style="fill:#FFFFFF; fill-opacity:1.0; 
stroke:#FFFFFF; stroke-width:0; stroke-opacity:1; 
stroke-linecap:round; stroke-linejoin:round;">
<circle cx="20309.5" cy="22511.5" r="200" /> 
</g>
<g style="fill:#FFFFFF; fill-opacity:1.0; 
stroke:#FFFFFF; stroke-width:39.3701; stroke-opacity:1; 
stroke-linecap:round; stroke-linejoin:round;">
</g>
<g style="fill:#FFFFFF; fill-opacity:1.0; 
stroke:#FFFFFF; stroke-width:0; stroke-opacity:1; 
stroke-linecap:round; stroke-linejoin:round;">
<circle cx="17749.5" cy="22511.5" r="200" /> 
</g>
<g style="fill:#FFFFFF; fill-opacity:1.0; 
stroke:#FFFFFF; stroke-width:39.3701; stroke-opacity:1; 
stroke-linecap:round; stroke-linejoin:round;">
</g>
<g style="fill:#FFFFFF; fill-opacity:1.0; 
stroke:#FFFFFF; stroke-width:0; stroke-opacity:1; 
stroke-linecap:round; stroke-linejoin:round;">
<circle cx="20309.5" cy="20731.5" r="200" /> 
</g>
<g style="fill:#FFFFFF; fill-opacity:1.0; 
stroke:#FFFFFF; stroke-width:39.3701; stroke-opacity:1; 
stroke-linecap:round; stroke-linejoin:round;">
</g>
<g style="fill:#FFFFFF; fill-opacity:1.0; 
stroke:#FFFFFF; stroke-width:0; stroke-opacity:1; 
stroke-linecap:round; stroke-linejoin:round;">
<circle cx="17749.5" cy="20731.5" r="200" /> 
</g>
<g style="fill:#FFFFFF; fill-opacity:1.0; 
stroke:#FFFFFF; stroke-width:39.3701; stroke-opacity:1; 
stroke-linecap:round; stroke-linejoin:round;">
</g>
<g style="fill:#FFFFFF; fill-opacity:1.0; 
stroke:#FFFFFF; stroke-width:0; stroke-opacity:1; 
stroke-linecap:round; stroke-linejoin:round;">
<circle cx="20309.5" cy="17011.5" r="200" /> 
</g>
<g style="fill:#FFFFFF; fill-opacity:1.0; 
stroke:#FFFFFF; stroke-width:39.3701; stroke-opacity:1; 
stroke-linecap:round; stroke-linejoin:round;">
</g>
<g style="fill:#FFFFFF; fill-opacity:1.0; 
stroke:#FFFFFF; stroke-width:0; stroke-opacity:1; 
stroke-linecap:round; stroke-linejoin:round;">
<circle cx="17749.5" cy="17011.5" r="200" /> 
</g>
<g style="fill:#FFFFFF; fill-opacity:1.0; 
stroke:#FFFFFF; stroke-width:39.3701; stroke-opacity:1; 
stroke-linecap:round; stroke-linejoin:round;">
</g>
<g style="fill:#FFFFFF; fill-opacity:1.0; 
stroke:#FFFFFF; stroke-width:0; stroke-opacity:1; 
stroke-linecap:round; stroke-linejoin:round;">
<circle cx="20309.5" cy="15231.5" r="200" /> 
</g>
<g style="fill:#FFFFFF; fill-opacity:1.0; 
stroke:#FFFFFF; stroke-width:39.3701; stroke-opacity:1; 
stroke-linecap:round; stroke-linejoin:round;">
</g>
<g style="fill:#FFFFFF; fill-opacity:1.0; 
stroke:#FFFFFF; stroke-width:0; stroke-opacity:1; 
stroke-linecap:round; stroke-linejoin:round;">
<circle cx="17749.5" cy="15231.5" r="200" /> 
</g>
<g style="fill:#FFFFFF; fill-opacity:1.0; 
stroke:#FFFFFF; stroke-width:39.3701; stroke-opacity:1; 
stroke-linecap:round; stroke-linejoin:round;">
</g>
<g style="fill:#FFFFFF; fill-opacity:1.0; 
stroke:#FFFFFF; stroke-width:0; stroke-opacity:1; 
stroke-linecap:round; stroke-linejoin:round;">
<circle cx="16029.5" cy="20121.5" r="200" /> 
</g>
<g style="fill:#FFFFFF; fill-opacity:1.0; 
stroke:#FFFFFF; stroke-width:39.3701; stroke-opacity:1; 
stroke-linecap:round; stroke-linejoin:round;">
</g>
<g style="fill:#FFFFFF; fill-opacity:1.0; 
stroke:#FFFFFF; stroke-width:0; stroke-opacity:1; 
stroke-linecap:round; stroke-linejoin:round;">
<circle cx="16029.5" cy="23121.5" r="200" /> 
</g>
<g style="fill:#FFFFFF; fill-opacity:1.0; 
stroke:#FFFFFF; stroke-width:39.3701; stroke-opacity:1; 
stroke-linecap:round; stroke-linejoin:round;">
</g>
<g style="fill:#FFFFFF; fill-opacity:1.0; 
stroke:#FFFFFF; stroke-width:0; stroke-opacity:1; 
stroke-linecap:round; stroke-linejoin:round;">
<circle cx="24241.7" cy="3950.79" r="541.338" /> 
</g>
<g style="fill:#FFFFFF; fill-opacity:1.0; 
stroke:#FFFFFF; stroke-width:39.3701; stroke-opacity:1; 
stroke-linecap:round; stroke-linejoin:round;">
</g>
<g style="fill:#FFFFFF; fill-opacity:1.0; 
stroke:#FFFFFF; stroke-width:0; stroke-opacity:1; 
stroke-linecap:round; stroke-linejoin:round;">
<circle cx="24241.7" cy="23242.1" r="541.338" /> 
</g>
<g style="fill:#FFFFFF; fill-opacity:1.0; 
stroke:#FFFFFF; stroke-width:39.3701; stroke-opacity:1; 
stroke-linecap:round; stroke-linejoin:round;">
</g>
<g style="fill:#FFFFFF; fill-opacity:1.0; 
stroke:#FFFFFF; stroke-width:0; stroke-opacity:1; 
stroke-linecap:round; stroke-linejoin:round;">
<circle cx="1407.05" cy="23242.1" r="541.338" /> 
</g>
<g style="fill:#FFFFFF; fill-opacity:1.0; 
stroke:#FFFFFF; stroke-width:39.3701; stroke-opacity:1; 
stroke-linecap:round; stroke-linejoin:round;">
</g>
<g style="fill:#FFFFFF; fill-opacity:1.0; 
stroke:#FFFFFF; stroke-width:0; stroke-opacity:1; 
stroke-linecap:round; stroke-linejoin:round;">
<circle cx="1407.05" cy="3950.79" r="541.338" /> 
</g>
<g style="fill:#FFFFFF; fill-opacity:1.0; 
stroke:#FFFFFF; stroke-width:39.3701; stroke-opacity:1; 
stroke-linecap:round; stroke-linejoin:round;">
</g>
<g style="fill:#FFFFFF; fill-opacity:1.0; 
stroke:#FFFFFF; stroke-width:0; stroke-opacity:1; 
stroke-linecap:round; stroke-linejoin:round;">
<circle cx="16029.5" cy="14621.5" r="200" /> 
</g>
<g style="fill:#FFFFFF; fill-opacity:1.0; 
stroke:#FFFFFF; stroke-width:39.3701; stroke-opacity:1; 
stroke-linecap:round; stroke-linejoin:round;">
</g>
<g style="fill:#FFFFFF; fill-opacity:1.0; 
stroke:#FFFFFF; stroke-width:0; stroke-opacity:1; 
stroke-linecap:round; stroke-linejoin:round;">
<circle cx="16029.5" cy="17621.5" r="200" /> 
</g>
<g style="fill:#FFFFFF; fill-opacity:1.0; 
stroke:#FFFFFF; stroke-width:39.3701; stroke-opacity:1; 
stroke-linecap:round; stroke-linejoin:round;">
</g>
<g style="fill:#FFFFFF; fill-opacity:1.0; 
stroke:#FFFFFF; stroke-width:0; stroke-opacity:1; 
stroke-linecap:round; stroke-linejoin:round;">
<circle cx="23529.5" cy="20621.5" r="160" /> 
</g>
<g style="fill:#FFFFFF; fill-opacity:1.0; 
stroke:#FFFFFF; stroke-width:39.3701; stroke-opacity:1; 
stroke-linecap:round; stroke-linejoin:round;">
</g>
<g style="fill:#FFFFFF; fill-opacity:1.0; 
stroke:#FFFFFF; stroke-width:0; stroke-opacity:1; 
stroke-linecap:round; stroke-linejoin:round;">
<circle cx="23529.5" cy="19621.5" r="160" /> 
</g>
<g style="fill:#FFFFFF; fill-opacity:1.0; 
stroke:#FFFFFF; stroke-width:39.3701; stroke-opacity:1; 
stroke-linecap:round; stroke-linejoin:round;">
</g>
<g style="fill:#FFFFFF; fill-opacity:1.0; 
stroke:#FFFFFF; stroke-width:0; stroke-opacity:1; 
stroke-linecap:round; stroke-linejoin:round;">
<circle cx="23529.5" cy="17621.5" r="200" /> 
</g>
<g style="fill:#FFFFFF; fill-opacity:1.0; 
stroke:#FFFFFF; stroke-width:39.3701; stroke-opacity:1; 
stroke-linecap:round; stroke-linejoin:round;">
</g>
<g style="fill:#FFFFFF; fill-opacity:1.0; 
stroke:#FFFFFF; stroke-width:0; stroke-opacity:1; 
stroke-linecap:round; stroke-linejoin:round;">
<circle cx="23529.5" cy="14621.5" r="200" /> 
</g>
<g style="fill:#FFFFFF; fill-opacity:1.0; 
stroke:#FFFFFF; stroke-width:39.3701; stroke-opacity:1; 
stroke-linecap:round; stroke-linejoin:round;">
</g>
<g style="fill:#000000; fill-opacity:1.0; 
stroke:#000000; stroke-width:39.3701; stroke-opacity:1; 
stroke-linecap:round; stroke-linejoin:round;">
</g> 
</svg>
