<?xml version="1.0" standalone="no"?>
 <!DOCTYPE svg PUBLIC "-//W3C//DTD SVG 1.1//EN" 
 "http://www.w3.org/Graphics/SVG/1.1/DTD/svg11.dtd"> 
<svg xmlns="http://www.w3.org/2000/svg" version="1.1" 
    width="6.51256cm" height="6.2611cm" viewBox="0 0 25640 24650 ">
<title>SVG Picture created as ShittyAddonHat-F.SilkS.svg date 2019/04/21 22:00:56 </title>
  <desc>Picture generated by PCBNEW </desc>
<g style="fill:#000000; fill-opacity:1;stroke:#000000; stroke-opacity:1;
stroke-linecap:round; stroke-linejoin:round; "
 transform="translate(0 0) scale(1 1)">
</g>
<g style="fill:#000000; fill-opacity:0.0; 
stroke:#000000; stroke-width:-0.000393701; stroke-opacity:1; 
stroke-linecap:round; stroke-linejoin:round;">
</g>
<g style="fill:#000000; fill-opacity:0.0; 
stroke:#000000; stroke-width:78.7402; stroke-opacity:1; 
stroke-linecap:round; stroke-linejoin:round;">
<path d="M17876 23326
L17820 23298
L17735 23298
L17651 23326
L17595 23382
L17567 23438
L17539 23551
L17539 23635
L17567 23748
L17595 23804
L17651 23860
L17735 23888
L17792 23888
L17876 23860
L17904 23832
L17904 23635
L17792 23635
" />
<path d="M18157 23888
L18157 23298
L18382 23298
L18438 23326
L18467 23354
L18495 23410
L18495 23494
L18467 23551
L18438 23579
L18382 23607
L18157 23607
" />
<path d="M18748 23888
L18748 23298
" />
<path d="M19142 23298
L19254 23298
L19310 23326
L19366 23382
L19395 23494
L19395 23691
L19366 23804
L19310 23860
L19254 23888
L19142 23888
L19085 23860
L19029 23804
L19001 23691
L19001 23494
L19029 23382
L19085 23326
L19142 23298
" />
<path d="M19957 23888
L19620 23888
" />
<path d="M19788 23888
L19788 23298
L19732 23382
L19676 23438
L19620 23466
" />
<path d="M20154 23298
L20548 23298
L20294 23888
" />
<path d="M17876 17826
L17820 17798
L17735 17798
L17651 17826
L17595 17882
L17567 17938
L17539 18051
L17539 18135
L17567 18248
L17595 18304
L17651 18360
L17735 18388
L17792 18388
L17876 18360
L17904 18332
L17904 18135
L17792 18135
" />
<path d="M18157 18388
L18157 17798
L18382 17798
L18438 17826
L18467 17854
L18495 17910
L18495 17994
L18467 18051
L18438 18079
L18382 18107
L18157 18107
" />
<path d="M18748 18388
L18748 17798
" />
<path d="M19142 17798
L19254 17798
L19310 17826
L19366 17882
L19395 17994
L19395 18191
L19366 18304
L19310 18360
L19254 18388
L19142 18388
L19085 18360
L19029 18304
L19001 18191
L19001 17994
L19029 17882
L19085 17826
L19142 17798
" />
<path d="M19620 17854
L19648 17826
L19704 17798
L19845 17798
L19901 17826
L19929 17854
L19957 17910
L19957 17966
L19929 18051
L19591 18388
L19957 18388
" />
<path d="M20154 17798
L20548 17798
L20294 18388
" />
<path d="M24734 21274
L24706 21330
L24706 21415
L24734 21499
L24790 21555
L24846 21583
L24959 21611
L25043 21611
L25156 21583
L25212 21555
L25268 21499
L25296 21415
L25296 21358
L25268 21274
L25240 21246
L25043 21246
L25043 21358
" />
<path d="M25296 20993
L24706 20993
L24706 20768
L24734 20712
L24762 20683
L24818 20655
L24902 20655
L24959 20683
L24987 20712
L25015 20768
L25015 20993
" />
<path d="M25296 20402
L24706 20402
" />
<path d="M24706 20009
L24706 19896
L24734 19840
L24790 19784
L24902 19755
L25099 19755
L25212 19784
L25268 19840
L25296 19896
L25296 20009
L25268 20065
L25212 20121
L25099 20149
L24902 20149
L24790 20121
L24734 20065
L24706 20009
" />
<path d="M24762 19530
L24734 19502
L24706 19446
L24706 19305
L24734 19249
L24762 19221
L24818 19193
L24874 19193
L24959 19221
L25296 19559
L25296 19193
" />
<path d="M24762 18968
L24734 18940
L24706 18884
L24706 18743
L24734 18687
L24762 18659
L24818 18631
L24874 18631
L24959 18659
L25296 18996
L25296 18631
" />
</g>
<g style="fill:#000000; fill-opacity:0.0; 
stroke:#000000; stroke-width:60; stroke-opacity:1; 
stroke-linecap:round; stroke-linejoin:round;">
<circle cx="5229.53" cy="18171.5" r="1000" /> 
<circle cx="8229.53" cy="18171.5" r="1000" /> 
<circle cx="11229.5" cy="18171.5" r="1000" /> 
</g>
<g style="fill:#000000; fill-opacity:0.0; 
stroke:#000000; stroke-width:98.4252; stroke-opacity:1; 
stroke-linecap:round; stroke-linejoin:round;">
<path d="M4442 17848
L4638 18438
L4835 17848
" />
<path d="M5370 18382
L5342 18410
L5257 18438
L5201 18438
L5117 18410
L5060 18354
L5032 18298
L5004 18185
L5004 18101
L5032 17988
L5060 17932
L5117 17876
L5201 17848
L5257 17848
L5342 17876
L5370 17904
" />
<path d="M5960 18382
L5932 18410
L5848 18438
L5791 18438
L5707 18410
L5651 18354
L5623 18298
L5595 18185
L5595 18101
L5623 17988
L5651 17932
L5707 17876
L5791 17848
L5848 17848
L5932 17876
L5960 17904
" />
<path d="M7512 18410
L7596 18438
L7737 18438
L7793 18410
L7821 18382
L7849 18326
L7849 18269
L7821 18213
L7793 18185
L7737 18157
L7624 18129
L7568 18101
L7540 18073
L7512 18016
L7512 17960
L7540 17904
L7568 17876
L7624 17848
L7765 17848
L7849 17876
" />
<path d="M8102 18438
L8102 17848
L8243 17848
L8327 17876
L8384 17932
L8412 17988
L8440 18101
L8440 18185
L8412 18298
L8384 18354
L8327 18410
L8243 18438
L8102 18438
" />
<path d="M8665 18269
L8946 18269
" />
<path d="M8609 18438
L8806 17848
L9002 18438
" />
</g>
<g style="fill:#000000; fill-opacity:0.0; 
stroke:#000000; stroke-width:75; stroke-opacity:1; 
stroke-linecap:round; stroke-linejoin:round;">
<path d="M10754 17540
L10709 17517
L10641 17517
L10573 17540
L10528 17585
L10505 17630
L10483 17721
L10483 17789
L10505 17879
L10528 17924
L10573 17970
L10641 17992
L10686 17992
L10754 17970
L10777 17947
L10777 17789
L10686 17789
" />
<path d="M10980 17992
L10980 17517
L11161 17517
L11206 17540
L11229 17562
L11252 17608
L11252 17675
L11229 17721
L11206 17743
L11161 17766
L10980 17766
" />
<path d="M11455 17992
L11455 17517
" />
<path d="M11772 17517
L11862 17517
L11908 17540
L11953 17585
L11975 17675
L11975 17834
L11953 17924
L11908 17970
L11862 17992
L11772 17992
L11727 17970
L11681 17924
L11659 17834
L11659 17675
L11681 17585
L11727 17540
L11772 17517
" />
<path d="M11365 18780
L11093 18780
" />
<path d="M11229 18780
L11229 18305
L11184 18372
L11139 18418
L11093 18440
" />
</g>
<g style="fill:#000000; fill-opacity:0.0; 
stroke:#000000; stroke-width:98.4252; stroke-opacity:1; 
stroke-linecap:round; stroke-linejoin:round;">
<path d="M11769 13253
L11769 12662
L11909 12662
L11994 12690
L12050 12747
L12078 12803
L12106 12915
L12106 13000
L12078 13112
L12050 13169
L11994 13225
L11909 13253
L11769 13253
" />
<path d="M12584 13225
L12528 13253
L12415 13253
L12359 13225
L12331 13169
L12331 12944
L12359 12887
L12415 12859
L12528 12859
L12584 12887
L12612 12944
L12612 13000
L12331 13056
" />
<path d="M12809 12859
L12950 13253
L13090 12859
" />
<path d="M13540 13225
L13484 13253
L13372 13253
L13315 13225
L13287 13169
L13287 12944
L13315 12887
L13372 12859
L13484 12859
L13540 12887
L13568 12944
L13568 13000
L13287 13056
" />
<path d="M13906 13253
L13850 13225
L13821 13169
L13821 12662
" />
<path d="M14215 13253
L14159 13225
L14131 13197
L14103 13140
L14103 12972
L14131 12915
L14159 12887
L14215 12859
L14300 12859
L14356 12887
L14384 12915
L14412 12972
L14412 13140
L14384 13197
L14356 13225
L14300 13253
L14215 13253
" />
<path d="M14665 12859
L14665 13450
" />
<path d="M14665 12887
L14721 12859
L14834 12859
L14890 12887
L14918 12915
L14946 12972
L14946 13140
L14918 13197
L14890 13225
L14834 13253
L14721 13253
L14665 13225
" />
<path d="M15424 13225
L15368 13253
L15256 13253
L15199 13225
L15171 13169
L15171 12944
L15199 12887
L15256 12859
L15368 12859
L15424 12887
L15453 12944
L15453 13000
L15171 13056
" />
<path d="M15706 13253
L15706 12859
" />
<path d="M15706 12972
L15734 12915
L15762 12887
L15818 12859
L15874 12859
" />
<path d="M16043 13225
L16099 13253
L16212 13253
L16268 13225
L16296 13169
L16296 13140
L16268 13084
L16212 13056
L16127 13056
L16071 13028
L16043 12972
L16043 12944
L16071 12887
L16127 12859
L16212 12859
L16268 12887
" />
<path d="M16999 12944
L17196 12944
" />
<path d="M17280 13253
L16999 13253
L16999 12662
L17280 12662
" />
<path d="M17787 13253
L17787 12662
" />
<path d="M17787 13225
L17730 13253
L17618 13253
L17562 13225
L17534 13197
L17505 13140
L17505 12972
L17534 12915
L17562 12887
L17618 12859
L17730 12859
L17787 12887
" />
<path d="M18068 13253
L18068 12859
" />
<path d="M18068 12662
L18040 12690
L18068 12719
L18096 12690
L18068 12662
L18068 12719
" />
<path d="M18265 12859
L18490 12859
" />
<path d="M18349 12662
L18349 13169
L18377 13225
L18433 13253
L18490 13253
" />
<path d="M18686 13253
L18686 12859
" />
<path d="M18686 12662
L18658 12690
L18686 12719
L18715 12690
L18686 12662
L18686 12719
" />
<path d="M19052 13253
L18996 13225
L18968 13197
L18940 13140
L18940 12972
L18968 12915
L18996 12887
L19052 12859
L19136 12859
L19193 12887
L19221 12915
L19249 12972
L19249 13140
L19221 13197
L19193 13225
L19136 13253
L19052 13253
" />
<path d="M19502 12859
L19502 13253
" />
<path d="M19502 12915
L19530 12887
L19586 12859
L19671 12859
L19727 12887
L19755 12944
L19755 13253
" />
<path d="M20683 12944
L20767 12972
L20796 13000
L20824 13056
L20824 13140
L20796 13197
L20767 13225
L20711 13253
L20486 13253
L20486 12662
L20683 12662
L20739 12690
L20767 12719
L20796 12775
L20796 12831
L20767 12887
L20739 12915
L20683 12944
L20486 12944
" />
<path d="M21161 13253
L21105 13225
L21077 13169
L21077 12662
" />
<path d="M21639 13253
L21639 12944
L21611 12887
L21555 12859
L21442 12859
L21386 12887
" />
<path d="M21639 13225
L21583 13253
L21442 13253
L21386 13225
L21358 13169
L21358 13112
L21386 13056
L21442 13028
L21583 13028
L21639 13000
" />
<path d="M22174 13225
L22117 13253
L22005 13253
L21949 13225
L21920 13197
L21892 13140
L21892 12972
L21920 12915
L21949 12887
L22005 12859
L22117 12859
L22174 12887
" />
<path d="M22427 13253
L22427 12662
" />
<path d="M22483 13028
L22652 13253
" />
<path d="M22652 12859
L22427 13084
" />
<path d="M3240 23241
L3325 23269
L3465 23269
L3522 23241
L3550 23212
L3578 23156
L3578 23100
L3550 23044
L3522 23016
L3465 22987
L3353 22959
L3297 22931
L3269 22903
L3240 22847
L3240 22791
L3269 22734
L3297 22706
L3353 22678
L3494 22678
L3578 22706
" />
<path d="M3831 23269
L3831 22678
" />
<path d="M4084 23269
L4084 22959
L4056 22903
L4000 22875
L3915 22875
L3859 22903
L3831 22931
" />
<path d="M4365 23269
L4365 22875
" />
<path d="M4365 22678
L4337 22706
L4365 22734
L4393 22706
L4365 22678
L4365 22734
" />
<path d="M4562 22875
L4787 22875
" />
<path d="M4647 22678
L4647 23184
L4675 23241
L4731 23269
L4787 23269
" />
<path d="M4900 22875
L5125 22875
" />
<path d="M4984 22678
L4984 23184
L5012 23241
L5068 23269
L5125 23269
" />
<path d="M5265 22875
L5406 23269
" />
<path d="M5546 22875
L5406 23269
L5350 23409
L5321 23437
L5265 23465
" />
<path d="M6193 23100
L6474 23100
" />
<path d="M6137 23269
L6334 22678
L6531 23269
" />
<path d="M6981 23269
L6981 22678
" />
<path d="M6981 23241
L6924 23269
L6812 23269
L6756 23241
L6728 23212
L6699 23156
L6699 22987
L6728 22931
L6756 22903
L6812 22875
L6924 22875
L6981 22903
" />
<path d="M7515 23269
L7515 22678
" />
<path d="M7515 23241
L7459 23269
L7346 23269
L7290 23241
L7262 23212
L7234 23156
L7234 22987
L7262 22931
L7290 22903
L7346 22875
L7459 22875
L7515 22903
" />
<path d="M7796 23044
L8246 23044
" />
<path d="M8640 22678
L8752 22678
L8809 22706
L8865 22762
L8893 22875
L8893 23072
L8865 23184
L8809 23241
L8752 23269
L8640 23269
L8584 23241
L8527 23184
L8499 23072
L8499 22875
L8527 22762
L8584 22706
L8640 22678
" />
<path d="M9146 22875
L9146 23269
" />
<path d="M9146 22931
L9174 22903
L9230 22875
L9315 22875
L9371 22903
L9399 22959
L9399 23269
" />
<path d="M10046 22678
L10243 23269
L10440 22678
" />
<path d="M10636 23212
L10665 23241
L10636 23269
L10608 23241
L10636 23212
L10636 23269
" />
<path d="M11677 23269
L11339 23269
" />
<path d="M11508 23269
L11508 22678
L11452 22762
L11396 22819
L11339 22847
" />
<path d="M11930 23212
L11958 23241
L11930 23269
L11902 23241
L11930 23212
L11930 23269
" />
<path d="M12464 22678
L12352 22678
L12296 22706
L12267 22734
L12211 22819
L12183 22931
L12183 23156
L12211 23212
L12239 23241
L12296 23269
L12408 23269
L12464 23241
L12492 23212
L12521 23156
L12521 23016
L12492 22959
L12464 22931
L12408 22903
L12296 22903
L12239 22931
L12211 22959
L12183 23016
" />
<path d="M12802 23269
L12914 23269
L12971 23241
L12999 23212
L13055 23128
L13083 23016
L13083 22791
L13055 22734
L13027 22706
L12971 22678
L12858 22678
L12802 22706
L12774 22734
L12746 22791
L12746 22931
L12774 22987
L12802 23016
L12858 23044
L12971 23044
L13027 23016
L13055 22987
L13083 22931
" />
<path d="M13336 23269
L13336 22678
" />
<path d="M13336 22903
L13392 22875
L13505 22875
L13561 22903
L13589 22931
L13617 22987
L13617 23156
L13589 23212
L13561 23241
L13505 23269
L13392 23269
L13336 23241
" />
<path d="M13870 23269
L13870 22875
" />
<path d="M13870 22678
L13842 22706
L13870 22734
L13899 22706
L13870 22678
L13870 22734
" />
<path d="M14124 23241
L14180 23269
L14292 23269
L14348 23241
L14377 23184
L14377 23156
L14348 23100
L14292 23072
L14208 23072
L14152 23044
L14124 22987
L14124 22959
L14152 22903
L14208 22875
L14292 22875
L14348 22903
" />
<path d="M3269 24253
L3269 23662
L3494 23662
L3550 23690
L3578 23719
L3606 23775
L3606 23859
L3578 23915
L3550 23944
L3494 23972
L3269 23972
" />
<path d="M3859 24253
L3859 23859
" />
<path d="M3859 23662
L3831 23690
L3859 23719
L3887 23690
L3859 23662
L3859 23719
" />
<path d="M4590 24253
L4590 23662
L4731 23662
L4815 23690
L4872 23747
L4900 23803
L4928 23915
L4928 24000
L4900 24112
L4872 24169
L4815 24225
L4731 24253
L4590 24253
" />
<path d="M5406 24225
L5350 24253
L5237 24253
L5181 24225
L5153 24169
L5153 23944
L5181 23887
L5237 23859
L5350 23859
L5406 23887
L5434 23944
L5434 24000
L5153 24056
" />
<path d="M5631 23859
L5771 24253
L5912 23859
" />
<path d="M6362 24225
L6306 24253
L6193 24253
L6137 24225
L6109 24169
L6109 23944
L6137 23887
L6193 23859
L6306 23859
L6362 23887
L6390 23944
L6390 24000
L6109 24056
" />
<path d="M6728 24253
L6671 24225
L6643 24169
L6643 23662
" />
<path d="M7037 24253
L6981 24225
L6953 24197
L6924 24140
L6924 23972
L6953 23915
L6981 23887
L7037 23859
L7121 23859
L7177 23887
L7206 23915
L7234 23972
L7234 24140
L7206 24197
L7177 24225
L7121 24253
L7037 24253
" />
<path d="M7487 23859
L7487 24450
" />
<path d="M7487 23887
L7543 23859
L7656 23859
L7712 23887
L7740 23915
L7768 23972
L7768 24140
L7740 24197
L7712 24225
L7656 24253
L7543 24253
L7487 24225
" />
<path d="M8021 24253
L8021 23859
" />
<path d="M8021 23915
L8049 23887
L8106 23859
L8190 23859
L8246 23887
L8274 23944
L8274 24253
" />
<path d="M8274 23944
L8302 23887
L8359 23859
L8443 23859
L8499 23887
L8527 23944
L8527 24253
" />
<path d="M9034 24225
L8977 24253
L8865 24253
L8809 24225
L8780 24169
L8780 23944
L8809 23887
L8865 23859
L8977 23859
L9034 23887
L9062 23944
L9062 24000
L8780 24056
" />
<path d="M9315 23859
L9315 24253
" />
<path d="M9315 23915
L9343 23887
L9399 23859
L9483 23859
L9540 23887
L9568 23944
L9568 24253
" />
<path d="M9765 23859
L9990 23859
" />
<path d="M9849 23662
L9849 24169
L9877 24225
L9933 24253
L9990 24253
" />
<path d="M10636 24253
L10636 23662
L10861 23662
L10918 23690
L10946 23719
L10974 23775
L10974 23859
L10946 23915
L10918 23944
L10861 23972
L10636 23972
" />
<path d="M11311 24253
L11255 24225
L11227 24169
L11227 23662
" />
<path d="M11789 24253
L11789 23944
L11761 23887
L11705 23859
L11593 23859
L11536 23887
" />
<path d="M11789 24225
L11733 24253
L11593 24253
L11536 24225
L11508 24169
L11508 24112
L11536 24056
L11593 24028
L11733 24028
L11789 24000
" />
<path d="M11986 23859
L12211 23859
" />
<path d="M12071 23662
L12071 24169
L12099 24225
L12155 24253
L12211 24253
" />
<path d="M12324 23859
L12549 23859
" />
<path d="M12408 24253
L12408 23747
L12436 23690
L12492 23662
L12549 23662
" />
<path d="M12830 24253
L12774 24225
L12746 24197
L12717 24140
L12717 23972
L12746 23915
L12774 23887
L12830 23859
L12914 23859
L12971 23887
L12999 23915
L13027 23972
L13027 24140
L12999 24197
L12971 24225
L12914 24253
L12830 24253
" />
<path d="M13280 24253
L13280 23859
" />
<path d="M13280 23972
L13308 23915
L13336 23887
L13392 23859
L13449 23859
" />
<path d="M13645 24253
L13645 23859
" />
<path d="M13645 23915
L13674 23887
L13730 23859
L13814 23859
L13870 23887
L13899 23944
L13899 24253
" />
<path d="M13899 23944
L13927 23887
L13983 23859
L14067 23859
L14124 23887
L14152 23944
L14152 24253
" />
</g>
<g style="fill:#000000; fill-opacity:0.0; 
stroke:#000000; stroke-width:60; stroke-opacity:1; 
stroke-linecap:round; stroke-linejoin:round;">
<circle cx="5229.53" cy="21171.5" r="1000" /> 
<circle cx="8229.53" cy="21171.5" r="1000" /> 
<circle cx="11229.5" cy="21171.5" r="1000" /> 
</g>
<g style="fill:#000000; fill-opacity:0.0; 
stroke:#000000; stroke-width:98.4252; stroke-opacity:1; 
stroke-linecap:round; stroke-linejoin:round;">
<path d="M4779 20876
L4723 20848
L4638 20848
L4554 20876
L4498 20932
L4470 20988
L4442 21101
L4442 21185
L4470 21298
L4498 21354
L4554 21410
L4638 21438
L4695 21438
L4779 21410
L4807 21382
L4807 21185
L4695 21185
" />
<path d="M5060 21438
L5060 20848
L5398 21438
L5398 20848
" />
<path d="M5679 21438
L5679 20848
L5820 20848
L5904 20876
L5960 20932
L5988 20988
L6016 21101
L6016 21185
L5988 21298
L5960 21354
L5904 21410
L5820 21438
L5679 21438
" />
<path d="M7526 21410
L7610 21438
L7751 21438
L7807 21410
L7835 21382
L7863 21326
L7863 21269
L7835 21213
L7807 21185
L7751 21157
L7638 21129
L7582 21101
L7554 21073
L7526 21016
L7526 20960
L7554 20904
L7582 20876
L7638 20848
L7779 20848
L7863 20876
" />
<path d="M8454 21382
L8426 21410
L8342 21438
L8285 21438
L8201 21410
L8145 21354
L8117 21298
L8088 21185
L8088 21101
L8117 20988
L8145 20932
L8201 20876
L8285 20848
L8342 20848
L8426 20876
L8454 20904
" />
<path d="M8988 21438
L8707 21438
L8707 20848
" />
</g>
<g style="fill:#000000; fill-opacity:0.0; 
stroke:#000000; stroke-width:75; stroke-opacity:1; 
stroke-linecap:round; stroke-linejoin:round;">
<path d="M10754 20540
L10709 20517
L10641 20517
L10573 20540
L10528 20585
L10505 20630
L10483 20721
L10483 20789
L10505 20879
L10528 20924
L10573 20970
L10641 20992
L10686 20992
L10754 20970
L10777 20947
L10777 20789
L10686 20789
" />
<path d="M10980 20992
L10980 20517
L11161 20517
L11206 20540
L11229 20562
L11252 20608
L11252 20675
L11229 20721
L11206 20743
L11161 20766
L10980 20766
" />
<path d="M11455 20992
L11455 20517
" />
<path d="M11772 20517
L11862 20517
L11908 20540
L11953 20585
L11975 20675
L11975 20834
L11953 20924
L11908 20970
L11862 20992
L11772 20992
L11727 20970
L11681 20924
L11659 20834
L11659 20675
L11681 20585
L11727 20540
L11772 20517
" />
<path d="M11093 21350
L11116 21327
L11161 21305
L11274 21305
L11320 21327
L11342 21350
L11365 21395
L11365 21440
L11342 21508
L11071 21780
L11365 21780
" />
</g>
<g style="fill:#000000; fill-opacity:0.0; 
stroke:#000000; stroke-width:78.7402; stroke-opacity:1; 
stroke-linecap:round; stroke-linejoin:round;">
<path d="M840 6080
L709 6080
" />
<path d="M709 6286
L709 5892
L896 5892
" />
<path d="M1215 6023
L1215 6286
" />
<path d="M1046 6023
L1046 6230
L1065 6267
L1103 6286
L1159 6286
L1196 6267
L1215 6248
" />
<path d="M1403 6023
L1403 6286
" />
<path d="M1403 6061
L1421 6042
L1459 6023
L1515 6023
L1553 6042
L1571 6080
L1571 6286
" />
<path d="M1928 6267
L1890 6286
L1815 6286
L1778 6267
L1759 6248
L1740 6211
L1740 6098
L1759 6061
L1778 6042
L1815 6023
L1890 6023
L1928 6042
" />
<path d="M690 7606
L746 7624
L840 7624
L878 7606
L896 7587
L915 7549
L915 7512
L896 7474
L878 7456
L840 7437
L765 7418
L728 7399
L709 7381
L690 7343
L690 7306
L709 7268
L728 7250
L765 7231
L859 7231
L915 7250
" />
<path d="M1084 7624
L1084 7231
L1178 7231
L1234 7250
L1271 7287
L1290 7324
L1309 7399
L1309 7456
L1290 7531
L1271 7568
L1234 7606
L1178 7624
L1084 7624
" />
<path d="M1459 7512
L1646 7512
" />
<path d="M1421 7624
L1553 7231
L1684 7624
" />
<path d="M690 8275
L746 8294
L840 8294
L878 8275
L896 8256
L915 8219
L915 8181
L896 8144
L878 8125
L840 8106
L765 8088
L728 8069
L709 8050
L690 8013
L690 7975
L709 7938
L728 7919
L765 7900
L859 7900
L915 7919
" />
<path d="M1309 8256
L1290 8275
L1234 8294
L1196 8294
L1140 8275
L1103 8238
L1084 8200
L1065 8125
L1065 8069
L1084 7994
L1103 7956
L1140 7919
L1196 7900
L1234 7900
L1290 7919
L1309 7938
" />
<path d="M1665 8294
L1478 8294
L1478 7900
" />
<path d="M915 8588
L878 8569
L821 8569
L765 8588
L728 8626
L709 8663
L690 8738
L690 8794
L709 8869
L728 8907
L765 8944
L821 8963
L859 8963
L915 8944
L934 8926
L934 8794
L859 8794
" />
<path d="M1103 8963
L1103 8569
L1253 8569
L1290 8588
L1309 8607
L1328 8644
L1328 8701
L1309 8738
L1290 8757
L1253 8776
L1103 8776
" />
<path d="M1496 8963
L1496 8569
" />
<path d="M1759 8569
L1834 8569
L1871 8588
L1909 8626
L1928 8701
L1928 8832
L1909 8907
L1871 8944
L1834 8963
L1759 8963
L1721 8944
L1684 8907
L1665 8832
L1665 8701
L1684 8626
L1721 8588
L1759 8569
" />
<path d="M2602 8963
L2377 8963
" />
<path d="M2490 8963
L2490 8569
L2452 8626
L2415 8663
L2377 8682
" />
<path d="M915 9257
L878 9239
L821 9239
L765 9257
L728 9295
L709 9332
L690 9407
L690 9464
L709 9539
L728 9576
L765 9614
L821 9632
L859 9632
L915 9614
L934 9595
L934 9464
L859 9464
" />
<path d="M1103 9632
L1103 9239
L1253 9239
L1290 9257
L1309 9276
L1328 9314
L1328 9370
L1309 9407
L1290 9426
L1253 9445
L1103 9445
" />
<path d="M1496 9632
L1496 9239
" />
<path d="M1759 9239
L1834 9239
L1871 9257
L1909 9295
L1928 9370
L1928 9501
L1909 9576
L1871 9614
L1834 9632
L1759 9632
L1721 9614
L1684 9576
L1665 9501
L1665 9370
L1684 9295
L1721 9257
L1759 9239
" />
<path d="M2377 9276
L2396 9257
L2434 9239
L2527 9239
L2565 9257
L2584 9276
L2602 9314
L2602 9351
L2584 9407
L2359 9632
L2602 9632
" />
<path d="M3669 6286
L3669 5892
L3819 5892
L3857 5911
L3875 5930
L3894 5967
L3894 6023
L3875 6061
L3857 6080
L3819 6098
L3669 6098
" />
<path d="M4063 6286
L4063 6023
" />
<path d="M4063 5892
L4044 5911
L4063 5930
L4082 5911
L4063 5892
L4063 5930
" />
<path d="M4250 6023
L4250 6286
" />
<path d="M4250 6061
L4269 6042
L4307 6023
L4363 6023
L4400 6042
L4419 6080
L4419 6286
" />
<path d="M4213 7268
L4232 7250
L4269 7231
L4363 7231
L4400 7250
L4419 7268
L4438 7306
L4438 7343
L4419 7399
L4194 7624
L4438 7624
" />
<path d="M4194 7900
L4438 7900
L4307 8050
L4363 8050
L4400 8069
L4419 8088
L4438 8125
L4438 8219
L4419 8256
L4400 8275
L4363 8294
L4250 8294
L4213 8275
L4194 8256
" />
<path d="M4400 8701
L4400 8963
" />
<path d="M4307 8551
L4213 8832
L4457 8832
" />
<path d="M4063 9632
L3838 9632
" />
<path d="M3950 9632
L3950 9239
L3913 9295
L3875 9332
L3838 9351
" />
<path d="M4288 9407
L4250 9389
L4232 9370
L4213 9332
L4213 9314
L4232 9276
L4250 9257
L4288 9239
L4363 9239
L4400 9257
L4419 9276
L4438 9314
L4438 9332
L4419 9370
L4400 9389
L4363 9407
L4288 9407
L4250 9426
L4232 9445
L4213 9482
L4213 9557
L4232 9595
L4250 9614
L4288 9632
L4363 9632
L4400 9614
L4419 9595
L4438 9557
L4438 9482
L4419 9445
L4400 9426
L4363 9407
" />
</g>
<g style="fill:#000000; fill-opacity:0.0; 
stroke:#000000; stroke-width:80; stroke-opacity:1; 
stroke-linecap:round; stroke-linejoin:round;">
<circle cx="19029.5" cy="21621.5" r="700" /> 
<path d="M17829 21216
L17829 22021
" />
<path d="M20229 21228
L20229 22021
" />
<path d="M18179 22821
L19879 22821
" />
<path d="M19879 20421
L18179 20421
" />
<circle cx="19029.5" cy="16121.5" r="700" /> 
<path d="M17829 15716
L17829 16521
" />
<path d="M20229 15728
L20229 16521
" />
<path d="M18179 17321
L19879 17321
" />
<path d="M19879 14921
L18179 14921
" />
</g>
<g style="fill:#000000; fill-opacity:0.0; 
stroke:#000000; stroke-width:100; stroke-opacity:1; 
stroke-linecap:round; stroke-linejoin:round;">
<path d="M16029 22621
L16029 22721
" />
<path d="M16029 20621
L16029 20521
" />
<path d="M16029 22621
L15529 22621
" />
<path d="M16529 22621
L16029 22621
" />
<path d="M16529 20621
L16529 22621
" />
<path d="M16029 20621
L16529 20621
" />
<path d="M15529 20621
L16029 20621
" />
<path d="M15529 22621
L15529 20621
" />
<path d="M16029 17121
L16029 17221
" />
<path d="M16029 15121
L16029 15021
" />
<path d="M16029 17121
L15529 17121
" />
<path d="M16529 17121
L16029 17121
" />
<path d="M16529 15121
L16529 17121
" />
<path d="M16029 15121
L16529 15121
" />
<path d="M15529 15121
L16029 15121
" />
<path d="M15529 17121
L15529 15121
" />
<path d="M23019 20741
L23199 20741
" />
<path d="M24039 20741
L23839 20741
" />
<path d="M23132.6 19426.9 A800 800 0.0 0 0 22729.5 20121.5 " />
<path d="M22729.5 20121.5 A800 800 0.0 0 0 23012.8 20732.2 " />
<path d="M24329.5 20121.5 A800 800 0.0 0 0 23906 19415.6 " />
<path d="M24041.7 20736.1 A800 800 0.0 0 0 24329.5 20121.5 " />
<path d="M23529 15121
L23529 15021
" />
<path d="M23529 17121
L23529 17221
" />
<path d="M23529 15121
L24029 15121
" />
<path d="M23029 15121
L23529 15121
" />
<path d="M23029 17121
L23029 15121
" />
<path d="M23529 17121
L23029 17121
" />
<path d="M24029 17121
L23529 17121
" />
<path d="M24029 15121
L24029 17121
" />
</g>
<g style="fill:#000000; fill-opacity:0.0; 
stroke:#000000; stroke-width:48; stroke-opacity:1; 
stroke-linecap:round; stroke-linejoin:round;">
<path d="M18470 20158
L18644 20223
L18470 20288
" />
<path d="M18752 20310
L18752 20082
L18882 20310
L18882 20082
" />
<path d="M19089 20310
L19089 20191
L19078 20169
L19056 20158
L19013 20158
L18991 20169
" />
<path d="M19089 20299
L19067 20310
L19013 20310
L18991 20299
L18980 20278
L18980 20256
L18991 20234
L19013 20223
L19067 20223
L19089 20212
" />
<path d="M19197 20310
L19197 20158
" />
<path d="M19197 20180
L19208 20169
L19230 20158
L19262 20158
L19284 20169
L19295 20191
L19295 20310
" />
<path d="M19295 20191
L19306 20169
L19328 20158
L19360 20158
L19382 20169
L19393 20191
L19393 20310
" />
<path d="M19588 20299
L19566 20310
L19523 20310
L19501 20299
L19490 20278
L19490 20191
L19501 20169
L19523 20158
L19566 20158
L19588 20169
L19599 20191
L19599 20212
L19490 20234
" />
<path d="M18470 14658
L18644 14723
L18470 14788
" />
<path d="M18752 14810
L18752 14582
L18882 14810
L18882 14582
" />
<path d="M19089 14810
L19089 14691
L19078 14669
L19056 14658
L19013 14658
L18991 14669
" />
<path d="M19089 14799
L19067 14810
L19013 14810
L18991 14799
L18980 14778
L18980 14756
L18991 14734
L19013 14723
L19067 14723
L19089 14712
" />
<path d="M19197 14810
L19197 14658
" />
<path d="M19197 14680
L19208 14669
L19230 14658
L19262 14658
L19284 14669
L19295 14691
L19295 14810
" />
<path d="M19295 14691
L19306 14669
L19328 14658
L19360 14658
L19382 14669
L19393 14691
L19393 14810
" />
<path d="M19588 14799
L19566 14810
L19523 14810
L19501 14799
L19490 14778
L19490 14691
L19501 14669
L19523 14658
L19566 14658
L19588 14669
L19599 14691
L19599 14712
L19490 14734
" />
</g> 
</svg>
