<?xml version="1.0" standalone="no"?>
 <!DOCTYPE svg PUBLIC "-//W3C//DTD SVG 1.1//EN" 
 "http://www.w3.org/Graphics/SVG/1.1/DTD/svg11.dtd"> 
<svg xmlns="http://www.w3.org/2000/svg" version="1.1" 
    width="6.51256cm" height="6.2611cm" viewBox="0 0 25640 24650 ">
<title>SVG Picture created as ShittyAddonHat-Dwgs.User.svg date 2019/04/21 22:00:56 </title>
  <desc>Picture generated by PCBNEW </desc>
<g style="fill:#000000; fill-opacity:1;stroke:#000000; stroke-opacity:1;
stroke-linecap:round; stroke-linejoin:round; "
 transform="translate(0 0) scale(1 1)">
</g>
<g style="fill:#000000; fill-opacity:0.0; 
stroke:#000000; stroke-width:-0.000393701; stroke-opacity:1; 
stroke-linecap:round; stroke-linejoin:round;">
</g>
<g style="fill:#000000; fill-opacity:0.0; 
stroke:#000000; stroke-width:59.0551; stroke-opacity:1; 
stroke-linecap:round; stroke-linejoin:round;">
<path d="M1210 2377
L24438 2377
" />
<path d="M25620.1 3558.5 A1181.1 1181.1 0.0 0 0 24439 2377.4 " />
<path d="M25620 3558
L25620 23440
" />
<path d="M24439 24621.5 A1181.1 1181.1 0.0 0 0 25620.1 23440.4 " />
<path d="M24438 24621
L1210 24621
" />
<path d="M29.528 23440.4 A1181.1 1181.1 0.0 0 0 1210.63 24621.5 " />
<path d="M1210.63 2377.4 A1181.1 1181.1 0.0 0 0 29.528 3558.5 " />
<path d="M423.229 16944.3 A393.701 393.701 0.0 0 0 29.528 17338 " />
<path d="M423 16944
L1604 16944
" />
<path d="M1604.33 16944.3 A393.701 393.701 0.0 0 0 1998.03 16550.6 " />
<path d="M1998 16550
L1998 10645
" />
<path d="M1998.03 10645.1 A393.701 393.701 0.0 0 0 1604.33 10251.4 " />
<path d="M1604 10251
L127 10251
" />
<path d="M29.528 10153 A98.4252 98.4252 0.0 0 0 127.953 10251.4 " />
<path d="M29 9660
L29 10152
" />
<path d="M29 10152
L29 3558
" />
<path d="M29 23440
L29 17338
" />
</g> 
</svg>
