<?xml version="1.0" standalone="no"?>
 <!DOCTYPE svg PUBLIC "-//W3C//DTD SVG 1.1//EN" 
 "http://www.w3.org/Graphics/SVG/1.1/DTD/svg11.dtd"> 
<svg xmlns="http://www.w3.org/2000/svg" version="1.1" 
    width="6.51256cm" height="6.2611cm" viewBox="0 0 25640 24650 ">
<title>SVG Picture created as ShittyAddonHat-F.Cu.svg date 2019/04/21 22:00:56 </title>
  <desc>Picture generated by PCBNEW </desc>
<g style="fill:#000000; fill-opacity:1;stroke:#000000; stroke-opacity:1;
stroke-linecap:round; stroke-linejoin:round; "
 transform="translate(0 0) scale(1 1)">
</g>
<g style="fill:#000000; fill-opacity:0.0; 
stroke:#000000; stroke-width:-0.000393701; stroke-opacity:1; 
stroke-linecap:round; stroke-linejoin:round;">
</g>
<g style="fill:#000000; fill-opacity:1.0; 
stroke:#000000; stroke-width:0; stroke-opacity:1; 
stroke-linecap:round; stroke-linejoin:round;">
<circle cx="22277.6" cy="3444.33" r="370" /> 
</g>
<g style="fill:#000000; fill-opacity:1.0; 
stroke:#000000; stroke-width:39.3701; stroke-opacity:1; 
stroke-linecap:round; stroke-linejoin:round;">
</g>
<g style="fill:#000000; fill-opacity:1.0; 
stroke:#000000; stroke-width:0; stroke-opacity:1; 
stroke-linecap:round; stroke-linejoin:round;">
<circle cx="22277.6" cy="4444.33" r="370" /> 
</g>
<g style="fill:#000000; fill-opacity:1.0; 
stroke:#000000; stroke-width:39.3701; stroke-opacity:1; 
stroke-linecap:round; stroke-linejoin:round;">
</g>
<g style="fill:#000000; fill-opacity:1.0; 
stroke:#000000; stroke-width:0; stroke-opacity:1; 
stroke-linecap:round; stroke-linejoin:round;">
<circle cx="21277.6" cy="3444.33" r="370" /> 
</g>
<g style="fill:#000000; fill-opacity:1.0; 
stroke:#000000; stroke-width:39.3701; stroke-opacity:1; 
stroke-linecap:round; stroke-linejoin:round;">
</g>
<g style="fill:#000000; fill-opacity:1.0; 
stroke:#000000; stroke-width:0; stroke-opacity:1; 
stroke-linecap:round; stroke-linejoin:round;">
<circle cx="21277.6" cy="4444.33" r="370" /> 
</g>
<g style="fill:#000000; fill-opacity:1.0; 
stroke:#000000; stroke-width:39.3701; stroke-opacity:1; 
stroke-linecap:round; stroke-linejoin:round;">
</g>
<g style="fill:#000000; fill-opacity:1.0; 
stroke:#000000; stroke-width:0; stroke-opacity:1; 
stroke-linecap:round; stroke-linejoin:round;">
<circle cx="20277.6" cy="3444.33" r="370" /> 
</g>
<g style="fill:#000000; fill-opacity:1.0; 
stroke:#000000; stroke-width:39.3701; stroke-opacity:1; 
stroke-linecap:round; stroke-linejoin:round;">
</g>
<g style="fill:#000000; fill-opacity:1.0; 
stroke:#000000; stroke-width:0; stroke-opacity:1; 
stroke-linecap:round; stroke-linejoin:round;">
<circle cx="20277.6" cy="4444.33" r="370" /> 
</g>
<g style="fill:#000000; fill-opacity:1.0; 
stroke:#000000; stroke-width:39.3701; stroke-opacity:1; 
stroke-linecap:round; stroke-linejoin:round;">
</g>
<g style="fill:#000000; fill-opacity:1.0; 
stroke:#000000; stroke-width:0; stroke-opacity:1; 
stroke-linecap:round; stroke-linejoin:round;">
<circle cx="19277.6" cy="3444.33" r="370" /> 
</g>
<g style="fill:#000000; fill-opacity:1.0; 
stroke:#000000; stroke-width:39.3701; stroke-opacity:1; 
stroke-linecap:round; stroke-linejoin:round;">
</g>
<g style="fill:#000000; fill-opacity:1.0; 
stroke:#000000; stroke-width:0; stroke-opacity:1; 
stroke-linecap:round; stroke-linejoin:round;">
<circle cx="19277.6" cy="4444.33" r="370" /> 
</g>
<g style="fill:#000000; fill-opacity:1.0; 
stroke:#000000; stroke-width:39.3701; stroke-opacity:1; 
stroke-linecap:round; stroke-linejoin:round;">
</g>
<g style="fill:#000000; fill-opacity:1.0; 
stroke:#000000; stroke-width:0; stroke-opacity:1; 
stroke-linecap:round; stroke-linejoin:round;">
<circle cx="18277.6" cy="3444.33" r="370" /> 
</g>
<g style="fill:#000000; fill-opacity:1.0; 
stroke:#000000; stroke-width:39.3701; stroke-opacity:1; 
stroke-linecap:round; stroke-linejoin:round;">
</g>
<g style="fill:#000000; fill-opacity:1.0; 
stroke:#000000; stroke-width:0; stroke-opacity:1; 
stroke-linecap:round; stroke-linejoin:round;">
<circle cx="18277.6" cy="4444.33" r="370" /> 
</g>
<g style="fill:#000000; fill-opacity:1.0; 
stroke:#000000; stroke-width:39.3701; stroke-opacity:1; 
stroke-linecap:round; stroke-linejoin:round;">
</g>
<g style="fill:#000000; fill-opacity:1.0; 
stroke:#000000; stroke-width:0; stroke-opacity:1; 
stroke-linecap:round; stroke-linejoin:round;">
<circle cx="17277.6" cy="3444.33" r="370" /> 
</g>
<g style="fill:#000000; fill-opacity:1.0; 
stroke:#000000; stroke-width:39.3701; stroke-opacity:1; 
stroke-linecap:round; stroke-linejoin:round;">
</g>
<g style="fill:#000000; fill-opacity:1.0; 
stroke:#000000; stroke-width:0; stroke-opacity:1; 
stroke-linecap:round; stroke-linejoin:round;">
<circle cx="17277.6" cy="4444.33" r="370" /> 
</g>
<g style="fill:#000000; fill-opacity:1.0; 
stroke:#000000; stroke-width:39.3701; stroke-opacity:1; 
stroke-linecap:round; stroke-linejoin:round;">
</g>
<g style="fill:#000000; fill-opacity:1.0; 
stroke:#000000; stroke-width:0; stroke-opacity:1; 
stroke-linecap:round; stroke-linejoin:round;">
<circle cx="16277.6" cy="3444.33" r="370" /> 
</g>
<g style="fill:#000000; fill-opacity:1.0; 
stroke:#000000; stroke-width:39.3701; stroke-opacity:1; 
stroke-linecap:round; stroke-linejoin:round;">
</g>
<g style="fill:#000000; fill-opacity:1.0; 
stroke:#000000; stroke-width:0; stroke-opacity:1; 
stroke-linecap:round; stroke-linejoin:round;">
<circle cx="16277.6" cy="4444.33" r="370" /> 
</g>
<g style="fill:#000000; fill-opacity:1.0; 
stroke:#000000; stroke-width:39.3701; stroke-opacity:1; 
stroke-linecap:round; stroke-linejoin:round;">
</g>
<g style="fill:#000000; fill-opacity:1.0; 
stroke:#000000; stroke-width:0; stroke-opacity:1; 
stroke-linecap:round; stroke-linejoin:round;">
<circle cx="15277.6" cy="3444.33" r="370" /> 
</g>
<g style="fill:#000000; fill-opacity:1.0; 
stroke:#000000; stroke-width:39.3701; stroke-opacity:1; 
stroke-linecap:round; stroke-linejoin:round;">
</g>
<g style="fill:#000000; fill-opacity:1.0; 
stroke:#000000; stroke-width:0; stroke-opacity:1; 
stroke-linecap:round; stroke-linejoin:round;">
<circle cx="15277.6" cy="4444.33" r="370" /> 
</g>
<g style="fill:#000000; fill-opacity:1.0; 
stroke:#000000; stroke-width:39.3701; stroke-opacity:1; 
stroke-linecap:round; stroke-linejoin:round;">
</g>
<g style="fill:#000000; fill-opacity:1.0; 
stroke:#000000; stroke-width:0; stroke-opacity:1; 
stroke-linecap:round; stroke-linejoin:round;">
<circle cx="14277.6" cy="3444.33" r="370" /> 
</g>
<g style="fill:#000000; fill-opacity:1.0; 
stroke:#000000; stroke-width:39.3701; stroke-opacity:1; 
stroke-linecap:round; stroke-linejoin:round;">
</g>
<g style="fill:#000000; fill-opacity:1.0; 
stroke:#000000; stroke-width:0; stroke-opacity:1; 
stroke-linecap:round; stroke-linejoin:round;">
<circle cx="14277.6" cy="4444.33" r="370" /> 
</g>
<g style="fill:#000000; fill-opacity:1.0; 
stroke:#000000; stroke-width:39.3701; stroke-opacity:1; 
stroke-linecap:round; stroke-linejoin:round;">
</g>
<g style="fill:#000000; fill-opacity:1.0; 
stroke:#000000; stroke-width:0; stroke-opacity:1; 
stroke-linecap:round; stroke-linejoin:round;">
<circle cx="13277.6" cy="3444.33" r="370" /> 
</g>
<g style="fill:#000000; fill-opacity:1.0; 
stroke:#000000; stroke-width:39.3701; stroke-opacity:1; 
stroke-linecap:round; stroke-linejoin:round;">
</g>
<g style="fill:#000000; fill-opacity:1.0; 
stroke:#000000; stroke-width:0; stroke-opacity:1; 
stroke-linecap:round; stroke-linejoin:round;">
<circle cx="13277.6" cy="4444.33" r="370" /> 
</g>
<g style="fill:#000000; fill-opacity:1.0; 
stroke:#000000; stroke-width:39.3701; stroke-opacity:1; 
stroke-linecap:round; stroke-linejoin:round;">
</g>
<g style="fill:#000000; fill-opacity:1.0; 
stroke:#000000; stroke-width:0; stroke-opacity:1; 
stroke-linecap:round; stroke-linejoin:round;">
<circle cx="12277.6" cy="3444.33" r="370" /> 
</g>
<g style="fill:#000000; fill-opacity:1.0; 
stroke:#000000; stroke-width:39.3701; stroke-opacity:1; 
stroke-linecap:round; stroke-linejoin:round;">
</g>
<g style="fill:#000000; fill-opacity:1.0; 
stroke:#000000; stroke-width:0; stroke-opacity:1; 
stroke-linecap:round; stroke-linejoin:round;">
<circle cx="12277.6" cy="4444.33" r="370" /> 
</g>
<g style="fill:#000000; fill-opacity:1.0; 
stroke:#000000; stroke-width:39.3701; stroke-opacity:1; 
stroke-linecap:round; stroke-linejoin:round;">
</g>
<g style="fill:#000000; fill-opacity:1.0; 
stroke:#000000; stroke-width:0; stroke-opacity:1; 
stroke-linecap:round; stroke-linejoin:round;">
<circle cx="11277.6" cy="3444.33" r="370" /> 
</g>
<g style="fill:#000000; fill-opacity:1.0; 
stroke:#000000; stroke-width:39.3701; stroke-opacity:1; 
stroke-linecap:round; stroke-linejoin:round;">
</g>
<g style="fill:#000000; fill-opacity:1.0; 
stroke:#000000; stroke-width:0; stroke-opacity:1; 
stroke-linecap:round; stroke-linejoin:round;">
<circle cx="11277.6" cy="4444.33" r="370" /> 
</g>
<g style="fill:#000000; fill-opacity:1.0; 
stroke:#000000; stroke-width:39.3701; stroke-opacity:1; 
stroke-linecap:round; stroke-linejoin:round;">
</g>
<g style="fill:#000000; fill-opacity:1.0; 
stroke:#000000; stroke-width:0; stroke-opacity:1; 
stroke-linecap:round; stroke-linejoin:round;">
<circle cx="10277.6" cy="3444.33" r="370" /> 
</g>
<g style="fill:#000000; fill-opacity:1.0; 
stroke:#000000; stroke-width:39.3701; stroke-opacity:1; 
stroke-linecap:round; stroke-linejoin:round;">
</g>
<g style="fill:#000000; fill-opacity:1.0; 
stroke:#000000; stroke-width:0; stroke-opacity:1; 
stroke-linecap:round; stroke-linejoin:round;">
<circle cx="10277.6" cy="4444.33" r="370" /> 
</g>
<g style="fill:#000000; fill-opacity:1.0; 
stroke:#000000; stroke-width:39.3701; stroke-opacity:1; 
stroke-linecap:round; stroke-linejoin:round;">
</g>
<g style="fill:#000000; fill-opacity:1.0; 
stroke:#000000; stroke-width:0; stroke-opacity:1; 
stroke-linecap:round; stroke-linejoin:round;">
<circle cx="9277.56" cy="3444.33" r="370" /> 
</g>
<g style="fill:#000000; fill-opacity:1.0; 
stroke:#000000; stroke-width:39.3701; stroke-opacity:1; 
stroke-linecap:round; stroke-linejoin:round;">
</g>
<g style="fill:#000000; fill-opacity:1.0; 
stroke:#000000; stroke-width:0; stroke-opacity:1; 
stroke-linecap:round; stroke-linejoin:round;">
<circle cx="9277.56" cy="4444.33" r="370" /> 
</g>
<g style="fill:#000000; fill-opacity:1.0; 
stroke:#000000; stroke-width:39.3701; stroke-opacity:1; 
stroke-linecap:round; stroke-linejoin:round;">
</g>
<g style="fill:#000000; fill-opacity:1.0; 
stroke:#000000; stroke-width:0; stroke-opacity:1; 
stroke-linecap:round; stroke-linejoin:round;">
<circle cx="8277.56" cy="3444.33" r="370" /> 
</g>
<g style="fill:#000000; fill-opacity:1.0; 
stroke:#000000; stroke-width:39.3701; stroke-opacity:1; 
stroke-linecap:round; stroke-linejoin:round;">
</g>
<g style="fill:#000000; fill-opacity:1.0; 
stroke:#000000; stroke-width:0; stroke-opacity:1; 
stroke-linecap:round; stroke-linejoin:round;">
<circle cx="8277.56" cy="4444.33" r="370" /> 
</g>
<g style="fill:#000000; fill-opacity:1.0; 
stroke:#000000; stroke-width:39.3701; stroke-opacity:1; 
stroke-linecap:round; stroke-linejoin:round;">
</g>
<g style="fill:#000000; fill-opacity:1.0; 
stroke:#000000; stroke-width:0; stroke-opacity:1; 
stroke-linecap:round; stroke-linejoin:round;">
<circle cx="7277.56" cy="3444.33" r="370" /> 
</g>
<g style="fill:#000000; fill-opacity:1.0; 
stroke:#000000; stroke-width:39.3701; stroke-opacity:1; 
stroke-linecap:round; stroke-linejoin:round;">
</g>
<g style="fill:#000000; fill-opacity:1.0; 
stroke:#000000; stroke-width:0; stroke-opacity:1; 
stroke-linecap:round; stroke-linejoin:round;">
<circle cx="7277.56" cy="4444.33" r="370" /> 
</g>
<g style="fill:#000000; fill-opacity:1.0; 
stroke:#000000; stroke-width:39.3701; stroke-opacity:1; 
stroke-linecap:round; stroke-linejoin:round;">
</g>
<g style="fill:#000000; fill-opacity:1.0; 
stroke:#000000; stroke-width:0; stroke-opacity:1; 
stroke-linecap:round; stroke-linejoin:round;">
<circle cx="6277.56" cy="3444.33" r="370" /> 
</g>
<g style="fill:#000000; fill-opacity:1.0; 
stroke:#000000; stroke-width:39.3701; stroke-opacity:1; 
stroke-linecap:round; stroke-linejoin:round;">
</g>
<g style="fill:#000000; fill-opacity:1.0; 
stroke:#000000; stroke-width:0; stroke-opacity:1; 
stroke-linecap:round; stroke-linejoin:round;">
<circle cx="6277.56" cy="4444.33" r="370" /> 
</g>
<g style="fill:#000000; fill-opacity:1.0; 
stroke:#000000; stroke-width:39.3701; stroke-opacity:1; 
stroke-linecap:round; stroke-linejoin:round;">
</g>
<g style="fill:#000000; fill-opacity:1.0; 
stroke:#000000; stroke-width:0; stroke-opacity:1; 
stroke-linecap:round; stroke-linejoin:round;">
<circle cx="5277.56" cy="3444.33" r="370" /> 
</g>
<g style="fill:#000000; fill-opacity:1.0; 
stroke:#000000; stroke-width:39.3701; stroke-opacity:1; 
stroke-linecap:round; stroke-linejoin:round;">
</g>
<g style="fill:#000000; fill-opacity:1.0; 
stroke:#000000; stroke-width:0; stroke-opacity:1; 
stroke-linecap:round; stroke-linejoin:round;">
<circle cx="5277.56" cy="4444.33" r="370" /> 
</g>
<g style="fill:#000000; fill-opacity:1.0; 
stroke:#000000; stroke-width:39.3701; stroke-opacity:1; 
stroke-linecap:round; stroke-linejoin:round;">
</g>
<g style="fill:#000000; fill-opacity:1.0; 
stroke:#000000; stroke-width:0; stroke-opacity:1; 
stroke-linecap:round; stroke-linejoin:round;">
<circle cx="4277.56" cy="3444.33" r="370" /> 
</g>
<g style="fill:#000000; fill-opacity:1.0; 
stroke:#000000; stroke-width:39.3701; stroke-opacity:1; 
stroke-linecap:round; stroke-linejoin:round;">
</g>
<g style="fill:#000000; fill-opacity:1.0; 
stroke:#000000; stroke-width:0; stroke-opacity:1; 
stroke-linecap:round; stroke-linejoin:round;">
<circle cx="4277.56" cy="4444.33" r="370" /> 
</g>
<g style="fill:#000000; fill-opacity:1.0; 
stroke:#000000; stroke-width:39.3701; stroke-opacity:1; 
stroke-linecap:round; stroke-linejoin:round;">
</g>
<g style="fill:#000000; fill-opacity:1.0; 
stroke:#000000; stroke-width:0; stroke-opacity:1; 
stroke-linecap:round; stroke-linejoin:round;">
<circle cx="3277.56" cy="3444.33" r="370" /> 
</g>
<g style="fill:#000000; fill-opacity:1.0; 
stroke:#000000; stroke-width:39.3701; stroke-opacity:1; 
stroke-linecap:round; stroke-linejoin:round;">
</g>
<g style="fill:#000000; fill-opacity:1.0; 
stroke:#000000; stroke-width:0; stroke-opacity:1; 
stroke-linecap:round; stroke-linejoin:round;">
<circle cx="3277.56" cy="4444.33" r="370" /> 
</g>
<g style="fill:#000000; fill-opacity:1.0; 
stroke:#000000; stroke-width:39.3701; stroke-opacity:1; 
stroke-linecap:round; stroke-linejoin:round;">
</g>
<g style="fill:#000000; fill-opacity:1.0; 
stroke:#000000; stroke-width:0; stroke-opacity:1; 
stroke-linecap:round; stroke-linejoin:round;">
<circle cx="9297.24" cy="7979.76" r="370" /> 
</g>
<g style="fill:#000000; fill-opacity:1.0; 
stroke:#000000; stroke-width:39.3701; stroke-opacity:1; 
stroke-linecap:round; stroke-linejoin:round;">
</g>
<g style="fill:#000000; fill-opacity:1.0; 
stroke:#000000; stroke-width:0; stroke-opacity:1; 
stroke-linecap:round; stroke-linejoin:round;">
<circle cx="9297.24" cy="8979.76" r="370" /> 
</g>
<g style="fill:#000000; fill-opacity:1.0; 
stroke:#000000; stroke-width:39.3701; stroke-opacity:1; 
stroke-linecap:round; stroke-linejoin:round;">
</g>
<g style="fill:#000000; fill-opacity:1.0; 
stroke:#000000; stroke-width:0; stroke-opacity:1; 
stroke-linecap:round; stroke-linejoin:round;">
<circle cx="8297.24" cy="7979.76" r="370" /> 
</g>
<g style="fill:#000000; fill-opacity:1.0; 
stroke:#000000; stroke-width:39.3701; stroke-opacity:1; 
stroke-linecap:round; stroke-linejoin:round;">
</g>
<g style="fill:#000000; fill-opacity:1.0; 
stroke:#000000; stroke-width:0; stroke-opacity:1; 
stroke-linecap:round; stroke-linejoin:round;">
<circle cx="8297.24" cy="8979.76" r="370" /> 
</g>
<g style="fill:#000000; fill-opacity:1.0; 
stroke:#000000; stroke-width:39.3701; stroke-opacity:1; 
stroke-linecap:round; stroke-linejoin:round;">
</g>
<g style="fill:#000000; fill-opacity:1.0; 
stroke:#000000; stroke-width:0; stroke-opacity:1; 
stroke-linecap:round; stroke-linejoin:round;">
<circle cx="7297.24" cy="7979.76" r="370" /> 
</g>
<g style="fill:#000000; fill-opacity:1.0; 
stroke:#000000; stroke-width:39.3701; stroke-opacity:1; 
stroke-linecap:round; stroke-linejoin:round;">
</g>
<g style="fill:#000000; fill-opacity:1.0; 
stroke:#000000; stroke-width:0; stroke-opacity:1; 
stroke-linecap:round; stroke-linejoin:round;">
<circle cx="7297.24" cy="8979.76" r="370" /> 
</g>
<g style="fill:#000000; fill-opacity:1.0; 
stroke:#000000; stroke-width:39.3701; stroke-opacity:1; 
stroke-linecap:round; stroke-linejoin:round;">
</g>
<g style="fill:#000000; fill-opacity:1.0; 
stroke:#000000; stroke-width:0; stroke-opacity:1; 
stroke-linecap:round; stroke-linejoin:round;">
<circle cx="9297.24" cy="15066.4" r="370" /> 
</g>
<g style="fill:#000000; fill-opacity:1.0; 
stroke:#000000; stroke-width:39.3701; stroke-opacity:1; 
stroke-linecap:round; stroke-linejoin:round;">
</g>
<g style="fill:#000000; fill-opacity:1.0; 
stroke:#000000; stroke-width:0; stroke-opacity:1; 
stroke-linecap:round; stroke-linejoin:round;">
<circle cx="9297.24" cy="16066.4" r="370" /> 
</g>
<g style="fill:#000000; fill-opacity:1.0; 
stroke:#000000; stroke-width:39.3701; stroke-opacity:1; 
stroke-linecap:round; stroke-linejoin:round;">
</g>
<g style="fill:#000000; fill-opacity:1.0; 
stroke:#000000; stroke-width:0; stroke-opacity:1; 
stroke-linecap:round; stroke-linejoin:round;">
<circle cx="8297.24" cy="15066.4" r="370" /> 
</g>
<g style="fill:#000000; fill-opacity:1.0; 
stroke:#000000; stroke-width:39.3701; stroke-opacity:1; 
stroke-linecap:round; stroke-linejoin:round;">
</g>
<g style="fill:#000000; fill-opacity:1.0; 
stroke:#000000; stroke-width:0; stroke-opacity:1; 
stroke-linecap:round; stroke-linejoin:round;">
<circle cx="8297.24" cy="16066.4" r="370" /> 
</g>
<g style="fill:#000000; fill-opacity:1.0; 
stroke:#000000; stroke-width:39.3701; stroke-opacity:1; 
stroke-linecap:round; stroke-linejoin:round;">
</g>
<g style="fill:#000000; fill-opacity:1.0; 
stroke:#000000; stroke-width:0; stroke-opacity:1; 
stroke-linecap:round; stroke-linejoin:round;">
<circle cx="7297.24" cy="15066.4" r="370" /> 
</g>
<g style="fill:#000000; fill-opacity:1.0; 
stroke:#000000; stroke-width:39.3701; stroke-opacity:1; 
stroke-linecap:round; stroke-linejoin:round;">
</g>
<g style="fill:#000000; fill-opacity:1.0; 
stroke:#000000; stroke-width:0; stroke-opacity:1; 
stroke-linecap:round; stroke-linejoin:round;">
<circle cx="7297.24" cy="16066.4" r="370" /> 
</g>
<g style="fill:#000000; fill-opacity:1.0; 
stroke:#000000; stroke-width:39.3701; stroke-opacity:1; 
stroke-linecap:round; stroke-linejoin:round;">
</g>
<g style="fill:#000000; fill-opacity:1.0; 
stroke:#000000; stroke-width:0; stroke-opacity:1; 
stroke-linecap:round; stroke-linejoin:round;">
<circle cx="20309.5" cy="22511.5" r="370" /> 
</g>
<g style="fill:#000000; fill-opacity:1.0; 
stroke:#000000; stroke-width:39.3701; stroke-opacity:1; 
stroke-linecap:round; stroke-linejoin:round;">
</g>
<g style="fill:#000000; fill-opacity:1.0; 
stroke:#000000; stroke-width:0; stroke-opacity:1; 
stroke-linecap:round; stroke-linejoin:round;">
<circle cx="17749.5" cy="22511.5" r="370" /> 
</g>
<g style="fill:#000000; fill-opacity:1.0; 
stroke:#000000; stroke-width:39.3701; stroke-opacity:1; 
stroke-linecap:round; stroke-linejoin:round;">
</g>
<g style="fill:#000000; fill-opacity:1.0; 
stroke:#000000; stroke-width:0; stroke-opacity:1; 
stroke-linecap:round; stroke-linejoin:round;">
<circle cx="20309.5" cy="20731.5" r="370" /> 
</g>
<g style="fill:#000000; fill-opacity:1.0; 
stroke:#000000; stroke-width:39.3701; stroke-opacity:1; 
stroke-linecap:round; stroke-linejoin:round;">
</g>
<g style="fill:#000000; fill-opacity:1.0; 
stroke:#000000; stroke-width:0; stroke-opacity:1; 
stroke-linecap:round; stroke-linejoin:round;">
<circle cx="17749.5" cy="20731.5" r="370" /> 
</g>
<g style="fill:#000000; fill-opacity:1.0; 
stroke:#000000; stroke-width:39.3701; stroke-opacity:1; 
stroke-linecap:round; stroke-linejoin:round;">
</g>
<g style="fill:#000000; fill-opacity:1.0; 
stroke:#000000; stroke-width:0; stroke-opacity:1; 
stroke-linecap:round; stroke-linejoin:round;">
<circle cx="20309.5" cy="17011.5" r="370" /> 
</g>
<g style="fill:#000000; fill-opacity:1.0; 
stroke:#000000; stroke-width:39.3701; stroke-opacity:1; 
stroke-linecap:round; stroke-linejoin:round;">
</g>
<g style="fill:#000000; fill-opacity:1.0; 
stroke:#000000; stroke-width:0; stroke-opacity:1; 
stroke-linecap:round; stroke-linejoin:round;">
<circle cx="17749.5" cy="17011.5" r="370" /> 
</g>
<g style="fill:#000000; fill-opacity:1.0; 
stroke:#000000; stroke-width:39.3701; stroke-opacity:1; 
stroke-linecap:round; stroke-linejoin:round;">
</g>
<g style="fill:#000000; fill-opacity:1.0; 
stroke:#000000; stroke-width:0; stroke-opacity:1; 
stroke-linecap:round; stroke-linejoin:round;">
<circle cx="20309.5" cy="15231.5" r="370" /> 
</g>
<g style="fill:#000000; fill-opacity:1.0; 
stroke:#000000; stroke-width:39.3701; stroke-opacity:1; 
stroke-linecap:round; stroke-linejoin:round;">
</g>
<g style="fill:#000000; fill-opacity:1.0; 
stroke:#000000; stroke-width:0; stroke-opacity:1; 
stroke-linecap:round; stroke-linejoin:round;">
<circle cx="17749.5" cy="15231.5" r="370" /> 
</g>
<g style="fill:#000000; fill-opacity:1.0; 
stroke:#000000; stroke-width:39.3701; stroke-opacity:1; 
stroke-linecap:round; stroke-linejoin:round;">
</g>
<g style="fill:#000000; fill-opacity:1.0; 
stroke:#000000; stroke-width:0; stroke-opacity:1; 
stroke-linecap:round; stroke-linejoin:round;">
<circle cx="16029.5" cy="20121.5" r="400" /> 
</g>
<g style="fill:#000000; fill-opacity:1.0; 
stroke:#000000; stroke-width:39.3701; stroke-opacity:1; 
stroke-linecap:round; stroke-linejoin:round;">
</g>
<g style="fill:#000000; fill-opacity:1.0; 
stroke:#000000; stroke-width:0; stroke-opacity:1; 
stroke-linecap:round; stroke-linejoin:round;">
<circle cx="16029.5" cy="23121.5" r="400" /> 
</g>
<g style="fill:#000000; fill-opacity:1.0; 
stroke:#000000; stroke-width:39.3701; stroke-opacity:1; 
stroke-linecap:round; stroke-linejoin:round;">
</g>
<g style="fill:#000000; fill-opacity:1.0; 
stroke:#000000; stroke-width:0; stroke-opacity:1; 
stroke-linecap:round; stroke-linejoin:round;">
<circle cx="16029.5" cy="14621.5" r="400" /> 
</g>
<g style="fill:#000000; fill-opacity:1.0; 
stroke:#000000; stroke-width:39.3701; stroke-opacity:1; 
stroke-linecap:round; stroke-linejoin:round;">
</g>
<g style="fill:#000000; fill-opacity:1.0; 
stroke:#000000; stroke-width:0; stroke-opacity:1; 
stroke-linecap:round; stroke-linejoin:round;">
<circle cx="16029.5" cy="17621.5" r="400" /> 
</g>
<g style="fill:#000000; fill-opacity:1.0; 
stroke:#000000; stroke-width:39.3701; stroke-opacity:1; 
stroke-linecap:round; stroke-linejoin:round;">
</g>
<g style="fill:#000000; fill-opacity:1.0; 
stroke:#000000; stroke-width:0; stroke-opacity:1; 
stroke-linecap:round; stroke-linejoin:round;">
<circle cx="23529.5" cy="20621.5" r="370" /> 
</g>
<g style="fill:#000000; fill-opacity:1.0; 
stroke:#000000; stroke-width:39.3701; stroke-opacity:1; 
stroke-linecap:round; stroke-linejoin:round;">
</g>
<g style="fill:#000000; fill-opacity:1.0; 
stroke:#000000; stroke-width:0; stroke-opacity:1; 
stroke-linecap:round; stroke-linejoin:round;">
<circle cx="23529.5" cy="19621.5" r="370" /> 
</g>
<g style="fill:#000000; fill-opacity:1.0; 
stroke:#000000; stroke-width:39.3701; stroke-opacity:1; 
stroke-linecap:round; stroke-linejoin:round;">
</g>
<g style="fill:#000000; fill-opacity:1.0; 
stroke:#000000; stroke-width:0; stroke-opacity:1; 
stroke-linecap:round; stroke-linejoin:round;">
<circle cx="23529.5" cy="17621.5" r="400" /> 
</g>
<g style="fill:#000000; fill-opacity:1.0; 
stroke:#000000; stroke-width:39.3701; stroke-opacity:1; 
stroke-linecap:round; stroke-linejoin:round;">
</g>
<g style="fill:#000000; fill-opacity:1.0; 
stroke:#000000; stroke-width:0; stroke-opacity:1; 
stroke-linecap:round; stroke-linejoin:round;">
<circle cx="23529.5" cy="14621.5" r="400" /> 
</g>
<g style="fill:#000000; fill-opacity:1.0; 
stroke:#000000; stroke-width:39.3701; stroke-opacity:1; 
stroke-linecap:round; stroke-linejoin:round;">
</g>
<g style="fill:#000000; fill-opacity:1.0; 
stroke:#000000; stroke-width:100; stroke-opacity:1; 
stroke-linecap:round; stroke-linejoin:round;">
</g>
<g style="fill:#000000; fill-opacity:0.0; 
stroke:#000000; stroke-width:100; stroke-opacity:1; 
stroke-linecap:round; stroke-linejoin:round;">
<path d="M8277 3444
L7797 3924
" />
<path d="M6797 4245
L6797 4253
" />
<path d="M6797 4253
L6779 4271
" />
<path d="M7118 3924
L6797 4245
" />
<path d="M7797 3924
L7118 3924
" />
<path d="M6779 4271
L6779 4871
" />
<path d="M6779 4871
L9379 7471
" />
<path d="M9379 7471
L9529 7471
" />
<path d="M9529 7471
L9779 7721
" />
<path d="M9779 7721
L9779 8521
" />
<path d="M9779 8521
L9321 8979
" />
<path d="M9321 8979
L9297 8979
" />
<path d="M9297 8979
L9297 14339
" />
<path d="M9297 14339
L9779 14821
" />
<path d="M9779 15584
L9297 16066
" />
<path d="M9779 14821
L9779 15584
" />
</g>
<g style="fill:#000000; fill-opacity:0.0; 
stroke:#000000; stroke-width:160; stroke-opacity:1; 
stroke-linecap:round; stroke-linejoin:round;">
<path d="M10277 4444
L11029 5196
" />
<path d="M11029 5196
L11029 13121
" />
<path d="M11029 13121
L11529 13621
" />
<path d="M22529 13621
L23529 14621
" />
<path d="M11529 13621
L22529 13621
" />
<path d="M17139 14621
L16029 14621
" />
<path d="M17749 15231
L17139 14621
" />
<path d="M16029 14621
L11529 14621
" />
<path d="M11529 14621
L10529 13621
" />
<path d="M10529 5696
L9277 4444
" />
<path d="M10529 13621
L10529 5696
" />
<path d="M8277 4444
L10029 6196
" />
<path d="M10029 15121
L10529 15621
" />
<path d="M10529 15621
L14529 15621
" />
<path d="M14529 15621
L15029 16121
" />
<path d="M15029 16121
L15029 19121
" />
<path d="M15029 19121
L16029 20121
" />
<path d="M10029 6196
L10029 15121
" />
<path d="M17749 20731
L17139 20121
" />
<path d="M17139 20121
L16029 20121
" />
</g>
<g style="fill:#000000; fill-opacity:0.0; 
stroke:#000000; stroke-width:100; stroke-opacity:1; 
stroke-linecap:round; stroke-linejoin:round;">
<path d="M6277 4444
L6277 4719
" />
<path d="M9297 7739
L9297 7979
" />
<path d="M6277 4719
L9297 7739
" />
<path d="M9297 7979
L9297 8321
" />
<path d="M9276 8321
L8779 8818
" />
<path d="M9297 8321
L9276 8321
" />
<path d="M8779 14548
L9297 15066
" />
<path d="M8779 8818
L8779 14548
" />
<path d="M8297 8004
L7804 8497
" />
<path d="M7804 8497
L7804 14596
" />
<path d="M7804 14596
L8274 15066
" />
<path d="M8274 15066
L8297 15066
" />
<path d="M8297 7979
L8297 8004
" />
<path d="M4277 4444
L4954 5121
" />
<path d="M4954 5121
L5979 5121
" />
<path d="M5979 5121
L8297 7439
" />
<path d="M8297 7439
L8297 7979
" />
<path d="M8789 8479
L8297 8971
" />
<path d="M8297 8971
L8297 8979
" />
<path d="M8297 8979
L8297 14364
" />
<path d="M8804 15559
L8297 16066
" />
<path d="M8297 14364
L8804 14871
" />
<path d="M8804 14871
L8804 15559
" />
<path d="M8789 7771
L8789 8479
" />
<path d="M5652 4444
L8789 7581
" />
<path d="M8789 7581
L8789 7771
" />
<path d="M5277 4444
L5652 4444
" />
</g>
<g style="fill:#000000; fill-opacity:0.0; 
stroke:#000000; stroke-width:160; stroke-opacity:1; 
stroke-linecap:round; stroke-linejoin:round;">
<path d="M23529 17621
L23529 19621
" />
</g>
<g style="fill:#000000; fill-opacity:1.0; 
stroke:#000000; stroke-width:60; stroke-opacity:1; 
stroke-linecap:round; stroke-linejoin:round;">
<polyline style="fill-rule:evenodd;"
points="24577,2415
24714,2440
24847,2482
24973,2539
25092,2611
25202,2696
25300,2795
25386,2904
25458,3023
25515,3150
25556,3283
25581,3419
25590,3559
25590,23439
25581,23579
25556,23715
25515,23848
25458,23975
25386,24094
25300,24203
25202,24301
25092,24387
24973,24459
24847,24516
24714,24557
24577,24583
24438,24591
1211,24591
1071,24583
935,24557
802,24516
675,24459
556,24387
447,24301
349,24203
263,24094
191,23975
134,23848
93,23715
67,23579
59,23439
59,23241
196,23241
196,23245
205,23387
205,23391
231,23531
232,23535
274,23671
275,23674
334,23804
335,23807
409,23930
411,23932
499,24045
502,24047
603,24148
605,24151
718,24239
721,24241
843,24315
846,24316
976,24375
979,24376
1115,24418
1119,24419
1259,24445
1263,24445
1405,24454
1409,24454
1551,24445
1555,24445
1695,24419
1699,24418
1835,24376
1838,24375
1968,24316
1971,24315
2093,24241
2096,24239
2209,24151
2211,24148
2312,24047
2315,24045
2403,23932
2405,23930
2478,23807
2480,23804
2539,23674
2540,23671
2582,23535
2583,23531
2594,23471
15693,23471
15736,23541
15824,23590
15919,23621
16019,23633
16119,23625
16215,23598
16305,23552
16322,23541
16365,23471
16029,23135
15693,23471
2594,23471
2609,23391
2609,23387
2618,23245
2618,23241
2610,23111
15517,23111
15525,23211
15552,23307
15598,23397
15609,23414
15679,23457
16015,23121
16043,23121
16379,23457
16449,23414
16498,23326
16526,23241
23031,23241
23031,23245
23039,23387
23040,23391
23065,23531
23066,23535
23109,23671
23110,23674
23168,23804
23170,23807
23244,23930
23246,23932
23334,24045
23336,24047
23437,24148
23440,24151
23552,24239
23555,24241
23677,24315
23680,24316
23810,24375
23814,24376
23950,24418
23954,24419
24094,24445
24097,24445
24240,24454
24243,24454
24386,24445
24389,24445
24530,24419
24533,24418
24669,24376
24673,24375
24803,24316
24806,24315
24928,24241
24931,24239
25043,24151
25046,24148
25147,24047
25149,24045
25237,23932
25239,23930
25313,23807
25315,23804
25373,23674
25375,23671
25417,23535
25418,23531
25444,23391
25444,23387
25453,23245
25453,23241
25444,23099
25444,23095
25418,22955
25417,22951
25375,22815
25373,22812
25315,22682
25313,22679
25239,22557
25237,22554
25149,22441
25147,22439
25046,22338
25043,22335
24931,22247
24928,22245
24806,22172
24803,22170
24673,22111
24669,22110
24533,22068
24530,22067
24389,22041
24386,22041
24243,22032
24240,22032
24097,22041
24094,22041
23954,22067
23950,22068
23814,22110
23810,22111
23680,22170
23677,22172
23555,22245
23552,22247
23440,22335
23437,22338
23336,22439
23334,22441
23246,22554
23244,22557
23170,22679
23168,22682
23110,22812
23109,22815
23066,22951
23065,22955
23040,23095
23039,23099
23031,23241
16526,23241
16529,23231
16541,23131
16533,23031
16506,22935
16460,22845
16449,22828
16379,22785
16043,23121
16015,23121
15679,22785
15609,22828
15560,22916
15529,23011
15517,23111
2610,23111
2609,23099
2609,23095
2583,22955
2582,22951
2540,22815
2539,22812
2520,22771
15693,22771
16029,23107
16365,22771
16322,22701
16234,22652
16139,22621
16039,22609
15939,22617
15843,22644
15753,22690
15736,22701
15693,22771
2520,22771
2480,22682
2478,22679
2405,22557
2403,22554
2334,22466
17289,22466
17289,22556
17307,22645
17341,22729
17392,22804
17456,22868
17531,22919
17615,22953
17704,22971
17794,22971
17883,22953
17967,22919
18042,22868
18106,22804
18157,22729
18191,22645
18209,22556
18209,22466
19849,22466
19849,22556
19867,22645
19901,22729
19952,22804
20016,22868
20091,22919
20175,22953
20264,22971
20354,22971
20443,22953
20527,22919
20602,22868
20666,22804
20717,22729
20751,22645
20769,22556
20769,22466
20751,22377
20717,22293
20666,22218
20602,22154
20527,22103
20443,22069
20354,22051
20264,22051
20175,22069
20091,22103
20016,22154
19952,22218
19901,22293
19867,22377
19849,22466
18209,22466
18191,22377
18157,22293
18106,22218
18042,22154
17967,22103
17883,22069
17794,22051
17704,22051
17615,22069
17531,22103
17456,22154
17392,22218
17341,22293
17307,22377
17289,22466
2334,22466
2315,22441
2312,22439
2211,22338
2209,22335
2096,22247
2093,22245
1971,22172
1968,22170
1838,22111
1835,22110
1699,22068
1695,22067
1555,22041
1551,22041
1409,22032
1405,22032
1263,22041
1259,22041
1119,22067
1115,22068
979,22110
976,22111
846,22170
843,22172
721,22245
718,22247
605,22335
603,22338
502,22439
499,22441
411,22554
409,22557
335,22679
334,22682
275,22812
274,22815
232,22951
231,22955
205,23095
205,23099
196,23241
59,23241
59,17339
68,17257
95,17180
139,17111
196,17053
264,17011
426,16974
1604,16974
1607,16974
1695,16964
1701,16962
1785,16933
1791,16930
1865,16883
1871,16879
1933,16817
1937,16812
1984,16737
1987,16732
1988,16728
2027,16557
2028,16550
2028,16021
6837,16021
6837,16111
6854,16200
6889,16284
6939,16359
7004,16423
7079,16474
7163,16508
7251,16526
7342,16526
7431,16508
7515,16474
7590,16423
7654,16359
7704,16284
7739,16200
7757,16111
7757,16021
7739,15932
7704,15848
7654,15773
7590,15709
7515,15658
7431,15624
7342,15606
7251,15606
7163,15624
7079,15658
7004,15709
6939,15773
6889,15848
6854,15932
6837,16021
2028,16021
2028,15394
6982,15394
7021,15462
7104,15508
7194,15537
7288,15548
7382,15540
7473,15515
7557,15472
7572,15462
7611,15394
7297,15080
6982,15394
2028,15394
2028,15057
6815,15057
6822,15151
6848,15242
6891,15326
6901,15341
6968,15380
7283,15066
7311,15066
7625,15380
7692,15341
7739,15259
7768,15169
7779,15075
7771,14981
7745,14890
7702,14806
7692,14791
7625,14751
7311,15066
7283,15066
6968,14751
6901,14791
6855,14873
6826,14963
6815,15057
2028,15057
2028,14738
6982,14738
7297,15052
7611,14738
7572,14670
7490,14624
7400,14595
7306,14584
7212,14591
7121,14617
7037,14660
7021,14670
6982,14738
2028,14738
2028,10645
2027,10641
2017,10554
2016,10547
1987,10464
1984,10458
1937,10383
1933,10378
1871,10316
1865,10311
1791,10265
1785,10262
1781,10261
1611,10222
1604,10221
131,10221
94,10211
69,10186
59,10149
59,8308
6982,8308
7021,8375
7104,8421
7194,8450
7288,8461
7382,8454
7473,8428
7557,8385
7572,8375
7611,8308
7297,7993
6982,8308
59,8308
59,7970
6815,7970
6822,8064
6848,8155
6891,8239
6901,8255
6968,8294
7283,7979
7311,7979
7625,8294
7692,8255
7739,8172
7768,8082
7779,7988
7771,7894
7745,7803
7702,7719
7692,7704
7625,7665
7311,7979
7283,7979
6968,7665
6901,7704
6855,7786
6826,7876
6815,7970
59,7970
59,7651
6982,7651
7297,7965
7611,7651
7572,7584
7490,7538
7400,7508
7306,7497
7212,7505
7121,7531
7037,7574
7021,7584
6982,7651
59,7651
59,3950
196,3950
196,3954
205,4096
205,4099
231,4240
232,4243
274,4379
275,4383
334,4513
335,4516
409,4638
411,4641
499,4753
502,4756
603,4857
605,4859
718,4947
721,4949
843,5023
846,5025
976,5083
979,5085
1115,5127
1119,5128
1259,5154
1263,5154
1405,5163
1409,5163
1551,5154
1555,5154
1695,5128
1699,5127
1835,5085
1838,5083
1968,5025
1971,5023
2093,4949
2096,4947
2209,4859
2211,4857
2296,4772
2963,4772
3002,4839
3084,4886
3174,4915
3268,4926
3362,4918
3453,4893
3537,4850
3552,4839
3591,4772
3277,4458
2963,4772
2296,4772
2312,4756
2315,4753
2403,4641
2405,4638
2478,4516
2480,4513
2515,4435
2795,4435
2803,4529
2828,4620
2871,4704
2881,4719
2949,4758
3263,4444
3291,4444
3605,4758
3673,4719
3719,4637
3748,4547
3759,4453
3755,4399
3817,4399
3817,4489
3835,4578
3869,4662
3920,4737
3984,4801
4059,4851
4143,4886
4232,4904
4322,4904
4411,4886
4489,4854
4850,5215
4855,5220
4860,5225
4860,5225
4874,5236
4876,5238
4900,5251
4927,5259
4947,5261
4947,5261
4954,5262
4961,5261
5921,5261
8157,7497
8157,7539
8079,7572
8004,7622
7939,7686
7889,7761
7854,7845
7837,7934
7837,8025
7854,8113
7889,8197
7896,8207
7710,8393
7705,8398
7700,8403
7700,8403
7699,8405
7687,8419
7674,8443
7666,8470
7664,8490
7664,8490
7663,8497
7664,8504
7664,8701
7654,8686
7590,8622
7515,8572
7431,8537
7342,8519
7251,8519
7163,8537
7079,8572
7004,8622
6939,8686
6889,8761
6854,8845
6837,8934
6837,9025
6854,9113
6889,9197
6939,9272
7004,9337
7079,9387
7163,9422
7251,9439
7342,9439
7431,9422
7515,9387
7590,9337
7654,9272
7664,9258
7664,14589
7663,14596
7666,14623
7674,14650
7679,14658
7687,14674
7705,14695
7710,14700
7880,14870
7854,14932
7837,15021
7837,15111
7854,15200
7889,15284
7939,15359
8004,15423
8079,15474
8163,15508
8251,15526
8342,15526
8431,15508
8515,15474
8590,15423
8654,15359
8664,15344
8664,15501
8509,15656
8431,15624
8342,15606
8251,15606
8163,15624
8079,15658
8004,15709
7939,15773
7889,15848
7854,15932
7837,16021
7837,16111
7854,16200
7889,16284
7939,16359
8004,16423
8079,16474
8163,16508
8251,16526
8342,16526
8431,16508
8515,16474
8590,16423
8654,16359
8704,16284
8739,16200
8757,16111
8757,16021
8739,15932
8707,15854
8898,15662
8904,15658
8908,15653
8908,15653
8921,15637
8929,15621
8934,15612
8939,15598
8942,15586
8942,15583
8944,15565
8944,15565
8945,15559
8944,15552
8944,15364
9004,15423
9079,15474
9163,15508
9251,15526
9342,15526
9431,15508
9515,15474
9590,15423
9639,15374
9639,15526
9509,15656
9431,15624
9342,15606
9251,15606
9163,15624
9079,15658
9004,15709
8939,15773
8889,15848
8854,15932
8837,16021
8837,16111
8854,16200
8889,16284
8939,16359
9004,16423
9079,16474
9163,16508
9251,16526
9342,16526
9431,16508
9515,16474
9590,16423
9654,16359
9704,16284
9739,16200
9757,16111
9757,16021
9739,15932
9707,15854
9873,15687
9879,15683
9896,15662
9909,15637
9917,15611
9919,15590
9919,15590
9920,15584
9919,15577
9919,15251
10403,15735
10408,15742
10434,15763
10464,15779
10496,15789
10529,15792
10537,15791
14459,15791
14859,16191
14859,19113
14858,19121
14861,19154
14864,19161
14871,19186
14887,19216
14908,19242
14915,19247
15584,19916
15558,19978
15539,20073
15539,20169
15558,20264
15595,20353
15648,20433
15717,20502
15797,20555
15886,20592
15981,20611
16077,20611
16172,20592
16261,20555
16341,20502
16410,20433
16463,20353
16489,20291
17069,20291
17327,20549
17307,20597
17289,20686
17289,20776
17307,20865
17341,20949
17392,21024
17456,21088
17531,21139
17615,21173
17704,21191
17794,21191
17883,21173
17967,21139
18042,21088
18106,21024
18157,20949
18191,20865
18209,20776
18209,20686
19849,20686
19849,20776
19867,20865
19901,20949
19952,21024
20016,21088
20091,21139
20175,21173
20264,21191
20354,21191
20443,21173
20527,21139
20602,21088
20666,21024
20717,20949
20751,20865
20769,20776
20769,20686
20751,20597
20743,20576
23069,20576
23069,20666
23087,20755
23121,20839
23172,20914
23236,20978
23311,21029
23395,21063
23484,21081
23574,21081
23663,21063
23747,21029
23822,20978
23886,20914
23937,20839
23971,20755
23989,20666
23989,20576
23971,20487
23937,20403
23886,20328
23822,20264
23747,20213
23663,20179
23574,20161
23484,20161
23395,20179
23311,20213
23236,20264
23172,20328
23121,20403
23087,20487
23069,20576
20743,20576
20717,20513
20666,20438
20602,20374
20527,20323
20443,20289
20354,20271
20264,20271
20175,20289
20091,20323
20016,20374
19952,20438
19901,20513
19867,20597
19849,20686
18209,20686
18191,20597
18157,20513
18106,20438
18042,20374
17967,20323
17883,20289
17794,20271
17704,20271
17615,20289
17567,20309
17265,20007
17260,20000
17234,19979
17204,19963
17172,19953
17147,19951
17139,19950
17131,19951
16489,19951
16463,19889
16410,19809
16341,19740
16261,19687
16172,19650
16077,19631
15981,19631
15886,19650
15824,19676
15199,19051
15199,17971
15693,17971
15736,18041
15824,18090
15919,18121
16019,18133
16119,18125
16215,18098
16305,18052
16322,18041
16365,17971
16029,17635
15693,17971
15199,17971
15199,17611
15517,17611
15525,17711
15552,17807
15598,17897
15609,17914
15679,17957
16015,17621
16043,17621
16379,17957
16449,17914
16498,17826
16529,17731
16541,17631
16536,17573
23039,17573
23039,17669
23058,17764
23095,17853
23148,17933
23217,18002
23297,18055
23359,18081
23359,19194
23311,19213
23236,19264
23172,19328
23121,19403
23087,19487
23069,19576
23069,19666
23087,19755
23121,19839
23172,19914
23236,19978
23311,20029
23395,20063
23484,20081
23574,20081
23663,20063
23747,20029
23822,19978
23886,19914
23937,19839
23971,19755
23989,19666
23989,19576
23971,19487
23937,19403
23886,19328
23822,19264
23747,19213
23699,19194
23699,18081
23761,18055
23841,18002
23910,17933
23963,17853
24000,17764
24019,17669
24019,17573
24000,17478
23963,17389
23910,17309
23841,17240
23761,17187
23672,17150
23577,17131
23481,17131
23386,17150
23297,17187
23217,17240
23148,17309
23095,17389
23058,17478
23039,17573
16536,17573
16533,17531
16506,17435
16460,17345
16449,17328
16379,17285
16043,17621
16015,17621
15679,17285
15609,17328
15560,17416
15529,17511
15517,17611
15199,17611
15199,17271
15693,17271
16029,17607
16365,17271
16322,17201
16234,17152
16139,17121
16039,17109
15939,17117
15843,17144
15753,17190
15736,17201
15693,17271
15199,17271
15199,16966
17289,16966
17289,17056
17307,17145
17341,17229
17392,17304
17456,17368
17531,17419
17615,17453
17704,17471
17794,17471
17883,17453
17967,17419
18042,17368
18106,17304
18157,17229
18191,17145
18209,17056
18209,16966
19849,16966
19849,17056
19867,17145
19901,17229
19952,17304
20016,17368
20091,17419
20175,17453
20264,17471
20354,17471
20443,17453
20527,17419
20602,17368
20666,17304
20717,17229
20751,17145
20769,17056
20769,16966
20751,16877
20717,16793
20666,16718
20602,16654
20527,16603
20443,16569
20354,16551
20264,16551
20175,16569
20091,16603
20016,16654
19952,16718
19901,16793
19867,16877
19849,16966
18209,16966
18191,16877
18157,16793
18106,16718
18042,16654
17967,16603
17883,16569
17794,16551
17704,16551
17615,16569
17531,16603
17456,16654
17392,16718
17341,16793
17307,16877
17289,16966
15199,16966
15199,16129
15200,16121
15197,16088
15187,16056
15171,16026
15150,16000
15143,15995
14655,15507
14650,15500
14624,15479
14594,15463
14562,15453
14537,15451
14529,15450
14521,15451
10599,15451
10199,15051
10199,6204
10200,6196
10199,6187
10199,6187
10197,6162
10187,6130
10171,6101
10150,6075
10143,6070
8700,4626
8719,4578
8737,4489
8737,4399
8817,4399
8817,4489
8835,4578
8869,4662
8920,4737
8984,4801
9059,4851
9143,4886
9232,4904
9322,4904
9411,4886
9459,4866
10359,5766
10359,13613
10358,13621
10359,13629
10361,13654
10371,13686
10387,13716
10408,13742
10415,13747
11403,14735
11408,14742
11434,14763
11464,14779
11486,14786
11496,14789
11499,14789
11521,14791
11521,14791
11529,14792
11537,14791
15569,14791
15595,14853
15648,14933
15717,15002
15797,15055
15886,15092
15981,15111
16077,15111
16172,15092
16261,15055
16341,15002
16410,14933
16463,14853
16489,14791
17069,14791
17327,15049
17307,15097
17289,15186
17289,15276
17307,15365
17341,15449
17392,15524
17456,15588
17531,15639
17615,15673
17704,15691
17794,15691
17883,15673
17967,15639
18042,15588
18106,15524
18157,15449
18191,15365
18209,15276
18209,15186
19849,15186
19849,15276
19867,15365
19901,15449
19952,15524
20016,15588
20091,15639
20175,15673
20264,15691
20354,15691
20443,15673
20527,15639
20602,15588
20666,15524
20717,15449
20751,15365
20769,15276
20769,15186
20751,15097
20717,15013
20666,14938
20602,14874
20527,14823
20443,14789
20354,14771
20264,14771
20175,14789
20091,14823
20016,14874
19952,14938
19901,15013
19867,15097
19849,15186
18209,15186
18191,15097
18157,15013
18106,14938
18042,14874
17967,14823
17883,14789
17794,14771
17704,14771
17615,14789
17567,14809
17265,14507
17260,14500
17234,14479
17204,14463
17172,14453
17147,14451
17139,14450
17131,14451
16489,14451
16463,14389
16410,14309
16341,14240
16261,14187
16172,14150
16077,14131
15981,14131
15886,14150
15797,14187
15717,14240
15648,14309
15595,14389
15569,14451
11599,14451
10699,13551
10699,5704
10700,5696
10697,5662
10687,5630
10671,5601
10650,5575
10643,5570
9700,4626
9719,4578
9737,4489
9737,4399
9817,4399
9817,4489
9835,4578
9869,4662
9920,4737
9984,4801
10059,4851
10143,4886
10232,4904
10322,4904
10411,4886
10459,4866
10859,5266
10859,13113
10858,13121
10861,13154
10871,13186
10887,13216
10908,13242
10915,13247
11403,13735
11408,13742
11434,13763
11464,13779
11496,13789
11529,13792
11537,13791
22459,13791
23084,14416
23058,14478
23039,14573
23039,14669
23058,14764
23095,14853
23148,14933
23217,15002
23297,15055
23386,15092
23481,15111
23577,15111
23672,15092
23761,15055
23841,15002
23910,14933
23963,14853
24000,14764
24019,14669
24019,14573
24000,14478
23963,14389
23910,14309
23841,14240
23761,14187
23672,14150
23577,14131
23481,14131
23386,14150
23324,14176
22655,13507
22650,13500
22624,13479
22594,13463
22562,13453
22537,13451
22529,13450
22521,13451
11599,13451
11199,13051
11199,5204
11200,5196
11197,5162
11187,5130
11181,5120
11171,5101
11150,5075
11143,5070
10846,4772
10963,4772
11002,4839
11084,4886
11174,4915
11268,4926
11362,4918
11453,4893
11537,4850
11552,4839
11591,4772
11277,4458
10963,4772
10846,4772
10700,4626
10719,4578
10737,4489
10737,4435
10795,4435
10803,4529
10828,4620
10871,4704
10881,4719
10949,4758
11263,4444
11291,4444
11605,4758
11673,4719
11719,4637
11748,4547
11759,4453
11755,4399
11817,4399
11817,4489
11835,4578
11869,4662
11920,4737
11984,4801
12059,4851
12143,4886
12232,4904
12322,4904
12411,4886
12495,4851
12570,4801
12634,4737
12685,4662
12719,4578
12737,4489
12737,4399
12817,4399
12817,4489
12835,4578
12869,4662
12920,4737
12984,4801
13059,4851
13143,4886
13232,4904
13322,4904
13411,4886
13495,4851
13570,4801
13634,4737
13685,4662
13719,4578
13737,4489
13737,4399
13817,4399
13817,4489
13835,4578
13869,4662
13920,4737
13984,4801
14059,4851
14143,4886
14232,4904
14322,4904
14411,4886
14495,4851
14570,4801
14634,4737
14685,4662
14719,4578
14737,4489
14737,4399
14817,4399
14817,4489
14835,4578
14869,4662
14920,4737
14984,4801
15059,4851
15143,4886
15232,4904
15322,4904
15411,4886
15495,4851
15570,4801
15634,4737
15685,4662
15719,4578
15737,4489
15737,4399
15817,4399
15817,4489
15835,4578
15869,4662
15920,4737
15984,4801
16059,4851
16143,4886
16232,4904
16322,4904
16411,4886
16495,4851
16570,4801
16634,4737
16685,4662
16719,4578
16737,4489
16737,4399
16817,4399
16817,4489
16835,4578
16869,4662
16920,4737
16984,4801
17059,4851
17143,4886
17232,4904
17322,4904
17411,4886
17495,4851
17570,4801
17634,4737
17685,4662
17719,4578
17737,4489
17737,4399
17817,4399
17817,4489
17835,4578
17869,4662
17920,4737
17984,4801
18059,4851
18143,4886
18232,4904
18322,4904
18411,4886
18495,4851
18570,4801
18634,4737
18685,4662
18719,4578
18737,4489
18737,4399
18817,4399
18817,4489
18835,4578
18869,4662
18920,4737
18984,4801
19059,4851
19143,4886
19232,4904
19322,4904
19411,4886
19495,4851
19570,4801
19634,4737
19685,4662
19719,4578
19737,4489
19737,4399
19817,4399
19817,4489
19835,4578
19869,4662
19920,4737
19984,4801
20059,4851
20143,4886
20232,4904
20322,4904
20411,4886
20495,4851
20570,4801
20634,4737
20685,4662
20719,4578
20737,4489
20737,4399
20817,4399
20817,4489
20835,4578
20869,4662
20920,4737
20984,4801
21059,4851
21143,4886
21232,4904
21322,4904
21411,4886
21495,4851
21570,4801
21634,4737
21685,4662
21719,4578
21737,4489
21737,4399
21817,4399
21817,4489
21835,4578
21869,4662
21920,4737
21984,4801
22059,4851
22143,4886
22232,4904
22322,4904
22411,4886
22495,4851
22570,4801
22634,4737
22685,4662
22719,4578
22737,4489
22737,4399
22719,4310
22685,4226
22634,4151
22570,4087
22495,4036
22411,4002
22322,3984
22232,3984
22143,4002
22059,4036
21984,4087
21920,4151
21869,4226
21835,4310
21817,4399
21737,4399
21719,4310
21685,4226
21634,4151
21570,4087
21495,4036
21411,4002
21322,3984
21232,3984
21143,4002
21059,4036
20984,4087
20920,4151
20869,4226
20835,4310
20817,4399
20737,4399
20719,4310
20685,4226
20634,4151
20570,4087
20495,4036
20411,4002
20322,3984
20232,3984
20143,4002
20059,4036
19984,4087
19920,4151
19869,4226
19835,4310
19817,4399
19737,4399
19719,4310
19685,4226
19634,4151
19570,4087
19495,4036
19411,4002
19322,3984
19232,3984
19143,4002
19059,4036
18984,4087
18920,4151
18869,4226
18835,4310
18817,4399
18737,4399
18719,4310
18685,4226
18634,4151
18570,4087
18495,4036
18411,4002
18322,3984
18232,3984
18143,4002
18059,4036
17984,4087
17920,4151
17869,4226
17835,4310
17817,4399
17737,4399
17719,4310
17685,4226
17634,4151
17570,4087
17495,4036
17411,4002
17322,3984
17232,3984
17143,4002
17059,4036
16984,4087
16920,4151
16869,4226
16835,4310
16817,4399
16737,4399
16719,4310
16685,4226
16634,4151
16570,4087
16495,4036
16411,4002
16322,3984
16232,3984
16143,4002
16059,4036
15984,4087
15920,4151
15869,4226
15835,4310
15817,4399
15737,4399
15719,4310
15685,4226
15634,4151
15570,4087
15495,4036
15411,4002
15322,3984
15232,3984
15143,4002
15059,4036
14984,4087
14920,4151
14869,4226
14835,4310
14817,4399
14737,4399
14719,4310
14685,4226
14634,4151
14570,4087
14495,4036
14411,4002
14322,3984
14232,3984
14143,4002
14059,4036
13984,4087
13920,4151
13869,4226
13835,4310
13817,4399
13737,4399
13719,4310
13685,4226
13634,4151
13570,4087
13495,4036
13411,4002
13322,3984
13232,3984
13143,4002
13059,4036
12984,4087
12920,4151
12869,4226
12835,4310
12817,4399
12737,4399
12719,4310
12685,4226
12634,4151
12570,4087
12495,4036
12411,4002
12322,3984
12232,3984
12143,4002
12059,4036
11984,4087
11920,4151
11869,4226
11835,4310
11817,4399
11755,4399
11751,4359
11726,4268
11683,4184
11673,4169
11605,4129
11291,4444
11263,4444
10949,4129
10881,4169
10835,4251
10806,4341
10795,4435
10737,4435
10737,4399
10719,4310
10685,4226
10634,4151
10599,4116
10963,4116
11277,4430
11591,4116
11552,4048
11470,4002
11380,3973
11286,3962
11192,3969
11101,3995
11017,4038
11002,4048
10963,4116
10599,4116
10570,4087
10495,4036
10411,4002
10322,3984
10232,3984
10143,4002
10059,4036
9984,4087
9920,4151
9869,4226
9835,4310
9817,4399
9737,4399
9719,4310
9685,4226
9634,4151
9570,4087
9495,4036
9411,4002
9322,3984
9232,3984
9143,4002
9059,4036
8984,4087
8920,4151
8869,4226
8835,4310
8817,4399
8737,4399
8719,4310
8685,4226
8634,4151
8570,4087
8495,4036
8411,4002
8322,3984
8232,3984
8143,4002
8059,4036
7984,4087
7920,4151
7869,4226
7835,4310
7817,4399
7817,4489
7835,4578
7869,4662
7920,4737
7984,4801
8059,4851
8143,4886
8232,4904
8322,4904
8411,4886
8459,4866
9859,6266
9859,7603
9633,7377
9629,7372
9607,7354
9583,7341
9556,7333
9536,7331
9536,7331
9529,7330
9522,7331
9437,7331
6919,4813
6919,4736
6920,4737
6984,4801
7059,4851
7143,4886
7232,4904
7322,4904
7411,4886
7495,4851
7570,4801
7634,4737
7685,4662
7719,4578
7737,4489
7737,4399
7719,4310
7685,4226
7634,4151
7570,4087
7536,4064
7790,4064
7797,4065
7804,4064
7804,4064
7825,4062
7851,4054
7875,4041
7897,4023
7901,4018
7969,3950
23031,3950
23031,3954
23039,4096
23040,4099
23065,4240
23066,4243
23109,4379
23110,4383
23168,4513
23170,4516
23244,4638
23246,4641
23334,4753
23336,4756
23437,4857
23440,4859
23552,4947
23555,4949
23677,5023
23680,5025
23810,5083
23814,5085
23950,5127
23954,5128
24094,5154
24097,5154
24240,5163
24243,5163
24386,5154
24389,5154
24530,5128
24533,5127
24669,5085
24673,5083
24803,5025
24806,5023
24928,4949
24931,4947
25043,4859
25046,4857
25147,4756
25149,4753
25237,4641
25239,4638
25313,4516
25315,4513
25373,4383
25375,4379
25417,4243
25418,4240
25444,4099
25444,4096
25453,3954
25453,3950
25444,3808
25444,3804
25418,3664
25417,3660
25375,3524
25373,3521
25315,3391
25313,3387
25239,3265
25237,3262
25149,3150
25147,3147
25046,3046
25043,3044
24931,2956
24928,2954
24806,2880
24803,2879
24673,2820
24669,2819
24533,2776
24530,2775
24389,2750
24386,2749
24243,2741
24240,2741
24097,2749
24094,2750
23954,2775
23950,2776
23814,2819
23810,2820
23680,2879
23677,2880
23555,2954
23552,2956
23440,3044
23437,3046
23336,3147
23334,3150
23246,3262
23244,3265
23170,3387
23168,3391
23110,3521
23109,3524
23066,3660
23065,3664
23040,3804
23039,3808
23031,3950
7969,3950
8065,3854
8143,3886
8232,3904
8322,3904
8411,3886
8495,3851
8570,3801
8634,3737
8685,3662
8719,3578
8737,3489
8737,3399
8817,3399
8817,3489
8835,3578
8869,3662
8920,3737
8984,3801
9059,3851
9143,3886
9232,3904
9322,3904
9411,3886
9495,3851
9570,3801
9634,3737
9685,3662
9719,3578
9737,3489
9737,3399
9817,3399
9817,3489
9835,3578
9869,3662
9920,3737
9984,3801
10059,3851
10143,3886
10232,3904
10322,3904
10411,3886
10495,3851
10570,3801
10634,3737
10685,3662
10719,3578
10737,3489
10737,3399
10817,3399
10817,3489
10835,3578
10869,3662
10920,3737
10984,3801
11059,3851
11143,3886
11232,3904
11322,3904
11411,3886
11495,3851
11570,3801
11634,3737
11685,3662
11719,3578
11737,3489
11737,3399
11817,3399
11817,3489
11835,3578
11869,3662
11920,3737
11984,3801
12059,3851
12143,3886
12232,3904
12322,3904
12411,3886
12495,3851
12570,3801
12634,3737
12685,3662
12719,3578
12737,3489
12737,3399
12817,3399
12817,3489
12835,3578
12869,3662
12920,3737
12984,3801
13059,3851
13143,3886
13232,3904
13322,3904
13411,3886
13495,3851
13570,3801
13634,3737
13685,3662
13719,3578
13737,3489
13737,3399
13817,3399
13817,3489
13835,3578
13869,3662
13920,3737
13984,3801
14059,3851
14143,3886
14232,3904
14322,3904
14411,3886
14495,3851
14570,3801
14634,3737
14685,3662
14719,3578
14737,3489
14737,3399
14817,3399
14817,3489
14835,3578
14869,3662
14920,3737
14984,3801
15059,3851
15143,3886
15232,3904
15322,3904
15411,3886
15495,3851
15570,3801
15634,3737
15685,3662
15719,3578
15737,3489
15737,3399
15817,3399
15817,3489
15835,3578
15869,3662
15920,3737
15984,3801
16059,3851
16143,3886
16232,3904
16322,3904
16411,3886
16495,3851
16570,3801
16634,3737
16685,3662
16719,3578
16737,3489
16737,3399
16817,3399
16817,3489
16835,3578
16869,3662
16920,3737
16984,3801
17059,3851
17143,3886
17232,3904
17322,3904
17411,3886
17495,3851
17570,3801
17634,3737
17685,3662
17719,3578
17737,3489
17737,3399
17817,3399
17817,3489
17835,3578
17869,3662
17920,3737
17984,3801
18059,3851
18143,3886
18232,3904
18322,3904
18411,3886
18495,3851
18570,3801
18634,3737
18685,3662
18719,3578
18737,3489
18737,3399
18817,3399
18817,3489
18835,3578
18869,3662
18920,3737
18984,3801
19059,3851
19143,3886
19232,3904
19322,3904
19411,3886
19495,3851
19570,3801
19634,3737
19685,3662
19719,3578
19737,3489
19737,3399
19817,3399
19817,3489
19835,3578
19869,3662
19920,3737
19984,3801
20059,3851
20143,3886
20232,3904
20322,3904
20411,3886
20495,3851
20570,3801
20634,3737
20685,3662
20719,3578
20737,3489
20737,3399
20817,3399
20817,3489
20835,3578
20869,3662
20920,3737
20984,3801
21059,3851
21143,3886
21232,3904
21322,3904
21411,3886
21495,3851
21570,3801
21634,3737
21685,3662
21719,3578
21737,3489
21737,3399
21817,3399
21817,3489
21835,3578
21869,3662
21920,3737
21984,3801
22059,3851
22143,3886
22232,3904
22322,3904
22411,3886
22495,3851
22570,3801
22634,3737
22685,3662
22719,3578
22737,3489
22737,3399
22719,3310
22685,3226
22634,3151
22570,3087
22495,3036
22411,3002
22322,2984
22232,2984
22143,3002
22059,3036
21984,3087
21920,3151
21869,3226
21835,3310
21817,3399
21737,3399
21719,3310
21685,3226
21634,3151
21570,3087
21495,3036
21411,3002
21322,2984
21232,2984
21143,3002
21059,3036
20984,3087
20920,3151
20869,3226
20835,3310
20817,3399
20737,3399
20719,3310
20685,3226
20634,3151
20570,3087
20495,3036
20411,3002
20322,2984
20232,2984
20143,3002
20059,3036
19984,3087
19920,3151
19869,3226
19835,3310
19817,3399
19737,3399
19719,3310
19685,3226
19634,3151
19570,3087
19495,3036
19411,3002
19322,2984
19232,2984
19143,3002
19059,3036
18984,3087
18920,3151
18869,3226
18835,3310
18817,3399
18737,3399
18719,3310
18685,3226
18634,3151
18570,3087
18495,3036
18411,3002
18322,2984
18232,2984
18143,3002
18059,3036
17984,3087
17920,3151
17869,3226
17835,3310
17817,3399
17737,3399
17719,3310
17685,3226
17634,3151
17570,3087
17495,3036
17411,3002
17322,2984
17232,2984
17143,3002
17059,3036
16984,3087
16920,3151
16869,3226
16835,3310
16817,3399
16737,3399
16719,3310
16685,3226
16634,3151
16570,3087
16495,3036
16411,3002
16322,2984
16232,2984
16143,3002
16059,3036
15984,3087
15920,3151
15869,3226
15835,3310
15817,3399
15737,3399
15719,3310
15685,3226
15634,3151
15570,3087
15495,3036
15411,3002
15322,2984
15232,2984
15143,3002
15059,3036
14984,3087
14920,3151
14869,3226
14835,3310
14817,3399
14737,3399
14719,3310
14685,3226
14634,3151
14570,3087
14495,3036
14411,3002
14322,2984
14232,2984
14143,3002
14059,3036
13984,3087
13920,3151
13869,3226
13835,3310
13817,3399
13737,3399
13719,3310
13685,3226
13634,3151
13570,3087
13495,3036
13411,3002
13322,2984
13232,2984
13143,3002
13059,3036
12984,3087
12920,3151
12869,3226
12835,3310
12817,3399
12737,3399
12719,3310
12685,3226
12634,3151
12570,3087
12495,3036
12411,3002
12322,2984
12232,2984
12143,3002
12059,3036
11984,3087
11920,3151
11869,3226
11835,3310
11817,3399
11737,3399
11719,3310
11685,3226
11634,3151
11570,3087
11495,3036
11411,3002
11322,2984
11232,2984
11143,3002
11059,3036
10984,3087
10920,3151
10869,3226
10835,3310
10817,3399
10737,3399
10719,3310
10685,3226
10634,3151
10570,3087
10495,3036
10411,3002
10322,2984
10232,2984
10143,3002
10059,3036
9984,3087
9920,3151
9869,3226
9835,3310
9817,3399
9737,3399
9719,3310
9685,3226
9634,3151
9570,3087
9495,3036
9411,3002
9322,2984
9232,2984
9143,3002
9059,3036
8984,3087
8920,3151
8869,3226
8835,3310
8817,3399
8737,3399
8719,3310
8685,3226
8634,3151
8570,3087
8495,3036
8411,3002
8322,2984
8232,2984
8143,3002
8059,3036
7984,3087
7920,3151
7869,3226
7835,3310
7817,3399
7817,3489
7835,3578
7867,3656
7739,3784
7588,3784
7634,3737
7685,3662
7719,3578
7737,3489
7737,3399
7719,3310
7685,3226
7634,3151
7570,3087
7495,3036
7411,3002
7322,2984
7232,2984
7143,3002
7059,3036
6984,3087
6920,3151
6869,3226
6835,3310
6817,3399
6817,3489
6835,3578
6869,3662
6920,3737
6984,3801
7019,3824
7014,3830
6703,4141
6698,4146
6680,4167
6674,4178
6662,4192
6634,4151
6570,4087
6495,4036
6411,4002
6322,3984
6232,3984
6143,4002
6059,4036
5984,4087
5920,4151
5869,4226
5835,4310
5817,4399
5817,4411
5756,4350
5751,4344
5730,4327
5722,4323
5719,4310
5685,4226
5634,4151
5570,4087
5495,4036
5411,4002
5322,3984
5232,3984
5143,4002
5059,4036
4984,4087
4920,4151
4869,4226
4835,4310
4817,4399
4817,4489
4835,4578
4869,4662
4920,4737
4984,4801
5059,4851
5143,4886
5232,4904
5322,4904
5411,4886
5495,4851
5570,4801
5634,4737
5680,4669
5992,4982
5986,4981
5986,4981
5979,4980
5972,4981
5012,4981
4687,4656
4719,4578
4737,4489
4737,4399
4719,4310
4685,4226
4634,4151
4570,4087
4495,4036
4411,4002
4322,3984
4232,3984
4143,4002
4059,4036
3984,4087
3920,4151
3869,4226
3835,4310
3817,4399
3755,4399
3751,4359
3726,4268
3683,4184
3673,4169
3605,4129
3291,4444
3263,4444
2949,4129
2881,4169
2835,4251
2806,4341
2795,4435
2515,4435
2539,4383
2540,4379
2582,4243
2583,4240
2606,4116
2963,4116
3277,4430
3591,4116
3552,4048
3470,4002
3380,3973
3286,3962
3192,3969
3101,3995
3017,4038
3002,4048
2963,4116
2606,4116
2609,4099
2609,4096
2618,3954
2618,3950
2609,3808
2609,3804
2583,3664
2582,3660
2540,3524
2539,3521
2484,3399
2817,3399
2817,3489
2835,3578
2869,3662
2920,3737
2984,3801
3059,3851
3143,3886
3232,3904
3322,3904
3411,3886
3495,3851
3570,3801
3634,3737
3685,3662
3719,3578
3737,3489
3737,3399
3817,3399
3817,3489
3835,3578
3869,3662
3920,3737
3984,3801
4059,3851
4143,3886
4232,3904
4322,3904
4411,3886
4495,3851
4570,3801
4634,3737
4685,3662
4719,3578
4737,3489
4737,3399
4817,3399
4817,3489
4835,3578
4869,3662
4920,3737
4984,3801
5059,3851
5143,3886
5232,3904
5322,3904
5411,3886
5495,3851
5570,3801
5634,3737
5685,3662
5719,3578
5737,3489
5737,3399
5817,3399
5817,3489
5835,3578
5869,3662
5920,3737
5984,3801
6059,3851
6143,3886
6232,3904
6322,3904
6411,3886
6495,3851
6570,3801
6634,3737
6685,3662
6719,3578
6737,3489
6737,3399
6719,3310
6685,3226
6634,3151
6570,3087
6495,3036
6411,3002
6322,2984
6232,2984
6143,3002
6059,3036
5984,3087
5920,3151
5869,3226
5835,3310
5817,3399
5737,3399
5719,3310
5685,3226
5634,3151
5570,3087
5495,3036
5411,3002
5322,2984
5232,2984
5143,3002
5059,3036
4984,3087
4920,3151
4869,3226
4835,3310
4817,3399
4737,3399
4719,3310
4685,3226
4634,3151
4570,3087
4495,3036
4411,3002
4322,2984
4232,2984
4143,3002
4059,3036
3984,3087
3920,3151
3869,3226
3835,3310
3817,3399
3737,3399
3719,3310
3685,3226
3634,3151
3570,3087
3495,3036
3411,3002
3322,2984
3232,2984
3143,3002
3059,3036
2984,3087
2920,3151
2869,3226
2835,3310
2817,3399
2484,3399
2480,3391
2478,3387
2405,3265
2403,3262
2315,3150
2312,3147
2211,3046
2209,3044
2096,2956
2093,2954
1971,2880
1968,2879
1838,2820
1835,2819
1699,2776
1695,2775
1555,2750
1551,2749
1409,2741
1405,2741
1263,2749
1259,2750
1119,2775
1115,2776
979,2819
976,2820
846,2879
843,2880
721,2954
718,2956
605,3044
603,3046
502,3147
499,3150
411,3262
409,3265
335,3387
334,3391
275,3521
274,3524
232,3660
231,3664
205,3804
205,3808
196,3950
59,3950
59,3559
67,3419
93,3283
134,3150
191,3023
263,2904
349,2795
447,2696
556,2611
675,2539
802,2482
935,2440
1071,2415
1211,2407
24438,2407
24577,2415
" /> 
</g>
<g style="fill:#FFFFFF; fill-opacity:1.0; 
stroke:#FFFFFF; stroke-width:60; stroke-opacity:1; 
stroke-linecap:round; stroke-linejoin:round;">
</g>
<g style="fill:#FFFFFF; fill-opacity:1.0; 
stroke:#FFFFFF; stroke-width:0; stroke-opacity:1; 
stroke-linecap:round; stroke-linejoin:round;">
<circle cx="22277.6" cy="3444.33" r="200" /> 
</g>
<g style="fill:#FFFFFF; fill-opacity:1.0; 
stroke:#FFFFFF; stroke-width:39.3701; stroke-opacity:1; 
stroke-linecap:round; stroke-linejoin:round;">
</g>
<g style="fill:#FFFFFF; fill-opacity:1.0; 
stroke:#FFFFFF; stroke-width:0; stroke-opacity:1; 
stroke-linecap:round; stroke-linejoin:round;">
<circle cx="22277.6" cy="4444.33" r="200" /> 
</g>
<g style="fill:#FFFFFF; fill-opacity:1.0; 
stroke:#FFFFFF; stroke-width:39.3701; stroke-opacity:1; 
stroke-linecap:round; stroke-linejoin:round;">
</g>
<g style="fill:#FFFFFF; fill-opacity:1.0; 
stroke:#FFFFFF; stroke-width:0; stroke-opacity:1; 
stroke-linecap:round; stroke-linejoin:round;">
<circle cx="21277.6" cy="3444.33" r="200" /> 
</g>
<g style="fill:#FFFFFF; fill-opacity:1.0; 
stroke:#FFFFFF; stroke-width:39.3701; stroke-opacity:1; 
stroke-linecap:round; stroke-linejoin:round;">
</g>
<g style="fill:#FFFFFF; fill-opacity:1.0; 
stroke:#FFFFFF; stroke-width:0; stroke-opacity:1; 
stroke-linecap:round; stroke-linejoin:round;">
<circle cx="21277.6" cy="4444.33" r="200" /> 
</g>
<g style="fill:#FFFFFF; fill-opacity:1.0; 
stroke:#FFFFFF; stroke-width:39.3701; stroke-opacity:1; 
stroke-linecap:round; stroke-linejoin:round;">
</g>
<g style="fill:#FFFFFF; fill-opacity:1.0; 
stroke:#FFFFFF; stroke-width:0; stroke-opacity:1; 
stroke-linecap:round; stroke-linejoin:round;">
<circle cx="20277.6" cy="3444.33" r="200" /> 
</g>
<g style="fill:#FFFFFF; fill-opacity:1.0; 
stroke:#FFFFFF; stroke-width:39.3701; stroke-opacity:1; 
stroke-linecap:round; stroke-linejoin:round;">
</g>
<g style="fill:#FFFFFF; fill-opacity:1.0; 
stroke:#FFFFFF; stroke-width:0; stroke-opacity:1; 
stroke-linecap:round; stroke-linejoin:round;">
<circle cx="20277.6" cy="4444.33" r="200" /> 
</g>
<g style="fill:#FFFFFF; fill-opacity:1.0; 
stroke:#FFFFFF; stroke-width:39.3701; stroke-opacity:1; 
stroke-linecap:round; stroke-linejoin:round;">
</g>
<g style="fill:#FFFFFF; fill-opacity:1.0; 
stroke:#FFFFFF; stroke-width:0; stroke-opacity:1; 
stroke-linecap:round; stroke-linejoin:round;">
<circle cx="19277.6" cy="3444.33" r="200" /> 
</g>
<g style="fill:#FFFFFF; fill-opacity:1.0; 
stroke:#FFFFFF; stroke-width:39.3701; stroke-opacity:1; 
stroke-linecap:round; stroke-linejoin:round;">
</g>
<g style="fill:#FFFFFF; fill-opacity:1.0; 
stroke:#FFFFFF; stroke-width:0; stroke-opacity:1; 
stroke-linecap:round; stroke-linejoin:round;">
<circle cx="19277.6" cy="4444.33" r="200" /> 
</g>
<g style="fill:#FFFFFF; fill-opacity:1.0; 
stroke:#FFFFFF; stroke-width:39.3701; stroke-opacity:1; 
stroke-linecap:round; stroke-linejoin:round;">
</g>
<g style="fill:#FFFFFF; fill-opacity:1.0; 
stroke:#FFFFFF; stroke-width:0; stroke-opacity:1; 
stroke-linecap:round; stroke-linejoin:round;">
<circle cx="18277.6" cy="3444.33" r="200" /> 
</g>
<g style="fill:#FFFFFF; fill-opacity:1.0; 
stroke:#FFFFFF; stroke-width:39.3701; stroke-opacity:1; 
stroke-linecap:round; stroke-linejoin:round;">
</g>
<g style="fill:#FFFFFF; fill-opacity:1.0; 
stroke:#FFFFFF; stroke-width:0; stroke-opacity:1; 
stroke-linecap:round; stroke-linejoin:round;">
<circle cx="18277.6" cy="4444.33" r="200" /> 
</g>
<g style="fill:#FFFFFF; fill-opacity:1.0; 
stroke:#FFFFFF; stroke-width:39.3701; stroke-opacity:1; 
stroke-linecap:round; stroke-linejoin:round;">
</g>
<g style="fill:#FFFFFF; fill-opacity:1.0; 
stroke:#FFFFFF; stroke-width:0; stroke-opacity:1; 
stroke-linecap:round; stroke-linejoin:round;">
<circle cx="17277.6" cy="3444.33" r="200" /> 
</g>
<g style="fill:#FFFFFF; fill-opacity:1.0; 
stroke:#FFFFFF; stroke-width:39.3701; stroke-opacity:1; 
stroke-linecap:round; stroke-linejoin:round;">
</g>
<g style="fill:#FFFFFF; fill-opacity:1.0; 
stroke:#FFFFFF; stroke-width:0; stroke-opacity:1; 
stroke-linecap:round; stroke-linejoin:round;">
<circle cx="17277.6" cy="4444.33" r="200" /> 
</g>
<g style="fill:#FFFFFF; fill-opacity:1.0; 
stroke:#FFFFFF; stroke-width:39.3701; stroke-opacity:1; 
stroke-linecap:round; stroke-linejoin:round;">
</g>
<g style="fill:#FFFFFF; fill-opacity:1.0; 
stroke:#FFFFFF; stroke-width:0; stroke-opacity:1; 
stroke-linecap:round; stroke-linejoin:round;">
<circle cx="16277.6" cy="3444.33" r="200" /> 
</g>
<g style="fill:#FFFFFF; fill-opacity:1.0; 
stroke:#FFFFFF; stroke-width:39.3701; stroke-opacity:1; 
stroke-linecap:round; stroke-linejoin:round;">
</g>
<g style="fill:#FFFFFF; fill-opacity:1.0; 
stroke:#FFFFFF; stroke-width:0; stroke-opacity:1; 
stroke-linecap:round; stroke-linejoin:round;">
<circle cx="16277.6" cy="4444.33" r="200" /> 
</g>
<g style="fill:#FFFFFF; fill-opacity:1.0; 
stroke:#FFFFFF; stroke-width:39.3701; stroke-opacity:1; 
stroke-linecap:round; stroke-linejoin:round;">
</g>
<g style="fill:#FFFFFF; fill-opacity:1.0; 
stroke:#FFFFFF; stroke-width:0; stroke-opacity:1; 
stroke-linecap:round; stroke-linejoin:round;">
<circle cx="15277.6" cy="3444.33" r="200" /> 
</g>
<g style="fill:#FFFFFF; fill-opacity:1.0; 
stroke:#FFFFFF; stroke-width:39.3701; stroke-opacity:1; 
stroke-linecap:round; stroke-linejoin:round;">
</g>
<g style="fill:#FFFFFF; fill-opacity:1.0; 
stroke:#FFFFFF; stroke-width:0; stroke-opacity:1; 
stroke-linecap:round; stroke-linejoin:round;">
<circle cx="15277.6" cy="4444.33" r="200" /> 
</g>
<g style="fill:#FFFFFF; fill-opacity:1.0; 
stroke:#FFFFFF; stroke-width:39.3701; stroke-opacity:1; 
stroke-linecap:round; stroke-linejoin:round;">
</g>
<g style="fill:#FFFFFF; fill-opacity:1.0; 
stroke:#FFFFFF; stroke-width:0; stroke-opacity:1; 
stroke-linecap:round; stroke-linejoin:round;">
<circle cx="14277.6" cy="3444.33" r="200" /> 
</g>
<g style="fill:#FFFFFF; fill-opacity:1.0; 
stroke:#FFFFFF; stroke-width:39.3701; stroke-opacity:1; 
stroke-linecap:round; stroke-linejoin:round;">
</g>
<g style="fill:#FFFFFF; fill-opacity:1.0; 
stroke:#FFFFFF; stroke-width:0; stroke-opacity:1; 
stroke-linecap:round; stroke-linejoin:round;">
<circle cx="14277.6" cy="4444.33" r="200" /> 
</g>
<g style="fill:#FFFFFF; fill-opacity:1.0; 
stroke:#FFFFFF; stroke-width:39.3701; stroke-opacity:1; 
stroke-linecap:round; stroke-linejoin:round;">
</g>
<g style="fill:#FFFFFF; fill-opacity:1.0; 
stroke:#FFFFFF; stroke-width:0; stroke-opacity:1; 
stroke-linecap:round; stroke-linejoin:round;">
<circle cx="13277.6" cy="3444.33" r="200" /> 
</g>
<g style="fill:#FFFFFF; fill-opacity:1.0; 
stroke:#FFFFFF; stroke-width:39.3701; stroke-opacity:1; 
stroke-linecap:round; stroke-linejoin:round;">
</g>
<g style="fill:#FFFFFF; fill-opacity:1.0; 
stroke:#FFFFFF; stroke-width:0; stroke-opacity:1; 
stroke-linecap:round; stroke-linejoin:round;">
<circle cx="13277.6" cy="4444.33" r="200" /> 
</g>
<g style="fill:#FFFFFF; fill-opacity:1.0; 
stroke:#FFFFFF; stroke-width:39.3701; stroke-opacity:1; 
stroke-linecap:round; stroke-linejoin:round;">
</g>
<g style="fill:#FFFFFF; fill-opacity:1.0; 
stroke:#FFFFFF; stroke-width:0; stroke-opacity:1; 
stroke-linecap:round; stroke-linejoin:round;">
<circle cx="12277.6" cy="3444.33" r="200" /> 
</g>
<g style="fill:#FFFFFF; fill-opacity:1.0; 
stroke:#FFFFFF; stroke-width:39.3701; stroke-opacity:1; 
stroke-linecap:round; stroke-linejoin:round;">
</g>
<g style="fill:#FFFFFF; fill-opacity:1.0; 
stroke:#FFFFFF; stroke-width:0; stroke-opacity:1; 
stroke-linecap:round; stroke-linejoin:round;">
<circle cx="12277.6" cy="4444.33" r="200" /> 
</g>
<g style="fill:#FFFFFF; fill-opacity:1.0; 
stroke:#FFFFFF; stroke-width:39.3701; stroke-opacity:1; 
stroke-linecap:round; stroke-linejoin:round;">
</g>
<g style="fill:#FFFFFF; fill-opacity:1.0; 
stroke:#FFFFFF; stroke-width:0; stroke-opacity:1; 
stroke-linecap:round; stroke-linejoin:round;">
<circle cx="11277.6" cy="3444.33" r="200" /> 
</g>
<g style="fill:#FFFFFF; fill-opacity:1.0; 
stroke:#FFFFFF; stroke-width:39.3701; stroke-opacity:1; 
stroke-linecap:round; stroke-linejoin:round;">
</g>
<g style="fill:#FFFFFF; fill-opacity:1.0; 
stroke:#FFFFFF; stroke-width:0; stroke-opacity:1; 
stroke-linecap:round; stroke-linejoin:round;">
<circle cx="11277.6" cy="4444.33" r="200" /> 
</g>
<g style="fill:#FFFFFF; fill-opacity:1.0; 
stroke:#FFFFFF; stroke-width:39.3701; stroke-opacity:1; 
stroke-linecap:round; stroke-linejoin:round;">
</g>
<g style="fill:#FFFFFF; fill-opacity:1.0; 
stroke:#FFFFFF; stroke-width:0; stroke-opacity:1; 
stroke-linecap:round; stroke-linejoin:round;">
<circle cx="10277.6" cy="3444.33" r="200" /> 
</g>
<g style="fill:#FFFFFF; fill-opacity:1.0; 
stroke:#FFFFFF; stroke-width:39.3701; stroke-opacity:1; 
stroke-linecap:round; stroke-linejoin:round;">
</g>
<g style="fill:#FFFFFF; fill-opacity:1.0; 
stroke:#FFFFFF; stroke-width:0; stroke-opacity:1; 
stroke-linecap:round; stroke-linejoin:round;">
<circle cx="10277.6" cy="4444.33" r="200" /> 
</g>
<g style="fill:#FFFFFF; fill-opacity:1.0; 
stroke:#FFFFFF; stroke-width:39.3701; stroke-opacity:1; 
stroke-linecap:round; stroke-linejoin:round;">
</g>
<g style="fill:#FFFFFF; fill-opacity:1.0; 
stroke:#FFFFFF; stroke-width:0; stroke-opacity:1; 
stroke-linecap:round; stroke-linejoin:round;">
<circle cx="9277.56" cy="3444.33" r="200" /> 
</g>
<g style="fill:#FFFFFF; fill-opacity:1.0; 
stroke:#FFFFFF; stroke-width:39.3701; stroke-opacity:1; 
stroke-linecap:round; stroke-linejoin:round;">
</g>
<g style="fill:#FFFFFF; fill-opacity:1.0; 
stroke:#FFFFFF; stroke-width:0; stroke-opacity:1; 
stroke-linecap:round; stroke-linejoin:round;">
<circle cx="9277.56" cy="4444.33" r="200" /> 
</g>
<g style="fill:#FFFFFF; fill-opacity:1.0; 
stroke:#FFFFFF; stroke-width:39.3701; stroke-opacity:1; 
stroke-linecap:round; stroke-linejoin:round;">
</g>
<g style="fill:#FFFFFF; fill-opacity:1.0; 
stroke:#FFFFFF; stroke-width:0; stroke-opacity:1; 
stroke-linecap:round; stroke-linejoin:round;">
<circle cx="8277.56" cy="3444.33" r="200" /> 
</g>
<g style="fill:#FFFFFF; fill-opacity:1.0; 
stroke:#FFFFFF; stroke-width:39.3701; stroke-opacity:1; 
stroke-linecap:round; stroke-linejoin:round;">
</g>
<g style="fill:#FFFFFF; fill-opacity:1.0; 
stroke:#FFFFFF; stroke-width:0; stroke-opacity:1; 
stroke-linecap:round; stroke-linejoin:round;">
<circle cx="8277.56" cy="4444.33" r="200" /> 
</g>
<g style="fill:#FFFFFF; fill-opacity:1.0; 
stroke:#FFFFFF; stroke-width:39.3701; stroke-opacity:1; 
stroke-linecap:round; stroke-linejoin:round;">
</g>
<g style="fill:#FFFFFF; fill-opacity:1.0; 
stroke:#FFFFFF; stroke-width:0; stroke-opacity:1; 
stroke-linecap:round; stroke-linejoin:round;">
<circle cx="7277.56" cy="3444.33" r="200" /> 
</g>
<g style="fill:#FFFFFF; fill-opacity:1.0; 
stroke:#FFFFFF; stroke-width:39.3701; stroke-opacity:1; 
stroke-linecap:round; stroke-linejoin:round;">
</g>
<g style="fill:#FFFFFF; fill-opacity:1.0; 
stroke:#FFFFFF; stroke-width:0; stroke-opacity:1; 
stroke-linecap:round; stroke-linejoin:round;">
<circle cx="7277.56" cy="4444.33" r="200" /> 
</g>
<g style="fill:#FFFFFF; fill-opacity:1.0; 
stroke:#FFFFFF; stroke-width:39.3701; stroke-opacity:1; 
stroke-linecap:round; stroke-linejoin:round;">
</g>
<g style="fill:#FFFFFF; fill-opacity:1.0; 
stroke:#FFFFFF; stroke-width:0; stroke-opacity:1; 
stroke-linecap:round; stroke-linejoin:round;">
<circle cx="6277.56" cy="3444.33" r="200" /> 
</g>
<g style="fill:#FFFFFF; fill-opacity:1.0; 
stroke:#FFFFFF; stroke-width:39.3701; stroke-opacity:1; 
stroke-linecap:round; stroke-linejoin:round;">
</g>
<g style="fill:#FFFFFF; fill-opacity:1.0; 
stroke:#FFFFFF; stroke-width:0; stroke-opacity:1; 
stroke-linecap:round; stroke-linejoin:round;">
<circle cx="6277.56" cy="4444.33" r="200" /> 
</g>
<g style="fill:#FFFFFF; fill-opacity:1.0; 
stroke:#FFFFFF; stroke-width:39.3701; stroke-opacity:1; 
stroke-linecap:round; stroke-linejoin:round;">
</g>
<g style="fill:#FFFFFF; fill-opacity:1.0; 
stroke:#FFFFFF; stroke-width:0; stroke-opacity:1; 
stroke-linecap:round; stroke-linejoin:round;">
<circle cx="5277.56" cy="3444.33" r="200" /> 
</g>
<g style="fill:#FFFFFF; fill-opacity:1.0; 
stroke:#FFFFFF; stroke-width:39.3701; stroke-opacity:1; 
stroke-linecap:round; stroke-linejoin:round;">
</g>
<g style="fill:#FFFFFF; fill-opacity:1.0; 
stroke:#FFFFFF; stroke-width:0; stroke-opacity:1; 
stroke-linecap:round; stroke-linejoin:round;">
<circle cx="5277.56" cy="4444.33" r="200" /> 
</g>
<g style="fill:#FFFFFF; fill-opacity:1.0; 
stroke:#FFFFFF; stroke-width:39.3701; stroke-opacity:1; 
stroke-linecap:round; stroke-linejoin:round;">
</g>
<g style="fill:#FFFFFF; fill-opacity:1.0; 
stroke:#FFFFFF; stroke-width:0; stroke-opacity:1; 
stroke-linecap:round; stroke-linejoin:round;">
<circle cx="4277.56" cy="3444.33" r="200" /> 
</g>
<g style="fill:#FFFFFF; fill-opacity:1.0; 
stroke:#FFFFFF; stroke-width:39.3701; stroke-opacity:1; 
stroke-linecap:round; stroke-linejoin:round;">
</g>
<g style="fill:#FFFFFF; fill-opacity:1.0; 
stroke:#FFFFFF; stroke-width:0; stroke-opacity:1; 
stroke-linecap:round; stroke-linejoin:round;">
<circle cx="4277.56" cy="4444.33" r="200" /> 
</g>
<g style="fill:#FFFFFF; fill-opacity:1.0; 
stroke:#FFFFFF; stroke-width:39.3701; stroke-opacity:1; 
stroke-linecap:round; stroke-linejoin:round;">
</g>
<g style="fill:#FFFFFF; fill-opacity:1.0; 
stroke:#FFFFFF; stroke-width:0; stroke-opacity:1; 
stroke-linecap:round; stroke-linejoin:round;">
<circle cx="3277.56" cy="3444.33" r="200" /> 
</g>
<g style="fill:#FFFFFF; fill-opacity:1.0; 
stroke:#FFFFFF; stroke-width:39.3701; stroke-opacity:1; 
stroke-linecap:round; stroke-linejoin:round;">
</g>
<g style="fill:#FFFFFF; fill-opacity:1.0; 
stroke:#FFFFFF; stroke-width:0; stroke-opacity:1; 
stroke-linecap:round; stroke-linejoin:round;">
<circle cx="3277.56" cy="4444.33" r="200" /> 
</g>
<g style="fill:#FFFFFF; fill-opacity:1.0; 
stroke:#FFFFFF; stroke-width:39.3701; stroke-opacity:1; 
stroke-linecap:round; stroke-linejoin:round;">
</g>
<g style="fill:#FFFFFF; fill-opacity:1.0; 
stroke:#FFFFFF; stroke-width:0; stroke-opacity:1; 
stroke-linecap:round; stroke-linejoin:round;">
<circle cx="9297.24" cy="7979.76" r="200" /> 
</g>
<g style="fill:#FFFFFF; fill-opacity:1.0; 
stroke:#FFFFFF; stroke-width:39.3701; stroke-opacity:1; 
stroke-linecap:round; stroke-linejoin:round;">
</g>
<g style="fill:#FFFFFF; fill-opacity:1.0; 
stroke:#FFFFFF; stroke-width:0; stroke-opacity:1; 
stroke-linecap:round; stroke-linejoin:round;">
<circle cx="9297.24" cy="8979.76" r="200" /> 
</g>
<g style="fill:#FFFFFF; fill-opacity:1.0; 
stroke:#FFFFFF; stroke-width:39.3701; stroke-opacity:1; 
stroke-linecap:round; stroke-linejoin:round;">
</g>
<g style="fill:#FFFFFF; fill-opacity:1.0; 
stroke:#FFFFFF; stroke-width:0; stroke-opacity:1; 
stroke-linecap:round; stroke-linejoin:round;">
<circle cx="8297.24" cy="7979.76" r="200" /> 
</g>
<g style="fill:#FFFFFF; fill-opacity:1.0; 
stroke:#FFFFFF; stroke-width:39.3701; stroke-opacity:1; 
stroke-linecap:round; stroke-linejoin:round;">
</g>
<g style="fill:#FFFFFF; fill-opacity:1.0; 
stroke:#FFFFFF; stroke-width:0; stroke-opacity:1; 
stroke-linecap:round; stroke-linejoin:round;">
<circle cx="8297.24" cy="8979.76" r="200" /> 
</g>
<g style="fill:#FFFFFF; fill-opacity:1.0; 
stroke:#FFFFFF; stroke-width:39.3701; stroke-opacity:1; 
stroke-linecap:round; stroke-linejoin:round;">
</g>
<g style="fill:#FFFFFF; fill-opacity:1.0; 
stroke:#FFFFFF; stroke-width:0; stroke-opacity:1; 
stroke-linecap:round; stroke-linejoin:round;">
<circle cx="7297.24" cy="7979.76" r="200" /> 
</g>
<g style="fill:#FFFFFF; fill-opacity:1.0; 
stroke:#FFFFFF; stroke-width:39.3701; stroke-opacity:1; 
stroke-linecap:round; stroke-linejoin:round;">
</g>
<g style="fill:#FFFFFF; fill-opacity:1.0; 
stroke:#FFFFFF; stroke-width:0; stroke-opacity:1; 
stroke-linecap:round; stroke-linejoin:round;">
<circle cx="7297.24" cy="8979.76" r="200" /> 
</g>
<g style="fill:#FFFFFF; fill-opacity:1.0; 
stroke:#FFFFFF; stroke-width:39.3701; stroke-opacity:1; 
stroke-linecap:round; stroke-linejoin:round;">
</g>
<g style="fill:#FFFFFF; fill-opacity:1.0; 
stroke:#FFFFFF; stroke-width:0; stroke-opacity:1; 
stroke-linecap:round; stroke-linejoin:round;">
<circle cx="9297.24" cy="15066.4" r="200" /> 
</g>
<g style="fill:#FFFFFF; fill-opacity:1.0; 
stroke:#FFFFFF; stroke-width:39.3701; stroke-opacity:1; 
stroke-linecap:round; stroke-linejoin:round;">
</g>
<g style="fill:#FFFFFF; fill-opacity:1.0; 
stroke:#FFFFFF; stroke-width:0; stroke-opacity:1; 
stroke-linecap:round; stroke-linejoin:round;">
<circle cx="9297.24" cy="16066.4" r="200" /> 
</g>
<g style="fill:#FFFFFF; fill-opacity:1.0; 
stroke:#FFFFFF; stroke-width:39.3701; stroke-opacity:1; 
stroke-linecap:round; stroke-linejoin:round;">
</g>
<g style="fill:#FFFFFF; fill-opacity:1.0; 
stroke:#FFFFFF; stroke-width:0; stroke-opacity:1; 
stroke-linecap:round; stroke-linejoin:round;">
<circle cx="8297.24" cy="15066.4" r="200" /> 
</g>
<g style="fill:#FFFFFF; fill-opacity:1.0; 
stroke:#FFFFFF; stroke-width:39.3701; stroke-opacity:1; 
stroke-linecap:round; stroke-linejoin:round;">
</g>
<g style="fill:#FFFFFF; fill-opacity:1.0; 
stroke:#FFFFFF; stroke-width:0; stroke-opacity:1; 
stroke-linecap:round; stroke-linejoin:round;">
<circle cx="8297.24" cy="16066.4" r="200" /> 
</g>
<g style="fill:#FFFFFF; fill-opacity:1.0; 
stroke:#FFFFFF; stroke-width:39.3701; stroke-opacity:1; 
stroke-linecap:round; stroke-linejoin:round;">
</g>
<g style="fill:#FFFFFF; fill-opacity:1.0; 
stroke:#FFFFFF; stroke-width:0; stroke-opacity:1; 
stroke-linecap:round; stroke-linejoin:round;">
<circle cx="7297.24" cy="15066.4" r="200" /> 
</g>
<g style="fill:#FFFFFF; fill-opacity:1.0; 
stroke:#FFFFFF; stroke-width:39.3701; stroke-opacity:1; 
stroke-linecap:round; stroke-linejoin:round;">
</g>
<g style="fill:#FFFFFF; fill-opacity:1.0; 
stroke:#FFFFFF; stroke-width:0; stroke-opacity:1; 
stroke-linecap:round; stroke-linejoin:round;">
<circle cx="7297.24" cy="16066.4" r="200" /> 
</g>
<g style="fill:#FFFFFF; fill-opacity:1.0; 
stroke:#FFFFFF; stroke-width:39.3701; stroke-opacity:1; 
stroke-linecap:round; stroke-linejoin:round;">
</g>
<g style="fill:#FFFFFF; fill-opacity:1.0; 
stroke:#FFFFFF; stroke-width:0; stroke-opacity:1; 
stroke-linecap:round; stroke-linejoin:round;">
<circle cx="20309.5" cy="22511.5" r="200" /> 
</g>
<g style="fill:#FFFFFF; fill-opacity:1.0; 
stroke:#FFFFFF; stroke-width:39.3701; stroke-opacity:1; 
stroke-linecap:round; stroke-linejoin:round;">
</g>
<g style="fill:#FFFFFF; fill-opacity:1.0; 
stroke:#FFFFFF; stroke-width:0; stroke-opacity:1; 
stroke-linecap:round; stroke-linejoin:round;">
<circle cx="17749.5" cy="22511.5" r="200" /> 
</g>
<g style="fill:#FFFFFF; fill-opacity:1.0; 
stroke:#FFFFFF; stroke-width:39.3701; stroke-opacity:1; 
stroke-linecap:round; stroke-linejoin:round;">
</g>
<g style="fill:#FFFFFF; fill-opacity:1.0; 
stroke:#FFFFFF; stroke-width:0; stroke-opacity:1; 
stroke-linecap:round; stroke-linejoin:round;">
<circle cx="20309.5" cy="20731.5" r="200" /> 
</g>
<g style="fill:#FFFFFF; fill-opacity:1.0; 
stroke:#FFFFFF; stroke-width:39.3701; stroke-opacity:1; 
stroke-linecap:round; stroke-linejoin:round;">
</g>
<g style="fill:#FFFFFF; fill-opacity:1.0; 
stroke:#FFFFFF; stroke-width:0; stroke-opacity:1; 
stroke-linecap:round; stroke-linejoin:round;">
<circle cx="17749.5" cy="20731.5" r="200" /> 
</g>
<g style="fill:#FFFFFF; fill-opacity:1.0; 
stroke:#FFFFFF; stroke-width:39.3701; stroke-opacity:1; 
stroke-linecap:round; stroke-linejoin:round;">
</g>
<g style="fill:#FFFFFF; fill-opacity:1.0; 
stroke:#FFFFFF; stroke-width:0; stroke-opacity:1; 
stroke-linecap:round; stroke-linejoin:round;">
<circle cx="20309.5" cy="17011.5" r="200" /> 
</g>
<g style="fill:#FFFFFF; fill-opacity:1.0; 
stroke:#FFFFFF; stroke-width:39.3701; stroke-opacity:1; 
stroke-linecap:round; stroke-linejoin:round;">
</g>
<g style="fill:#FFFFFF; fill-opacity:1.0; 
stroke:#FFFFFF; stroke-width:0; stroke-opacity:1; 
stroke-linecap:round; stroke-linejoin:round;">
<circle cx="17749.5" cy="17011.5" r="200" /> 
</g>
<g style="fill:#FFFFFF; fill-opacity:1.0; 
stroke:#FFFFFF; stroke-width:39.3701; stroke-opacity:1; 
stroke-linecap:round; stroke-linejoin:round;">
</g>
<g style="fill:#FFFFFF; fill-opacity:1.0; 
stroke:#FFFFFF; stroke-width:0; stroke-opacity:1; 
stroke-linecap:round; stroke-linejoin:round;">
<circle cx="20309.5" cy="15231.5" r="200" /> 
</g>
<g style="fill:#FFFFFF; fill-opacity:1.0; 
stroke:#FFFFFF; stroke-width:39.3701; stroke-opacity:1; 
stroke-linecap:round; stroke-linejoin:round;">
</g>
<g style="fill:#FFFFFF; fill-opacity:1.0; 
stroke:#FFFFFF; stroke-width:0; stroke-opacity:1; 
stroke-linecap:round; stroke-linejoin:round;">
<circle cx="17749.5" cy="15231.5" r="200" /> 
</g>
<g style="fill:#FFFFFF; fill-opacity:1.0; 
stroke:#FFFFFF; stroke-width:39.3701; stroke-opacity:1; 
stroke-linecap:round; stroke-linejoin:round;">
</g>
<g style="fill:#FFFFFF; fill-opacity:1.0; 
stroke:#FFFFFF; stroke-width:0; stroke-opacity:1; 
stroke-linecap:round; stroke-linejoin:round;">
<circle cx="16029.5" cy="20121.5" r="200" /> 
</g>
<g style="fill:#FFFFFF; fill-opacity:1.0; 
stroke:#FFFFFF; stroke-width:39.3701; stroke-opacity:1; 
stroke-linecap:round; stroke-linejoin:round;">
</g>
<g style="fill:#FFFFFF; fill-opacity:1.0; 
stroke:#FFFFFF; stroke-width:0; stroke-opacity:1; 
stroke-linecap:round; stroke-linejoin:round;">
<circle cx="16029.5" cy="23121.5" r="200" /> 
</g>
<g style="fill:#FFFFFF; fill-opacity:1.0; 
stroke:#FFFFFF; stroke-width:39.3701; stroke-opacity:1; 
stroke-linecap:round; stroke-linejoin:round;">
</g>
<g style="fill:#FFFFFF; fill-opacity:1.0; 
stroke:#FFFFFF; stroke-width:0; stroke-opacity:1; 
stroke-linecap:round; stroke-linejoin:round;">
<circle cx="24241.7" cy="3950.79" r="541.338" /> 
</g>
<g style="fill:#FFFFFF; fill-opacity:1.0; 
stroke:#FFFFFF; stroke-width:39.3701; stroke-opacity:1; 
stroke-linecap:round; stroke-linejoin:round;">
</g>
<g style="fill:#FFFFFF; fill-opacity:1.0; 
stroke:#FFFFFF; stroke-width:0; stroke-opacity:1; 
stroke-linecap:round; stroke-linejoin:round;">
<circle cx="24241.7" cy="23242.1" r="541.338" /> 
</g>
<g style="fill:#FFFFFF; fill-opacity:1.0; 
stroke:#FFFFFF; stroke-width:39.3701; stroke-opacity:1; 
stroke-linecap:round; stroke-linejoin:round;">
</g>
<g style="fill:#FFFFFF; fill-opacity:1.0; 
stroke:#FFFFFF; stroke-width:0; stroke-opacity:1; 
stroke-linecap:round; stroke-linejoin:round;">
<circle cx="1407.05" cy="23242.1" r="541.338" /> 
</g>
<g style="fill:#FFFFFF; fill-opacity:1.0; 
stroke:#FFFFFF; stroke-width:39.3701; stroke-opacity:1; 
stroke-linecap:round; stroke-linejoin:round;">
</g>
<g style="fill:#FFFFFF; fill-opacity:1.0; 
stroke:#FFFFFF; stroke-width:0; stroke-opacity:1; 
stroke-linecap:round; stroke-linejoin:round;">
<circle cx="1407.05" cy="3950.79" r="541.338" /> 
</g>
<g style="fill:#FFFFFF; fill-opacity:1.0; 
stroke:#FFFFFF; stroke-width:39.3701; stroke-opacity:1; 
stroke-linecap:round; stroke-linejoin:round;">
</g>
<g style="fill:#FFFFFF; fill-opacity:1.0; 
stroke:#FFFFFF; stroke-width:0; stroke-opacity:1; 
stroke-linecap:round; stroke-linejoin:round;">
<circle cx="16029.5" cy="14621.5" r="200" /> 
</g>
<g style="fill:#FFFFFF; fill-opacity:1.0; 
stroke:#FFFFFF; stroke-width:39.3701; stroke-opacity:1; 
stroke-linecap:round; stroke-linejoin:round;">
</g>
<g style="fill:#FFFFFF; fill-opacity:1.0; 
stroke:#FFFFFF; stroke-width:0; stroke-opacity:1; 
stroke-linecap:round; stroke-linejoin:round;">
<circle cx="16029.5" cy="17621.5" r="200" /> 
</g>
<g style="fill:#FFFFFF; fill-opacity:1.0; 
stroke:#FFFFFF; stroke-width:39.3701; stroke-opacity:1; 
stroke-linecap:round; stroke-linejoin:round;">
</g>
<g style="fill:#FFFFFF; fill-opacity:1.0; 
stroke:#FFFFFF; stroke-width:0; stroke-opacity:1; 
stroke-linecap:round; stroke-linejoin:round;">
<circle cx="23529.5" cy="20621.5" r="160" /> 
</g>
<g style="fill:#FFFFFF; fill-opacity:1.0; 
stroke:#FFFFFF; stroke-width:39.3701; stroke-opacity:1; 
stroke-linecap:round; stroke-linejoin:round;">
</g>
<g style="fill:#FFFFFF; fill-opacity:1.0; 
stroke:#FFFFFF; stroke-width:0; stroke-opacity:1; 
stroke-linecap:round; stroke-linejoin:round;">
<circle cx="23529.5" cy="19621.5" r="160" /> 
</g>
<g style="fill:#FFFFFF; fill-opacity:1.0; 
stroke:#FFFFFF; stroke-width:39.3701; stroke-opacity:1; 
stroke-linecap:round; stroke-linejoin:round;">
</g>
<g style="fill:#FFFFFF; fill-opacity:1.0; 
stroke:#FFFFFF; stroke-width:0; stroke-opacity:1; 
stroke-linecap:round; stroke-linejoin:round;">
<circle cx="23529.5" cy="17621.5" r="200" /> 
</g>
<g style="fill:#FFFFFF; fill-opacity:1.0; 
stroke:#FFFFFF; stroke-width:39.3701; stroke-opacity:1; 
stroke-linecap:round; stroke-linejoin:round;">
</g>
<g style="fill:#FFFFFF; fill-opacity:1.0; 
stroke:#FFFFFF; stroke-width:0; stroke-opacity:1; 
stroke-linecap:round; stroke-linejoin:round;">
<circle cx="23529.5" cy="14621.5" r="200" /> 
</g>
<g style="fill:#FFFFFF; fill-opacity:1.0; 
stroke:#FFFFFF; stroke-width:39.3701; stroke-opacity:1; 
stroke-linecap:round; stroke-linejoin:round;">
</g>
<g style="fill:#000000; fill-opacity:1.0; 
stroke:#000000; stroke-width:39.3701; stroke-opacity:1; 
stroke-linecap:round; stroke-linejoin:round;">
</g> 
</svg>
